G04 #@! TF.FileFunction,Soldermask,Bot*
%FSLAX46Y46*%
G04 Gerber Fmt 4.6, Leading zero omitted, Abs format (unit mm)*
G04 Created by KiCad (PCBNEW 4.0.7-e2-6376~58~ubuntu16.04.1) date Sun Dec 31 02:53:24 2017*
%MOMM*%
%LPD*%
G01*
G04 APERTURE LIST*
%ADD10C,0.100000*%
%ADD11C,1.400000*%
%ADD12R,1.400000X1.400000*%
%ADD13R,2.200000X2.200000*%
%ADD14C,2.200000*%
%ADD15C,1.800000*%
%ADD16O,1.800000X1.800000*%
%ADD17C,2.100000*%
%ADD18R,2.100000X2.100000*%
%ADD19O,2.100000X2.100000*%
%ADD20C,2.178000*%
%ADD21R,2.900000X2.900000*%
%ADD22O,2.900000X2.900000*%
%ADD23C,1.924000*%
%ADD24R,2.000000X2.000000*%
%ADD25O,2.000000X2.000000*%
%ADD26O,2.200000X4.000000*%
%ADD27C,7.200000*%
G04 APERTURE END LIST*
D10*
D11*
X151270000Y-74270000D03*
X150000000Y-75540000D03*
D12*
X150000000Y-73000000D03*
D13*
X120000000Y-98000000D03*
D14*
X122540000Y-98000000D03*
D15*
X158000000Y-73000000D03*
D16*
X158000000Y-65380000D03*
D15*
X149000000Y-93000000D03*
D16*
X156620000Y-93000000D03*
D15*
X118000000Y-93000000D03*
D16*
X125620000Y-93000000D03*
D15*
X175000000Y-95000000D03*
D16*
X182620000Y-95000000D03*
D17*
X128500000Y-92500000D03*
X135000000Y-92500000D03*
X128500000Y-97000000D03*
X135000000Y-97000000D03*
X138500000Y-92500000D03*
X145000000Y-92500000D03*
X138500000Y-97000000D03*
X145000000Y-97000000D03*
D18*
X198000000Y-91000000D03*
D19*
X198000000Y-93540000D03*
D20*
X115000000Y-73762500D03*
X115000000Y-64237500D03*
X115000000Y-43237500D03*
X115000000Y-52762500D03*
D15*
X162000000Y-73000000D03*
D16*
X162000000Y-65380000D03*
D15*
X160000000Y-97000000D03*
D16*
X167620000Y-97000000D03*
D21*
X144000000Y-69000000D03*
D22*
X142000000Y-63000000D03*
X129800000Y-63000000D03*
X129800000Y-75000000D03*
X142000000Y-75000000D03*
D23*
X126760000Y-40380000D03*
X126760000Y-55620000D03*
X154700000Y-40380000D03*
X154700000Y-48000000D03*
D17*
X197430000Y-81240000D03*
X197430000Y-78700000D03*
X197430000Y-76160000D03*
X197430000Y-73620000D03*
X197430000Y-71080000D03*
X197430000Y-68540000D03*
X197430000Y-66000000D03*
X197430000Y-63460000D03*
X197430000Y-60920000D03*
X197430000Y-58380000D03*
X197430000Y-55840000D03*
X197430000Y-53300000D03*
X197430000Y-50760000D03*
X197430000Y-48220000D03*
X197430000Y-45680000D03*
X174570000Y-81240000D03*
X174570000Y-78700000D03*
X174570000Y-76160000D03*
X174570000Y-73620000D03*
X174570000Y-71080000D03*
X174570000Y-68540000D03*
X174570000Y-66000000D03*
X174570000Y-63460000D03*
X174570000Y-60920000D03*
X174570000Y-58380000D03*
X174570000Y-55840000D03*
X174570000Y-53300000D03*
X174570000Y-50760000D03*
X174570000Y-48220000D03*
X174570000Y-45680000D03*
D24*
X168000000Y-102000000D03*
D25*
X160380000Y-102000000D03*
D24*
X166000000Y-65000000D03*
D25*
X166000000Y-72620000D03*
D24*
X175000000Y-91000000D03*
D25*
X182620000Y-91000000D03*
D13*
X151000000Y-98000000D03*
D14*
X153540000Y-98000000D03*
D13*
X150000000Y-67000000D03*
D14*
X152540000Y-67000000D03*
D26*
X161500000Y-91900000D03*
X166500000Y-91900000D03*
X164000000Y-91900000D03*
D18*
X170000000Y-66000000D03*
D19*
X170000000Y-63460000D03*
X170000000Y-60920000D03*
X170000000Y-58380000D03*
X170000000Y-55840000D03*
D27*
X165000000Y-45000000D03*
X190000000Y-95000000D03*
M02*
