M48
INCH,TZ
T1C0.024
T2C0.028
T3C0.030
T4C0.031
T5C0.035
T6C0.039
T7C0.040
T8C0.047
T9C0.049
T10C0.051
T11C0.126
%
G90
G05
T1
X5.9055Y-2.874
X5.9055Y-2.974
X5.9555Y-2.924
T2
X4.6457Y-3.6614
X4.9457Y-3.6614
X5.8661Y-3.6614
X6.1661Y-3.6614
X6.2205Y-2.574
X6.2205Y-2.874
X6.2992Y-3.8189
X6.378Y-2.574
X6.378Y-2.874
X6.5992Y-3.8189
X6.8898Y-3.7402
X7.1898Y-3.7402
T3
X4.9906Y-1.5898
X4.9906Y-2.1898
X6.0906Y-1.5898
X6.0906Y-1.8898
T4
X6.3142Y-4.0157
X6.5354Y-2.5591
X6.5354Y-2.8591
X6.6142Y-4.0157
X6.8898Y-3.5827
X7.1898Y-3.5827
T5
X4.7244Y-3.8583
X4.8244Y-3.8583
X5.9055Y-2.6378
X5.9449Y-3.8583
X6.0055Y-2.6378
X6.0449Y-3.8583
T6
X5.0591Y-3.6417
X5.0591Y-3.8189
X5.315Y-3.6417
X5.315Y-3.8189
X5.4528Y-3.6417
X5.4528Y-3.8189
X5.7087Y-3.6417
X5.7087Y-3.8189
X6.6929Y-2.1984
X6.6929Y-2.2984
X6.6929Y-2.3984
X6.6929Y-2.4984
X6.6929Y-2.5984
X7.7953Y-3.5827
X7.7953Y-3.6827
T7
X4.5276Y-1.7023
X4.5276Y-2.0773
X4.5276Y-2.529
X4.5276Y-2.904
T8
X6.3583Y-3.6181
X6.4567Y-3.6181
X6.5551Y-3.6181
T9
X6.8728Y-1.7984
X6.8728Y-1.8984
X6.8728Y-1.9984
X6.8728Y-2.0984
X6.8728Y-2.1984
X6.8728Y-2.2984
X6.8728Y-2.3984
X6.8728Y-2.4984
X6.8728Y-2.5984
X6.8728Y-2.6984
X6.8728Y-2.7984
X6.8728Y-2.8984
X6.8728Y-2.9984
X6.8728Y-3.0984
X6.8728Y-3.1984
X7.7728Y-1.7984
X7.7728Y-1.8984
X7.7728Y-1.9984
X7.7728Y-2.0984
X7.7728Y-2.1984
X7.7728Y-2.2984
X7.7728Y-2.3984
X7.7728Y-2.4984
X7.7728Y-2.5984
X7.7728Y-2.6984
X7.7728Y-2.7984
X7.7728Y-2.8984
X7.7728Y-2.9984
X7.7728Y-3.0984
X7.7728Y-3.1984
T10
X5.1102Y-2.4803
X5.1102Y-2.9528
X5.5906Y-2.4803
X5.5906Y-2.9528
X5.6693Y-2.7165
T11
X6.4961Y-1.7717
X7.4803Y-3.7402
T0
M30
