G04 #@! TF.FileFunction,Soldermask,Top*
%FSLAX46Y46*%
G04 Gerber Fmt 4.6, Leading zero omitted, Abs format (unit mm)*
G04 Created by KiCad (PCBNEW 4.0.7-e2-6376~58~ubuntu16.04.1) date Mon Jan  1 18:29:55 2018*
%MOMM*%
%LPD*%
G01*
G04 APERTURE LIST*
%ADD10C,0.100000*%
%ADD11R,2.000000X2.000000*%
%ADD12O,2.000000X2.000000*%
%ADD13C,1.400000*%
%ADD14R,1.400000X1.400000*%
%ADD15R,2.200000X2.200000*%
%ADD16C,2.200000*%
%ADD17C,2.100000*%
%ADD18R,2.100000X2.100000*%
%ADD19O,2.100000X2.100000*%
%ADD20R,2.900000X2.900000*%
%ADD21O,2.900000X2.900000*%
%ADD22C,2.000000*%
%ADD23O,2.200000X4.000000*%
%ADD24C,3.956000*%
%ADD25C,2.900000*%
%ADD26C,1.924000*%
%ADD27C,7.200000*%
G04 APERTURE END LIST*
D10*
D11*
X160000000Y-64750000D03*
D12*
X160000000Y-72370000D03*
D13*
X165020000Y-66520000D03*
X163750000Y-67790000D03*
D14*
X163750000Y-65250000D03*
D15*
X120000000Y-98000000D03*
D16*
X122540000Y-98000000D03*
D17*
X128500000Y-92500000D03*
X135000000Y-92500000D03*
X128500000Y-97000000D03*
X135000000Y-97000000D03*
X138500000Y-92500000D03*
X145000000Y-92500000D03*
X138500000Y-97000000D03*
X145000000Y-97000000D03*
D18*
X198000000Y-91000000D03*
D19*
X198000000Y-93540000D03*
D20*
X144000000Y-69000000D03*
D21*
X142000000Y-63000000D03*
X129800000Y-63000000D03*
X129800000Y-75000000D03*
X142000000Y-75000000D03*
D17*
X197430000Y-81240000D03*
X197430000Y-78700000D03*
X197430000Y-76160000D03*
X197430000Y-73620000D03*
X197430000Y-71080000D03*
X197430000Y-68540000D03*
X197430000Y-66000000D03*
X197430000Y-63460000D03*
X197430000Y-60920000D03*
X197430000Y-58380000D03*
X197430000Y-55840000D03*
X197430000Y-53300000D03*
X197430000Y-50760000D03*
X197430000Y-48220000D03*
X197430000Y-45680000D03*
X174570000Y-81240000D03*
X174570000Y-78700000D03*
X174570000Y-76160000D03*
X174570000Y-73620000D03*
X174570000Y-71080000D03*
X174570000Y-68540000D03*
X174570000Y-66000000D03*
X174570000Y-63460000D03*
X174570000Y-60920000D03*
X174570000Y-58380000D03*
X174570000Y-55840000D03*
X174570000Y-53300000D03*
X174570000Y-50760000D03*
X174570000Y-48220000D03*
X174570000Y-45680000D03*
D11*
X168000000Y-102000000D03*
D12*
X160380000Y-102000000D03*
D11*
X175000000Y-91000000D03*
D12*
X182620000Y-91000000D03*
D15*
X151000000Y-98000000D03*
D16*
X153540000Y-98000000D03*
D15*
X150000000Y-67000000D03*
D16*
X152540000Y-67000000D03*
D18*
X169000000Y-66000000D03*
D19*
X169000000Y-63460000D03*
X169000000Y-60920000D03*
X169000000Y-58380000D03*
X169000000Y-55840000D03*
D22*
X174000000Y-95000000D03*
D12*
X184160000Y-95000000D03*
D22*
X156500000Y-75000000D03*
D12*
X156500000Y-64840000D03*
D22*
X160000000Y-97000000D03*
D12*
X170160000Y-97000000D03*
D22*
X149000000Y-93000000D03*
D12*
X159160000Y-93000000D03*
D22*
X115000000Y-93000000D03*
D12*
X125160000Y-93000000D03*
D23*
X162000000Y-91900000D03*
X167000000Y-91900000D03*
X164500000Y-91900000D03*
D24*
X169072000Y-84984000D03*
X159928000Y-84984000D03*
D25*
X126760000Y-40880000D03*
X126760000Y-56120000D03*
D26*
X154700000Y-40880000D03*
X154700000Y-48500000D03*
D22*
X179000000Y-101000000D03*
X174000000Y-101000000D03*
X182000000Y-101000000D03*
D12*
X192160000Y-101000000D03*
D27*
X165000000Y-45000000D03*
X190000000Y-95000000D03*
D18*
X161000000Y-54460000D03*
D19*
X163540000Y-54460000D03*
D18*
X161000000Y-58460000D03*
D19*
X163540000Y-58460000D03*
D25*
X115000000Y-73722500D03*
X115000000Y-64197500D03*
X115000000Y-43197500D03*
X115000000Y-52722500D03*
M02*
