G04 #@! TF.FileFunction,Legend,Bot*
%FSLAX46Y46*%
G04 Gerber Fmt 4.6, Leading zero omitted, Abs format (unit mm)*
G04 Created by KiCad (PCBNEW 4.0.7-e2-6376~58~ubuntu16.04.1) date Sun Dec 31 13:37:37 2017*
%MOMM*%
%LPD*%
G01*
G04 APERTURE LIST*
%ADD10C,0.100000*%
%ADD11C,0.200000*%
G04 APERTURE END LIST*
D10*
D11*
X138000000Y-86000000D02*
X138000000Y-85500000D01*
X106000000Y-86000000D02*
X108000000Y-86000000D01*
X108540000Y-86000000D02*
X110540000Y-86000000D01*
X111080000Y-86000000D02*
X113080000Y-86000000D01*
X113620000Y-86000000D02*
X115620000Y-86000000D01*
X116160000Y-86000000D02*
X118160000Y-86000000D01*
X118700000Y-86000000D02*
X120700000Y-86000000D01*
X121240000Y-86000000D02*
X123240000Y-86000000D01*
X123780000Y-86000000D02*
X125780000Y-86000000D01*
X126320000Y-86000000D02*
X128320000Y-86000000D01*
X128860000Y-86000000D02*
X130860000Y-86000000D01*
X131400000Y-86000000D02*
X133400000Y-86000000D01*
X133940000Y-86000000D02*
X135940000Y-86000000D01*
X137000000Y-86000000D02*
X138000000Y-86000000D01*
X137000000Y-86000000D02*
X138000000Y-86000000D01*
X133940000Y-86000000D02*
X135940000Y-86000000D01*
X131400000Y-86000000D02*
X133400000Y-86000000D01*
X128860000Y-86000000D02*
X130860000Y-86000000D01*
X126320000Y-86000000D02*
X128320000Y-86000000D01*
X123780000Y-86000000D02*
X125780000Y-86000000D01*
X121240000Y-86000000D02*
X123240000Y-86000000D01*
X118700000Y-86000000D02*
X120700000Y-86000000D01*
X116160000Y-86000000D02*
X118160000Y-86000000D01*
X113620000Y-86000000D02*
X115620000Y-86000000D01*
X111080000Y-86000000D02*
X113080000Y-86000000D01*
X108540000Y-86000000D02*
X110540000Y-86000000D01*
X106000000Y-86000000D02*
X108000000Y-86000000D01*
X138000000Y-82720000D02*
X138000000Y-84720000D01*
X138000000Y-80180000D02*
X138000000Y-82180000D01*
X138000000Y-77640000D02*
X138000000Y-79640000D01*
X138000000Y-75100000D02*
X138000000Y-77100000D01*
X138000000Y-72560000D02*
X138000000Y-74560000D01*
X138000000Y-70020000D02*
X138000000Y-72020000D01*
X138000000Y-67480000D02*
X138000000Y-69480000D01*
X138000000Y-64940000D02*
X138000000Y-66940000D01*
X138000000Y-62400000D02*
X138000000Y-64400000D01*
X138000000Y-59860000D02*
X138000000Y-61860000D01*
X138000000Y-57320000D02*
X138000000Y-59320000D01*
X138000000Y-54780000D02*
X138000000Y-56780000D01*
X138000000Y-52240000D02*
X138000000Y-54240000D01*
X138000000Y-49700000D02*
X138000000Y-51700000D01*
X138000000Y-47160000D02*
X138000000Y-49160000D01*
X138000000Y-44620000D02*
X138000000Y-46620000D01*
X138000000Y-42080000D02*
X138000000Y-44080000D01*
X138000000Y-39540000D02*
X138000000Y-41540000D01*
X138000000Y-37000000D02*
X138000000Y-39000000D01*
M02*
