G04 #@! TF.FileFunction,Copper,L1,Top,Signal*
%FSLAX46Y46*%
G04 Gerber Fmt 4.6, Leading zero omitted, Abs format (unit mm)*
G04 Created by KiCad (PCBNEW 4.0.7-e2-6376~58~ubuntu16.04.1) date Sun Dec 31 13:37:37 2017*
%MOMM*%
%LPD*%
G01*
G04 APERTURE LIST*
%ADD10C,0.100000*%
%ADD11R,1.600000X1.600000*%
%ADD12O,1.600000X1.600000*%
%ADD13C,1.000000*%
%ADD14R,1.000000X1.000000*%
%ADD15R,1.800000X1.800000*%
%ADD16C,1.800000*%
%ADD17C,1.700000*%
%ADD18R,1.700000X1.700000*%
%ADD19O,1.700000X1.700000*%
%ADD20C,1.778000*%
%ADD21R,2.500000X2.500000*%
%ADD22O,2.500000X2.500000*%
%ADD23C,1.600000*%
%ADD24O,1.800000X3.600000*%
%ADD25C,3.556000*%
%ADD26C,2.500000*%
%ADD27C,1.524000*%
%ADD28C,0.250000*%
%ADD29C,0.400000*%
G04 APERTURE END LIST*
D10*
D11*
X166000000Y-65000000D03*
D12*
X166000000Y-72620000D03*
D13*
X151270000Y-74270000D03*
X150000000Y-75540000D03*
D14*
X150000000Y-73000000D03*
D15*
X120000000Y-98000000D03*
D16*
X122540000Y-98000000D03*
D17*
X128500000Y-92500000D03*
X135000000Y-92500000D03*
X128500000Y-97000000D03*
X135000000Y-97000000D03*
X138500000Y-92500000D03*
X145000000Y-92500000D03*
X138500000Y-97000000D03*
X145000000Y-97000000D03*
D18*
X198000000Y-91000000D03*
D19*
X198000000Y-93540000D03*
D20*
X115000000Y-73762500D03*
X115000000Y-64237500D03*
X115000000Y-43237500D03*
X115000000Y-52762500D03*
D21*
X144000000Y-69000000D03*
D22*
X142000000Y-63000000D03*
X129800000Y-63000000D03*
X129800000Y-75000000D03*
X142000000Y-75000000D03*
D17*
X197430000Y-81240000D03*
X197430000Y-78700000D03*
X197430000Y-76160000D03*
X197430000Y-73620000D03*
X197430000Y-71080000D03*
X197430000Y-68540000D03*
X197430000Y-66000000D03*
X197430000Y-63460000D03*
X197430000Y-60920000D03*
X197430000Y-58380000D03*
X197430000Y-55840000D03*
X197430000Y-53300000D03*
X197430000Y-50760000D03*
X197430000Y-48220000D03*
X197430000Y-45680000D03*
X174570000Y-81240000D03*
X174570000Y-78700000D03*
X174570000Y-76160000D03*
X174570000Y-73620000D03*
X174570000Y-71080000D03*
X174570000Y-68540000D03*
X174570000Y-66000000D03*
X174570000Y-63460000D03*
X174570000Y-60920000D03*
X174570000Y-58380000D03*
X174570000Y-55840000D03*
X174570000Y-53300000D03*
X174570000Y-50760000D03*
X174570000Y-48220000D03*
X174570000Y-45680000D03*
D11*
X168000000Y-102000000D03*
D12*
X160380000Y-102000000D03*
D11*
X175000000Y-91000000D03*
D12*
X182620000Y-91000000D03*
D15*
X151000000Y-98000000D03*
D16*
X153540000Y-98000000D03*
D15*
X150000000Y-67000000D03*
D16*
X152540000Y-67000000D03*
D18*
X170000000Y-66000000D03*
D19*
X170000000Y-63460000D03*
X170000000Y-60920000D03*
X170000000Y-58380000D03*
X170000000Y-55840000D03*
D23*
X174000000Y-95000000D03*
D12*
X184160000Y-95000000D03*
D23*
X162000000Y-76000000D03*
D12*
X162000000Y-65840000D03*
D23*
X160000000Y-97000000D03*
D12*
X170160000Y-97000000D03*
D23*
X158000000Y-76000000D03*
D12*
X158000000Y-65840000D03*
D23*
X149000000Y-93000000D03*
D12*
X159160000Y-93000000D03*
D23*
X115000000Y-93000000D03*
D12*
X125160000Y-93000000D03*
D24*
X162000000Y-91900000D03*
X167000000Y-91900000D03*
X164500000Y-91900000D03*
D25*
X169072000Y-84984000D03*
X159928000Y-84984000D03*
D26*
X126760000Y-40880000D03*
X126760000Y-56120000D03*
D27*
X154700000Y-40880000D03*
X154700000Y-48500000D03*
D28*
X138000000Y-97500000D02*
X138500000Y-97000000D01*
X160000000Y-97000000D02*
X160500000Y-97000000D01*
X160500000Y-97000000D02*
X164500000Y-93000000D01*
X164500000Y-93000000D02*
X164500000Y-91900000D01*
X160000000Y-97000000D02*
X160000000Y-101620000D01*
X160000000Y-101620000D02*
X160380000Y-102000000D01*
X162000000Y-76000000D02*
X162620000Y-76000000D01*
X162620000Y-76000000D02*
X166000000Y-72620000D01*
X150000000Y-75540000D02*
X154540000Y-75540000D01*
X160000000Y-78000000D02*
X162000000Y-76000000D01*
X157000000Y-78000000D02*
X160000000Y-78000000D01*
X154540000Y-75540000D02*
X157000000Y-78000000D01*
X150000000Y-75540000D02*
X142540000Y-75540000D01*
X142540000Y-75540000D02*
X142000000Y-75000000D01*
X165620000Y-73000000D02*
X166000000Y-72620000D01*
X162000000Y-65380000D02*
X162000000Y-64000000D01*
X152540000Y-64040000D02*
X152540000Y-67000000D01*
X152500000Y-64000000D02*
X152540000Y-64040000D01*
X162000000Y-64000000D02*
X152500000Y-64000000D01*
X153000000Y-67000000D02*
X152540000Y-67000000D01*
X184160000Y-95000000D02*
X184160000Y-92540000D01*
X184160000Y-92540000D02*
X182620000Y-91000000D01*
X198000000Y-93540000D02*
X195540000Y-93540000D01*
X187000000Y-91000000D02*
X182620000Y-91000000D01*
X188000000Y-90000000D02*
X187000000Y-91000000D01*
X192000000Y-90000000D02*
X188000000Y-90000000D01*
X195540000Y-93540000D02*
X192000000Y-90000000D01*
X153540000Y-98000000D02*
X154160000Y-98000000D01*
X154160000Y-98000000D02*
X159160000Y-93000000D01*
X125160000Y-93000000D02*
X125160000Y-95380000D01*
X125160000Y-95380000D02*
X122540000Y-98000000D01*
X151270000Y-74270000D02*
X156270000Y-74270000D01*
X156270000Y-74270000D02*
X158000000Y-76000000D01*
X151540000Y-74000000D02*
X151270000Y-74270000D01*
D29*
X154700000Y-48500000D02*
X159000000Y-48000000D01*
X195000000Y-43000000D02*
X197430000Y-45430000D01*
X171000000Y-43000000D02*
X195000000Y-43000000D01*
X171000000Y-47000000D02*
X171000000Y-43000000D01*
X168000000Y-50000000D02*
X171000000Y-47000000D01*
X161000000Y-50000000D02*
X168000000Y-50000000D01*
X159000000Y-48000000D02*
X161000000Y-50000000D01*
X197430000Y-45430000D02*
X197430000Y-45680000D01*
X166000000Y-65000000D02*
X166000000Y-63000000D01*
X166000000Y-63000000D02*
X169540000Y-63000000D01*
X169540000Y-63000000D02*
X170000000Y-63460000D01*
X142000000Y-63000000D02*
X152000000Y-63000000D01*
X152000000Y-63000000D02*
X154700000Y-60300000D01*
X142000000Y-63000000D02*
X166000000Y-63000000D01*
X154700000Y-60300000D02*
X154700000Y-48500000D01*
D28*
X168000000Y-102000000D02*
X172000000Y-102000000D01*
X172000000Y-91000000D02*
X175000000Y-91000000D01*
X172000000Y-102000000D02*
X172000000Y-91000000D01*
X175000000Y-91000000D02*
X175000000Y-87000000D01*
X175000000Y-87000000D02*
X180760000Y-81240000D01*
X180760000Y-81240000D02*
X197430000Y-81240000D01*
X174570000Y-73620000D02*
X174380000Y-73620000D01*
X174380000Y-73620000D02*
X168000000Y-80000000D01*
X168000000Y-80000000D02*
X159000000Y-80000000D01*
X159000000Y-80000000D02*
X149000000Y-90000000D01*
X149000000Y-90000000D02*
X137500000Y-90000000D01*
X137500000Y-90000000D02*
X135000000Y-92500000D01*
X170000000Y-60920000D02*
X174570000Y-60920000D01*
X174570000Y-58380000D02*
X170000000Y-58380000D01*
X115000000Y-92600000D02*
X120400000Y-89000000D01*
X166650000Y-79000000D02*
X174570000Y-71080000D01*
X158000000Y-79000000D02*
X166650000Y-79000000D01*
X148000000Y-89000000D02*
X158000000Y-79000000D01*
X120400000Y-89000000D02*
X148000000Y-89000000D01*
X174570000Y-71080000D02*
X174570000Y-70277793D01*
X149000000Y-93000000D02*
X149000000Y-92000000D01*
X159760000Y-81240000D02*
X174570000Y-81240000D01*
X149000000Y-92000000D02*
X159760000Y-81240000D01*
X174604000Y-81274000D02*
X174570000Y-81240000D01*
X174570000Y-76160000D02*
X174570000Y-76430000D01*
X174570000Y-76160000D02*
X173840000Y-76160000D01*
X166500000Y-91900000D02*
X167100000Y-91900000D01*
X167100000Y-91900000D02*
X177000000Y-82000000D01*
X177000000Y-82000000D02*
X177000000Y-79000000D01*
X177000000Y-79000000D02*
X176700000Y-78700000D01*
X176700000Y-78700000D02*
X174570000Y-78700000D01*
X174570000Y-78700000D02*
X174700000Y-78700000D01*
X174270000Y-79000000D02*
X174570000Y-78700000D01*
M02*
