M48
INCH,TZ
T1C0.024
T2C0.030
T3C0.031
T4C0.035
T5C0.039
T6C0.040
T7C0.047
T8C0.049
T9C0.051
T10C0.097
T11C0.126
%
G90
G05
T1
X6.4469Y-2.5689
X6.4469Y-2.6689
X6.4969Y-2.6189
T2
X4.9906Y-1.6094
X4.9906Y-2.2094
X6.0906Y-1.6094
X6.0906Y-1.9094
T3
X4.5276Y-3.6614
X4.9276Y-3.6614
X5.8661Y-3.6614
X6.1614Y-2.5528
X6.1614Y-2.9528
X6.2661Y-3.6614
X6.2992Y-2.5492
X6.2992Y-2.8492
X6.2992Y-3.8189
X6.3142Y-4.0157
X6.6142Y-4.0157
X6.6992Y-3.8189
X6.8504Y-3.7402
X6.8504Y-3.9764
X6.8898Y-3.5827
X7.0472Y-3.9764
X7.1654Y-3.9764
X7.1898Y-3.5827
X7.2504Y-3.7402
X7.5654Y-3.9764
T4
X4.7244Y-3.8583
X4.8244Y-3.8583
X5.9055Y-2.6378
X5.9449Y-3.8583
X6.0055Y-2.6378
X6.0449Y-3.8583
T5
X5.0591Y-3.6417
X5.0591Y-3.8189
X5.315Y-3.6417
X5.315Y-3.8189
X5.4528Y-3.6417
X5.4528Y-3.8189
X5.7087Y-3.6417
X5.7087Y-3.8189
X6.6535Y-2.1984
X6.6535Y-2.2984
X6.6535Y-2.3984
X6.6535Y-2.4984
X6.6535Y-2.5984
X7.7953Y-3.5827
X7.7953Y-3.6827
T6
X4.5276Y-1.7023
X4.5276Y-2.0773
X4.5276Y-2.529
X4.5276Y-2.904
T7
X6.378Y-3.6181
X6.4764Y-3.6181
X6.5748Y-3.6181
T8
X6.8728Y-1.7984
X6.8728Y-1.8984
X6.8728Y-1.9984
X6.8728Y-2.0984
X6.8728Y-2.1984
X6.8728Y-2.2984
X6.8728Y-2.3984
X6.8728Y-2.4984
X6.8728Y-2.5984
X6.8728Y-2.6984
X6.8728Y-2.7984
X6.8728Y-2.8984
X6.8728Y-2.9984
X6.8728Y-3.0984
X6.8728Y-3.1984
X7.7728Y-1.7984
X7.7728Y-1.8984
X7.7728Y-1.9984
X7.7728Y-2.0984
X7.7728Y-2.1984
X7.7728Y-2.2984
X7.7728Y-2.3984
X7.7728Y-2.4984
X7.7728Y-2.5984
X7.7728Y-2.6984
X7.7728Y-2.7984
X7.7728Y-2.8984
X7.7728Y-2.9984
X7.7728Y-3.0984
X7.7728Y-3.1984
T9
X5.1102Y-2.4803
X5.1102Y-2.9528
X5.5906Y-2.4803
X5.5906Y-2.9528
X5.6693Y-2.7165
T10
X6.2964Y-3.3458
X6.6564Y-3.3458
T11
X6.4961Y-1.7717
X7.4803Y-3.7402
T0
M30
