G04 #@! TF.FileFunction,Legend,Bot*
%FSLAX46Y46*%
G04 Gerber Fmt 4.6, Leading zero omitted, Abs format (unit mm)*
G04 Created by KiCad (PCBNEW 4.0.7-e2-6376~58~ubuntu16.04.1) date Sun Dec 31 02:53:24 2017*
%MOMM*%
%LPD*%
G01*
G04 APERTURE LIST*
%ADD10C,0.100000*%
%ADD11C,0.300000*%
G04 APERTURE END LIST*
D10*
D11*
X148602679Y-84357143D02*
X148227679Y-81357143D01*
X147632441Y-81357143D01*
X147293155Y-81500000D01*
X147090774Y-81785714D01*
X147007441Y-82071429D01*
X146959821Y-82642857D01*
X147013393Y-83071429D01*
X147203869Y-83642857D01*
X147358631Y-83928571D01*
X147632441Y-84214286D01*
X148007441Y-84357143D01*
X148602679Y-84357143D01*
X145132441Y-84214286D02*
X145388393Y-84357143D01*
X145864584Y-84357143D01*
X146084822Y-84214286D01*
X146168155Y-83928571D01*
X146025298Y-82785714D01*
X145870536Y-82500000D01*
X145614584Y-82357143D01*
X145138393Y-82357143D01*
X144918155Y-82500000D01*
X144834821Y-82785714D01*
X144870536Y-83071429D01*
X146096727Y-83357143D01*
X144061013Y-84214286D02*
X143840774Y-84357143D01*
X143364584Y-84357143D01*
X143108632Y-84214286D01*
X142953869Y-83928571D01*
X142936012Y-83785714D01*
X143019346Y-83500000D01*
X143239584Y-83357143D01*
X143596727Y-83357143D01*
X143816965Y-83214286D01*
X143900298Y-82928571D01*
X143882441Y-82785714D01*
X143727679Y-82500000D01*
X143471727Y-82357143D01*
X143114584Y-82357143D01*
X142894346Y-82500000D01*
X140013393Y-81357143D02*
X138584821Y-81357143D01*
X139674107Y-84357143D02*
X139299107Y-81357143D01*
X138126488Y-84357143D02*
X137876488Y-82357143D01*
X137947916Y-82928571D02*
X137793154Y-82642857D01*
X137656250Y-82500000D01*
X137400297Y-82357143D01*
X137162202Y-82357143D01*
X135257440Y-82357143D02*
X135507440Y-84357143D01*
X136328869Y-82357143D02*
X136525297Y-83928571D01*
X136441964Y-84214286D01*
X136221726Y-84357143D01*
X135864583Y-84357143D01*
X135608631Y-84214286D01*
X135471726Y-84071429D01*
X133227678Y-84214286D02*
X133483631Y-84357143D01*
X133959821Y-84357143D01*
X134180059Y-84214286D01*
X134281250Y-84071429D01*
X134364583Y-83785714D01*
X134257440Y-82928571D01*
X134102678Y-82642857D01*
X133965773Y-82500000D01*
X133709821Y-82357143D01*
X133233631Y-82357143D01*
X133013392Y-82500000D01*
X132275298Y-84214286D02*
X132055059Y-84357143D01*
X131578869Y-84357143D01*
X131322917Y-84214286D01*
X131168154Y-83928571D01*
X131150297Y-83785714D01*
X131233631Y-83500000D01*
X131453869Y-83357143D01*
X131811012Y-83357143D01*
X132031250Y-83214286D01*
X132114583Y-82928571D01*
X132096726Y-82785714D01*
X131941964Y-82500000D01*
X131686012Y-82357143D01*
X131328869Y-82357143D01*
X131108631Y-82500000D01*
X128346726Y-84214286D02*
X128007440Y-84357143D01*
X127412202Y-84357143D01*
X127156249Y-84214286D01*
X127019345Y-84071429D01*
X126864582Y-83785714D01*
X126828868Y-83500000D01*
X126912202Y-83214286D01*
X127013392Y-83071429D01*
X127233630Y-82928571D01*
X127691963Y-82785714D01*
X127912201Y-82642857D01*
X128013392Y-82500000D01*
X128096726Y-82214286D01*
X128061011Y-81928571D01*
X127906249Y-81642857D01*
X127769344Y-81500000D01*
X127513392Y-81357143D01*
X126918154Y-81357143D01*
X126578868Y-81500000D01*
X125507440Y-84357143D02*
X125727678Y-84214286D01*
X125828869Y-84071429D01*
X125912202Y-83785714D01*
X125805059Y-82928571D01*
X125650297Y-82642857D01*
X125513392Y-82500000D01*
X125257440Y-82357143D01*
X124900297Y-82357143D01*
X124680059Y-82500000D01*
X124578868Y-82642857D01*
X124495535Y-82928571D01*
X124602678Y-83785714D01*
X124757440Y-84071429D01*
X124894345Y-84214286D01*
X125150297Y-84357143D01*
X125507440Y-84357143D01*
X122281249Y-82357143D02*
X122531249Y-84357143D01*
X123352678Y-82357143D02*
X123549106Y-83928571D01*
X123465773Y-84214286D01*
X123245535Y-84357143D01*
X122888392Y-84357143D01*
X122632440Y-84214286D01*
X122495535Y-84071429D01*
X121441964Y-84214286D02*
X121221725Y-84357143D01*
X120745535Y-84357143D01*
X120489583Y-84214286D01*
X120334820Y-83928571D01*
X120316963Y-83785714D01*
X120400297Y-83500000D01*
X120620535Y-83357143D01*
X120977678Y-83357143D01*
X121197916Y-83214286D01*
X121281249Y-82928571D01*
X121263392Y-82785714D01*
X121108630Y-82500000D01*
X120852678Y-82357143D01*
X120495535Y-82357143D01*
X120275297Y-82500000D01*
X117394344Y-81357143D02*
X116936010Y-84357143D01*
X115727677Y-81357143D01*
X115269344Y-84357143D02*
X115019344Y-82357143D01*
X114894344Y-81357143D02*
X115031249Y-81500000D01*
X114930058Y-81642857D01*
X114793153Y-81500000D01*
X114894344Y-81357143D01*
X114930058Y-81642857D01*
X113007439Y-84357143D02*
X112632439Y-81357143D01*
X112989582Y-84214286D02*
X113245535Y-84357143D01*
X113721725Y-84357143D01*
X113941963Y-84214286D01*
X114043154Y-84071429D01*
X114126487Y-83785714D01*
X114019344Y-82928571D01*
X113864582Y-82642857D01*
X113727677Y-82500000D01*
X113471725Y-82357143D01*
X112995535Y-82357143D01*
X112775296Y-82500000D01*
X110846725Y-84214286D02*
X111102677Y-84357143D01*
X111578868Y-84357143D01*
X111799106Y-84214286D01*
X111882439Y-83928571D01*
X111739582Y-82785714D01*
X111584820Y-82500000D01*
X111328868Y-82357143D01*
X110852677Y-82357143D01*
X110632439Y-82500000D01*
X110549105Y-82785714D01*
X110584820Y-83071429D01*
X111811011Y-83357143D01*
X109638392Y-84071429D02*
X109537201Y-84214286D01*
X109674106Y-84357143D01*
X109775297Y-84214286D01*
X109638392Y-84071429D01*
X109674106Y-84357143D01*
X109531249Y-83214286D02*
X109436011Y-81500000D01*
X109299106Y-81357143D01*
X109197915Y-81500000D01*
X109531249Y-83214286D01*
X109299106Y-81357143D01*
M02*
