G04 #@! TF.FileFunction,Legend,Top*
%FSLAX46Y46*%
G04 Gerber Fmt 4.6, Leading zero omitted, Abs format (unit mm)*
G04 Created by KiCad (PCBNEW 4.0.7-e2-6376~58~ubuntu16.04.1) date Sun Dec 31 02:53:24 2017*
%MOMM*%
%LPD*%
G01*
G04 APERTURE LIST*
%ADD10C,0.100000*%
%ADD11C,0.300000*%
%ADD12C,0.200000*%
%ADD13C,0.120000*%
%ADD14C,0.150000*%
%ADD15C,0.050000*%
G04 APERTURE END LIST*
D10*
D11*
X114379465Y-82678571D02*
X114566965Y-81178571D01*
X114924108Y-81178571D01*
X115129464Y-81250000D01*
X115254465Y-81392857D01*
X115308036Y-81535714D01*
X115343750Y-81821429D01*
X115316965Y-82035714D01*
X115209821Y-82321429D01*
X115120536Y-82464286D01*
X114959821Y-82607143D01*
X114736608Y-82678571D01*
X114379465Y-82678571D01*
X115861607Y-82250000D02*
X116575893Y-82250000D01*
X115665179Y-82678571D02*
X116352679Y-81178571D01*
X116665179Y-82678571D01*
X117165179Y-82678571D02*
X117352679Y-81178571D01*
X118022322Y-82678571D01*
X118209822Y-81178571D01*
X119700893Y-81250000D02*
X119566965Y-81178571D01*
X119352679Y-81178571D01*
X119129465Y-81250000D01*
X118968750Y-81392857D01*
X118879465Y-81535714D01*
X118772321Y-81821429D01*
X118745536Y-82035714D01*
X118781250Y-82321429D01*
X118834821Y-82464286D01*
X118959822Y-82607143D01*
X119165179Y-82678571D01*
X119308036Y-82678571D01*
X119531250Y-82607143D01*
X119611608Y-82535714D01*
X119674108Y-82035714D01*
X119388393Y-82035714D01*
X120334822Y-81892857D02*
X120834822Y-81892857D01*
X120950894Y-82678571D02*
X120236608Y-82678571D01*
X120424108Y-81178571D01*
X121138394Y-81178571D01*
X122450894Y-82678571D02*
X122040179Y-81964286D01*
X121593751Y-82678571D02*
X121781251Y-81178571D01*
X122352679Y-81178571D01*
X122486608Y-81250000D01*
X122549107Y-81321429D01*
X122602679Y-81464286D01*
X122575894Y-81678571D01*
X122486607Y-81821429D01*
X122406251Y-81892857D01*
X122254464Y-81964286D01*
X121683036Y-81964286D01*
X124281251Y-81178571D02*
X125281251Y-81178571D01*
X124093751Y-82678571D01*
X125093751Y-82678571D01*
X126138393Y-81178571D02*
X126424107Y-81178571D01*
X126558036Y-81250000D01*
X126683036Y-81392857D01*
X126718750Y-81678571D01*
X126656250Y-82178571D01*
X126549107Y-82464286D01*
X126388393Y-82607143D01*
X126236607Y-82678571D01*
X125950893Y-82678571D01*
X125816964Y-82607143D01*
X125691964Y-82464286D01*
X125656250Y-82178571D01*
X125718750Y-81678571D01*
X125825893Y-81392857D01*
X125986607Y-81250000D01*
X126138393Y-81178571D01*
X127236608Y-82678571D02*
X127424108Y-81178571D01*
X128093751Y-82678571D01*
X128281251Y-81178571D01*
X128906251Y-81892857D02*
X129406251Y-81892857D01*
X129522323Y-82678571D02*
X128808037Y-82678571D01*
X128995537Y-81178571D01*
X129709823Y-81178571D01*
D12*
X137500000Y-85500000D02*
X106000000Y-85500000D01*
X137500000Y-37000000D02*
X137500000Y-85500000D01*
D13*
X148150000Y-72470000D02*
X148150000Y-76070000D01*
X148161522Y-72431522D02*
G75*
G02X152600000Y-74270000I1838478J-1838478D01*
G01*
X148161522Y-76108478D02*
G75*
G03X152600000Y-74270000I1838478J1838478D01*
G01*
X124260000Y-98000462D02*
G75*
G03X118710000Y-96455170I-2990000J462D01*
G01*
X124260000Y-97999538D02*
G75*
G02X118710000Y-99544830I-2990000J-462D01*
G01*
X123770000Y-98000000D02*
G75*
G03X123770000Y-98000000I-2500000J0D01*
G01*
X118710000Y-96455000D02*
X118710000Y-99545000D01*
X157140000Y-71050000D02*
X158860000Y-71050000D01*
X158860000Y-71050000D02*
X158860000Y-67330000D01*
X158860000Y-67330000D02*
X157140000Y-67330000D01*
X157140000Y-67330000D02*
X157140000Y-71050000D01*
X158000000Y-72120000D02*
X158000000Y-71050000D01*
X158000000Y-66260000D02*
X158000000Y-67330000D01*
X150950000Y-92140000D02*
X150950000Y-93860000D01*
X150950000Y-93860000D02*
X154670000Y-93860000D01*
X154670000Y-93860000D02*
X154670000Y-92140000D01*
X154670000Y-92140000D02*
X150950000Y-92140000D01*
X149880000Y-93000000D02*
X150950000Y-93000000D01*
X155740000Y-93000000D02*
X154670000Y-93000000D01*
X119950000Y-92140000D02*
X119950000Y-93860000D01*
X119950000Y-93860000D02*
X123670000Y-93860000D01*
X123670000Y-93860000D02*
X123670000Y-92140000D01*
X123670000Y-92140000D02*
X119950000Y-92140000D01*
X118880000Y-93000000D02*
X119950000Y-93000000D01*
X124740000Y-93000000D02*
X123670000Y-93000000D01*
X176950000Y-94140000D02*
X176950000Y-95860000D01*
X176950000Y-95860000D02*
X180670000Y-95860000D01*
X180670000Y-95860000D02*
X180670000Y-94140000D01*
X180670000Y-94140000D02*
X176950000Y-94140000D01*
X175880000Y-95000000D02*
X176950000Y-95000000D01*
X181740000Y-95000000D02*
X180670000Y-95000000D01*
X133164214Y-94750000D02*
G75*
G03X133164214Y-94750000I-1414214J0D01*
G01*
X134720000Y-91630000D02*
X128780000Y-91630000D01*
X134720000Y-97870000D02*
X128780000Y-97870000D01*
X134870000Y-93410000D02*
X134870000Y-96090000D01*
X128630000Y-96090000D02*
X128630000Y-93410000D01*
X143164214Y-94750000D02*
G75*
G03X143164214Y-94750000I-1414214J0D01*
G01*
X144720000Y-91630000D02*
X138780000Y-91630000D01*
X144720000Y-97870000D02*
X138780000Y-97870000D01*
X144870000Y-93410000D02*
X144870000Y-96090000D01*
X138630000Y-96090000D02*
X138630000Y-93410000D01*
X196670000Y-94870000D02*
X199330000Y-94870000D01*
X196670000Y-92270000D02*
X196670000Y-94870000D01*
X199330000Y-92270000D02*
X199330000Y-94870000D01*
X196670000Y-92270000D02*
X199330000Y-92270000D01*
X196670000Y-91000000D02*
X196670000Y-89670000D01*
X196670000Y-89670000D02*
X198000000Y-89670000D01*
D14*
X107126000Y-60364000D02*
X107126000Y-58840000D01*
X107126000Y-58840000D02*
X122874000Y-58840000D01*
X122874000Y-58840000D02*
X122874000Y-60364000D01*
X122874000Y-60364000D02*
X122874000Y-79160000D01*
X122874000Y-79160000D02*
X107126000Y-79160000D01*
X107126000Y-79160000D02*
X107126000Y-60364000D01*
X122874000Y-56636000D02*
X122874000Y-58160000D01*
X122874000Y-58160000D02*
X107126000Y-58160000D01*
X107126000Y-58160000D02*
X107126000Y-56636000D01*
X107126000Y-56636000D02*
X107126000Y-37840000D01*
X107126000Y-37840000D02*
X122874000Y-37840000D01*
X122874000Y-37840000D02*
X122874000Y-56636000D01*
D13*
X161140000Y-71050000D02*
X162860000Y-71050000D01*
X162860000Y-71050000D02*
X162860000Y-67330000D01*
X162860000Y-67330000D02*
X161140000Y-67330000D01*
X161140000Y-67330000D02*
X161140000Y-71050000D01*
X162000000Y-72120000D02*
X162000000Y-71050000D01*
X162000000Y-66260000D02*
X162000000Y-67330000D01*
X161950000Y-96140000D02*
X161950000Y-97860000D01*
X161950000Y-97860000D02*
X165670000Y-97860000D01*
X165670000Y-97860000D02*
X165670000Y-96140000D01*
X165670000Y-96140000D02*
X161950000Y-96140000D01*
X160880000Y-97000000D02*
X161950000Y-97000000D01*
X166740000Y-97000000D02*
X165670000Y-97000000D01*
X123950000Y-77350000D02*
X146650000Y-77350000D01*
X146650000Y-77350000D02*
X146650000Y-60650000D01*
X146650000Y-60650000D02*
X123950000Y-60650000D01*
X123950000Y-60650000D02*
X123950000Y-77350000D01*
X141600000Y-68650000D02*
X142000000Y-69350000D01*
X141200000Y-69350000D02*
X142400000Y-69350000D01*
X142400000Y-69350000D02*
X142400000Y-68650000D01*
X142400000Y-68650000D02*
X141200000Y-68650000D01*
X141200000Y-68650000D02*
X141200000Y-69350000D01*
X146910000Y-68000000D02*
X146910000Y-70000000D01*
X141800000Y-64500000D02*
X141800000Y-67650000D01*
X141800000Y-70350000D02*
X141800000Y-73500000D01*
D14*
X154700000Y-37840000D02*
X157240000Y-37840000D01*
X157240000Y-37840000D02*
X157240000Y-58160000D01*
X157240000Y-58160000D02*
X154700000Y-58160000D01*
X126760000Y-58160000D02*
X124220000Y-58160000D01*
X124220000Y-58160000D02*
X124220000Y-37840000D01*
X124220000Y-37840000D02*
X126760000Y-37840000D01*
X154700000Y-37840000D02*
X126760000Y-37840000D01*
X126760000Y-58160000D02*
X154700000Y-58160000D01*
X189810000Y-36790000D02*
X183460000Y-36790000D01*
X183460000Y-36790000D02*
X183460000Y-40600000D01*
X183460000Y-40600000D02*
X189810000Y-40600000D01*
X189810000Y-40600000D02*
X189810000Y-38060000D01*
X189810000Y-38060000D02*
X189810000Y-36790000D01*
X198700000Y-88860000D02*
X198700000Y-38060000D01*
X198700000Y-38060000D02*
X173300000Y-38060000D01*
X173300000Y-38060000D02*
X173300000Y-88860000D01*
X173300000Y-88860000D02*
X198700000Y-88860000D01*
D13*
X166250000Y-103060000D02*
X166250000Y-100940000D01*
X166250000Y-100940000D02*
X162130000Y-100940000D01*
X162130000Y-100940000D02*
X162130000Y-103060000D01*
X162130000Y-103060000D02*
X166250000Y-103060000D01*
X167020000Y-102000000D02*
X166250000Y-102000000D01*
X161360000Y-102000000D02*
X162130000Y-102000000D01*
X165590000Y-103060000D02*
X165590000Y-100940000D01*
X167060000Y-66750000D02*
X164940000Y-66750000D01*
X164940000Y-66750000D02*
X164940000Y-70870000D01*
X164940000Y-70870000D02*
X167060000Y-70870000D01*
X167060000Y-70870000D02*
X167060000Y-66750000D01*
X166000000Y-65980000D02*
X166000000Y-66750000D01*
X166000000Y-71640000D02*
X166000000Y-70870000D01*
X167060000Y-67410000D02*
X164940000Y-67410000D01*
X176750000Y-89940000D02*
X176750000Y-92060000D01*
X176750000Y-92060000D02*
X180870000Y-92060000D01*
X180870000Y-92060000D02*
X180870000Y-89940000D01*
X180870000Y-89940000D02*
X176750000Y-89940000D01*
X175980000Y-91000000D02*
X176750000Y-91000000D01*
X181640000Y-91000000D02*
X180870000Y-91000000D01*
X177410000Y-89940000D02*
X177410000Y-92060000D01*
X155260000Y-98000462D02*
G75*
G03X149710000Y-96455170I-2990000J462D01*
G01*
X155260000Y-97999538D02*
G75*
G02X149710000Y-99544830I-2990000J-462D01*
G01*
X154770000Y-98000000D02*
G75*
G03X154770000Y-98000000I-2500000J0D01*
G01*
X149710000Y-96455000D02*
X149710000Y-99545000D01*
X154260000Y-67000462D02*
G75*
G03X148710000Y-65455170I-2990000J462D01*
G01*
X154260000Y-66999538D02*
G75*
G02X148710000Y-68544830I-2990000J-462D01*
G01*
X153770000Y-67000000D02*
G75*
G03X153770000Y-67000000I-2500000J0D01*
G01*
X148710000Y-65455000D02*
X148710000Y-68545000D01*
X171330000Y-54510000D02*
X168670000Y-54510000D01*
X171330000Y-64730000D02*
X171330000Y-54510000D01*
X168670000Y-64730000D02*
X168670000Y-54510000D01*
X171330000Y-64730000D02*
X168670000Y-64730000D01*
X171330000Y-66000000D02*
X171330000Y-67330000D01*
X171330000Y-67330000D02*
X170000000Y-67330000D01*
D14*
X154107619Y-74365238D02*
X154060000Y-74460476D01*
X153964762Y-74555714D01*
X153821905Y-74698571D01*
X153774286Y-74793810D01*
X153774286Y-74889048D01*
X154012381Y-74841429D02*
X153964762Y-74936667D01*
X153869524Y-75031905D01*
X153679048Y-75079524D01*
X153345714Y-75079524D01*
X153155238Y-75031905D01*
X153060000Y-74936667D01*
X153012381Y-74841429D01*
X153012381Y-74650952D01*
X153060000Y-74555714D01*
X153155238Y-74460476D01*
X153345714Y-74412857D01*
X153679048Y-74412857D01*
X153869524Y-74460476D01*
X153964762Y-74555714D01*
X154012381Y-74650952D01*
X154012381Y-74841429D01*
X154012381Y-73460476D02*
X154012381Y-74031905D01*
X154012381Y-73746191D02*
X153012381Y-73746191D01*
X153155238Y-73841429D01*
X153250476Y-73936667D01*
X153298095Y-74031905D01*
X120531905Y-94492381D02*
X120531905Y-93492381D01*
X120770000Y-93492381D01*
X120912858Y-93540000D01*
X121008096Y-93635238D01*
X121055715Y-93730476D01*
X121103334Y-93920952D01*
X121103334Y-94063810D01*
X121055715Y-94254286D01*
X121008096Y-94349524D01*
X120912858Y-94444762D01*
X120770000Y-94492381D01*
X120531905Y-94492381D01*
X121960477Y-93492381D02*
X121770000Y-93492381D01*
X121674762Y-93540000D01*
X121627143Y-93587619D01*
X121531905Y-93730476D01*
X121484286Y-93920952D01*
X121484286Y-94301905D01*
X121531905Y-94397143D01*
X121579524Y-94444762D01*
X121674762Y-94492381D01*
X121865239Y-94492381D01*
X121960477Y-94444762D01*
X122008096Y-94397143D01*
X122055715Y-94301905D01*
X122055715Y-94063810D01*
X122008096Y-93968571D01*
X121960477Y-93920952D01*
X121865239Y-93873333D01*
X121674762Y-93873333D01*
X121579524Y-93920952D01*
X121531905Y-93968571D01*
X121484286Y-94063810D01*
X156592381Y-69356666D02*
X156116190Y-69690000D01*
X156592381Y-69928095D02*
X155592381Y-69928095D01*
X155592381Y-69547142D01*
X155640000Y-69451904D01*
X155687619Y-69404285D01*
X155782857Y-69356666D01*
X155925714Y-69356666D01*
X156020952Y-69404285D01*
X156068571Y-69451904D01*
X156116190Y-69547142D01*
X156116190Y-69928095D01*
X155592381Y-69023333D02*
X155592381Y-68404285D01*
X155973333Y-68737619D01*
X155973333Y-68594761D01*
X156020952Y-68499523D01*
X156068571Y-68451904D01*
X156163810Y-68404285D01*
X156401905Y-68404285D01*
X156497143Y-68451904D01*
X156544762Y-68499523D01*
X156592381Y-68594761D01*
X156592381Y-68880476D01*
X156544762Y-68975714D01*
X156497143Y-69023333D01*
X152643334Y-91592381D02*
X152310000Y-91116190D01*
X152071905Y-91592381D02*
X152071905Y-90592381D01*
X152452858Y-90592381D01*
X152548096Y-90640000D01*
X152595715Y-90687619D01*
X152643334Y-90782857D01*
X152643334Y-90925714D01*
X152595715Y-91020952D01*
X152548096Y-91068571D01*
X152452858Y-91116190D01*
X152071905Y-91116190D01*
X153500477Y-90925714D02*
X153500477Y-91592381D01*
X153262381Y-90544762D02*
X153024286Y-91259048D01*
X153643334Y-91259048D01*
X121643334Y-91592381D02*
X121310000Y-91116190D01*
X121071905Y-91592381D02*
X121071905Y-90592381D01*
X121452858Y-90592381D01*
X121548096Y-90640000D01*
X121595715Y-90687619D01*
X121643334Y-90782857D01*
X121643334Y-90925714D01*
X121595715Y-91020952D01*
X121548096Y-91068571D01*
X121452858Y-91116190D01*
X121071905Y-91116190D01*
X122548096Y-90592381D02*
X122071905Y-90592381D01*
X122024286Y-91068571D01*
X122071905Y-91020952D01*
X122167143Y-90973333D01*
X122405239Y-90973333D01*
X122500477Y-91020952D01*
X122548096Y-91068571D01*
X122595715Y-91163810D01*
X122595715Y-91401905D01*
X122548096Y-91497143D01*
X122500477Y-91544762D01*
X122405239Y-91592381D01*
X122167143Y-91592381D01*
X122071905Y-91544762D01*
X122024286Y-91497143D01*
X178643334Y-93592381D02*
X178310000Y-93116190D01*
X178071905Y-93592381D02*
X178071905Y-92592381D01*
X178452858Y-92592381D01*
X178548096Y-92640000D01*
X178595715Y-92687619D01*
X178643334Y-92782857D01*
X178643334Y-92925714D01*
X178595715Y-93020952D01*
X178548096Y-93068571D01*
X178452858Y-93116190D01*
X178071905Y-93116190D01*
X179500477Y-92592381D02*
X179310000Y-92592381D01*
X179214762Y-92640000D01*
X179167143Y-92687619D01*
X179071905Y-92830476D01*
X179024286Y-93020952D01*
X179024286Y-93401905D01*
X179071905Y-93497143D01*
X179119524Y-93544762D01*
X179214762Y-93592381D01*
X179405239Y-93592381D01*
X179500477Y-93544762D01*
X179548096Y-93497143D01*
X179595715Y-93401905D01*
X179595715Y-93163810D01*
X179548096Y-93068571D01*
X179500477Y-93020952D01*
X179405239Y-92973333D01*
X179214762Y-92973333D01*
X179119524Y-93020952D01*
X179071905Y-93068571D01*
X179024286Y-93163810D01*
X130416667Y-99454762D02*
X130559524Y-99502381D01*
X130797620Y-99502381D01*
X130892858Y-99454762D01*
X130940477Y-99407143D01*
X130988096Y-99311905D01*
X130988096Y-99216667D01*
X130940477Y-99121429D01*
X130892858Y-99073810D01*
X130797620Y-99026190D01*
X130607143Y-98978571D01*
X130511905Y-98930952D01*
X130464286Y-98883333D01*
X130416667Y-98788095D01*
X130416667Y-98692857D01*
X130464286Y-98597619D01*
X130511905Y-98550000D01*
X130607143Y-98502381D01*
X130845239Y-98502381D01*
X130988096Y-98550000D01*
X131321429Y-98502381D02*
X131559524Y-99502381D01*
X131750001Y-98788095D01*
X131940477Y-99502381D01*
X132178572Y-98502381D01*
X133083334Y-99502381D02*
X132511905Y-99502381D01*
X132797619Y-99502381D02*
X132797619Y-98502381D01*
X132702381Y-98645238D01*
X132607143Y-98740476D01*
X132511905Y-98788095D01*
X140416667Y-99454762D02*
X140559524Y-99502381D01*
X140797620Y-99502381D01*
X140892858Y-99454762D01*
X140940477Y-99407143D01*
X140988096Y-99311905D01*
X140988096Y-99216667D01*
X140940477Y-99121429D01*
X140892858Y-99073810D01*
X140797620Y-99026190D01*
X140607143Y-98978571D01*
X140511905Y-98930952D01*
X140464286Y-98883333D01*
X140416667Y-98788095D01*
X140416667Y-98692857D01*
X140464286Y-98597619D01*
X140511905Y-98550000D01*
X140607143Y-98502381D01*
X140845239Y-98502381D01*
X140988096Y-98550000D01*
X141321429Y-98502381D02*
X141559524Y-99502381D01*
X141750001Y-98788095D01*
X141940477Y-99502381D01*
X142178572Y-98502381D01*
X142511905Y-98597619D02*
X142559524Y-98550000D01*
X142654762Y-98502381D01*
X142892858Y-98502381D01*
X142988096Y-98550000D01*
X143035715Y-98597619D01*
X143083334Y-98692857D01*
X143083334Y-98788095D01*
X143035715Y-98930952D01*
X142464286Y-99502381D01*
X143083334Y-99502381D01*
X197666667Y-88122381D02*
X197666667Y-88836667D01*
X197619047Y-88979524D01*
X197523809Y-89074762D01*
X197380952Y-89122381D01*
X197285714Y-89122381D01*
X198047619Y-88122381D02*
X198666667Y-88122381D01*
X198333333Y-88503333D01*
X198476191Y-88503333D01*
X198571429Y-88550952D01*
X198619048Y-88598571D01*
X198666667Y-88693810D01*
X198666667Y-88931905D01*
X198619048Y-89027143D01*
X198571429Y-89074762D01*
X198476191Y-89122381D01*
X198190476Y-89122381D01*
X198095238Y-89074762D01*
X198047619Y-89027143D01*
X114666667Y-68452381D02*
X114666667Y-69166667D01*
X114619047Y-69309524D01*
X114523809Y-69404762D01*
X114380952Y-69452381D01*
X114285714Y-69452381D01*
X115666667Y-69452381D02*
X115095238Y-69452381D01*
X115380952Y-69452381D02*
X115380952Y-68452381D01*
X115285714Y-68595238D01*
X115190476Y-68690476D01*
X115095238Y-68738095D01*
X111912381Y-65380381D02*
X112912381Y-65047048D01*
X111912381Y-64713714D01*
X112531429Y-64380381D02*
X112531429Y-63618476D01*
X111912381Y-74778381D02*
X112912381Y-74445048D01*
X111912381Y-74111714D01*
X112531429Y-73778381D02*
X112531429Y-73016476D01*
X112912381Y-73397428D02*
X112150476Y-73397428D01*
X117666667Y-47452381D02*
X117666667Y-48166667D01*
X117619047Y-48309524D01*
X117523809Y-48404762D01*
X117380952Y-48452381D01*
X117285714Y-48452381D01*
X118095238Y-47547619D02*
X118142857Y-47500000D01*
X118238095Y-47452381D01*
X118476191Y-47452381D01*
X118571429Y-47500000D01*
X118619048Y-47547619D01*
X118666667Y-47642857D01*
X118666667Y-47738095D01*
X118619048Y-47880952D01*
X118047619Y-48452381D01*
X118666667Y-48452381D01*
X116992381Y-53524381D02*
X117992381Y-53191048D01*
X116992381Y-52857714D01*
X117611429Y-52524381D02*
X117611429Y-51762476D01*
X116992381Y-44126381D02*
X117992381Y-43793048D01*
X116992381Y-43459714D01*
X117611429Y-43126381D02*
X117611429Y-42364476D01*
X117992381Y-42745428D02*
X117230476Y-42745428D01*
X160592381Y-69356666D02*
X160116190Y-69690000D01*
X160592381Y-69928095D02*
X159592381Y-69928095D01*
X159592381Y-69547142D01*
X159640000Y-69451904D01*
X159687619Y-69404285D01*
X159782857Y-69356666D01*
X159925714Y-69356666D01*
X160020952Y-69404285D01*
X160068571Y-69451904D01*
X160116190Y-69547142D01*
X160116190Y-69928095D01*
X160592381Y-68404285D02*
X160592381Y-68975714D01*
X160592381Y-68690000D02*
X159592381Y-68690000D01*
X159735238Y-68785238D01*
X159830476Y-68880476D01*
X159878095Y-68975714D01*
X163643334Y-95592381D02*
X163310000Y-95116190D01*
X163071905Y-95592381D02*
X163071905Y-94592381D01*
X163452858Y-94592381D01*
X163548096Y-94640000D01*
X163595715Y-94687619D01*
X163643334Y-94782857D01*
X163643334Y-94925714D01*
X163595715Y-95020952D01*
X163548096Y-95068571D01*
X163452858Y-95116190D01*
X163071905Y-95116190D01*
X164024286Y-94687619D02*
X164071905Y-94640000D01*
X164167143Y-94592381D01*
X164405239Y-94592381D01*
X164500477Y-94640000D01*
X164548096Y-94687619D01*
X164595715Y-94782857D01*
X164595715Y-94878095D01*
X164548096Y-95020952D01*
X163976667Y-95592381D01*
X164595715Y-95592381D01*
X147252381Y-69761905D02*
X148061905Y-69761905D01*
X148157143Y-69714286D01*
X148204762Y-69666667D01*
X148252381Y-69571429D01*
X148252381Y-69380952D01*
X148204762Y-69285714D01*
X148157143Y-69238095D01*
X148061905Y-69190476D01*
X147252381Y-69190476D01*
X148252381Y-68190476D02*
X148252381Y-68761905D01*
X148252381Y-68476191D02*
X147252381Y-68476191D01*
X147395238Y-68571429D01*
X147490476Y-68666667D01*
X147538095Y-68761905D01*
X141238095Y-60152381D02*
X141238095Y-60961905D01*
X141285714Y-61057143D01*
X141333333Y-61104762D01*
X141428571Y-61152381D01*
X141619048Y-61152381D01*
X141714286Y-61104762D01*
X141761905Y-61057143D01*
X141809524Y-60961905D01*
X141809524Y-60152381D01*
X142238095Y-60247619D02*
X142285714Y-60200000D01*
X142380952Y-60152381D01*
X142619048Y-60152381D01*
X142714286Y-60200000D01*
X142761905Y-60247619D01*
X142809524Y-60342857D01*
X142809524Y-60438095D01*
X142761905Y-60580952D01*
X142190476Y-61152381D01*
X142809524Y-61152381D01*
X146239047Y-48071429D02*
X147000952Y-48071429D01*
X146620000Y-48452381D02*
X146620000Y-47690476D01*
X147334285Y-47452381D02*
X147667618Y-48452381D01*
X148000952Y-47452381D01*
X148334285Y-48452381D02*
X148334285Y-47452381D01*
X148572380Y-47452381D01*
X148715238Y-47500000D01*
X148810476Y-47595238D01*
X148858095Y-47690476D01*
X148905714Y-47880952D01*
X148905714Y-48023810D01*
X148858095Y-48214286D01*
X148810476Y-48309524D01*
X148715238Y-48404762D01*
X148572380Y-48452381D01*
X148334285Y-48452381D01*
X149905714Y-48357143D02*
X149858095Y-48404762D01*
X149715238Y-48452381D01*
X149620000Y-48452381D01*
X149477142Y-48404762D01*
X149381904Y-48309524D01*
X149334285Y-48214286D01*
X149286666Y-48023810D01*
X149286666Y-47880952D01*
X149334285Y-47690476D01*
X149381904Y-47595238D01*
X149477142Y-47500000D01*
X149620000Y-47452381D01*
X149715238Y-47452381D01*
X149858095Y-47500000D01*
X149905714Y-47547619D01*
X151239047Y-48452381D02*
X151143809Y-48404762D01*
X151096190Y-48357143D01*
X151048571Y-48261905D01*
X151048571Y-47976190D01*
X151096190Y-47880952D01*
X151143809Y-47833333D01*
X151239047Y-47785714D01*
X151381905Y-47785714D01*
X151477143Y-47833333D01*
X151524762Y-47880952D01*
X151572381Y-47976190D01*
X151572381Y-48261905D01*
X151524762Y-48357143D01*
X151477143Y-48404762D01*
X151381905Y-48452381D01*
X151239047Y-48452381D01*
X152429524Y-47785714D02*
X152429524Y-48452381D01*
X152000952Y-47785714D02*
X152000952Y-48309524D01*
X152048571Y-48404762D01*
X152143809Y-48452381D01*
X152286667Y-48452381D01*
X152381905Y-48404762D01*
X152429524Y-48357143D01*
X152762857Y-47785714D02*
X153143809Y-47785714D01*
X152905714Y-47452381D02*
X152905714Y-48309524D01*
X152953333Y-48404762D01*
X153048571Y-48452381D01*
X153143809Y-48452381D01*
X146239047Y-40451429D02*
X147000952Y-40451429D01*
X147334285Y-39832381D02*
X147667618Y-40832381D01*
X148000952Y-39832381D01*
X148334285Y-40832381D02*
X148334285Y-39832381D01*
X148572380Y-39832381D01*
X148715238Y-39880000D01*
X148810476Y-39975238D01*
X148858095Y-40070476D01*
X148905714Y-40260952D01*
X148905714Y-40403810D01*
X148858095Y-40594286D01*
X148810476Y-40689524D01*
X148715238Y-40784762D01*
X148572380Y-40832381D01*
X148334285Y-40832381D01*
X149905714Y-40737143D02*
X149858095Y-40784762D01*
X149715238Y-40832381D01*
X149620000Y-40832381D01*
X149477142Y-40784762D01*
X149381904Y-40689524D01*
X149334285Y-40594286D01*
X149286666Y-40403810D01*
X149286666Y-40260952D01*
X149334285Y-40070476D01*
X149381904Y-39975238D01*
X149477142Y-39880000D01*
X149620000Y-39832381D01*
X149715238Y-39832381D01*
X149858095Y-39880000D01*
X149905714Y-39927619D01*
X151239047Y-40832381D02*
X151143809Y-40784762D01*
X151096190Y-40737143D01*
X151048571Y-40641905D01*
X151048571Y-40356190D01*
X151096190Y-40260952D01*
X151143809Y-40213333D01*
X151239047Y-40165714D01*
X151381905Y-40165714D01*
X151477143Y-40213333D01*
X151524762Y-40260952D01*
X151572381Y-40356190D01*
X151572381Y-40641905D01*
X151524762Y-40737143D01*
X151477143Y-40784762D01*
X151381905Y-40832381D01*
X151239047Y-40832381D01*
X152429524Y-40165714D02*
X152429524Y-40832381D01*
X152000952Y-40165714D02*
X152000952Y-40689524D01*
X152048571Y-40784762D01*
X152143809Y-40832381D01*
X152286667Y-40832381D01*
X152381905Y-40784762D01*
X152429524Y-40737143D01*
X152762857Y-40165714D02*
X153143809Y-40165714D01*
X152905714Y-39832381D02*
X152905714Y-40689524D01*
X152953333Y-40784762D01*
X153048571Y-40832381D01*
X153143809Y-40832381D01*
X127935238Y-39832381D02*
X128268571Y-40832381D01*
X128601905Y-39832381D01*
X128887619Y-40546667D02*
X129363810Y-40546667D01*
X128792381Y-40832381D02*
X129125714Y-39832381D01*
X129459048Y-40832381D01*
X130363810Y-40737143D02*
X130316191Y-40784762D01*
X130173334Y-40832381D01*
X130078096Y-40832381D01*
X129935238Y-40784762D01*
X129840000Y-40689524D01*
X129792381Y-40594286D01*
X129744762Y-40403810D01*
X129744762Y-40260952D01*
X129792381Y-40070476D01*
X129840000Y-39975238D01*
X129935238Y-39880000D01*
X130078096Y-39832381D01*
X130173334Y-39832381D01*
X130316191Y-39880000D01*
X130363810Y-39927619D01*
X131554286Y-40832381D02*
X131554286Y-40165714D01*
X131554286Y-39832381D02*
X131506667Y-39880000D01*
X131554286Y-39927619D01*
X131601905Y-39880000D01*
X131554286Y-39832381D01*
X131554286Y-39927619D01*
X132030476Y-40165714D02*
X132030476Y-40832381D01*
X132030476Y-40260952D02*
X132078095Y-40213333D01*
X132173333Y-40165714D01*
X132316191Y-40165714D01*
X132411429Y-40213333D01*
X132459048Y-40308571D01*
X132459048Y-40832381D01*
X133982858Y-41213333D02*
X133935238Y-41165714D01*
X133840000Y-41022857D01*
X133792381Y-40927619D01*
X133744762Y-40784762D01*
X133697143Y-40546667D01*
X133697143Y-40356190D01*
X133744762Y-40118095D01*
X133792381Y-39975238D01*
X133840000Y-39880000D01*
X133935238Y-39737143D01*
X133982858Y-39689524D01*
X134363810Y-40832381D02*
X134363810Y-39832381D01*
X134935239Y-40832381D01*
X134935239Y-39832381D01*
X135316191Y-41213333D02*
X135363810Y-41165714D01*
X135459048Y-41022857D01*
X135506667Y-40927619D01*
X135554286Y-40784762D01*
X135601905Y-40546667D01*
X135601905Y-40356190D01*
X135554286Y-40118095D01*
X135506667Y-39975238D01*
X135459048Y-39880000D01*
X135363810Y-39737143D01*
X135316191Y-39689524D01*
X128054285Y-55072381D02*
X128387618Y-56072381D01*
X128720952Y-55072381D01*
X129006666Y-55786667D02*
X129482857Y-55786667D01*
X128911428Y-56072381D02*
X129244761Y-55072381D01*
X129578095Y-56072381D01*
X130482857Y-55977143D02*
X130435238Y-56024762D01*
X130292381Y-56072381D01*
X130197143Y-56072381D01*
X130054285Y-56024762D01*
X129959047Y-55929524D01*
X129911428Y-55834286D01*
X129863809Y-55643810D01*
X129863809Y-55500952D01*
X129911428Y-55310476D01*
X129959047Y-55215238D01*
X130054285Y-55120000D01*
X130197143Y-55072381D01*
X130292381Y-55072381D01*
X130435238Y-55120000D01*
X130482857Y-55167619D01*
X131673333Y-56072381D02*
X131673333Y-55405714D01*
X131673333Y-55072381D02*
X131625714Y-55120000D01*
X131673333Y-55167619D01*
X131720952Y-55120000D01*
X131673333Y-55072381D01*
X131673333Y-55167619D01*
X132149523Y-55405714D02*
X132149523Y-56072381D01*
X132149523Y-55500952D02*
X132197142Y-55453333D01*
X132292380Y-55405714D01*
X132435238Y-55405714D01*
X132530476Y-55453333D01*
X132578095Y-55548571D01*
X132578095Y-56072381D01*
X134101905Y-56453333D02*
X134054285Y-56405714D01*
X133959047Y-56262857D01*
X133911428Y-56167619D01*
X133863809Y-56024762D01*
X133816190Y-55786667D01*
X133816190Y-55596190D01*
X133863809Y-55358095D01*
X133911428Y-55215238D01*
X133959047Y-55120000D01*
X134054285Y-54977143D01*
X134101905Y-54929524D01*
X134959048Y-56072381D02*
X134482857Y-56072381D01*
X134482857Y-55072381D01*
X135197143Y-56453333D02*
X135244762Y-56405714D01*
X135340000Y-56262857D01*
X135387619Y-56167619D01*
X135435238Y-56024762D01*
X135482857Y-55786667D01*
X135482857Y-55596190D01*
X135435238Y-55358095D01*
X135387619Y-55215238D01*
X135340000Y-55120000D01*
X135244762Y-54977143D01*
X135197143Y-54929524D01*
X185238095Y-87042381D02*
X185238095Y-87851905D01*
X185285714Y-87947143D01*
X185333333Y-87994762D01*
X185428571Y-88042381D01*
X185619048Y-88042381D01*
X185714286Y-87994762D01*
X185761905Y-87947143D01*
X185809524Y-87851905D01*
X185809524Y-87042381D01*
X186190476Y-87042381D02*
X186809524Y-87042381D01*
X186476190Y-87423333D01*
X186619048Y-87423333D01*
X186714286Y-87470952D01*
X186761905Y-87518571D01*
X186809524Y-87613810D01*
X186809524Y-87851905D01*
X186761905Y-87947143D01*
X186714286Y-87994762D01*
X186619048Y-88042381D01*
X186333333Y-88042381D01*
X186238095Y-87994762D01*
X186190476Y-87947143D01*
X176903810Y-45132381D02*
X177522858Y-45132381D01*
X177189524Y-45513333D01*
X177332382Y-45513333D01*
X177427620Y-45560952D01*
X177475239Y-45608571D01*
X177522858Y-45703810D01*
X177522858Y-45941905D01*
X177475239Y-46037143D01*
X177427620Y-46084762D01*
X177332382Y-46132381D01*
X177046667Y-46132381D01*
X176951429Y-46084762D01*
X176903810Y-46037143D01*
X177951429Y-46037143D02*
X177999048Y-46084762D01*
X177951429Y-46132381D01*
X177903810Y-46084762D01*
X177951429Y-46037143D01*
X177951429Y-46132381D01*
X178332381Y-45132381D02*
X178951429Y-45132381D01*
X178618095Y-45513333D01*
X178760953Y-45513333D01*
X178856191Y-45560952D01*
X178903810Y-45608571D01*
X178951429Y-45703810D01*
X178951429Y-45941905D01*
X178903810Y-46037143D01*
X178856191Y-46084762D01*
X178760953Y-46132381D01*
X178475238Y-46132381D01*
X178380000Y-46084762D01*
X178332381Y-46037143D01*
X179237143Y-45132381D02*
X179570476Y-46132381D01*
X179903810Y-45132381D01*
X193794762Y-45132381D02*
X194128095Y-46132381D01*
X194461429Y-45132381D01*
X194794762Y-46132381D02*
X194794762Y-45132381D01*
X195270952Y-46132381D02*
X195270952Y-45132381D01*
X195842381Y-46132381D01*
X195842381Y-45132381D01*
X194175714Y-81406667D02*
X194651905Y-81406667D01*
X194080476Y-81692381D02*
X194413809Y-80692381D01*
X194747143Y-81692381D01*
X195270952Y-80692381D02*
X195366191Y-80692381D01*
X195461429Y-80740000D01*
X195509048Y-80787619D01*
X195556667Y-80882857D01*
X195604286Y-81073333D01*
X195604286Y-81311429D01*
X195556667Y-81501905D01*
X195509048Y-81597143D01*
X195461429Y-81644762D01*
X195366191Y-81692381D01*
X195270952Y-81692381D01*
X195175714Y-81644762D01*
X195128095Y-81597143D01*
X195080476Y-81501905D01*
X195032857Y-81311429D01*
X195032857Y-81073333D01*
X195080476Y-80882857D01*
X195128095Y-80787619D01*
X195175714Y-80740000D01*
X195270952Y-80692381D01*
X163451905Y-104512381D02*
X163451905Y-103512381D01*
X163690000Y-103512381D01*
X163832858Y-103560000D01*
X163928096Y-103655238D01*
X163975715Y-103750476D01*
X164023334Y-103940952D01*
X164023334Y-104083810D01*
X163975715Y-104274286D01*
X163928096Y-104369524D01*
X163832858Y-104464762D01*
X163690000Y-104512381D01*
X163451905Y-104512381D01*
X164975715Y-104512381D02*
X164404286Y-104512381D01*
X164690000Y-104512381D02*
X164690000Y-103512381D01*
X164594762Y-103655238D01*
X164499524Y-103750476D01*
X164404286Y-103798095D01*
X168512381Y-69548095D02*
X167512381Y-69548095D01*
X167512381Y-69310000D01*
X167560000Y-69167142D01*
X167655238Y-69071904D01*
X167750476Y-69024285D01*
X167940952Y-68976666D01*
X168083810Y-68976666D01*
X168274286Y-69024285D01*
X168369524Y-69071904D01*
X168464762Y-69167142D01*
X168512381Y-69310000D01*
X168512381Y-69548095D01*
X167607619Y-68595714D02*
X167560000Y-68548095D01*
X167512381Y-68452857D01*
X167512381Y-68214761D01*
X167560000Y-68119523D01*
X167607619Y-68071904D01*
X167702857Y-68024285D01*
X167798095Y-68024285D01*
X167940952Y-68071904D01*
X168512381Y-68643333D01*
X168512381Y-68024285D01*
X178071905Y-89392381D02*
X178071905Y-88392381D01*
X178310000Y-88392381D01*
X178452858Y-88440000D01*
X178548096Y-88535238D01*
X178595715Y-88630476D01*
X178643334Y-88820952D01*
X178643334Y-88963810D01*
X178595715Y-89154286D01*
X178548096Y-89249524D01*
X178452858Y-89344762D01*
X178310000Y-89392381D01*
X178071905Y-89392381D01*
X179500477Y-88725714D02*
X179500477Y-89392381D01*
X179262381Y-88344762D02*
X179024286Y-89059048D01*
X179643334Y-89059048D01*
X151531905Y-94492381D02*
X151531905Y-93492381D01*
X151770000Y-93492381D01*
X151912858Y-93540000D01*
X152008096Y-93635238D01*
X152055715Y-93730476D01*
X152103334Y-93920952D01*
X152103334Y-94063810D01*
X152055715Y-94254286D01*
X152008096Y-94349524D01*
X151912858Y-94444762D01*
X151770000Y-94492381D01*
X151531905Y-94492381D01*
X153008096Y-93492381D02*
X152531905Y-93492381D01*
X152484286Y-93968571D01*
X152531905Y-93920952D01*
X152627143Y-93873333D01*
X152865239Y-93873333D01*
X152960477Y-93920952D01*
X153008096Y-93968571D01*
X153055715Y-94063810D01*
X153055715Y-94301905D01*
X153008096Y-94397143D01*
X152960477Y-94444762D01*
X152865239Y-94492381D01*
X152627143Y-94492381D01*
X152531905Y-94444762D01*
X152484286Y-94397143D01*
X150531905Y-63492381D02*
X150531905Y-62492381D01*
X150770000Y-62492381D01*
X150912858Y-62540000D01*
X151008096Y-62635238D01*
X151055715Y-62730476D01*
X151103334Y-62920952D01*
X151103334Y-63063810D01*
X151055715Y-63254286D01*
X151008096Y-63349524D01*
X150912858Y-63444762D01*
X150770000Y-63492381D01*
X150531905Y-63492381D01*
X151436667Y-62492381D02*
X152055715Y-62492381D01*
X151722381Y-62873333D01*
X151865239Y-62873333D01*
X151960477Y-62920952D01*
X152008096Y-62968571D01*
X152055715Y-63063810D01*
X152055715Y-63301905D01*
X152008096Y-63397143D01*
X151960477Y-63444762D01*
X151865239Y-63492381D01*
X151579524Y-63492381D01*
X151484286Y-63444762D01*
X151436667Y-63397143D01*
D15*
X163237143Y-85451696D02*
X163237143Y-86262232D01*
X163284821Y-86357589D01*
X163332500Y-86405268D01*
X163427857Y-86452946D01*
X163618571Y-86452946D01*
X163713929Y-86405268D01*
X163761607Y-86357589D01*
X163809286Y-86262232D01*
X163809286Y-85451696D01*
X164715179Y-85785446D02*
X164715179Y-86452946D01*
X164476786Y-85404018D02*
X164238393Y-86119196D01*
X164858215Y-86119196D01*
X160831536Y-88452756D02*
X160831536Y-87451926D01*
X161212804Y-87451926D01*
X161308122Y-87499585D01*
X161355780Y-87547244D01*
X161403439Y-87642561D01*
X161403439Y-87785536D01*
X161355780Y-87880854D01*
X161308122Y-87928512D01*
X161212804Y-87976171D01*
X160831536Y-87976171D01*
X162023000Y-87451926D02*
X162118317Y-87451926D01*
X162213634Y-87499585D01*
X162261293Y-87547244D01*
X162308952Y-87642561D01*
X162356610Y-87833195D01*
X162356610Y-88071488D01*
X162308952Y-88262122D01*
X162261293Y-88357439D01*
X162213634Y-88405098D01*
X162118317Y-88452756D01*
X162023000Y-88452756D01*
X161927683Y-88405098D01*
X161880024Y-88357439D01*
X161832366Y-88262122D01*
X161784707Y-88071488D01*
X161784707Y-87833195D01*
X161832366Y-87642561D01*
X161880024Y-87547244D01*
X161927683Y-87499585D01*
X162023000Y-87451926D01*
X162833195Y-88452756D02*
X163023830Y-88452756D01*
X163119147Y-88405098D01*
X163166805Y-88357439D01*
X163262123Y-88214464D01*
X163309781Y-88023829D01*
X163309781Y-87642561D01*
X163262123Y-87547244D01*
X163214464Y-87499585D01*
X163119147Y-87451926D01*
X162928513Y-87451926D01*
X162833195Y-87499585D01*
X162785537Y-87547244D01*
X162737878Y-87642561D01*
X162737878Y-87880854D01*
X162785537Y-87976171D01*
X162833195Y-88023829D01*
X162928513Y-88071488D01*
X163119147Y-88071488D01*
X163214464Y-88023829D01*
X163262123Y-87976171D01*
X163309781Y-87880854D01*
X163929342Y-87451926D02*
X164024659Y-87451926D01*
X164119976Y-87499585D01*
X164167635Y-87547244D01*
X164215294Y-87642561D01*
X164262952Y-87833195D01*
X164262952Y-88071488D01*
X164215294Y-88262122D01*
X164167635Y-88357439D01*
X164119976Y-88405098D01*
X164024659Y-88452756D01*
X163929342Y-88452756D01*
X163834025Y-88405098D01*
X163786366Y-88357439D01*
X163738708Y-88262122D01*
X163691049Y-88071488D01*
X163691049Y-87833195D01*
X163738708Y-87642561D01*
X163786366Y-87547244D01*
X163834025Y-87499585D01*
X163929342Y-87451926D01*
X164644220Y-88405098D02*
X164787196Y-88452756D01*
X165025489Y-88452756D01*
X165120806Y-88405098D01*
X165168465Y-88357439D01*
X165216123Y-88262122D01*
X165216123Y-88166805D01*
X165168465Y-88071488D01*
X165120806Y-88023829D01*
X165025489Y-87976171D01*
X164834855Y-87928512D01*
X164739537Y-87880854D01*
X164691879Y-87833195D01*
X164644220Y-87737878D01*
X164644220Y-87642561D01*
X164691879Y-87547244D01*
X164739537Y-87499585D01*
X164834855Y-87451926D01*
X165073147Y-87451926D01*
X165216123Y-87499585D01*
D14*
X169238095Y-67782381D02*
X169238095Y-68591905D01*
X169285714Y-68687143D01*
X169333333Y-68734762D01*
X169428571Y-68782381D01*
X169619048Y-68782381D01*
X169714286Y-68734762D01*
X169761905Y-68687143D01*
X169809524Y-68591905D01*
X169809524Y-67782381D01*
X170761905Y-67782381D02*
X170285714Y-67782381D01*
X170238095Y-68258571D01*
X170285714Y-68210952D01*
X170380952Y-68163333D01*
X170619048Y-68163333D01*
X170714286Y-68210952D01*
X170761905Y-68258571D01*
X170809524Y-68353810D01*
X170809524Y-68591905D01*
X170761905Y-68687143D01*
X170714286Y-68734762D01*
X170619048Y-68782381D01*
X170380952Y-68782381D01*
X170285714Y-68734762D01*
X170238095Y-68687143D01*
X163809524Y-41252381D02*
X163809524Y-40252381D01*
X164142858Y-40966667D01*
X164476191Y-40252381D01*
X164476191Y-41252381D01*
X164809524Y-40252381D02*
X165380953Y-40252381D01*
X165095238Y-41252381D02*
X165095238Y-40252381D01*
X166238096Y-41252381D02*
X165666667Y-41252381D01*
X165952381Y-41252381D02*
X165952381Y-40252381D01*
X165857143Y-40395238D01*
X165761905Y-40490476D01*
X165666667Y-40538095D01*
X188809524Y-91252381D02*
X188809524Y-90252381D01*
X189142858Y-90966667D01*
X189476191Y-90252381D01*
X189476191Y-91252381D01*
X189809524Y-90252381D02*
X190380953Y-90252381D01*
X190095238Y-91252381D02*
X190095238Y-90252381D01*
X190666667Y-90347619D02*
X190714286Y-90300000D01*
X190809524Y-90252381D01*
X191047620Y-90252381D01*
X191142858Y-90300000D01*
X191190477Y-90347619D01*
X191238096Y-90442857D01*
X191238096Y-90538095D01*
X191190477Y-90680952D01*
X190619048Y-91252381D01*
X191238096Y-91252381D01*
M02*
