G04 #@! TF.FileFunction,Copper,L1,Top,Signal*
%FSLAX46Y46*%
G04 Gerber Fmt 4.6, Leading zero omitted, Abs format (unit mm)*
G04 Created by KiCad (PCBNEW 4.0.7-e2-6376~58~ubuntu16.04.1) date Mon Jan  1 18:29:55 2018*
%MOMM*%
%LPD*%
G01*
G04 APERTURE LIST*
%ADD10C,0.100000*%
%ADD11R,1.600000X1.600000*%
%ADD12O,1.600000X1.600000*%
%ADD13C,1.000000*%
%ADD14R,1.000000X1.000000*%
%ADD15R,1.800000X1.800000*%
%ADD16C,1.800000*%
%ADD17C,1.700000*%
%ADD18R,1.700000X1.700000*%
%ADD19O,1.700000X1.700000*%
%ADD20R,2.500000X2.500000*%
%ADD21O,2.500000X2.500000*%
%ADD22C,1.600000*%
%ADD23O,1.800000X3.600000*%
%ADD24C,3.556000*%
%ADD25C,2.500000*%
%ADD26C,1.524000*%
%ADD27C,0.250000*%
%ADD28C,0.400000*%
G04 APERTURE END LIST*
D10*
D11*
X160000000Y-64750000D03*
D12*
X160000000Y-72370000D03*
D13*
X165020000Y-66520000D03*
X163750000Y-67790000D03*
D14*
X163750000Y-65250000D03*
D15*
X120000000Y-98000000D03*
D16*
X122540000Y-98000000D03*
D17*
X128500000Y-92500000D03*
X135000000Y-92500000D03*
X128500000Y-97000000D03*
X135000000Y-97000000D03*
X138500000Y-92500000D03*
X145000000Y-92500000D03*
X138500000Y-97000000D03*
X145000000Y-97000000D03*
D18*
X198000000Y-91000000D03*
D19*
X198000000Y-93540000D03*
D20*
X144000000Y-69000000D03*
D21*
X142000000Y-63000000D03*
X129800000Y-63000000D03*
X129800000Y-75000000D03*
X142000000Y-75000000D03*
D17*
X197430000Y-81240000D03*
X197430000Y-78700000D03*
X197430000Y-76160000D03*
X197430000Y-73620000D03*
X197430000Y-71080000D03*
X197430000Y-68540000D03*
X197430000Y-66000000D03*
X197430000Y-63460000D03*
X197430000Y-60920000D03*
X197430000Y-58380000D03*
X197430000Y-55840000D03*
X197430000Y-53300000D03*
X197430000Y-50760000D03*
X197430000Y-48220000D03*
X197430000Y-45680000D03*
X174570000Y-81240000D03*
X174570000Y-78700000D03*
X174570000Y-76160000D03*
X174570000Y-73620000D03*
X174570000Y-71080000D03*
X174570000Y-68540000D03*
X174570000Y-66000000D03*
X174570000Y-63460000D03*
X174570000Y-60920000D03*
X174570000Y-58380000D03*
X174570000Y-55840000D03*
X174570000Y-53300000D03*
X174570000Y-50760000D03*
X174570000Y-48220000D03*
X174570000Y-45680000D03*
D11*
X168000000Y-102000000D03*
D12*
X160380000Y-102000000D03*
D11*
X175000000Y-91000000D03*
D12*
X182620000Y-91000000D03*
D15*
X151000000Y-98000000D03*
D16*
X153540000Y-98000000D03*
D15*
X150000000Y-67000000D03*
D16*
X152540000Y-67000000D03*
D18*
X169000000Y-66000000D03*
D19*
X169000000Y-63460000D03*
X169000000Y-60920000D03*
X169000000Y-58380000D03*
X169000000Y-55840000D03*
D22*
X174000000Y-95000000D03*
D12*
X184160000Y-95000000D03*
D22*
X156500000Y-75000000D03*
D12*
X156500000Y-64840000D03*
D22*
X160000000Y-97000000D03*
D12*
X170160000Y-97000000D03*
D22*
X149000000Y-93000000D03*
D12*
X159160000Y-93000000D03*
D22*
X115000000Y-93000000D03*
D12*
X125160000Y-93000000D03*
D23*
X162000000Y-91900000D03*
X167000000Y-91900000D03*
X164500000Y-91900000D03*
D24*
X169072000Y-84984000D03*
X159928000Y-84984000D03*
D25*
X126760000Y-40880000D03*
X126760000Y-56120000D03*
D26*
X154700000Y-40880000D03*
X154700000Y-48500000D03*
D22*
X179000000Y-101000000D03*
X174000000Y-101000000D03*
X182000000Y-101000000D03*
D12*
X192160000Y-101000000D03*
D18*
X161000000Y-54460000D03*
D19*
X163540000Y-54460000D03*
D18*
X161000000Y-58460000D03*
D19*
X163540000Y-58460000D03*
D25*
X115000000Y-73722500D03*
X115000000Y-64197500D03*
X115000000Y-43197500D03*
X115000000Y-52722500D03*
D27*
X138000000Y-97500000D02*
X138500000Y-97000000D01*
X160000000Y-97000000D02*
X160500000Y-97000000D01*
X160500000Y-97000000D02*
X164500000Y-93000000D01*
X164500000Y-93000000D02*
X164500000Y-91900000D01*
X160000000Y-97000000D02*
X160000000Y-101620000D01*
X160000000Y-101620000D02*
X160380000Y-102000000D01*
X163750000Y-67790000D02*
X163750000Y-68620000D01*
X163750000Y-68620000D02*
X160000000Y-72370000D01*
X156500000Y-75000000D02*
X157370000Y-75000000D01*
X157370000Y-75000000D02*
X160000000Y-72370000D01*
X142000000Y-75000000D02*
X156500000Y-75000000D01*
X156500000Y-64840000D02*
X154700000Y-64840000D01*
X154700000Y-64840000D02*
X152540000Y-67000000D01*
X153540000Y-98000000D02*
X154160000Y-98000000D01*
X154160000Y-98000000D02*
X159160000Y-93000000D01*
X125160000Y-93000000D02*
X125160000Y-95380000D01*
X125160000Y-95380000D02*
X122540000Y-98000000D01*
D28*
X169000000Y-63460000D02*
X168000000Y-63460000D01*
X166000000Y-56920000D02*
X163540000Y-54460000D01*
X166000000Y-61460000D02*
X166000000Y-56920000D01*
X168000000Y-63460000D02*
X166000000Y-61460000D01*
X163540000Y-50460000D02*
X172000000Y-50460000D01*
X196000000Y-43460000D02*
X197430000Y-44890000D01*
X172000000Y-43460000D02*
X196000000Y-43460000D01*
X172000000Y-50460000D02*
X172000000Y-43460000D01*
X197430000Y-44890000D02*
X197430000Y-45680000D01*
X154700000Y-48500000D02*
X162040000Y-48500000D01*
X163540000Y-50000000D02*
X163540000Y-50460000D01*
X163540000Y-50460000D02*
X163540000Y-54460000D01*
X162040000Y-48500000D02*
X163540000Y-50000000D01*
D27*
X168000000Y-102000000D02*
X172000000Y-102000000D01*
X172000000Y-91000000D02*
X175000000Y-91000000D01*
X172000000Y-102000000D02*
X172000000Y-91000000D01*
X175000000Y-91000000D02*
X175000000Y-87000000D01*
X175000000Y-87000000D02*
X180760000Y-81240000D01*
X180760000Y-81240000D02*
X197430000Y-81240000D01*
X174570000Y-73620000D02*
X174380000Y-73620000D01*
X174380000Y-73620000D02*
X168000000Y-80000000D01*
X168000000Y-80000000D02*
X159000000Y-80000000D01*
X159000000Y-80000000D02*
X149000000Y-90000000D01*
X149000000Y-90000000D02*
X137500000Y-90000000D01*
X137500000Y-90000000D02*
X135000000Y-92500000D01*
X169000000Y-60920000D02*
X174570000Y-60920000D01*
X174570000Y-58380000D02*
X169000000Y-58380000D01*
X115000000Y-92600000D02*
X120400000Y-89000000D01*
X166650000Y-79000000D02*
X174570000Y-71080000D01*
X158000000Y-79000000D02*
X166650000Y-79000000D01*
X148000000Y-89000000D02*
X158000000Y-79000000D01*
X120400000Y-89000000D02*
X148000000Y-89000000D01*
X174570000Y-71080000D02*
X174570000Y-70277793D01*
X149000000Y-93000000D02*
X149000000Y-92000000D01*
X159760000Y-81240000D02*
X174570000Y-81240000D01*
X149000000Y-92000000D02*
X159760000Y-81240000D01*
X174604000Y-81274000D02*
X174570000Y-81240000D01*
X179000000Y-101000000D02*
X182000000Y-101000000D01*
X166500000Y-91900000D02*
X167100000Y-91900000D01*
X167100000Y-91900000D02*
X177000000Y-82000000D01*
X177000000Y-82000000D02*
X177000000Y-79000000D01*
X177000000Y-79000000D02*
X176700000Y-78700000D01*
X176700000Y-78700000D02*
X174570000Y-78700000D01*
X174570000Y-78700000D02*
X174700000Y-78700000D01*
X174270000Y-79000000D02*
X174570000Y-78700000D01*
X184160000Y-95000000D02*
X184160000Y-96840000D01*
X174000000Y-99000000D02*
X174000000Y-101000000D01*
X175000000Y-98000000D02*
X174000000Y-99000000D01*
X183000000Y-98000000D02*
X175000000Y-98000000D01*
X184160000Y-96840000D02*
X183000000Y-98000000D01*
X184160000Y-95000000D02*
X184160000Y-92540000D01*
X184160000Y-92540000D02*
X182620000Y-91000000D01*
X198000000Y-93540000D02*
X195540000Y-93540000D01*
X187000000Y-91000000D02*
X182620000Y-91000000D01*
X188000000Y-90000000D02*
X187000000Y-91000000D01*
X192000000Y-90000000D02*
X188000000Y-90000000D01*
X195540000Y-93540000D02*
X192000000Y-90000000D01*
X160000000Y-64750000D02*
X160000000Y-55460000D01*
X160000000Y-55460000D02*
X161000000Y-54460000D01*
X160000000Y-64750000D02*
X160000000Y-59460000D01*
X160000000Y-59460000D02*
X161000000Y-58460000D01*
D28*
X160000000Y-63500000D02*
X159500000Y-63000000D01*
X159500000Y-63000000D02*
X142000000Y-63000000D01*
X160000000Y-64750000D02*
X160000000Y-63500000D01*
D27*
X165020000Y-66520000D02*
X165020000Y-59940000D01*
X165020000Y-59940000D02*
X163540000Y-58460000D01*
X174570000Y-55840000D02*
X176660000Y-55840000D01*
X165020000Y-68770000D02*
X165020000Y-66520000D01*
X165250000Y-69000000D02*
X165020000Y-68770000D01*
X171250000Y-69000000D02*
X165250000Y-69000000D01*
X171250000Y-62200000D02*
X171250000Y-69000000D01*
X176750000Y-62200000D02*
X171250000Y-62200000D01*
X176750000Y-55930000D02*
X176750000Y-62200000D01*
X176660000Y-55840000D02*
X176750000Y-55930000D01*
M02*
