  0
SECTION
  2
HEADER
  9
$ACADVER
  1
AC1015
  9
$ACADMAINTVER
 70
     6
  9
$DWGCODEPAGE
  3
ANSI_1252
  9
$INSBASE
 10
0.0
 20
0.0
 30
0.0
  9
$EXTMIN
 10
-56.0
 20
-62.5
 30
0.0
  9
$EXTMAX
 10
56.0
 20
62.5
 30
0.0
  9
$LIMMIN
 10
0.0
 20
0.0
  9
$LIMMAX
 10
420.0
 20
297.0
  9
$ORTHOMODE
 70
     0
  9
$REGENMODE
 70
     1
  9
$FILLMODE
 70
     1
  9
$QTEXTMODE
 70
     0
  9
$MIRRTEXT
 70
     1
  9
$LTSCALE
 40
1.0
  9
$ATTMODE
 70
     1
  9
$TEXTSIZE
 40
3.5
  9
$TRACEWID
 40
1.0
  9
$TEXTSTYLE
  7
Standard
  9
$CLAYER
  8
0
  9
$CELTYPE
  6
ByLayer
  9
$CECOLOR
 62
   256
  9
$CELTSCALE
 40
1.0
  9
$DISPSILH
 70
     0
  9
$DIMSCALE
 40
1.0
  9
$DIMASZ
 40
3.302
  9
$DIMEXO
 40
1.0
  9
$DIMDLI
 40
3.75
  9
$DIMRND
 40
0.0
  9
$DIMDLE
 40
0.0
  9
$DIMEXE
 40
1.0
  9
$DIMTP
 40
0.0
  9
$DIMTM
 40
0.0
  9
$DIMTXT
 40
3.5
  9
$DIMCEN
 40
2.5
  9
$DIMTSZ
 40
0.0
  9
$DIMTOL
 70
     0
  9
$DIMLIM
 70
     0
  9
$DIMTIH
 70
     1
  9
$DIMTOH
 70
     1
  9
$DIMSE1
 70
     0
  9
$DIMSE2
 70
     0
  9
$DIMTAD
 70
     1
  9
$DIMZIN
 70
     0
  9
$DIMBLK
  1

  9
$DIMASO
 70
     1
  9
$DIMSHO
 70
     1
  9
$DIMPOST
  1

  9
$DIMAPOST
  1

  9
$DIMALT
 70
     0
  9
$DIMALTD
 70
     3
  9
$DIMALTF
 40
0.0393700787
  9
$DIMLFAC
 40
1.0
  9
$DIMTOFL
 70
     1
  9
$DIMTVP
 40
0.0
  9
$DIMTIX
 70
     0
  9
$DIMSOXD
 70
     0
  9
$DIMSAH
 70
     0
  9
$DIMBLK1
  1

  9
$DIMBLK2
  1

  9
$DIMSTYLE
  2
ISO-25
  9
$DIMCLRD
 70
     0
  9
$DIMCLRE
 70
     0
  9
$DIMCLRT
 70
     0
  9
$DIMTFAC
 40
1.0
  9
$DIMGAP
 40
1.524
  9
$DIMJUST
 70
     0
  9
$DIMSD1
 70
     0
  9
$DIMSD2
 70
     0
  9
$DIMTOLJ
 70
     0
  9
$DIMTZIN
 70
     0
  9
$DIMALTZ
 70
     0
  9
$DIMALTTZ
 70
     0
  9
$DIMUPT
 70
     0
  9
$DIMDEC
 70
     2
  9
$DIMTDEC
 70
     2
  9
$DIMALTU
 70
     2
  9
$DIMALTTD
 70
     3
  9
$DIMTXSTY
  7
Standard
  9
$DIMAUNIT
 70
     0
  9
$DIMADEC
 70
     2
  9
$DIMALTRND
 40
0.0
  9
$DIMAZIN
 70
     0
  9
$DIMDSEP
 70
    44
  9
$DIMATFIT
 70
     3
  9
$DIMFRAC
 70
     0
  9
$DIMLDRBLK
  1

  9
$DIMLUNIT
 70
     2
  9
$DIMLWD
 70
    -2
  9
$DIMLWE
 70
    -2
  9
$DIMTMOVE
 70
     0
  9
$LUNITS
 70
     2
  9
$LUPREC
 70
     2
  9
$SKETCHINC
 40
1.0
  9
$FILLETRAD
 40
10.0
  9
$AUNITS
 70
     0
  9
$AUPREC
 70
     2
  9
$MENU
  1
.
  9
$ELEVATION
 40
0.0
  9
$PELEVATION
 40
0.0
  9
$THICKNESS
 40
0.0
  9
$LIMCHECK
 70
     0
  9
$CHAMFERA
 40
0.0
  9
$CHAMFERB
 40
0.0
  9
$CHAMFERC
 40
0.0
  9
$CHAMFERD
 40
0.0
  9
$SKPOLY
 70
     0
  9
$TDCREATE
 40
2458148.672502002
  9
$TDUCREATE
 40
2458148.880835336
  9
$TDUPDATE
 40
2458148.672562153
  9
$TDUUPDATE
 40
2458148.880895486
  9
$TDINDWG
 40
0.0000000116
  9
$TDUSRTIMER
 40
0.0000000116
  9
$USRTIMER
 70
     1
  9
$ANGBASE
 50
0.0
  9
$ANGDIR
 70
     0
  9
$PDMODE
 70
     0
  9
$PDSIZE
 40
-1.0
  9
$PLINEWID
 40
0.0
  9
$SPLFRAME
 70
     0
  9
$SPLINETYPE
 70
     6
  9
$SPLINESEGS
 70
     8
  9
$HANDSEED
  5
FD
  9
$SURFTAB1
 70
     6
  9
$SURFTAB2
 70
     6
  9
$SURFTYPE
 70
     6
  9
$SURFU
 70
     6
  9
$SURFV
 70
     6
  9
$UCSBASE
  2

  9
$UCSNAME
  2

  9
$UCSORG
 10
0.0
 20
0.0
 30
0.0
  9
$UCSXDIR
 10
1.0
 20
0.0
 30
0.0
  9
$UCSYDIR
 10
0.0
 20
1.0
 30
0.0
  9
$UCSORTHOREF
  2

  9
$UCSORTHOVIEW
 70
     0
  9
$UCSORGTOP
 10
0.0
 20
0.0
 30
0.0
  9
$UCSORGBOTTOM
 10
0.0
 20
0.0
 30
0.0
  9
$UCSORGLEFT
 10
0.0
 20
0.0
 30
0.0
  9
$UCSORGRIGHT
 10
0.0
 20
0.0
 30
0.0
  9
$UCSORGFRONT
 10
0.0
 20
0.0
 30
0.0
  9
$UCSORGBACK
 10
0.0
 20
0.0
 30
0.0
  9
$PUCSBASE
  2

  9
$PUCSNAME
  2

  9
$PUCSORG
 10
0.0
 20
0.0
 30
0.0
  9
$PUCSXDIR
 10
1.0
 20
0.0
 30
0.0
  9
$PUCSYDIR
 10
0.0
 20
1.0
 30
0.0
  9
$PUCSORTHOREF
  2

  9
$PUCSORTHOVIEW
 70
     0
  9
$PUCSORGTOP
 10
0.0
 20
0.0
 30
0.0
  9
$PUCSORGBOTTOM
 10
0.0
 20
0.0
 30
0.0
  9
$PUCSORGLEFT
 10
0.0
 20
0.0
 30
0.0
  9
$PUCSORGRIGHT
 10
0.0
 20
0.0
 30
0.0
  9
$PUCSORGFRONT
 10
0.0
 20
0.0
 30
0.0
  9
$PUCSORGBACK
 10
0.0
 20
0.0
 30
0.0
  9
$USERI1
 70
     0
  9
$USERI2
 70
     0
  9
$USERI3
 70
     0
  9
$USERI4
 70
     0
  9
$USERI5
 70
     0
  9
$USERR1
 40
0.0
  9
$USERR2
 40
0.0
  9
$USERR3
 40
0.0
  9
$USERR4
 40
0.0
  9
$USERR5
 40
0.0
  9
$WORLDVIEW
 70
     1
  9
$SHADEDGE
 70
     3
  9
$SHADEDIF
 70
    70
  9
$TILEMODE
 70
     1
  9
$MAXACTVP
 70
    64
  9
$PINSBASE
 10
0.0
 20
0.0
 30
0.0
  9
$PLIMCHECK
 70
     0
  9
$PEXTMIN
 10
1.0000000000E+20
 20
1.0000000000E+20
 30
1.0000000000E+20
  9
$PEXTMAX
 10
-1.0000000000E+20
 20
-1.0000000000E+20
 30
-1.0000000000E+20
  9
$PLIMMIN
 10
0.0
 20
0.0
  9
$PLIMMAX
 10
420.0
 20
297.0
  9
$UNITMODE
 70
     0
  9
$VISRETAIN
 70
     1
  9
$PLINEGEN
 70
     0
  9
$PSLTSCALE
 70
     1
  9
$TREEDEPTH
 70
  3020
  9
$CMLSTYLE
  2
Standard
  9
$CMLJUST
 70
     0
  9
$CMLSCALE
 40
20.0
  9
$PROXYGRAPHICS
 70
     1
  9
$MEASUREMENT
 70
     1
  9
$CELWEIGHT
370
    -1
  9
$ENDCAPS
280
     0
  9
$JOINSTYLE
280
     0
  9
$LWDISPLAY
290
     1
  9
$INSUNITS
 70
     4
  9
$HYPERLINKBASE
  1

  9
$STYLESHEET
  1

  9
$XEDIT
290
     1
  9
$CEPSNTYPE
380
     0
  9
$PSTYLEMODE
290
     1
  9
$FINGERPRINTGUID
  2
{AD7A7F0B-ABEA-4099-98FF-BAC0715C18CF}
  9
$VERSIONGUID
  2
{FAEB1C32-E019-11D5-929B-00C0DF256EC4}
  9
$EXTNAMES
290
     1
  9
$PSVPSCALE
 40
0.0
  9
$OLESTARTUP
290
     0
  0
ENDSEC
  0
SECTION
  2
CLASSES
  0
CLASS
  1
ACDBDICTIONARYWDFLT
  2
AcDbDictionaryWithDefault
  3
ObjectDBX Classes
 90
        0
280
     0
281
     0
  0
CLASS
  1
VISUALSTYLE
  2
AcDbVisualStyle
  3
ObjectDBX Classes
 90
     4095
280
     0
281
     0
  0
CLASS
  1
MATERIAL
  2
AcDbMaterial
  3
ObjectDBX Classes
 90
     1153
280
     0
281
     0
  0
CLASS
  1
SCALE
  2
AcDbScale
  3
ObjectDBX Classes
 90
     1153
280
     0
281
     0
  0
CLASS
  1
TABLESTYLE
  2
AcDbTableStyle
  3
ObjectDBX Classes
 90
     4095
280
     0
281
     0
  0
CLASS
  1
MLEADERSTYLE
  2
AcDbMLeaderStyle
  3
ACDB_MLEADERSTYLE_CLASS
 90
     4095
280
     0
281
     0
  0
CLASS
  1
SUN
  2
AcDbSun
  3
SCENEOE
 90
     1153
280
     0
281
     0
  0
CLASS
  1
ACDBPLACEHOLDER
  2
AcDbPlaceHolder
  3
ObjectDBX Classes
 90
        0
280
     0
281
     0
  0
CLASS
  1
LAYOUT
  2
AcDbLayout
  3
ObjectDBX Classes
 90
        0
280
     0
281
     0
  0
ENDSEC
  0
SECTION
  2
TABLES
  0
TABLE
  2
VPORT
  5
8
330
0
100
AcDbSymbolTable
 70
     1
  0
VPORT
  5
29
330
8
100
AcDbSymbolTableRecord
100
AcDbViewportTableRecord
  2
*Active
 70
     0
 10
0.0
 20
0.0
 11
1.0
 21
1.0
 12
0.0
 22
0.0
 13
0.0
 23
0.0
 14
10.0
 24
10.0
 15
10.0
 25
10.0
 16
0.0
 26
0.0
 36
1.0
 17
0.0
 27
0.0
 37
0.0
 40
127.5
 41
0.896
 42
50.0
 43
0.0
 44
0.0
 50
0.0
 51
0.0
 71
     0
 72
   100
 73
     1
 74
     3
 75
     0
 76
     0
 77
     0
 78
     0
281
     0
 65
     1
110
0.0
120
0.0
130
0.0
111
1.0
121
0.0
131
0.0
112
0.0
122
1.0
132
0.0
 79
     0
146
0.0
  0
ENDTAB
  0
TABLE
  2
LTYPE
  5
5
330
0
100
AcDbSymbolTable
 70
     6
  0
LTYPE
  5
14
330
5
100
AcDbSymbolTableRecord
100
AcDbLinetypeTableRecord
  2
ByBlock
 70
     0
  3

 72
    65
 73
     0
 40
0.0
  0
LTYPE
  5
15
330
5
100
AcDbSymbolTableRecord
100
AcDbLinetypeTableRecord
  2
ByLayer
 70
     0
  3

 72
    65
 73
     0
 40
0.0
  0
LTYPE
  5
16
330
5
100
AcDbSymbolTableRecord
100
AcDbLinetypeTableRecord
  2
Continuous
 70
     0
  3
Solid line
 72
    65
 73
     0
 40
0.0
  0
LTYPE
  5
6E
330
5
100
AcDbSymbolTableRecord
100
AcDbLinetypeTableRecord
  2
HIDDEN
 70
     0
  3
Hidden __ __ __ __ __ __ __ __ __ __ __ __ __ __
 72
    65
 73
     2
 40
1.905
 49
1.27
 74
     0
 49
-0.635
 74
     0
  0
LTYPE
  5
6F
330
5
100
AcDbSymbolTableRecord
100
AcDbLinetypeTableRecord
  2
PHANTOM
 70
     0
  3
Phantom ______  __  __  ______  __  __  ______
 72
    65
 73
     6
 40
12.7
 49
6.35
 74
     0
 49
-1.27
 74
     0
 49
1.27
 74
     0
 49
-1.27
 74
     0
 49
1.27
 74
     0
 49
-1.27
 74
     0
  0
LTYPE
  5
70
330
5
100
AcDbSymbolTableRecord
100
AcDbLinetypeTableRecord
  2
CENTER
 70
     0
  3
Center ____ _ ____ _ ____ _ ____ _ ____ _ ____
 72
    65
 73
     4
 40
10.16
 49
6.35
 74
     0
 49
-1.27
 74
     0
 49
1.27
 74
     0
 49
-1.27
 74
     0
  0
LTYPE
  5
71
330
5
100
AcDbSymbolTableRecord
100
AcDbLinetypeTableRecord
  2
CENTERX2
 70
     0
  3
Center (2x) ________  __  ________  __  _____
 72
    65
 73
     4
 40
20.32
 49
12.7
 74
     0
 49
-2.54
 74
     0
 49
2.54
 74
     0
 49
-2.54
 74
     0
  0
LTYPE
  5
72
330
5
100
AcDbSymbolTableRecord
100
AcDbLinetypeTableRecord
  2
DOT2
 70
     0
  3
Dot (.5x) ........................................
 72
    65
 73
     2
 40
0.635
 49
0.0
 74
     0
 49
-0.635
 74
     0
  0
ENDTAB
  0
TABLE
  2
LAYER
  5
2
330
0
100
AcDbSymbolTable
 70
     1
  0
LAYER
  5
10
330
2
100
AcDbSymbolTableRecord
100
AcDbLayerTableRecord
  2
0
 70
     0
 62
     7
  6
Continuous
370
    -3
390
F
  0
ENDTAB
  0
TABLE
  2
STYLE
  5
3
330
0
100
AcDbSymbolTable
 70
     2
  0
STYLE
  5
11
330
3
100
AcDbSymbolTableRecord
100
AcDbTextStyleTableRecord
  2
Standard
 70
     0
 40
0.0
 41
1.0
 50
0.0
 71
     0
 42
3.5
  3
txt
  4

  0
STYLE
  5
FA
330
3
100
AcDbSymbolTableRecord
100
AcDbTextStyleTableRecord
  2
SLDTEXTSTYLE0
 70
     0
 40
0.0
 41
0.7
 50
0.0
 71
     0
 42
3.5
  3
TXT
  4

  0
ENDTAB
  0
TABLE
  2
VIEW
  5
6
330
0
100
AcDbSymbolTable
 70
     0
  0
ENDTAB
  0
TABLE
  2
UCS
  5
7
330
0
100
AcDbSymbolTable
 70
     0
  0
ENDTAB
  0
TABLE
  2
APPID
  5
9
330
0
100
AcDbSymbolTable
 70
     1
  0
APPID
  5
12
330
9
100
AcDbSymbolTableRecord
100
AcDbRegAppTableRecord
  2
ACAD
 70
     0
  0
ENDTAB
  0
TABLE
  2
DIMSTYLE
  5
A
330
0
100
AcDbSymbolTable
 70
     1
100
AcDbDimStyleTable
  0
DIMSTYLE
105
27
330
A
100
AcDbSymbolTableRecord
100
AcDbDimStyleTableRecord
  2
ISO-25
 70
     0
 41
2.5
 42
0.625
 43
3.75
 44
1.25
 73
     0
 74
     0
 77
     1
 78
     8
140
2.5
141
2.5
143
0.0393700787
147
0.625
171
     3
172
     1
178
     0
271
     2
272
     2
274
     3
278
    44
283
     0
284
     8
340
11
  0
ENDTAB
  0
TABLE
  2
BLOCK_RECORD
  5
1
330
0
100
AcDbSymbolTable
 70
     1
  0
BLOCK_RECORD
  5
1F
330
1
100
AcDbSymbolTableRecord
100
AcDbBlockTableRecord
  2
*Model_Space
340
22
  0
BLOCK_RECORD
  5
1B
330
1
100
AcDbSymbolTableRecord
100
AcDbBlockTableRecord
  2
*Paper_Space
340
1E
  0
BLOCK_RECORD
  5
23
330
1
100
AcDbSymbolTableRecord
100
AcDbBlockTableRecord
  2
*Paper_Space0
340
26
  0
ENDTAB
  0
ENDSEC
  0
SECTION
  2
BLOCKS
  0
BLOCK
  5
20
330
1F
100
AcDbEntity
  8
0
100
AcDbBlockBegin
  2
*Model_Space
 70
     0
 10
0.0
 20
0.0
 30
0.0
  3
*Model_Space
  1

  0
ENDBLK
  5
21
330
1F
100
AcDbEntity
  8
0
100
AcDbBlockEnd
  0
BLOCK
  5
1C
330
1B
100
AcDbEntity
 67
     1
  8
0
100
AcDbBlockBegin
  2
*Paper_Space
 70
     0
 10
0.0
 20
0.0
 30
0.0
  3
*Paper_Space
  1

  0
ENDBLK
  5
1D
330
1B
100
AcDbEntity
 67
     1
  8
0
100
AcDbBlockEnd
  0
BLOCK
  5
24
330
23
100
AcDbEntity
  8
0
100
AcDbBlockBegin
  2
*Paper_Space0
 70
     0
 10
0.0
 20
0.0
 30
0.0
  3
*Paper_Space0
  1

  0
ENDBLK
  5
25
330
23
100
AcDbEntity
  8
0
100
AcDbBlockEnd
  0
ENDSEC
  0
SECTION
  2
ENTITIES
  0
LINE
  5
73
330
1F
100
AcDbEntity
  8
0
  6
Continuous
 62
     7
370
    25
100
AcDbLine
 10
34.1606570513
 20
43.7820512821
 30
0.0
 11
34.3068910256
 21
44.8076923077
 31
0.0
  0
LINE
  5
74
330
1F
100
AcDbEntity
  8
0
  6
Continuous
 62
     7
370
    25
100
AcDbLine
 10
34.3068910256
 20
44.8076923077
 30
0.0
 11
36.1177884615
 21
44.8076923077
 31
0.0
  0
LINE
  5
75
330
1F
100
AcDbEntity
  8
0
  6
Continuous
 62
     7
370
    25
100
AcDbLine
 10
36.1177884615
 20
44.8076923077
 30
0.0
 11
35.0801282051
 21
37.5
 31
0.0
  0
LINE
  5
76
330
1F
100
AcDbEntity
  8
0
  6
Continuous
 62
     7
370
    25
100
AcDbLine
 10
35.0801282051
 20
37.5
 30
0.0
 11
33.2692307692
 21
37.5
 31
0.0
  0
LINE
  5
77
330
1F
100
AcDbEntity
  8
0
  6
Continuous
 62
     7
370
    25
100
AcDbLine
 10
33.2692307692
 20
37.5
 30
0.0
 11
33.3954326923
 21
38.3934294872
 31
0.0
  0
SPLINE
  5
78
330
1F
100
AcDbEntity
  8
0
  6
Continuous
 62
     7
370
    25
100
AcDbSpline
210
0.0
220
0.0
230
1.0
 70
     8
 71
     3
 72
    15
 73
    11
 74
     0
 42
0.000000001
 43
0.00000001
 40
0.0
 40
0.0
 40
0.0
 40
0.0
 40
0.1545405232908223
 40
0.2946813644490779
 40
0.4224235927075976
 40
0.537855872498979
 40
0.6481792197221303
 40
0.7612352379798242
 40
0.877581674736827
 40
1.0
 40
1.0
 40
1.0
 40
1.0
 10
33.3954326923077
 20
38.39342948717947
 30
0.0
 10
33.30127088798748
 20
38.3038002495572
 30
0.0
 10
33.1217210302207
 20
38.13289319246539
 30
0.0
 10
32.84363019738818
 20
37.91116947718329
 30
0.0
 10
32.57593520497381
 20
37.73084612128766
 30
0.0
 10
32.31201812101398
 20
37.59254043712116
 30
0.0
 10
32.04462988174438
 20
37.49219743028572
 30
0.0
 10
31.7670800598601
 20
37.42269668052328
 30
0.0
 10
31.47372504301527
 20
37.37922971364259
 30
0.0
 10
31.27285891434985
 20
37.37431481505811
 30
0.0
 10
31.1698717948718
 20
37.37179487179487
 30
0.0
  0
SPLINE
  5
79
330
1F
100
AcDbEntity
  8
0
  6
Continuous
 62
     7
370
    25
100
AcDbSpline
210
0.0
220
0.0
230
1.0
 70
     8
 71
     3
 72
    23
 73
    19
 74
     0
 42
0.000000001
 43
0.00000001
 40
0.0
 40
0.0
 40
0.0
 40
0.0
 40
0.0670159320370799
 40
0.1312471679086714
 40
0.1933376551656647
 40
0.2536647068788831
 40
0.3135633213479019
 40
0.3737066153021439
 40
0.4351470451255159
 40
0.4981684935126932
 40
0.5617681429202565
 40
0.6239424639003595
 40
0.685864943217314
 40
0.7471768943847593
 40
0.8087866466966521
 40
0.8713009647254267
 40
0.9349006141329893
 40
1.0
 40
1.0
 40
1.0
 40
1.0
 10
31.1698717948718
 20
37.37179487179487
 30
0.0
 10
31.05215515982126
 20
37.37453724218926
 30
0.0
 10
30.82161333944379
 20
37.3799080299509
 30
0.0
 10
30.48531645777785
 20
37.43188151100464
 30
0.0
 10
30.16739604517515
 20
37.51316692380892
 30
0.0
 10
29.86770238832099
 20
37.62786312676504
 30
0.0
 10
29.58785483254683
 20
37.77757425852188
 30
0.0
 10
29.32517413033267
 20
37.95906000758632
 30
0.0
 10
29.08203567536946
 20
38.17455448847305
 30
0.0
 10
28.86177401361561
 20
38.42120725930845
 30
0.0
 10
28.66313167164368
 20
38.68705184033941
 30
0.0
 10
28.49035288992474
 20
38.96797185172066
 30
0.0
 10
28.34032584150226
 20
39.25739463463605
 30
0.0
 10
28.22355297203585
 20
39.56060763436021
 30
0.0
 10
28.12715811214197
 20
39.87194016172339
 30
0.0
 10
28.06262779572102
 20
40.19554447227874
 30
0.0
 10
28.0210010560202
 20
40.52909714543956
 30
0.0
 10
28.01556846265014
 20
40.75508192815237
 30
0.0
 10
28.01282051282052
 20
40.86939102564102
 30
0.0
  0
SPLINE
  5
7A
330
1F
100
AcDbEntity
  8
0
  6
Continuous
 62
     7
370
    25
100
AcDbSpline
210
0.0
220
0.0
230
1.0
 70
     8
 71
     3
 72
    31
 73
    27
 74
     0
 42
0.000000001
 43
0.00000001
 40
0.0
 40
0.0
 40
0.0
 40
0.0
 40
0.0421192483107582
 40
0.0837880883361773
 40
0.1255252259851808
 40
0.1671452133763856
 40
0.2091193058907412
 40
0.2514132861155944
 40
0.2942271836052113
 40
0.3378845365656528
 40
0.3815337337375836
 40
0.4245420145750322
 40
0.4669800564610559
 40
0.5089662644591434
 40
0.5507034021081461
 40
0.5923563713121837
 40
0.6344006850347612
 40
0.6766946652596146
 40
0.718795796465092
 40
0.760029046777342
 40
0.8007196898343218
 40
0.8408654594910425
 40
0.8805499586036766
 40
0.9203470816502531
 40
0.9601122416983017
 40
1.0
 40
1.0
 40
1.0
 40
1.0
 10
28.01282051282052
 20
40.86939102564101
 30
0.0
 10
28.01419932905105
 20
40.95759629973167
 30
0.0
 10
28.01694221694094
 20
41.13306361203259
 30
0.0
 10
28.04403286605006
 20
41.39479328017358
 30
0.0
 10
28.08817372474972
 20
41.65295886194875
 30
0.0
 10
28.1487975818379
 20
41.90841704861339
 30
0.0
 10
28.22436448797531
 20
42.16109779848182
 30
0.0
 10
28.31882830831717
 20
42.41009299305031
 30
0.0
 10
28.43214022546742
 20
42.6549012715862
 30
0.0
 10
28.55950810045286
 20
42.89581567636009
 30
0.0
 10
28.70009511934237
 20
43.12993055847529
 30
0.0
 10
28.85780227588346
 20
43.34966772792416
 30
0.0
 10
29.02335207631004
 20
43.55904302903325
 30
0.0
 10
29.20205476760585
 20
43.75395117990467
 30
0.0
 10
29.39345997278334
 20
43.93375589480927
 30
0.0
 10
29.59362206093313
 20
44.10412699410288
 30
0.0
 10
29.80898634208595
 20
44.2568104426315
 30
0.0
 10
30.03196918159883
 20
44.39978070999958
 30
0.0
 10
30.26386580946934
 20
44.52426859215812
 30
0.0
 10
30.49839164521322
 20
44.63613877771608
 30
0.0
 10
30.7373582238581
 20
44.72733617568088
 30
0.0
 10
30.97775196688174
 20
44.80453534181782
 30
0.0
 10
31.22166837941062
 20
44.86250828831277
 30
0.0
 10
31.46791648721617
 20
44.90417945152752
 30
0.0
 10
31.71678573193369
 20
44.93183434712274
 30
0.0
 10
31.88360794611501
 20
44.9345416839681
 30
0.0
 10
31.96714743589745
 20
44.93589743589742
 30
0.0
  0
SPLINE
  5
7B
330
1F
100
AcDbEntity
  8
0
  6
Continuous
 62
     7
370
    25
100
AcDbSpline
210
0.0
220
0.0
230
1.0
 70
     8
 71
     3
 72
    15
 73
    11
 74
     0
 42
0.000000001
 43
0.00000001
 40
0.0
 40
0.0
 40
0.0
 40
0.0
 40
0.1288136340149798
 40
0.2539101596020811
 40
0.3769622297294812
 40
0.500481809801486
 40
0.6241980907616119
 40
0.7471452144908038
 40
0.8715293997947882
 40
1.0
 40
1.0
 40
1.0
 40
1.0
 10
31.96714743589745
 20
44.93589743589742
 30
0.0
 10
32.07824431653133
 20
44.93273225795714
 30
0.0
 10
32.29723221256231
 20
44.9264932379797
 30
0.0
 10
32.61797201571284
 20
44.86800717957982
 30
0.0
 10
32.9252347451693
 20
44.77550495574413
 30
0.0
 10
33.21825982513109
 20
44.64722818482511
 30
0.0
 10
33.49344612068481
 20
44.48377520041523
 30
0.0
 10
33.74275771573103
 20
44.28243494921333
 30
0.0
 10
33.97182787601416
 20
44.05165265683027
 30
0.0
 10
34.09703947324572
 20
43.87288145421283
 30
0.0
 10
34.16065705128206
 20
43.78205128205127
 30
0.0
  0
LINE
  5
7C
330
1F
100
AcDbEntity
  8
0
  6
Continuous
 62
     7
370
    25
100
AcDbLine
 10
18.5256410256
 20
47.7564102564
 30
0.0
 11
18.141025641
 21
44.4230769231
 31
0.0
  0
LINE
  5
7D
330
1F
100
AcDbEntity
  8
0
  6
Continuous
 62
     7
370
    25
100
AcDbLine
 10
18.141025641
 20
44.4230769231
 30
0.0
 11
17.1153846154
 21
44.4230769231
 31
0.0
  0
LINE
  5
7E
330
1F
100
AcDbEntity
  8
0
  6
Continuous
 62
     7
370
    25
100
AcDbLine
 10
17.1153846154
 20
44.4230769231
 30
0.0
 11
16.7307692308
 21
47.7564102564
 31
0.0
  0
LINE
  5
7F
330
1F
100
AcDbEntity
  8
0
  6
Continuous
 62
     7
370
    25
100
AcDbLine
 10
16.7307692308
 20
47.7564102564
 30
0.0
 11
18.5256410256
 21
47.7564102564
 31
0.0
  0
SPLINE
  5
80
330
1F
100
AcDbEntity
  8
0
  6
Continuous
 62
     7
370
    25
100
AcDbSpline
210
0.0
220
0.0
230
1.0
 70
     8
 71
     3
 72
    15
 73
    11
 74
     0
 42
0.000000001
 43
0.00000001
 40
0.0
 40
0.0
 40
0.0
 40
0.0
 40
0.1284017885308366
 40
0.2544174022977547
 40
0.3781899073892651
 40
0.5012748800724866
 40
0.6234949985275945
 40
0.7466506640001497
 40
0.8716999293001787
 40
1.0
 40
1.0
 40
1.0
 40
1.0
 10
-2.754407051282066
 20
39.03846153846153
 30
0.0
 10
-2.672214327055038
 20
39.04059687998456
 30
0.0
 10
-2.509356319975222
 20
39.04482788057669
 30
0.0
 10
-2.268342375076375
 20
39.07218517022983
 30
0.0
 10
-2.034912280883517
 20
39.12364516594538
 30
0.0
 10
-1.808464696317198
 20
39.19160540038303
 30
0.0
 10
-1.588123982201868
 20
39.27703336724492
 30
0.0
 10
-1.37793504971259
 20
39.3874561611713
 30
0.0
 10
-1.171682390680757
 20
39.51281957744884
 30
0.0
 10
-1.042821350845632
 20
39.61149005733461
 30
0.0
 10
-0.9775641025641171
 20
39.66145833333332
 30
0.0
  0
LINE
  5
81
330
1F
100
AcDbEntity
  8
0
  6
Continuous
 62
     7
370
    25
100
AcDbLine
 10
-0.9775641026
 20
39.6614583333
 30
0.0
 11
0.5909455128
 21
38.8561698718
 31
0.0
  0
SPLINE
  5
82
330
1F
100
AcDbEntity
  8
0
  6
Continuous
 62
     7
370
    25
100
AcDbSpline
210
0.0
220
0.0
230
1.0
 70
     8
 71
     3
 72
    15
 73
    11
 74
     0
 42
0.000000001
 43
0.00000001
 40
0.0
 40
0.0
 40
0.0
 40
0.0
 40
0.114280616568404
 40
0.2297046096145504
 40
0.3488172121132684
 40
0.4730109665898702
 40
0.6000987715392964
 40
0.7296582987426913
 40
0.8623481336975595
 40
0.9999999999999999
 40
0.9999999999999999
 40
0.9999999999999999
 40
0.9999999999999999
 10
0.5909455128204986
 20
38.85616987179486
 30
0.0
 10
0.498284259376969
 20
38.74530312552446
 30
0.0
 10
0.312034677533834
 20
38.52246041224566
 30
0.0
 10
-0.0227864900871431
 20
38.23364119745085
 30
0.0
 10
-0.3973890878483423
 20
37.97762323304165
 30
0.0
 10
-0.8130821326201154
 20
37.76112665983702
 30
0.0
 10
-1.262011526976281
 20
37.5857674797941
 30
0.0
 10
-1.739029186408636
 20
37.46371189197962
 30
0.0
 10
-2.238892319165069
 20
37.38371554046623
 30
0.0
 10
-2.580478904799915
 20
37.3758167545417
 30
0.0
 10
-2.754407051282066
 20
37.37179487179487
 30
0.0
  0
SPLINE
  5
83
330
1F
100
AcDbEntity
  8
0
  6
Continuous
 62
     7
370
    25
100
AcDbSpline
210
0.0
220
0.0
230
1.0
 70
     8
 71
     3
 72
    23
 73
    19
 74
     0
 42
0.000000001
 43
0.00000001
 40
0.0
 40
0.0
 40
0.0
 40
0.0
 40
0.0729697936478491
 40
0.1420389875771841
 40
0.2083357357573257
 40
0.2720961606797341
 40
0.3333363940943421
 40
0.3937747915180649
 40
0.4531663522849476
 40
0.5127834733991253
 40
0.5717519715821849
 40
0.6302370051865235
 40
0.6882134009886217
 40
0.7470515358907595
 40
0.8068070401793445
 40
0.8686845984066133
 40
0.9327600012200977
 40
1.0
 40
1.0
 40
1.0
 40
1.0
 10
-2.754407051282066
 20
37.37179487179487
 30
0.0
 10
-2.890098853251349
 20
37.37410117268832
 30
0.0
 10
-3.154229053033117
 20
37.37859049117998
 30
0.0
 10
-3.539281456453893
 20
37.42465359842252
 30
0.0
 10
-3.903155905494888
 20
37.49479173915317
 30
0.0
 10
-4.244003039883856
 20
37.59793622900654
 30
0.0
 10
-4.564727144847839
 20
37.7256987708832
 30
0.0
 10
-4.861371466031287
 20
37.88640801437771
 30
0.0
 10
-5.135866565031945
 20
38.07682388265444
 30
0.0
 10
-5.388237584518518
 20
38.29177026948144
 30
0.0
 10
-5.612489580150752
 20
38.53351925664653
 30
0.0
 10
-5.810205866301803
 20
38.79365474767519
 30
0.0
 10
-5.975003604992652
 20
39.07548947112654
 30
0.0
 10
-6.112509398401921
 20
39.37420702833911
 30
0.0
 10
-6.215800107144123
 20
39.69402177549731
 30
0.0
 10
-6.292674575455227
 20
40.03099430496794
 30
0.0
 10
-6.336377289004559
 20
40.38814826435038
 30
0.0
 10
-6.3428430538533
 20
40.6322297245482
 30
0.0
 10
-6.346153846153861
 20
40.75721153846153
 30
0.0
  0
SPLINE
  5
84
330
1F
100
AcDbEntity
  8
0
  6
Continuous
 62
     7
370
    25
100
AcDbSpline
210
0.0
220
0.0
230
1.0
 70
     8
 71
     3
 72
    23
 73
    19
 74
     0
 42
0.000000001
 43
0.00000001
 40
0.0
 40
0.0
 40
0.0
 40
0.0
 40
0.0659558193606175
 40
0.1297179851096963
 40
0.1917936995390671
 40
0.2534426882014754
 40
0.3144552307863672
 40
0.3761666657863592
 40
0.4389997455570185
 40
0.503223608308627
 40
0.5676541188926222
 40
0.6299978790945648
 40
0.6910804400689272
 40
0.7519480741920347
 40
0.8121515029459548
 40
0.8733331834482038
 40
0.9358815423369379
 40
1.0
 40
1.0
 40
1.0
 40
1.0
 10
-6.346153846153861
 20
40.75721153846153
 30
0.0
 10
-6.343191023512154
 20
40.90099204909399
 30
0.0
 10
-6.337363920050393
 20
41.1837710111036
 30
0.0
 10
-6.276473483986986
 20
41.59814072805163
 30
0.0
 10
-6.182677459641559
 20
41.99610608040142
 30
0.0
 10
-6.051212262714754
 20
42.37744224301284
 30
0.0
 10
-5.877820355950504
 20
42.74044439576945
 30
0.0
 10
-5.67223721741043
 20
43.08932087792458
 30
0.0
 10
-5.423508761287585
 20
43.4178173260762
 30
0.0
 10
-5.142429221088922
 20
43.72677276701786
 30
0.0
 10
-4.835191472435234
 20
44.00822415564146
 30
0.0
 10
-4.509426037723569
 20
44.25699961618287
 30
0.0
 10
-4.166231431301407
 20
44.46673075458844
 30
0.0
 10
-3.808143828572351
 20
44.63927135089089
 30
0.0
 10
-3.433473582036176
 20
44.7732701806934
 30
0.0
 10
-3.043083159014323
 20
44.86584068816733
 30
0.0
 10
-2.6374780870612
 20
44.92699297612579
 30
0.0
 10
-2.36133665768418
 20
44.9329048557351
 30
0.0
 10
-2.221554487179501
 20
44.93589743589742
 30
0.0
  0
SPLINE
  5
85
330
1F
100
AcDbEntity
  8
0
  6
Continuous
 62
     7
370
    25
100
AcDbSpline
210
0.0
220
0.0
230
1.0
 70
     8
 71
     3
 72
    31
 73
    27
 74
     0
 42
0.000000001
 43
0.00000001
 40
0.0
 40
0.0
 40
0.0
 40
0.0
 40
0.0446809969028018
 40
0.0880759799459773
 40
0.1307453994017299
 40
0.1724000616766115
 40
0.2133602313619391
 40
0.2540690628456558
 40
0.2945631830022429
 40
0.334983949722213
 40
0.3752084533093033
 40
0.415023556189125
 40
0.455006015263562
 40
0.4948024795672444
 40
0.534897663380672
 40
0.5754848122383237
 40
0.6170324693527224
 40
0.6594300646366641
 40
0.7018903190119414
 40
0.7444160479895272
 40
0.7861196625383857
 40
0.8281908079501938
 40
0.8706058988037741
 40
0.9133288967008679
 40
0.9563734010993918
 40
1.0
 40
1.0
 40
1.0
 40
1.0
 10
-2.221554487179501
 20
44.93589743589742
 30
0.0
 10
-2.136725938610107
 20
44.93401471239907
 30
0.0
 10
-1.969510387021199
 20
44.93030345417794
 30
0.0
 10
-1.721738688255781
 20
44.91115452662707
 30
0.0
 10
-1.48197573521688
 20
44.87379510018978
 30
0.0
 10
-1.248511713607453
 20
44.82726392496704
 30
0.0
 10
-1.023276864116312
 20
44.76215395341249
 30
0.0
 10
-0.8050378262802962
 20
44.6833497723369
 30
0.0
 10
-0.5915419943018521
 20
44.59463787187934
 30
0.0
 10
-0.3880749317093826
 20
44.48692235354378
 30
0.0
 10
-0.1909599452315505
 20
44.37046636498731
 30
0.0
 10
-0.0065415672103129
 20
44.23612726002805
 30
0.0
 10
0.1699100880910188
 20
44.09300269565053
 30
0.0
 10
0.3353170448622886
 20
43.93617090726016
 30
0.0
 10
0.4871376952831139
 20
43.76477127279951
 30
0.0
 10
0.6304783245780863
 20
43.58199319573055
 30
0.0
 10
0.7619354569324587
 20
43.38522447717585
 30
0.0
 10
0.8841605613532252
 20
43.1784222961921
 30
0.0
 10
0.9911569318771498
 20
42.96135174701907
 30
0.0
 10
1.088501225512516
 20
42.74112724380571
 30
0.0
 10
1.165571004701077
 20
42.51383328070781
 30
0.0
 10
1.233549536728361
 20
42.28386781037048
 30
0.0
 10
1.281454652653126
 20
42.04693948079878
 30
0.0
 10
1.321897229545852
 20
41.8067586498192
 30
0.0
 10
1.340305668632657
 20
41.56144983488254
 30
0.0
 10
1.344195744892577
 20
41.39691998904022
 30
0.0
 10
1.346153846153832
 20
41.31410256410255
 30
0.0
  0
SPLINE
  5
86
330
1F
100
AcDbEntity
  8
0
  6
Continuous
 62
     7
370
    25
100
AcDbSpline
210
0.0
220
0.0
230
1.0
 70
     8
 71
     3
 72
    11
 73
     7
 74
     0
 42
0.000000001
 43
0.00000001
 40
0.0
 40
0.0
 40
0.0
 40
0.0
 40
0.2217151620132368
 40
0.4601348967781127
 40
0.7213246177345415
 40
1.0
 40
1.0
 40
1.0
 40
1.0
 10
1.346153846153832
 20
41.31410256410256
 30
0.0
 10
1.345297618458212
 20
41.25933122031523
 30
0.0
 10
1.343520652738931
 20
41.14566192322643
 30
0.0
 10
1.331027644235151
 20
40.96781546543436
 30
0.0
 10
1.308697901563122
 20
40.77680186269661
 30
0.0
 10
1.288480818384818
 20
40.64497260901071
 30
0.0
 10
1.278044871794858
 20
40.57692307692307
 30
0.0
  0
LINE
  5
87
330
1F
100
AcDbEntity
  8
0
  6
Continuous
 62
     7
370
    25
100
AcDbLine
 10
1.2780448718
 20
40.5769230769
 30
0.0
 11
-4.5512820513
 21
40.5769230769
 31
0.0
  0
SPLINE
  5
88
330
1F
100
AcDbEntity
  8
0
  6
Continuous
 62
     7
370
    25
100
AcDbSpline
210
0.0
220
0.0
230
1.0
 70
     8
 71
     3
 72
    23
 73
    19
 74
     0
 42
0.000000001
 43
0.00000001
 40
0.0
 40
0.0
 40
0.0
 40
0.0
 40
0.0650187786050623
 40
0.1268366416386154
 40
0.1862517494544561
 40
0.2444648676664695
 40
0.3017537533662753
 40
0.359027769778547
 40
0.4168199350056123
 40
0.4749012221243797
 40
0.5344499759171478
 40
0.5940368592184139
 40
0.6546956793711507
 40
0.7181095726016963
 40
0.7837368289729157
 40
0.8518770369417659
 40
0.9238588684100331
 40
1.0
 40
1.0
 40
1.0
 40
1.0
 10
-4.551282051282065
 20
40.57692307692307
 30
0.0
 10
-4.547456947831742
 20
40.51942305073101
 30
0.0
 10
-4.539995053191944
 20
40.40725376098425
 30
0.0
 10
-4.514804022438154
 20
40.2437942980352
 30
0.0
 10
-4.471968677976489
 20
40.09030540525391
 30
0.0
 10
-4.415462084885781
 20
39.94574327680972
 30
0.0
 10
-4.347265153772876
 20
39.8084510288206
 30
0.0
 10
-4.265352668077145
 20
39.67905151784429
 30
0.0
 10
-4.166188560571779
 20
39.56150715913529
 30
0.0
 10
-4.055432210590391
 20
39.4521430202804
 30
0.0
 10
-3.931977574640882
 20
39.35445344462011
 30
0.0
 10
-3.796363821298861
 20
39.2704242729404
 30
0.0
 10
-3.651001334204374
 20
39.19647662413791
 30
0.0
 10
-3.492293078559637
 20
39.14015210547593
 30
0.0
 10
-3.323813372623489
 20
39.09311530500991
 30
0.0
 10
-3.143922918388383
 20
39.06218133424174
 30
0.0
 10
-2.953231424952321
 20
39.04105078562574
 30
0.0
 10
-2.821911003810301
 20
39.03934062795359
 30
0.0
 10
-2.754407051282066
 20
39.03846153846153
 30
0.0
  0
LINE
  5
89
330
1F
100
AcDbEntity
  8
0
  6
Continuous
 62
     7
370
    25
100
AcDbLine
 10
-23.9102564103
 20
37.5
 30
0.0
 11
-22.8725961538
 21
44.8076923077
 31
0.0
  0
LINE
  5
8A
330
1F
100
AcDbEntity
  8
0
  6
Continuous
 62
     7
370
    25
100
AcDbLine
 10
-22.8725961538
 20
44.8076923077
 30
0.0
 11
-21.0616987179
 21
44.8076923077
 31
0.0
  0
LINE
  5
8B
330
1F
100
AcDbEntity
  8
0
  6
Continuous
 62
     7
370
    25
100
AcDbLine
 10
-21.0616987179
 20
44.8076923077
 30
0.0
 11
-21.1758814103
 21
44.000400641
 31
0.0
  0
SPLINE
  5
8C
330
1F
100
AcDbEntity
  8
0
  6
Continuous
 62
     7
370
    25
100
AcDbSpline
210
0.0
220
0.0
230
1.0
 70
     8
 71
     3
 72
    15
 73
    11
 74
     0
 42
0.000000001
 43
0.00000001
 40
0.0
 40
0.0
 40
0.0
 40
0.0
 40
0.1411342826044066
 40
0.2758850099319995
 40
0.4049758184027173
 40
0.5292484165143067
 40
0.6489974477350692
 40
0.767585763888381
 40
0.8836100969222284
 40
1.0
 40
1.0
 40
1.0
 40
1.0
 10
-21.17588141025642
 20
44.00040064102563
 30
0.0
 10
-21.08880722364798
 20
44.07453743868999
 30
0.0
 10
-20.91859724777259
 20
44.21945779951606
 30
0.0
 10
-20.6507914473556
 20
44.40940991783457
 30
0.0
 10
-20.3827637121838
 20
44.57447717600989
 30
0.0
 10
-20.10902092295499
 20
44.7035961673506
 30
0.0
 10
-19.83418625510474
 20
44.80823011866616
 30
0.0
 10
-19.55632256455427
 20
44.88174710082637
 30
0.0
 10
-19.27508007632162
 20
44.92836564694541
 30
0.0
 10
-19.08671733257334
 20
44.9333842083074
 30
0.0
 10
-18.99238782051283
 20
44.93589743589742
 30
0.0
  0
SPLINE
  5
8D
330
1F
100
AcDbEntity
  8
0
  6
Continuous
 62
     7
370
    25
100
AcDbSpline
210
0.0
220
0.0
230
1.0
 70
     8
 71
     3
 72
    23
 73
    19
 74
     0
 42
0.000000001
 43
0.00000001
 40
0.0
 40
0.0
 40
0.0
 40
0.0
 40
0.0698764284664277
 40
0.137172968395894
 40
0.201924689488119
 40
0.2646080594564925
 40
0.3266035830243987
 40
0.3880347386246578
 40
0.4495911246572611
 40
0.5120955427180699
 40
0.5740345783256654
 40
0.6342804925681282
 40
0.6935452089490223
 40
0.7528158314255383
 40
0.8125130890224131
 40
0.8733573867927855
 40
0.9354431841960136
 40
0.9999999999999999
 40
0.9999999999999999
 40
0.9999999999999999
 40
0.9999999999999999
 10
-18.99238782051283
 20
44.93589743589742
 30
0.0
 10
-18.91353995896347
 20
44.93365566839599
 30
0.0
 10
-18.75875535623309
 20
44.92925490107898
 30
0.0
 10
-18.53184372336646
 20
44.9041092014434
 30
0.0
 10
-18.31678214060154
 20
44.85741727066402
 30
0.0
 10
-18.11221921837247
 20
44.79382961992921
 30
0.0
 10
-17.92012605458012
 20
44.70811683417629
 30
0.0
 10
-17.7359060596791
 20
44.60909327040304
 30
0.0
 10
-17.56538927868404
 20
44.48687569297191
 30
0.0
 10
-17.40566073629846
 20
44.35017052911169
 30
0.0
 10
-17.26280821136955
 20
44.19795719750012
 30
0.0
 10
-17.13473109429848
 20
44.03772143922757
 30
0.0
 10
-17.0284426102912
 20
43.86571500490397
 30
0.0
 10
-16.93934590974551
 20
43.68498524939927
 30
0.0
 10
-16.87107547583236
 20
43.4933758811538
 30
0.0
 10
-16.82328867036776
 20
43.29253731376351
 30
0.0
 10
-16.79483463520452
 20
43.08241134370793
 30
0.0
 10
-16.79087872695093
 20
42.93945789728451
 30
0.0
 10
-16.78886217948719
 20
42.86658653846153
 30
0.0
  0
SPLINE
  5
8E
330
1F
100
AcDbEntity
  8
0
  6
Continuous
 62
     7
370
    25
100
AcDbSpline
210
0.0
220
0.0
230
1.0
 70
     8
 71
     3
 72
    11
 73
     7
 74
     0
 42
0.000000001
 43
0.00000001
 40
0.0
 40
0.0
 40
0.0
 40
0.0
 40
0.1876857822355743
 40
0.4155600750852819
 40
0.6874822153946683
 40
1.0
 40
1.0
 40
1.0
 40
1.0
 10
-16.78886217948719
 20
42.86658653846153
 30
0.0
 10
-16.79102306736144
 20
42.78777361296133
 30
0.0
 10
-16.79580754659359
 20
42.61327182146468
 30
0.0
 10
-16.81613266060916
 20
42.32507585960231
 30
0.0
 10
-16.85638475296258
 20
41.98618427884723
 30
0.0
 10
-16.88809281355419
 20
41.74275119450936
 30
0.0
 10
-16.90504807692308
 20
41.61258012820512
 30
0.0
  0
LINE
  5
8F
330
1F
100
AcDbEntity
  8
0
  6
Continuous
 62
     7
370
    25
100
AcDbLine
 10
-16.9050480769
 20
41.6125801282
 30
0.0
 11
-17.483974359
 21
37.5
 31
0.0
  0
LINE
  5
90
330
1F
100
AcDbEntity
  8
0
  6
Continuous
 62
     7
370
    25
100
AcDbLine
 10
-17.483974359
 20
37.5
 30
0.0
 11
-19.2948717949
 21
37.5
 31
0.0
  0
LINE
  5
91
330
1F
100
AcDbEntity
  8
0
  6
Continuous
 62
     7
370
    25
100
AcDbLine
 10
-19.2948717949
 20
37.5
 30
0.0
 11
-18.7279647436
 21
41.5224358974
 31
0.0
  0
SPLINE
  5
92
330
1F
100
AcDbEntity
  8
0
  6
Continuous
 62
     7
370
    25
100
AcDbSpline
210
0.0
220
0.0
230
1.0
 70
     8
 71
     3
 72
    11
 73
     7
 74
     0
 42
0.000000001
 43
0.00000001
 40
0.0
 40
0.0
 40
0.0
 40
0.0
 40
0.3139076401488878
 40
0.5858569086513902
 40
0.8135900426837479
 40
1.0
 40
1.0
 40
1.0
 40
1.0
 10
-18.72796474358975
 20
41.52243589743588
 30
0.0
 10
-18.71559909525712
 20
41.61386947929312
 30
0.0
 10
-18.69252064930979
 20
41.78451520039884
 30
0.0
 10
-18.66549826143925
 20
42.02216324677793
 30
0.0
 10
-18.65122005692194
 20
42.22339329062878
 30
0.0
 10
-18.64750535700628
 20
42.34507126670301
 30
0.0
 10
-18.64583333333334
 20
42.39983974358973
 30
0.0
  0
SPLINE
  5
93
330
1F
100
AcDbEntity
  8
0
  6
Continuous
 62
     7
370
    25
100
AcDbSpline
210
0.0
220
0.0
230
1.0
 70
     8
 71
     3
 72
    15
 73
    11
 74
     0
 42
0.000000001
 43
0.00000001
 40
0.0
 40
0.0
 40
0.0
 40
0.0
 40
0.131033126499411
 40
0.2513034078785043
 40
0.3640434755878464
 40
0.476278333898096
 40
0.5912412087440542
 40
0.7142562071597416
 40
0.8491230429910159
 40
1.0
 40
1.0
 40
1.0
 40
1.0
 10
-18.64583333333334
 20
42.39983974358973
 30
0.0
 10
-18.64868275232131
 20
42.46556604483175
 30
0.0
 10
-18.6541475437163
 20
42.59161999722247
 30
0.0
 10
-18.70190577172187
 20
42.76961651267114
 30
0.0
 10
-18.78636284540723
 20
42.92248455618543
 30
0.0
 10
-18.90310145365847
 20
43.04870380748873
 30
0.0
 10
-19.04917412150329
 20
43.14827780428789
 30
0.0
 10
-19.22255759362061
 20
43.2209691832665
 30
0.0
 10
-19.42451084347015
 20
43.2622288433091
 30
0.0
 10
-19.56778081769504
 20
43.26681121112082
 30
0.0
 10
-19.6434294871795
 20
43.26923076923076
 30
0.0
  0
SPLINE
  5
94
330
1F
100
AcDbEntity
  8
0
  6
Continuous
 62
     7
370
    25
100
AcDbSpline
210
0.0
220
0.0
230
1.0
 70
     8
 71
     3
 72
    23
 73
    19
 74
     0
 42
0.000000001
 43
0.00000001
 40
0.0
 40
0.0
 40
0.0
 40
0.0
 40
0.0551290900476988
 40
0.1116318990070191
 40
0.1712565098009776
 40
0.2346853507344248
 40
0.2998437840739382
 40
0.3654804540092247
 40
0.4322499106023816
 40
0.5015194378907432
 40
0.5403835112951246
 40
0.5853031545785881
 40
0.6373380369575398
 40
0.6962534023639259
 40
0.7615355869940479
 40
0.8342520898655497
 40
0.9134177840741436
 40
1.0
 40
1.0
 40
1.0
 40
1.0
 10
-19.6434294871795
 20
43.26923076923076
 30
0.0
 10
-19.72116935981349
 20
43.2649061355595
 30
0.0
 10
-19.87858624449611
 20
43.25614910603452
 30
0.0
 10
-20.11474923604337
 20
43.19831666163338
 30
0.0
 10
-20.34752392608967
 20
43.09678347467077
 30
0.0
 10
-20.57818230874881
 20
42.96440987501785
 30
0.0
 10
-20.79667945834754
 20
42.79745769051885
 30
0.0
 10
-20.98926099542532
 20
42.59476245758623
 30
0.0
 10
-21.1574430099315
 20
42.36443720695338
 30
0.0
 10
-21.27384650166454
 20
42.14595256536511
 30
0.0
 10
-21.35493925420424
 20
41.94578658407586
 30
0.0
 10
-21.4150680558407
 20
41.76378186485167
 30
0.0
 10
-21.4716289332662
 20
41.55131110028668
 30
0.0
 10
-21.52992558843143
 20
41.30968772129379
 30
0.0
 10
-21.58536025697113
 20
41.03753890514562
 30
0.0
 10
-21.64132503723619
 20
40.73643680202623
 30
0.0
 10
-21.69564691466418
 20
40.40452502815996
 30
0.0
 10
-21.72792859289923
 20
40.17301690317372
 30
0.0
 10
-21.74479166666667
 20
40.05208333333332
 30
0.0
  0
LINE
  5
95
330
1F
100
AcDbEntity
  8
0
  6
Continuous
 62
     7
370
    25
100
AcDbLine
 10
-21.7447916667
 20
40.0520833333
 30
0.0
 11
-22.0993589744
 21
37.5
 31
0.0
  0
LINE
  5
96
330
1F
100
AcDbEntity
  8
0
  6
Continuous
 62
     7
370
    25
100
AcDbLine
 10
-22.0993589744
 20
37.5
 30
0.0
 11
-23.9102564103
 21
37.5
 31
0.0
  0
LINE
  5
97
330
1F
100
AcDbEntity
  8
0
  6
Continuous
 62
     7
370
    25
100
AcDbLine
 10
-36.4743589744
 20
37.5
 30
0.0
 11
-35.4366987179
 21
44.8076923077
 31
0.0
  0
LINE
  5
98
330
1F
100
AcDbEntity
  8
0
  6
Continuous
 62
     7
370
    25
100
AcDbLine
 10
-35.4366987179
 20
44.8076923077
 30
0.0
 11
-33.6258012821
 21
44.8076923077
 31
0.0
  0
LINE
  5
99
330
1F
100
AcDbEntity
  8
0
  6
Continuous
 62
     7
370
    25
100
AcDbLine
 10
-33.6258012821
 20
44.8076923077
 30
0.0
 11
-34.6634615385
 21
37.5
 31
0.0
  0
LINE
  5
9A
330
1F
100
AcDbEntity
  8
0
  6
Continuous
 62
     7
370
    25
100
AcDbLine
 10
-34.6634615385
 20
37.5
 30
0.0
 11
-36.4743589744
 21
37.5
 31
0.0
  0
LINE
  5
9B
330
1F
100
AcDbEntity
  8
0
  6
Continuous
 62
     7
370
    25
100
AcDbLine
 10
-43.203125
 20
37.5
 30
0.0
 11
-45.7011217949
 21
47.5
 31
0.0
  0
LINE
  5
9C
330
1F
100
AcDbEntity
  8
0
  6
Continuous
 62
     7
370
    25
100
AcDbLine
 10
-45.7011217949
 20
47.5
 30
0.0
 11
-43.8541666667
 21
47.5
 31
0.0
  0
LINE
  5
9D
330
1F
100
AcDbEntity
  8
0
  6
Continuous
 62
     7
370
    25
100
AcDbLine
 10
-43.8541666667
 20
47.5
 30
0.0
 11
-42.0512820513
 21
40.2804487179
 31
0.0
  0
LINE
  5
9E
330
1F
100
AcDbEntity
  8
0
  6
Continuous
 62
     7
370
    25
100
AcDbLine
 10
-42.0512820513
 20
40.2804487179
 30
0.0
 11
-38.219150641
 21
47.5
 31
0.0
  0
LINE
  5
9F
330
1F
100
AcDbEntity
  8
0
  6
Continuous
 62
     7
370
    25
100
AcDbLine
 10
-38.219150641
 20
47.5
 30
0.0
 11
-36.2039262821
 21
47.5
 31
0.0
  0
LINE
  5
A0
330
1F
100
AcDbEntity
  8
0
  6
Continuous
 62
     7
370
    25
100
AcDbLine
 10
-36.2039262821
 20
47.5
 30
0.0
 11
-41.5144230769
 21
37.5
 31
0.0
  0
LINE
  5
A1
330
1F
100
AcDbEntity
  8
0
  6
Continuous
 62
     7
370
    25
100
AcDbLine
 10
-41.5144230769
 20
37.5
 30
0.0
 11
-43.203125
 21
37.5
 31
0.0
  0
CIRCLE
  5
A2
330
1F
100
AcDbEntity
  8
0
  6
Continuous
 62
     7
370
    25
100
AcDbCircle
 10
-51.0
 20
-57.5
 30
0.0
 40
2.500000000000007
  0
CIRCLE
  5
A3
330
1F
100
AcDbEntity
  8
0
  6
Continuous
 62
     7
370
    25
100
AcDbCircle
 10
51.0
 20
57.5
 30
0.0
 40
2.5
  0
CIRCLE
  5
A4
330
1F
100
AcDbEntity
  8
0
  6
Continuous
 62
     7
370
    25
100
AcDbCircle
 10
0.2695
 20
-11.51
 30
0.0
 40
2.500000000000002
  0
CIRCLE
  5
A5
330
1F
100
AcDbEntity
  8
0
  6
Continuous
 62
     7
370
    25
100
AcDbCircle
 10
-10.25
 20
-8.2495
 30
0.0
 40
1.75
  0
CIRCLE
  5
A6
330
1F
100
AcDbEntity
  8
0
  6
Continuous
 62
     7
370
    25
100
AcDbCircle
 10
-20.25
 20
-8.2495
 30
0.0
 40
1.750000000000004
  0
CIRCLE
  5
A7
330
1F
100
AcDbEntity
  8
0
  6
Continuous
 62
     7
370
    25
100
AcDbCircle
 10
-30.13
 20
-11.51
 30
0.0
 40
2.500000000000002
  0
LINE
  5
A8
330
1F
100
AcDbEntity
  8
0
  6
Continuous
 62
     7
370
    25
100
AcDbLine
 10
35.0
 20
-46.5
 30
0.0
 11
35.0
 21
-30.5
 31
0.0
  0
LINE
  5
A9
330
1F
100
AcDbEntity
  8
0
  6
Continuous
 62
     7
370
    25
100
AcDbLine
 10
-31.0
 20
-46.5
 30
0.0
 11
35.0
 21
-46.5
 31
0.0
  0
LINE
  5
AA
330
1F
100
AcDbEntity
  8
0
  6
Continuous
 62
     7
370
    25
100
AcDbLine
 10
-31.0
 20
-46.5
 30
0.0
 11
-31.0
 21
-30.5
 31
0.0
  0
LINE
  5
AB
330
1F
100
AcDbEntity
  8
0
  6
Continuous
 62
     7
370
    25
100
AcDbLine
 10
-31.0
 20
-30.5
 30
0.0
 11
35.0
 21
-30.5
 31
0.0
  0
CIRCLE
  5
AC
330
1F
100
AcDbEntity
  8
0
  6
Continuous
 62
     7
370
    25
100
AcDbCircle
 10
8.001
 20
11.311
 30
0.0
 40
2.5
  0
CIRCLE
  5
AD
330
1F
100
AcDbEntity
  8
0
  6
Continuous
 62
     7
370
    25
100
AcDbCircle
 10
12.5
 20
1.5
 30
0.0
 40
7.749999999999998
  0
LINE
  5
AE
330
1F
100
AcDbEntity
  8
0
  6
Continuous
 62
     7
370
    25
100
AcDbLine
 10
56.0
 20
-62.5
 30
0.0
 11
56.0
 21
62.5
 31
0.0
  0
LINE
  5
AF
330
1F
100
AcDbEntity
  8
0
  6
Continuous
 62
     7
370
    25
100
AcDbLine
 10
56.0
 20
62.5
 30
0.0
 11
-56.0
 21
62.5
 31
0.0
  0
LINE
  5
B0
330
1F
100
AcDbEntity
  8
0
  6
Continuous
 62
     7
370
    25
100
AcDbLine
 10
-56.0
 20
62.5
 30
0.0
 11
-56.0
 21
-62.5
 31
0.0
  0
LINE
  5
B1
330
1F
100
AcDbEntity
  8
0
  6
Continuous
 62
     7
370
    25
100
AcDbLine
 10
-56.0
 20
-62.5
 30
0.0
 11
56.0
 21
-62.5
 31
0.0
  0
SPLINE
  5
B2
330
1F
100
AcDbEntity
  8
0
  6
Continuous
 62
     7
370
    25
100
AcDbSpline
210
0.0
220
0.0
230
1.0
 70
     8
 71
     3
 72
    15
 73
    11
 74
     0
 42
0.000000001
 43
0.00000001
 40
0.0
 40
0.0
 40
0.0
 40
0.0
 40
0.1267118411727127
 40
0.2488992497328367
 40
0.3711918002157448
 40
0.4992489174189162
 40
0.6273060346220902
 40
0.7511007502671633
 40
0.8732881588272873
 40
1.0
 40
1.0
 40
1.0
 40
1.0
 10
-35.32051282051284
 20
46.73076923076922
 30
0.0
 10
-35.31609914708952
 20
46.80729419687954
 30
0.0
 10
-35.30742939694257
 20
46.95761169265901
 30
0.0
 10
-35.2438958104975
 20
47.1748253907903
 30
0.0
 10
-35.13416161774448
 20
47.37275894894899
 30
0.0
 10
-34.98690088012635
 20
47.5490378818332
 30
0.0
 10
-34.80980537586841
 20
47.69654305620591
 30
0.0
 10
-34.61170647881461
 20
47.80793218043478
 30
0.0
 10
-34.39348198986762
 20
47.87148243473165
 30
0.0
 10
-34.2431824775808
 20
47.88018500356409
 30
0.0
 10
-34.16666666666669
 20
47.88461538461537
 30
0.0
  0
SPLINE
  5
B3
330
1F
100
AcDbEntity
  8
0
  6
Continuous
 62
     7
370
    25
100
AcDbSpline
210
0.0
220
0.0
230
1.0
 70
     8
 71
     3
 72
    15
 73
    11
 74
     0
 42
0.000000001
 43
0.00000001
 40
0.0
 40
0.0
 40
0.0
 40
0.0
 40
0.1267667963650801
 40
0.2490071978616191
 40
0.3718873441554112
 40
0.5
 40
0.6281126558445888
 40
0.7509928021383808
 40
0.8732332036349199
 40
1.0
 40
1.0
 40
1.0
 40
1.0
 10
-34.16666666666669
 20
47.88461538461537
 30
0.0
 10
-34.09016814077198
 20
47.88015458794788
 30
0.0
 10
-33.93990258133698
 20
47.87139227391731
 30
0.0
 10
-33.72199668632657
 20
47.80844363498565
 30
0.0
 10
-33.52528202646302
 20
47.69585135500152
 30
0.0
 10
-33.34822649068923
 20
47.54920940674667
 30
0.0
 10
-33.20158454243441
 20
47.3721538709729
 30
0.0
 10
-33.08899226245023
 20
47.17543921110931
 30
0.0
 10
-33.02604362351862
 20
46.95753331609895
 30
0.0
 10
-33.01728130948802
 20
46.80726775666393
 30
0.0
 10
-33.01282051282053
 20
46.73076923076922
 30
0.0
  0
SPLINE
  5
B4
330
1F
100
AcDbEntity
  8
0
  6
Continuous
 62
     7
370
    25
100
AcDbSpline
210
0.0
220
0.0
230
1.0
 70
     8
 71
     3
 72
    15
 73
    11
 74
     0
 42
0.000000001
 43
0.00000001
 40
0.0
 40
0.0
 40
0.0
 40
0.0
 40
0.1267118411727129
 40
0.2488992497328371
 40
0.3726939653779104
 40
0.5007510825810845
 40
0.6288081997842561
 40
0.7511007502671625
 40
0.8732881588272867
 40
1.0
 40
1.0
 40
1.0
 40
1.0
 10
-33.01282051282053
 20
46.73076923076922
 30
0.0
 10
-33.01725089387181
 20
46.6542534198551
 30
0.0
 10
-33.02595346270424
 20
46.50395390756827
 30
0.0
 10
-33.08950371700113
 20
46.28572941862129
 30
0.0
 10
-33.20089284122999
 20
46.08763052156749
 30
0.0
 10
-33.34839801560271
 20
45.91053501730956
 30
0.0
 10
-33.52467694848688
 20
45.76327427969139
 30
0.0
 10
-33.72261050664562
 20
45.65354008693843
 30
0.0
 10
-33.93982420477688
 20
45.59000650049335
 30
0.0
 10
-34.09014170055637
 20
45.5813367503464
 30
0.0
 10
-34.16666666666669
 20
45.57692307692307
 30
0.0
  0
SPLINE
  5
B5
330
1F
100
AcDbEntity
  8
0
  6
Continuous
 62
     7
370
    25
100
AcDbSpline
210
0.0
220
0.0
230
1.0
 70
     8
 71
     3
 72
    15
 73
    11
 74
     0
 42
0.000000001
 43
0.00000001
 40
0.0
 40
0.0
 40
0.0
 40
0.0
 40
0.1266558713115338
 40
0.2487893084966728
 40
0.3719994468796046
 40
0.4999999999999993
 40
0.628000553120394
 40
0.7512106915033275
 40
0.8733441286884667
 40
1.0
 40
1.0
 40
1.0
 40
1.0
 10
-34.16666666666669
 20
45.57692307692307
 30
0.0
 10
-34.24320851772418
 20
45.58130656207025
 30
0.0
 10
-34.39355918049616
 20
45.58991701358175
 30
0.0
 10
-34.61109904271989
 20
45.65405080490891
 30
0.0
 10
-34.81040390223726
 20
45.76258318548358
 30
0.0
 10
-34.98673165804581
 20
45.91070423939009
 30
0.0
 10
-35.13485271195234
 20
46.08703199519865
 30
0.0
 10
-35.243385092527
 20
46.286336854716
 30
0.0
 10
-35.30751888385418
 20
46.50387671693976
 30
0.0
 10
-35.31612933536565
 20
46.65422737971172
 30
0.0
 10
-35.32051282051284
 20
46.73076923076922
 30
0.0
  0
LINE
  5
B6
330
1F
100
AcDbEntity
  8
0
  6
Continuous
 62
     7
370
    25
100
AcDbLine
 10
-26.7367788462
 20
43.7820512821
 30
0.0
 11
-26.5905448718
 21
44.8076923077
 31
0.0
  0
LINE
  5
B7
330
1F
100
AcDbEntity
  8
0
  6
Continuous
 62
     7
370
    25
100
AcDbLine
 10
-26.5905448718
 20
44.8076923077
 30
0.0
 11
-24.7796474359
 21
44.8076923077
 31
0.0
  0
LINE
  5
B8
330
1F
100
AcDbEntity
  8
0
  6
Continuous
 62
     7
370
    25
100
AcDbLine
 10
-24.7796474359
 20
44.8076923077
 30
0.0
 11
-25.8173076923
 21
37.5
 31
0.0
  0
LINE
  5
B9
330
1F
100
AcDbEntity
  8
0
  6
Continuous
 62
     7
370
    25
100
AcDbLine
 10
-25.8173076923
 20
37.5
 30
0.0
 11
-27.6282051282
 21
37.5
 31
0.0
  0
LINE
  5
BA
330
1F
100
AcDbEntity
  8
0
  6
Continuous
 62
     7
370
    25
100
AcDbLine
 10
-27.6282051282
 20
37.5
 30
0.0
 11
-27.5020032051
 21
38.3934294872
 31
0.0
  0
SPLINE
  5
BB
330
1F
100
AcDbEntity
  8
0
  6
Continuous
 62
     7
370
    25
100
AcDbSpline
210
0.0
220
0.0
230
1.0
 70
     8
 71
     3
 72
    15
 73
    11
 74
     0
 42
0.000000001
 43
0.00000001
 40
0.0
 40
0.0
 40
0.0
 40
0.0
 40
0.1545405232908215
 40
0.2946813644490783
 40
0.4224235927075957
 40
0.5378558724989786
 40
0.6481792197221312
 40
0.7612352379798226
 40
0.8775816747368269
 40
1.0
 40
1.0
 40
1.0
 40
1.0
 10
-27.50200320512821
 20
38.39342948717947
 30
0.0
 10
-27.59616500944843
 20
38.3038002495572
 30
0.0
 10
-27.77571486721521
 20
38.13289319246537
 30
0.0
 10
-28.05380570004771
 20
37.91116947718329
 30
0.0
 10
-28.32150069246211
 20
37.73084612128767
 30
0.0
 10
-28.58541777642192
 20
37.59254043712115
 30
0.0
 10
-28.85280601569152
 20
37.49219743028574
 30
0.0
 10
-29.13035583757581
 20
37.42269668052327
 30
0.0
 10
-29.42371085442063
 20
37.37922971364261
 30
0.0
 10
-29.62457698308607
 20
37.37431481505811
 30
0.0
 10
-29.72756410256411
 20
37.37179487179487
 30
0.0
  0
SPLINE
  5
BC
330
1F
100
AcDbEntity
  8
0
  6
Continuous
 62
     7
370
    25
100
AcDbSpline
210
0.0
220
0.0
230
1.0
 70
     8
 71
     3
 72
    23
 73
    19
 74
     0
 42
0.000000001
 43
0.00000001
 40
0.0
 40
0.0
 40
0.0
 40
0.0
 40
0.0670159320370805
 40
0.1312471679086714
 40
0.1933376551656646
 40
0.253664706878883
 40
0.3135633213479018
 40
0.3737066153021438
 40
0.4351470451255158
 40
0.498168493512693
 40
0.5617681429202562
 40
0.6239424639003592
 40
0.6858649432173137
 40
0.7471768943847594
 40
0.808786646696652
 40
0.8713009647254268
 40
0.9349006141329894
 40
1.0
 40
1.0
 40
1.0
 40
1.0
 10
-29.72756410256411
 20
37.37179487179487
 30
0.0
 10
-29.84528073761465
 20
37.37453724218926
 30
0.0
 10
-30.07582255799212
 20
37.3799080299509
 30
0.0
 10
-30.41211943965806
 20
37.43188151100464
 30
0.0
 10
-30.73003985226076
 20
37.51316692380893
 30
0.0
 10
-31.02973350911493
 20
37.62786312676504
 30
0.0
 10
-31.30958106488908
 20
37.77757425852189
 30
0.0
 10
-31.57226176710323
 20
37.95906000758632
 30
0.0
 10
-31.81540022206644
 20
38.17455448847306
 30
0.0
 10
-32.0356618838203
 20
38.42120725930844
 30
0.0
 10
-32.23430422579225
 20
38.68705184033941
 30
0.0
 10
-32.40708300751115
 20
38.96797185172065
 30
0.0
 10
-32.55711005593366
 20
39.25739463463606
 30
0.0
 10
-32.67388292540006
 20
39.56060763436021
 30
0.0
 10
-32.77027778529393
 20
39.87194016172338
 30
0.0
 10
-32.83480810171489
 20
40.19554447227875
 30
0.0
 10
-32.8764348414157
 20
40.52909714543955
 30
0.0
 10
-32.88186743478577
 20
40.75508192815238
 30
0.0
 10
-32.88461538461539
 20
40.86939102564101
 30
0.0
  0
SPLINE
  5
BD
330
1F
100
AcDbEntity
  8
0
  6
Continuous
 62
     7
370
    25
100
AcDbSpline
210
0.0
220
0.0
230
1.0
 70
     8
 71
     3
 72
    31
 73
    27
 74
     0
 42
0.000000001
 43
0.00000001
 40
0.0
 40
0.0
 40
0.0
 40
0.0
 40
0.0421192483107582
 40
0.0837880883361773
 40
0.1255252259851809
 40
0.1671452133763857
 40
0.2091193058907412
 40
0.2514132861155946
 40
0.2942271836052115
 40
0.3378845365656529
 40
0.3815337337375839
 40
0.4245420145750329
 40
0.4669800564610562
 40
0.5089662644591434
 40
0.550703402108146
 40
0.5923563713121844
 40
0.6344006850347615
 40
0.676694665259615
 40
0.7187957964650923
 40
0.7600290467773423
 40
0.8007196898343223
 40
0.8408654594910431
 40
0.880549958603677
 40
0.9203470816502536
 40
0.9601122416983027
 40
1.0
 40
1.0
 40
1.0
 40
1.0
 10
-32.88461538461539
 20
40.86939102564101
 30
0.0
 10
-32.88323656838485
 20
40.95759629973166
 30
0.0
 10
-32.88049368049496
 20
41.13306361203259
 30
0.0
 10
-32.85340303138585
 20
41.39479328017358
 30
0.0
 10
-32.80926217268618
 20
41.65295886194877
 30
0.0
 10
-32.748638315598
 20
41.90841704861339
 30
0.0
 10
-32.67307140946061
 20
42.1610977984818
 30
0.0
 10
-32.57860758911873
 20
42.41009299305031
 30
0.0
 10
-32.46529567196848
 20
42.65490127158618
 30
0.0
 10
-32.33792779698306
 20
42.89581567636012
 30
0.0
 10
-32.19734077809353
 20
43.12993055847529
 30
0.0
 10
-32.03963362155245
 20
43.34966772792414
 30
0.0
 10
-31.87408382112586
 20
43.55904302903326
 30
0.0
 10
-31.69538112983006
 20
43.75395117990467
 30
0.0
 10
-31.50397592465255
 20
43.93375589480928
 30
0.0
 10
-31.30381383650279
 20
44.10412699410286
 30
0.0
 10
-31.08844955534995
 20
44.25681044263152
 30
0.0
 10
-30.86546671583709
 20
44.39978070999957
 30
0.0
 10
-30.63357008796657
 20
44.52426859215812
 30
0.0
 10
-30.39904425222267
 20
44.63613877771608
 30
0.0
 10
-30.16007767357782
 20
44.72733617568088
 30
0.0
 10
-29.91968393055416
 20
44.80453534181783
 30
0.0
 10
-29.67576751802529
 20
44.86250828831277
 30
0.0
 10
-29.42951941021974
 20
44.90417945152753
 30
0.0
 10
-29.18065016550223
 20
44.93183434712273
 30
0.0
 10
-29.01382795132089
 20
44.93454168396809
 30
0.0
 10
-28.93028846153847
 20
44.93589743589742
 30
0.0
  0
SPLINE
  5
BE
330
1F
100
AcDbEntity
  8
0
  6
Continuous
 62
     7
370
    25
100
AcDbSpline
210
0.0
220
0.0
230
1.0
 70
     8
 71
     3
 72
    15
 73
    11
 74
     0
 42
0.000000001
 43
0.00000001
 40
0.0
 40
0.0
 40
0.0
 40
0.0
 40
0.1288136340149824
 40
0.2539101596020823
 40
0.3769622297294811
 40
0.5004818098014858
 40
0.6241980907616139
 40
0.7471452144908037
 40
0.8715293997947898
 40
1.0
 40
1.0
 40
1.0
 40
1.0
 10
-28.93028846153847
 20
44.93589743589742
 30
0.0
 10
-28.81919158090457
 20
44.93273225795714
 30
0.0
 10
-28.6002036848736
 20
44.92649323797971
 30
0.0
 10
-28.27946388172307
 20
44.86800717957981
 30
0.0
 10
-27.97220115226661
 20
44.77550495574413
 30
0.0
 10
-27.67917607230483
 20
44.64722818482511
 30
0.0
 10
-27.40398977675109
 20
44.48377520041525
 30
0.0
 10
-27.1546781817049
 20
44.28243494921332
 30
0.0
 10
-26.92560802142174
 20
44.05165265683029
 30
0.0
 10
-26.80039642419018
 20
43.87288145421282
 30
0.0
 10
-26.73677884615385
 20
43.78205128205127
 30
0.0
  0
LINE
  5
BF
330
1F
100
AcDbEntity
  8
0
  6
Continuous
 62
     7
370
    25
100
AcDbLine
 10
-9.1927083333
 20
43.7199519231
 30
0.0
 11
-8.6258012821
 21
47.7564102564
 31
0.0
  0
LINE
  5
C0
330
1F
100
AcDbEntity
  8
0
  6
Continuous
 62
     7
370
    25
100
AcDbLine
 10
-8.6258012821
 20
47.7564102564
 30
0.0
 11
-6.8169070513
 21
47.7564102564
 31
0.0
  0
LINE
  5
C1
330
1F
100
AcDbEntity
  8
0
  6
Continuous
 62
     7
370
    25
100
AcDbLine
 10
-6.8169070513
 20
47.7564102564
 30
0.0
 11
-8.2552083333
 21
37.5
 31
0.0
  0
LINE
  5
C2
330
1F
100
AcDbEntity
  8
0
  6
Continuous
 62
     7
370
    25
100
AcDbLine
 10
-8.2552083333
 20
37.5
 30
0.0
 11
-10.0641025641
 21
37.5
 31
0.0
  0
LINE
  5
C3
330
1F
100
AcDbEntity
  8
0
  6
Continuous
 62
     7
370
    25
100
AcDbLine
 10
-10.0641025641
 20
37.5
 30
0.0
 11
-9.9399038462
 21
38.3774038462
 31
0.0
  0
SPLINE
  5
C4
330
1F
100
AcDbEntity
  8
0
  6
Continuous
 62
     7
370
    25
100
AcDbSpline
210
0.0
220
0.0
230
1.0
 70
     8
 71
     3
 72
    15
 73
    11
 74
     0
 42
0.000000001
 43
0.00000001
 40
0.0
 40
0.0
 40
0.0
 40
0.0
 40
0.1530239972486513
 40
0.2924673265372287
 40
0.4194472962679242
 40
0.534918251960302
 40
0.645818825179136
 40
0.7593031102483871
 40
0.8770369248749239
 40
1.0
 40
1.0
 40
1.0
 40
1.0
 10
-9.939903846153856
 20
38.37740384615384
 30
0.0
 10
-10.03704139397263
 20
38.29008959760797
 30
0.0
 10
-10.22269566668631
 20
38.12321011922579
 30
0.0
 10
-10.50497815983018
 20
37.90236628011942
 30
0.0
 10
-10.78009853057088
 20
37.72660397594941
 30
0.0
 10
-11.0499388620159
 20
37.59083710415561
 30
0.0
 10
-11.32251327085313
 20
37.48950687730198
 30
0.0
 10
-11.60735320298949
 20
37.42318176833046
 30
0.0
 10
-11.90701894929056
 20
37.37918403170293
 30
0.0
 10
-12.11254994642348
 20
37.37429334265403
 30
0.0
 10
-12.21754807692308
 20
37.37179487179487
 30
0.0
  0
SPLINE
  5
C5
330
1F
100
AcDbEntity
  8
0
  6
Continuous
 62
     7
370
    25
100
AcDbSpline
210
0.0
220
0.0
230
1.0
 70
     8
 71
     3
 72
    23
 73
    19
 74
     0
 42
0.000000001
 43
0.00000001
 40
0.0
 40
0.0
 40
0.0
 40
0.0
 40
0.0677972835492131
 40
0.1328251954624549
 40
0.1953398094924174
 40
0.2564236464664502
 40
0.3170094205253753
 40
0.3774360721189661
 40
0.4387801195408148
 40
0.5018842147167538
 40
0.5652513963639955
 40
0.6273569979142345
 40
0.6887840798795498
 40
0.7497147428571581
 40
0.8107707585960703
 40
0.8726879931369717
 40
0.9356022098953742
 40
1.0
 40
1.0
 40
1.0
 40
1.0
 10
-12.21754807692308
 20
37.37179487179487
 30
0.0
 10
-12.33792660419895
 20
37.37455833353044
 30
0.0
 10
-12.57376645762453
 20
37.37997237559767
 30
0.0
 10
-12.91745160887149
 20
37.43159833312965
 30
0.0
 10
-13.24249508077035
 20
37.51352662211302
 30
0.0
 10
-13.54956458917391
 20
37.62780021371397
 30
0.0
 10
-13.83700996461477
 20
37.77703211781434
 30
0.0
 10
-14.10606979086973
 20
37.95827647878699
 30
0.0
 10
-14.35322601253615
 20
38.17516735262371
 30
0.0
 10
-14.57997854925541
 20
38.42023365783115
 30
0.0
 10
-14.78165516541348
 20
38.68777787087505
 30
0.0
 10
-14.96193294007672
 20
38.96660490762007
 30
0.0
 10
-15.11236103811897
 20
39.25795741764272
 30
0.0
 10
-15.23461703729404
 20
39.55999832486862
 30
0.0
 10
-15.33203252418125
 20
39.87194780535882
 30
0.0
 10
-15.39950812219402
 20
40.1952821146496
 30
0.0
 10
-15.44037854552854
 20
40.52913003550565
 30
0.0
 10
-15.4459166357716
 20
40.75509297634922
 30
0.0
 10
-15.44871794871796
 20
40.86939102564101
 30
0.0
  0
SPLINE
  5
C6
330
1F
100
AcDbEntity
  8
0
  6
Continuous
 62
     7
370
    25
100
AcDbSpline
210
0.0
220
0.0
230
1.0
 70
     8
 71
     3
 72
    31
 73
    27
 74
     0
 42
0.000000001
 43
0.00000001
 40
0.0
 40
0.0
 40
0.0
 40
0.0
 40
0.0417486579705001
 40
0.0830508706171673
 40
0.1244207799640743
 40
0.1657483918683234
 40
0.2074455504060858
 40
0.249367402894785
 40
0.2919374479601146
 40
0.33535938509042
 40
0.3789558927100368
 40
0.421585760967283
 40
0.4640476765331347
 40
0.5060945003974072
 40
0.5476944752145754
 40
0.5894670647765907
 40
0.6316562597836788
 40
0.6741134678200745
 40
0.716400855778167
 40
0.7581315560485158
 40
0.7990545513690052
 40
0.8394503105978521
 40
0.8794007662710223
 40
0.9194711185419009
 40
0.9595152741069087
 40
0.9999999999999999
 40
0.9999999999999999
 40
0.9999999999999999
 40
0.9999999999999999
 10
-15.44871794871796
 20
40.86939102564102
 30
0.0
 10
-15.44735049288076
 20
40.95759871945768
 30
0.0
 10
-15.44463020429351
 20
41.13307084533492
 30
0.0
 10
-15.41737135817093
 20
41.39476468807137
 30
0.0
 10
-15.37384271681413
 20
41.65322005871337
 30
0.0
 10
-15.31073129541958
 20
41.90850758147656
 30
0.0
 10
-15.23261000217883
 20
42.16068899474227
 30
0.0
 10
-15.13925625658393
 20
42.41064203586112
 30
0.0
 10
-15.02299300968041
 20
42.65475289602135
 30
0.0
 10
-14.89455695324656
 20
42.89662654473764
 30
0.0
 10
-14.74869103660761
 20
43.12862347347381
 30
0.0
 10
-14.59216742624378
 20
43.35103968262621
 30
0.0
 10
-14.42193062263313
 20
43.55904420727911
 30
0.0
 10
-14.23945248831457
 20
43.75335885927669
 30
0.0
 10
-14.04594325153917
 20
43.93448118727938
 30
0.0
 10
-13.84169835850895
 20
44.10407230225124
 30
0.0
 10
-13.62248322487856
 20
44.25688449988916
 30
0.0
 10
-13.3954147702969
 20
44.39973800172182
 30
0.0
 10
-13.15916855761715
 20
44.52486898965162
 30
0.0
 10
-12.91946338459397
 20
44.63566978455072
 30
0.0
 10
-12.67610403073614
 20
44.72743225228135
 30
0.0
 10
-12.43165805127956
 20
44.80453236395442
 30
0.0
 10
-12.18375702751982
 20
44.86251615907681
 30
0.0
 10
-11.93350817986065
 20
44.90418105540519
 30
0.0
 10
-11.67997570718459
 20
44.93190731125052
 30
0.0
 10
-11.50982143559598
 20
44.93456255210918
 30
0.0
 10
-11.42427884615386
 20
44.93589743589742
 30
0.0
  0
SPLINE
  5
C7
330
1F
100
AcDbEntity
  8
0
  6
Continuous
 62
     7
370
    25
100
AcDbSpline
210
0.0
220
0.0
230
1.0
 70
     8
 71
     3
 72
    15
 73
    11
 74
     0
 42
0.000000001
 43
0.00000001
 40
0.0
 40
0.0
 40
0.0
 40
0.0
 40
0.1277190429821239
 40
0.2518769566189758
 40
0.3742898514627141
 40
0.4971644863919252
 40
0.6204760575547513
 40
0.744312674758189
 40
0.8697656925806412
 40
1.0
 40
1.0
 40
1.0
 40
1.0
 10
-11.42427884615386
 20
44.93589743589742
 30
0.0
 10
-11.3111680586562
 20
44.93204496499568
 30
0.0
 10
-11.0881002979647
 20
44.92444743980648
 30
0.0
 10
-10.76119076398493
 20
44.86417889687839
 30
0.0
 10
-10.44767968322892
 20
44.76849253520798
 30
0.0
 10
-10.15087362522838
 20
44.63082928449181
 30
0.0
 10
-9.871150315962375
 20
44.45889612770454
 30
0.0
 10
-9.61524086366273
 20
44.24933682189484
 30
0.0
 10
-9.385690387801002
 20
44.00223435151191
 30
0.0
 10
-9.257832654130427
 20
43.81521182418788
 30
0.0
 10
-9.192708333333341
 20
43.71995192307691
 30
0.0
  0
LINE
  5
C8
330
1F
100
AcDbEntity
  8
0
  6
Continuous
 62
     7
370
    25
100
AcDbLine
 10
6.4743589744
 20
37.5
 30
0.0
 11
7.8766025641
 21
47.5
 31
0.0
  0
LINE
  5
C9
330
1F
100
AcDbEntity
  8
0
  6
Continuous
 62
     7
370
    25
100
AcDbLine
 10
7.8766025641
 20
47.5
 30
0.0
 11
9.4551282051
 21
47.5
 31
0.0
  0
SPLINE
  5
CA
330
1F
100
AcDbEntity
  8
0
  6
Continuous
 62
     7
370
    25
100
AcDbSpline
210
0.0
220
0.0
230
1.0
 70
     8
 71
     3
 72
    31
 73
    27
 74
     0
 42
0.000000001
 43
0.00000001
 40
0.0
 40
0.0
 40
0.0
 40
0.0
 40
0.0628720014195853
 40
0.121582242563883
 40
0.1764587985845926
 40
0.2271157939441968
 40
0.274134240998169
 40
0.3176564668378571
 40
0.357416060447133
 40
0.3941921089073009
 40
0.4292398579679319
 40
0.4640521070531992
 40
0.4992377412098696
 40
0.534323933165352
 40
0.5698209506851764
 40
0.6061029341122123
 40
0.6431658777294286
 40
0.6811634665713094
 40
0.719485488110065
 40
0.7580022861083133
 40
0.7969057115934819
 40
0.8357978205412898
 40
0.8754631969716762
 40
0.9160717481590973
 40
0.9575264715595349
 40
1.0
 40
1.0
 40
1.0
 40
1.0
 10
9.455128205128197
 20
47.49999999999999
 30
0.0
 10
9.634106235176061
 20
47.49852179868157
 30
0.0
 10
9.980214992199134
 20
47.49566324436177
 30
0.0
 10
10.48213341620067
 20
47.47209374336399
 30
0.0
 10
10.9479573307665
 20
47.43049278470436
 30
0.0
 10
11.37853909353817
 20
47.3729141642349
 30
0.0
 10
11.77391370838088
 20
47.29945407823665
 30
0.0
 10
12.13423218191832
 20
47.21050317212575
 30
0.0
 10
12.4598536313504
 20
47.10527138582766
 30
0.0
 10
12.75168540014869
 20
46.97883254615753
 30
0.0
 10
13.02039328822153
 20
46.83694996845887
 30
0.0
 10
13.27220947918698
 20
46.67505509761997
 30
0.0
 10
13.5114711052561
 20
46.49516983307765
 30
0.0
 10
13.73979163902361
 20
46.2984323801538
 30
0.0
 10
13.95254294293116
 20
46.08052131947085
 30
0.0
 10
14.15271899447798
 20
45.84373354373937
 30
0.0
 10
14.3410860090359
 20
45.58858236039374
 30
0.0
 10
14.51700850815576
 20
45.3177166029878
 30
0.0
 10
14.67525239907195
 20
45.03132678478008
 30
0.0
 10
14.81349064634537
 20
44.73199258680563
 30
0.0
 10
14.9321767024375
 20
44.42255280653903
 30
0.0
 10
15.02605067423608
 20
44.10130878992525
 30
0.0
 10
15.10026085607154
 20
43.77008203276441
 30
0.0
 10
15.15420721451094
 20
43.42758131718426
 30
0.0
 10
15.18713793067423
 20
43.07423592390686
 30
0.0
 10
15.19057054891239
 20
42.83527419259111
 30
0.0
 10
15.19230769230768
 20
42.71434294871794
 30
0.0
  0
SPLINE
  5
CB
330
1F
100
AcDbEntity
  8
0
  6
Continuous
 62
     7
370
    25
100
AcDbSpline
210
0.0
220
0.0
230
1.0
 70
     8
 71
     3
 72
    31
 73
    27
 74
     0
 42
0.000000001
 43
0.00000001
 40
0.0
 40
0.0
 40
0.0
 40
0.0
 40
0.0431386152847019
 40
0.0857440222488474
 40
0.1275177783611213
 40
0.169082300772204
 40
0.2104468138331458
 40
0.2518164674183027
 40
0.2932066767159587
 40
0.3349804328282328
 40
0.3762632543294394
 40
0.4161756963354131
 40
0.4550654025292927
 40
0.4927555219063567
 40
0.529782512057777
 40
0.5663326283126815
 40
0.6021473698690628
 40
0.6380961954003783
 40
0.6748139220286193
 40
0.7137008941317907
 40
0.7547790995209156
 40
0.7981947216668996
 40
0.8444397851770747
 40
0.8933780489178947
 40
0.9451124388459448
 40
1.0
 40
1.0
 40
1.0
 40
1.0
 10
15.19230769230768
 20
42.71434294871794
 30
0.0
 10
15.18986689419436
 20
42.58940157963533
 30
0.0
 10
15.1850154670831
 20
42.34106316033933
 30
0.0
 10
15.15020437147585
 20
41.97305688231735
 30
0.0
 10
15.09390784469862
 20
41.61250319830464
 30
0.0
 10
15.01630902221163
 20
41.25952741059825
 30
0.0
 10
14.91410875598554
 20
40.91398872329726
 30
0.0
 10
14.78650059743332
 20
40.57770771529958
 30
0.0
 10
14.64120123901524
 20
40.24732084852641
 30
0.0
 10
14.47045571938128
 20
39.9296227952434
 30
0.0
 10
14.28631739389482
 20
39.62458373350277
 30
0.0
 10
14.08695454899516
 20
39.33936023180465
 30
0.0
 10
13.87785562802557
 20
39.07426012572265
 30
0.0
 10
13.65376283827854
 20
38.83292029444312
 30
0.0
 10
13.41898068388866
 20
38.61190154299616
 30
0.0
 10
13.1734219840496
 20
38.41120896774147
 30
0.0
 10
12.91443769003159
 20
38.23362646425652
 30
0.0
 10
12.64231911787446
 20
38.0759991299634
 30
0.0
 10
12.34982152395025
 20
37.93782592553245
 30
0.0
 10
12.03246708643161
 20
37.82077334480473
 30
0.0
 10
11.68928047229121
 20
37.72016922264654
 30
0.0
 10
11.31861907116749
 20
37.64163029366536
 30
0.0
 10
10.92225106274179
 20
37.57751472603708
 30
0.0
 10
10.499046078067
 20
37.53159232147326
 30
0.0
 10
10.04905228285596
 20
37.50645262763857
 30
0.0
 10
9.740281313253382
 20
37.50219286770923
 30
0.0
 10
9.58133012820512
 20
37.49999999999999
 30
0.0
  0
LINE
  5
CC
330
1F
100
AcDbEntity
  8
0
  6
Continuous
 62
     7
370
    25
100
AcDbLine
 10
9.5813301282
 20
37.5
 30
0.0
 11
6.4743589744
 21
37.5
 31
0.0
  0
SPLINE
  5
CD
330
1F
100
AcDbEntity
  8
0
  6
Continuous
 62
     7
370
    25
100
AcDbSpline
210
0.0
220
0.0
230
1.0
 70
     8
 71
     3
 72
    15
 73
    11
 74
     0
 42
0.000000001
 43
0.00000001
 40
0.0
 40
0.0
 40
0.0
 40
0.0
 40
0.1284017885308366
 40
0.2544174022977543
 40
0.3781899073892647
 40
0.5012748800724861
 40
0.6234949985275949
 40
0.7466506640001498
 40
0.8716999293001796
 40
1.0
 40
1.0
 40
1.0
 40
1.0
 10
22.75841346153846
 20
39.03846153846153
 30
0.0
 10
22.84060618576549
 20
39.04059687998456
 30
0.0
 10
23.0034641928453
 20
39.04482788057668
 30
0.0
 10
23.24447813774416
 20
39.07218517022984
 30
0.0
 10
23.47790823193701
 20
39.12364516594539
 30
0.0
 10
23.70435581650333
 20
39.19160540038303
 30
0.0
 10
23.92469653061866
 20
39.27703336724493
 30
0.0
 10
24.13488546310793
 20
39.38745616117129
 30
0.0
 10
24.34113812213977
 20
39.51281957744885
 30
0.0
 10
24.4699991619749
 20
39.61149005733461
 30
0.0
 10
24.53525641025641
 20
39.66145833333332
 30
0.0
  0
LINE
  5
CE
330
1F
100
AcDbEntity
  8
0
  6
Continuous
 62
     7
370
    25
100
AcDbLine
 10
24.5352564103
 20
39.6614583333
 30
0.0
 11
26.1037660256
 21
38.8561698718
 31
0.0
  0
SPLINE
  5
CF
330
1F
100
AcDbEntity
  8
0
  6
Continuous
 62
     7
370
    25
100
AcDbSpline
210
0.0
220
0.0
230
1.0
 70
     8
 71
     3
 72
    15
 73
    11
 74
     0
 42
0.000000001
 43
0.00000001
 40
0.0
 40
0.0
 40
0.0
 40
0.0
 40
0.1142806165684034
 40
0.2297046096145499
 40
0.348817212113268
 40
0.4730109665898696
 40
0.6000987715392967
 40
0.7296582987426913
 40
0.8623481336975589
 40
0.9999999999999999
 40
0.9999999999999999
 40
0.9999999999999999
 40
0.9999999999999999
 10
26.10376602564103
 20
38.85616987179486
 30
0.0
 10
26.0111047721975
 20
38.74530312552447
 30
0.0
 10
25.82485519035437
 20
38.52246041224568
 30
0.0
 10
25.49003402273338
 20
38.23364119745083
 30
0.0
 10
25.11543142497219
 20
37.97762323304166
 30
0.0
 10
24.69973838020041
 20
37.76112665983702
 30
0.0
 10
24.25080898584425
 20
37.58576747979412
 30
0.0
 10
23.77379132641189
 20
37.46371189197961
 30
0.0
 10
23.27392819365546
 20
37.38371554046623
 30
0.0
 10
22.93234160802061
 20
37.3758167545417
 30
0.0
 10
22.75841346153846
 20
37.37179487179487
 30
0.0
  0
SPLINE
  5
D0
330
1F
100
AcDbEntity
  8
0
  6
Continuous
 62
     7
370
    25
100
AcDbSpline
210
0.0
220
0.0
230
1.0
 70
     8
 71
     3
 72
    23
 73
    19
 74
     0
 42
0.000000001
 43
0.00000001
 40
0.0
 40
0.0
 40
0.0
 40
0.0
 40
0.0729697936478491
 40
0.142038987577184
 40
0.2083357357573257
 40
0.2720961606797339
 40
0.3333363940943424
 40
0.3937747915180651
 40
0.453166352284948
 40
0.5127834733991252
 40
0.571751971582185
 40
0.6302370051865237
 40
0.6882134009886218
 40
0.7470515358907596
 40
0.8068070401793445
 40
0.8686845984066133
 40
0.9327600012200977
 40
1.0
 40
1.0
 40
1.0
 40
1.0
 10
22.75841346153846
 20
37.37179487179487
 30
0.0
 10
22.62272165956918
 20
37.37410117268833
 30
0.0
 10
22.35859145978741
 20
37.37859049117998
 30
0.0
 10
21.97353905636663
 20
37.42465359842251
 30
0.0
 10
21.60966460732564
 20
37.49479173915317
 30
0.0
 10
21.26881747293668
 20
37.59793622900656
 30
0.0
 10
20.94809336797269
 20
37.7256987708832
 30
0.0
 10
20.65144904678924
 20
37.88640801437771
 30
0.0
 10
20.37695394778858
 20
38.07682388265444
 30
0.0
 10
20.12458292830201
 20
38.29177026948145
 30
0.0
 10
19.90033093266979
 20
38.53351925664651
 30
0.0
 10
19.70261464651872
 20
38.7936547476752
 30
0.0
 10
19.53781690782788
 20
39.07548947112655
 30
0.0
 10
19.4003111144186
 20
39.37420702833909
 30
0.0
 10
19.29702040567642
 20
39.69402177549733
 30
0.0
 10
19.2201459373653
 20
40.03099430496793
 30
0.0
 10
19.17644322381597
 20
40.38814826435038
 30
0.0
 10
19.16997745896723
 20
40.6322297245482
 30
0.0
 10
19.16666666666667
 20
40.75721153846153
 30
0.0
  0
SPLINE
  5
D1
330
1F
100
AcDbEntity
  8
0
  6
Continuous
 62
     7
370
    25
100
AcDbSpline
210
0.0
220
0.0
230
1.0
 70
     8
 71
     3
 72
    23
 73
    19
 74
     0
 42
0.000000001
 43
0.00000001
 40
0.0
 40
0.0
 40
0.0
 40
0.0
 40
0.0659558193606175
 40
0.1297179851096963
 40
0.1917936995390671
 40
0.2534426882014753
 40
0.3144552307863673
 40
0.3761666657863593
 40
0.4389997455570187
 40
0.5032236083086272
 40
0.5676541188926223
 40
0.6299978790945646
 40
0.6910804400689273
 40
0.751948074192035
 40
0.812151502945955
 40
0.873333183448204
 40
0.9358815423369378
 40
1.0
 40
1.0
 40
1.0
 40
1.0
 10
19.16666666666667
 20
40.75721153846153
 30
0.0
 10
19.16962948930837
 20
40.90099204909399
 30
0.0
 10
19.17545659277014
 20
41.1837710111036
 30
0.0
 10
19.23634702883354
 20
41.59814072805163
 30
0.0
 10
19.33014305317898
 20
41.99610608040144
 30
0.0
 10
19.46160825010577
 20
42.37744224301284
 30
0.0
 10
19.63500015687003
 20
42.74044439576947
 30
0.0
 10
19.8405832954101
 20
43.08932087792456
 30
0.0
 10
20.08931175153294
 20
43.41781732607622
 30
0.0
 10
20.37039129173161
 20
43.72677276701785
 30
0.0
 10
20.6776290403853
 20
44.00822415564147
 30
0.0
 10
21.00339447509695
 20
44.25699961618287
 30
0.0
 10
21.34658908151913
 20
44.46673075458845
 30
0.0
 10
21.70467668424818
 20
44.6392713508909
 30
0.0
 10
22.07934693078435
 20
44.77327018069339
 30
0.0
 10
22.4697373538062
 20
44.86584068816733
 30
0.0
 10
22.87534242575933
 20
44.92699297612579
 30
0.0
 10
23.15148385513634
 20
44.93290485573509
 30
0.0
 10
23.29126602564103
 20
44.93589743589742
 30
0.0
  0
SPLINE
  5
D2
330
1F
100
AcDbEntity
  8
0
  6
Continuous
 62
     7
370
    25
100
AcDbSpline
210
0.0
220
0.0
230
1.0
 70
     8
 71
     3
 72
    31
 73
    27
 74
     0
 42
0.000000001
 43
0.00000001
 40
0.0
 40
0.0
 40
0.0
 40
0.0
 40
0.0446809969028021
 40
0.0880759799459776
 40
0.1307453994017301
 40
0.1724000616766117
 40
0.2133602313619391
 40
0.254069062845656
 40
0.2945631830022432
 40
0.3349839497222131
 40
0.3752084533093034
 40
0.4150235561891253
 40
0.4550060152635619
 40
0.4948024795672445
 40
0.5348976633806721
 40
0.5754848122383236
 40
0.6170324693527223
 40
0.6594300646366642
 40
0.7018903190119413
 40
0.7444160479895273
 40
0.7861196625383855
 40
0.8281908079501938
 40
0.8706058988037741
 40
0.9133288967008679
 40
0.9563734010993918
 40
1.0
 40
1.0
 40
1.0
 40
1.0
 10
23.29126602564103
 20
44.93589743589742
 30
0.0
 10
23.37609457421042
 20
44.93401471239907
 30
0.0
 10
23.54331012579933
 20
44.93030345417794
 30
0.0
 10
23.79108182456475
 20
44.91115452662706
 30
0.0
 10
24.03084477760365
 20
44.8737951001898
 30
0.0
 10
24.26430879921307
 20
44.82726392496705
 30
0.0
 10
24.48954364870422
 20
44.76215395341251
 30
0.0
 10
24.70778268654023
 20
44.6833497723369
 30
0.0
 10
24.92127851851868
 20
44.59463787187934
 30
0.0
 10
25.12474558111115
 20
44.48692235354376
 30
0.0
 10
25.32186056758898
 20
44.3704663649873
 30
0.0
 10
25.50627894561023
 20
44.23612726002806
 30
0.0
 10
25.68273060091154
 20
44.09300269565054
 30
0.0
 10
25.84813755768283
 20
43.93617090726017
 30
0.0
 10
25.99995820810364
 20
43.76477127279952
 30
0.0
 10
26.14329883739861
 20
43.58199319573057
 30
0.0
 10
26.27475596975299
 20
43.38522447717585
 30
0.0
 10
26.39698107417375
 20
43.1784222961921
 30
0.0
 10
26.50397744469769
 20
42.96135174701908
 30
0.0
 10
26.60132173833304
 20
42.74112724380572
 30
0.0
 10
26.6783915175216
 20
42.5138332807078
 30
0.0
 10
26.74637004954889
 20
42.28386781037049
 30
0.0
 10
26.79427516547366
 20
42.04693948079878
 30
0.0
 10
26.83471774236638
 20
41.8067586498192
 30
0.0
 10
26.8531261814532
 20
41.56144983488254
 30
0.0
 10
26.8570162577131
 20
41.39691998904022
 30
0.0
 10
26.85897435897436
 20
41.31410256410255
 30
0.0
  0
SPLINE
  5
D3
330
1F
100
AcDbEntity
  8
0
  6
Continuous
 62
     7
370
    25
100
AcDbSpline
210
0.0
220
0.0
230
1.0
 70
     8
 71
     3
 72
    11
 73
     7
 74
     0
 42
0.000000001
 43
0.00000001
 40
0.0
 40
0.0
 40
0.0
 40
0.0
 40
0.2217151620132367
 40
0.4601348967781125
 40
0.7213246177345415
 40
1.0
 40
1.0
 40
1.0
 40
1.0
 10
26.85897435897436
 20
41.31410256410255
 30
0.0
 10
26.85811813127874
 20
41.25933122031523
 30
0.0
 10
26.85634116555947
 20
41.14566192322643
 30
0.0
 10
26.84384815705567
 20
40.96781546543436
 30
0.0
 10
26.82151841438365
 20
40.77680186269662
 30
0.0
 10
26.80130133120535
 20
40.64497260901071
 30
0.0
 10
26.79086538461539
 20
40.57692307692307
 30
0.0
  0
LINE
  5
D4
330
1F
100
AcDbEntity
  8
0
  6
Continuous
 62
     7
370
    25
100
AcDbLine
 10
26.7908653846
 20
40.5769230769
 30
0.0
 11
20.9615384615
 21
40.5769230769
 31
0.0
  0
SPLINE
  5
D5
330
1F
100
AcDbEntity
  8
0
  6
Continuous
 62
     7
370
    25
100
AcDbSpline
210
0.0
220
0.0
230
1.0
 70
     8
 71
     3
 72
    23
 73
    19
 74
     0
 42
0.000000001
 43
0.00000001
 40
0.0
 40
0.0
 40
0.0
 40
0.0
 40
0.0650187786050622
 40
0.1268366416386155
 40
0.1862517494544563
 40
0.2444648676664697
 40
0.3017537533662753
 40
0.3590277697785472
 40
0.416819935005612
 40
0.4749012221243792
 40
0.5344499759171484
 40
0.5940368592184139
 40
0.6546956793711504
 40
0.7181095726016965
 40
0.7837368289729151
 40
0.8518770369417658
 40
0.9238588684100327
 40
1.0
 40
1.0
 40
1.0
 40
1.0
 10
20.96153846153846
 20
40.57692307692307
 30
0.0
 10
20.96536356498879
 20
40.51942305073102
 30
0.0
 10
20.97282545962858
 20
40.40725376098425
 30
0.0
 10
20.99801649038238
 20
40.24379429803522
 30
0.0
 10
21.04085183484404
 20
40.0903054052539
 30
0.0
 10
21.09735842793476
 20
39.94574327680974
 30
0.0
 10
21.16555535904765
 20
39.8084510288206
 30
0.0
 10
21.24746784474339
 20
39.67905151784429
 30
0.0
 10
21.34663195224875
 20
39.56150715913528
 30
0.0
 10
21.45738830223013
 20
39.45214302028042
 30
0.0
 10
21.58084293817965
 20
39.3544534446201
 30
0.0
 10
21.71645669152166
 20
39.27042427294039
 30
0.0
 10
21.86181917861615
 20
39.19647662413789
 30
0.0
 10
22.02052743426089
 20
39.14015210547594
 30
0.0
 10
22.18900714019703
 20
39.09311530500991
 30
0.0
 10
22.36889759443214
 20
39.06218133424172
 30
0.0
 10
22.55958908786821
 20
39.04105078562576
 30
0.0
 10
22.69090950901023
 20
39.03934062795359
 30
0.0
 10
22.75841346153846
 20
39.03846153846153
 30
0.0
  0
LINE
  5
D6
330
1F
100
AcDbEntity
  8
0
  6
Continuous
 62
     7
370
    25
100
AcDbLine
 10
37.6682692308
 20
42.0392628205
 30
0.0
 11
38.1390224359
 21
44.8076923077
 31
0.0
  0
LINE
  5
D7
330
1F
100
AcDbEntity
  8
0
  6
Continuous
 62
     7
370
    25
100
AcDbLine
 10
38.1390224359
 20
44.8076923077
 30
0.0
 11
39.9499198718
 21
44.8076923077
 31
0.0
  0
LINE
  5
D8
330
1F
100
AcDbEntity
  8
0
  6
Continuous
 62
     7
370
    25
100
AcDbLine
 10
39.9499198718
 20
44.8076923077
 30
0.0
 11
39.4170673077
 21
41.0977564103
 31
0.0
  0
SPLINE
  5
D9
330
1F
100
AcDbEntity
  8
0
  6
Continuous
 62
     7
370
    25
100
AcDbSpline
210
0.0
220
0.0
230
1.0
 70
     8
 71
     3
 72
    11
 73
     7
 74
     0
 42
0.000000001
 43
0.00000001
 40
0.0
 40
0.0
 40
0.0
 40
0.0
 40
0.3133816258885345
 40
0.5847694836373247
 40
0.8120156710246816
 40
1.0
 40
1.0
 40
1.0
 40
1.0
 10
39.41706730769231
 20
41.0977564102564
 30
0.0
 10
39.40470223522109
 20
41.00164633439074
 30
0.0
 10
39.38162903485831
 20
40.82230512612125
 30
0.0
 10
39.35460589905531
 20
40.57263556645484
 30
0.0
 10
39.34026755003784
 20
40.36073549696312
 30
0.0
 10
39.33659743999316
 20
40.23238571911337
 30
0.0
 10
39.3349358974359
 20
40.17427884615383
 30
0.0
  0
SPLINE
  5
DA
330
1F
100
AcDbEntity
  8
0
  6
Continuous
 62
     7
370
    25
100
AcDbSpline
210
0.0
220
0.0
230
1.0
 70
     8
 71
     3
 72
    15
 73
    11
 74
     0
 42
0.000000001
 43
0.00000001
 40
0.0
 40
0.0
 40
0.0
 40
0.0
 40
0.1253544617067923
 40
0.2455951413948182
 40
0.3636434598710732
 40
0.486973074299206
 40
0.6106082914617653
 40
0.7344484119017888
 40
0.8627411950472949
 40
1.0
 40
1.0
 40
1.0
 40
1.0
 10
39.3349358974359
 20
40.17427884615383
 30
0.0
 10
39.33816083390221
 20
40.09695882977685
 30
0.0
 10
39.34447914692153
 20
39.94547303424791
 30
0.0
 10
39.4126998317718
 20
39.73021879358512
 30
0.0
 10
39.51605905846575
 20
39.53195412539903
 30
0.0
 10
39.66265064228342
 20
39.35973012320287
 30
0.0
 10
39.84131066452087
 20
39.21553702222801
 30
0.0
 10
40.0499897063733
 20
39.11284972919406
 30
0.0
 10
40.28264300360449
 20
39.04821952855116
 30
0.0
 10
40.44627232643631
 20
39.04178660177061
 30
0.0
 10
40.53084935897436
 20
39.03846153846153
 30
0.0
  0
SPLINE
  5
DB
330
1F
100
AcDbEntity
  8
0
  6
Continuous
 62
     7
370
    25
100
AcDbSpline
210
0.0
220
0.0
230
1.0
 70
     8
 71
     3
 72
    23
 73
    19
 74
     0
 42
0.000000001
 43
0.00000001
 40
0.0
 40
0.0
 40
0.0
 40
0.0
 40
0.0557568042719737
 40
0.1085491572889493
 40
0.158867594741639
 40
0.2070586404459984
 40
0.2536181950548258
 40
0.2994460191395436
 40
0.3452640078718399
 40
0.3913125720172018
 40
0.4412624371234181
 40
0.4978018453902674
 40
0.5609211799287129
 40
0.6322719427934025
 40
0.7117615380770721
 40
0.7992150390780743
 40
0.895468454084887
 40
1.0
 40
1.0
 40
1.0
 40
1.0
 10
40.53084935897436
 20
39.03846153846153
 30
0.0
 10
40.58633221306766
 20
39.03940847042835
 30
0.0
 10
40.6943480352521
 20
39.04125198833348
 30
0.0
 10
40.85142251599742
 20
39.06152783695252
 30
0.0
 10
40.99820031482668
 20
39.0957257780687
 30
0.0
 10
41.13517980577453
 20
39.1417847502843
 30
0.0
 10
41.26273991194317
 20
39.19977393096254
 30
0.0
 10
41.37999104646374
 20
39.2723845544157
 30
0.0
 10
41.48602773294121
 20
39.35944781445878
 30
0.0
 10
41.58608384474134
 20
39.45951582442684
 30
0.0
 10
41.67435093904535
 20
39.58352676484494
 30
0.0
 10
41.75897363199103
 20
39.72979421185939
 30
0.0
 10
41.83363776823045
 20
39.90482103890278
 30
0.0
 10
41.90648473183664
 20
40.10490853959649
 30
0.0
 10
41.96875097314154
 20
40.33382207486873
 30
0.0
 10
42.02691422806827
 20
40.58909720818695
 30
0.0
 10
42.07861743613062
 20
40.87120389671349
 30
0.0
 10
42.10674869286762
 20
41.06893390597222
 30
0.0
 10
42.12139423076923
 20
41.17187499999999
 30
0.0
  0
LINE
  5
DC
330
1F
100
AcDbEntity
  8
0
  6
Continuous
 62
     7
370
    25
100
AcDbLine
 10
42.1213942308
 20
41.171875
 30
0.0
 11
42.640224359
 21
44.8076923077
 31
0.0
  0
LINE
  5
DD
330
1F
100
AcDbEntity
  8
0
  6
Continuous
 62
     7
370
    25
100
AcDbLine
 10
42.640224359
 20
44.8076923077
 30
0.0
 11
44.453125
 21
44.8076923077
 31
0.0
  0
LINE
  5
DE
330
1F
100
AcDbEntity
  8
0
  6
Continuous
 62
     7
370
    25
100
AcDbLine
 10
44.453125
 20
44.8076923077
 30
0.0
 11
43.8942307692
 21
40.8954326923
 31
0.0
  0
SPLINE
  5
DF
330
1F
100
AcDbEntity
  8
0
  6
Continuous
 62
     7
370
    25
100
AcDbSpline
210
0.0
220
0.0
230
1.0
 70
     8
 71
     3
 72
    23
 73
    19
 74
     0
 42
0.000000001
 43
0.00000001
 40
0.0
 40
0.0
 40
0.0
 40
0.0
 40
0.0586426819954856
 40
0.1143065489092227
 40
0.1670675295530386
 40
0.2169176906294582
 40
0.2638108359695885
 40
0.3079929160178565
 40
0.3498799962621544
 40
0.3893388201852401
 40
0.4642293667898955
 40
0.5369708732460549
 40
0.6096512190063094
 40
0.6826441306520803
 40
0.7570027938631874
 40
0.8341279879041722
 40
0.9146310743460481
 40
1.0
 40
1.0
 40
1.0
 40
1.0
 10
43.89423076923077
 20
40.89543269230769
 30
0.0
 10
43.87829690334471
 20
40.78913904489017
 30
0.0
 10
43.84723854860646
 20
40.58195104471982
 30
0.0
 10
43.78919154276963
 20
40.28119237591586
 30
0.0
 10
43.72242869037704
 20
39.99889727484991
 30
0.0
 10
43.65248269055148
 20
39.7338147397344
 30
0.0
 10
43.5686502845202
 20
39.48940528684202
 30
0.0
 10
43.482217316833
 20
39.2614102762286
 30
0.0
 10
43.38311996297045
 20
39.05357492343636
 30
0.0
 10
43.24677082193996
 20
38.80160557200154
 30
0.0
 10
43.04980248874764
 20
38.51950297968705
 30
0.0
 10
42.77915155435259
 20
38.21846108641391
 30
0.0
 10
42.47097073920253
 20
37.96072698853855
 30
0.0
 10
42.12733997898415
 20
37.74752865788068
 30
0.0
 10
41.75148611339223
 20
37.57694663885427
 30
0.0
 10
41.3419959812424
 20
37.45844450807495
 30
0.0
 10
40.9014506988747
 20
37.38440828380152
 30
0.0
 10
40.59726143913187
 20
37.37608077138386
 30
0.0
 10
40.44070512820513
 20
37.37179487179487
 30
0.0
  0
SPLINE
  5
E0
330
1F
100
AcDbEntity
  8
0
  6
Continuous
 62
     7
370
    25
100
AcDbSpline
210
0.0
220
0.0
230
1.0
 70
     8
 71
     3
 72
    23
 73
    19
 74
     0
 42
0.000000001
 43
0.00000001
 40
0.0
 40
0.0
 40
0.0
 40
0.0
 40
0.0730395364563134
 40
0.1425262507209573
 40
0.2093578428849666
 40
0.2732067135885577
 40
0.3353444530859792
 40
0.396723002829792
 40
0.4568492358090895
 40
0.5176581347164285
 40
0.5776862102334275
 40
0.6366139228863261
 40
0.69483193547356
 40
0.7530599103594608
 40
0.8121596272652878
 40
0.8723099727883564
 40
0.9348694524577027
 40
1.0
 40
1.0
 40
1.0
 40
1.0
 10
40.44070512820513
 20
37.37179487179487
 30
0.0
 10
40.32975267786956
 20
37.37395806866627
 30
0.0
 10
40.11324477650724
 20
37.37817923920773
 30
0.0
 10
39.79703424949306
 20
37.41530868103899
 30
0.0
 10
39.49835513229182
 20
37.47393432657879
 30
0.0
 10
39.21790712288596
 20
37.55951793526805
 30
0.0
 10
38.95308266671681
 20
37.66483013035776
 30
0.0
 10
38.70713333938859
 20
37.79751508242533
 30
0.0
 10
38.47752594545453
 20
37.95313677506402
 30
0.0
 10
38.26889897570841
 20
38.13288992395699
 30
0.0
 10
38.08065880252659
 20
38.3311538608333
 30
0.0
 10
37.91517086880035
 20
38.54392621287457
 30
0.0
 10
37.77598740390151
 20
38.77168093584064
 30
0.0
 10
37.66352658970543
 20
39.0139556541615
 30
0.0
 10
37.57552538058375
 20
39.26915698908503
 30
0.0
 10
37.51071396880182
 20
39.53793540847435
 30
0.0
 10
37.47212087226501
 20
39.82125203366743
 30
0.0
 10
37.46803141336513
 20
40.01523716113959
 30
0.0
 10
37.46594551282052
 20
40.11418269230768
 30
0.0
  0
SPLINE
  5
E1
330
1F
100
AcDbEntity
  8
0
  6
Continuous
 62
     7
370
    25
100
AcDbSpline
210
0.0
220
0.0
230
1.0
 70
     8
 71
     3
 72
    15
 73
    11
 74
     0
 42
0.000000001
 43
0.00000001
 40
0.0
 40
0.0
 40
0.0
 40
0.0
 40
0.1002916325493558
 40
0.2068444998305589
 40
0.3208534317937041
 40
0.442331397567959
 40
0.5713263952363937
 40
0.7069913517307912
 40
0.8501113756603363
 40
1.0
 40
1.0
 40
1.0
 40
1.0
 10
37.46594551282052
 20
40.11418269230768
 30
0.0
 10
37.46710158862112
 20
40.17895555211072
 30
0.0
 10
37.46948591435861
 20
40.31254505951016
 30
0.0
 10
37.47673544082118
 20
40.51971599066795
 30
0.0
 10
37.49375144360218
 20
40.7400484580044
 30
0.0
 10
37.51591536172061
 20
40.97443581767973
 30
0.0
 10
37.54311482870731
 20
41.22241815648692
 30
0.0
 10
37.58108446227469
 20
41.4830934788604
 30
0.0
 10
37.61929773395409
 20
41.7573692573152
 30
0.0
 10
37.65169592868896
 20
41.94386228180772
 30
0.0
 10
37.66826923076923
 20
42.03926282051281
 30
0.0
  0
SPLINE
  5
E2
330
1F
100
AcDbEntity
  8
0
  6
Continuous
 62
     7
370
    25
100
AcDbSpline
210
0.0
220
0.0
230
1.0
 70
     8
 71
     3
 72
    23
 73
    19
 74
     0
 42
0.000000001
 43
0.00000001
 40
0.0
 40
0.0
 40
0.0
 40
0.0
 40
0.0702769808490857
 40
0.1374324730018385
 40
0.202172876305814
 40
0.2647994613842377
 40
0.3258390941790131
 40
0.3862004200811995
 40
0.446606659209401
 40
0.5077794387322527
 40
0.5684300736224009
 40
0.6281177762668088
 40
0.6876110222183032
 40
0.7470047255803537
 40
0.8076268984004701
 40
0.8694730717505803
 40
0.9332311075493184
 40
1.0
 40
1.0
 40
1.0
 40
1.0
 10
-31.08974358974359
 20
40.85937499999999
 30
0.0
 10
-31.08802943189977
 20
40.79255749680785
 30
0.0
 10
-31.08467725386445
 20
40.66189031969584
 30
0.0
 10
-31.06359789926178
 20
40.47041226193685
 30
0.0
 10
-31.02254795911474
 20
40.28973594028741
 30
0.0
 10
-30.96864432501488
 20
40.11868465584125
 30
0.0
 10
-30.90064344978911
 20
39.95709368869962
 30
0.0
 10
-30.81594653116997
 20
39.80595089125258
 30
0.0
 10
-30.71510891853741
 20
39.66497404960024
 30
0.0
 10
-30.59958285908166
 20
39.53530902525942
 30
0.0
 10
-30.47094093432985
 20
39.41987679820862
 30
0.0
 10
-30.33461495801219
 20
39.31615678165422
 30
0.0
 10
-30.18767941191108
 20
39.23028066191736
 30
0.0
 10
-30.03213998080505
 20
39.1592680836049
 30
0.0
 10
-29.86742705399996
 20
39.1053061767623
 30
0.0
 10
-29.69412448873729
 20
39.06807332722163
 30
0.0
 10
-29.51263270604552
 20
39.04260754093033
 30
0.0
 10
-29.38844568798914
 20
39.03986462947459
 30
0.0
 10
-29.32491987179488
 20
39.03846153846153
 30
0.0
  0
SPLINE
  5
E3
330
1F
100
AcDbEntity
  8
0
  6
Continuous
 62
     7
370
    25
100
AcDbSpline
210
0.0
220
0.0
230
1.0
 70
     8
 71
     3
 72
    19
 73
    15
 74
     0
 42
0.000000001
 43
0.00000001
 40
0.0
 40
0.0
 40
0.0
 40
0.0
 40
0.0848250973193125
 40
0.1654247678554494
 40
0.2425034445177433
 40
0.3182477586761119
 40
0.3946062285936762
 40
0.4744620981665886
 40
0.5579725137780479
 40
0.648091816248972
 40
0.7396546764138033
 40
0.8277182703240149
 40
0.9140584057177381
 40
1.0
 40
1.0
 40
1.0
 40
1.0
 10
-29.32491987179488
 20
39.03846153846153
 30
0.0
 10
-29.22049493925633
 20
39.04168916247255
 30
0.0
 10
-29.01684683545889
 20
39.04798363155803
 30
0.0
 10
-28.72262986505381
 20
39.10374243783829
 30
0.0
 10
-28.44846059122102
 20
39.19154819896177
 30
0.0
 10
-28.19475329366525
 20
39.31706672397226
 30
0.0
 10
-27.9606354810616
 20
39.48214963625414
 30
0.0
 10
-27.74812467330809
 20
39.68818552993871
 30
0.0
 10
-27.55618253162595
 20
39.93500216786985
 30
0.0
 10
-27.38785253518221
 20
40.21516344284801
 30
0.0
 10
-27.24717413694374
 20
40.51647443748998
 30
0.0
 10
-27.14410134587241
 20
40.82754442101539
 30
0.0
 10
-27.07836905274059
 20
41.14240276010879
 30
0.0
 10
-27.07098912176172
 20
41.35452217836045
 30
0.0
 10
-27.0673076923077
 20
41.46033653846153
 30
0.0
  0
SPLINE
  5
E4
330
1F
100
AcDbEntity
  8
0
  6
Continuous
 62
     7
370
    25
100
AcDbSpline
210
0.0
220
0.0
230
1.0
 70
     8
 71
     3
 72
    23
 73
    19
 74
     0
 42
0.000000001
 43
0.00000001
 40
0.0
 40
0.0
 40
0.0
 40
0.0
 40
0.0693213528217462
 40
0.1362316921720685
 40
0.199903216478107
 40
0.2616347324709581
 40
0.3227285914338296
 40
0.3822601039877375
 40
0.4424458286303493
 40
0.5024074729650816
 40
0.5628367011968034
 40
0.6223065123910131
 40
0.6818380249449203
 40
0.741652543976424
 40
0.8027183534174187
 40
0.8658571814666239
 40
0.9313777158207089
 40
1.0
 40
1.0
 40
1.0
 40
1.0
 10
-27.0673076923077
 20
41.46033653846153
 30
0.0
 10
-27.06899179241037
 20
41.5264964785534
 30
0.0
 10
-27.07230141920549
 20
41.65651529996756
 30
0.0
 10
-27.0939355684609
 20
41.84638091298208
 30
0.0
 10
-27.13196700237434
 20
42.02624008055471
 30
0.0
 10
-27.18653554907061
 20
42.19598168958071
 30
0.0
 10
-27.25623867187568
 20
42.35578828742928
 30
0.0
 10
-27.34159295663792
 20
42.50612836517821
 30
0.0
 10
-27.44137962014898
 20
42.6459492495901
 30
0.0
 10
-27.55607665903625
 20
42.77513151404961
 30
0.0
 10
-27.68425092219315
 20
42.88958162656855
 30
0.0
 10
-27.82015124828512
 20
42.99450657910934
 30
0.0
 10
-27.97009553693842
 20
43.07689875380159
 30
0.0
 10
-28.12681555305901
 20
43.14879592815121
 30
0.0
 10
-28.29459394270077
 20
43.20182967968552
 30
0.0
 10
-28.47114735876328
 20
43.24315115875311
 30
0.0
 10
-28.65868195324324
 20
43.2641539125799
 30
0.0
 10
-28.78668304667394
 20
43.267512596354
 30
0.0
 10
-28.85216346153847
 20
43.26923076923076
 30
0.0
  0
SPLINE
  5
E5
330
1F
100
AcDbEntity
  8
0
  6
Continuous
 62
     7
370
    25
100
AcDbSpline
210
0.0
220
0.0
230
1.0
 70
     8
 71
     3
 72
    23
 73
    19
 74
     0
 42
0.000000001
 43
0.00000001
 40
0.0
 40
0.0
 40
0.0
 40
0.0
 40
0.0621810782005534
 40
0.1227535126566195
 40
0.1822276869470426
 40
0.2408418756727339
 40
0.2995775237351521
 40
0.358841629644045
 40
0.4194434705754037
 40
0.4822801046187361
 40
0.5452300514911294
 40
0.6073729143830409
 40
0.6693530993443358
 40
0.7323195539671427
 40
0.7957417994796888
 40
0.861585238595816
 40
0.9291074794875547
 40
1.0
 40
1.0
 40
1.0
 40
1.0
 10
-28.85216346153847
 20
43.26923076923076
 30
0.0
 10
-28.92841546369062
 20
43.26756633332934
 30
0.0
 10
-29.07894680509141
 20
43.26428052099859
 30
0.0
 10
-29.30015080556095
 20
43.2303444044693
 30
0.0
 10
-29.51350267614985
 20
43.1796736159579
 30
0.0
 10
-29.71693673515863
 20
43.10384706943366
 30
0.0
 10
-29.91257558376024
 20
43.01038924950544
 30
0.0
 10
-30.09737717255734
 20
42.89231154621636
 30
0.0
 10
-30.27493446163082
 20
42.75549192607586
 30
0.0
 10
-30.44147766816459
 20
42.59863144439532
 30
0.0
 10
-30.59338582635519
 20
42.42506997185188
 30
0.0
 10
-30.72633792127798
 20
42.23783353153581
 30
0.0
 10
-30.83947870217585
 20
42.03798980382624
 30
0.0
 10
-30.93166951222283
 20
41.82585128334815
 30
0.0
 10
-31.0014692354163
 20
41.600508851906
 30
0.0
 10
-31.05398918504629
 20
41.3648743485552
 30
0.0
 10
-31.08423834484164
 20
41.11590495299813
 30
0.0
 10
-31.08787895950443
 20
40.94626187172489
 30
0.0
 10
-31.08974358974359
 20
40.85937499999999
 30
0.0
  0
SPLINE
  5
E6
330
1F
100
AcDbEntity
  8
0
  6
Continuous
 62
     7
370
    25
100
AcDbSpline
210
0.0
220
0.0
230
1.0
 70
     8
 71
     3
 72
    23
 73
    19
 74
     0
 42
0.000000001
 43
0.00000001
 40
0.0
 40
0.0
 40
0.0
 40
0.0
 40
0.0692487428209935
 40
0.1355048204230461
 40
0.1992979925877939
 40
0.2612212626014473
 40
0.3216418105409801
 40
0.3818082559570227
 40
0.4417355017296836
 40
0.5029433212763932
 40
0.5637390943982099
 40
0.6236663401708707
 40
0.6834856340504349
 40
0.7439061819899677
 40
0.804957359387237
 40
0.8672506460090832
 40
0.9321339970766164
 40
1.0
 40
1.0
 40
1.0
 40
1.0
 10
-13.65384615384616
 20
40.85937499999999
 30
0.0
 10
-13.65238598597919
 20
40.79252370405144
 30
0.0
 10
-13.64952875310331
 20
40.66171016890939
 30
0.0
 10
-13.62487053364789
 20
40.47062631334778
 30
0.0
 10
-13.5853598926788
 20
40.28932475102515
 30
0.0
 10
-13.52839535929125
 20
40.11872525680975
 30
0.0
 10
-13.45917971228124
 20
39.95634782304931
 30
0.0
 10
-13.36952664429394
 20
39.80654432339873
 30
0.0
 10
-13.26733276398556
 20
39.66418619816543
 30
0.0
 10
-13.14741621162269
 20
39.53530230737548
 30
0.0
 10
-13.01498336875185
 20
39.41974427860973
 30
0.0
 10
-12.87453533774647
 20
39.31616086873249
 30
0.0
 10
-12.72323415750854
 20
39.22968160917032
 30
0.0
 10
-12.56256233356857
 20
39.159733342243
 30
0.0
 10
-12.39344950530086
 20
39.10523966400218
 30
0.0
 10
-12.21548044586771
 20
39.06789592318425
 30
0.0
 10
-12.02863080301117
 20
39.04264330742993
 30
0.0
 10
-11.90046078660793
 20
39.03987618562213
 30
0.0
 10
-11.8349358974359
 20
39.03846153846153
 30
0.0
  0
SPLINE
  5
E7
330
1F
100
AcDbEntity
  8
0
  6
Continuous
 62
     7
370
    25
100
AcDbSpline
210
0.0
220
0.0
230
1.0
 70
     8
 71
     3
 72
    19
 73
    15
 74
     0
 42
0.000000001
 43
0.00000001
 40
0.0
 40
0.0
 40
0.0
 40
0.0
 40
0.0857803949044544
 40
0.1673629556166319
 40
0.2454057950772928
 40
0.3220183701589645
 40
0.3990728530952917
 40
0.4789805097803583
 40
0.5623281234550395
 40
0.6520336686344702
 40
0.7430078721016959
 40
0.8300137277661505
 40
0.9152563302584817
 40
1.0
 40
1.0
 40
1.0
 40
1.0
 10
-11.8349358974359
 20
39.03846153846153
 30
0.0
 10
-11.72784627485028
 20
39.04169258071761
 30
0.0
 10
-11.51890767329964
 20
39.04799654775232
 30
0.0
 10
-11.21675918187276
 20
39.10376776477833
 30
0.0
 10
-10.93463091103443
 20
39.19147668883904
 30
0.0
 10
-10.67305462286963
 20
39.31698486898279
 30
0.0
 10
-10.43095863648043
 20
39.48124067331344
 30
0.0
 10
-10.21228692446301
 20
39.68798175008352
 30
0.0
 10
-10.01402366911788
 20
39.93458729319867
 30
0.0
 10
-9.840180915113452
 20
40.21501430459555
 30
0.0
 10
-9.692400077581837
 20
40.51543022177012
 30
0.0
 10
-9.588443255989889
 20
40.82755169214074
 30
0.0
 10
-9.519708215933832
 20
41.14215374522637
 30
0.0
 10
-9.51270571660954
 20
41.35448334610317
 30
0.0
 10
-9.509214743589752
 20
41.46033653846153
 30
0.0
  0
SPLINE
  5
E8
330
1F
100
AcDbEntity
  8
0
  6
Continuous
 62
     7
370
    25
100
AcDbSpline
210
0.0
220
0.0
230
1.0
 70
     8
 71
     3
 72
    23
 73
    19
 74
     0
 42
0.000000001
 43
0.00000001
 40
0.0
 40
0.0
 40
0.0
 40
0.0
 40
0.0683080802017091
 40
0.1343232387297042
 40
0.1972116241875136
 40
0.2580408084686652
 40
0.3185212862987427
 40
0.3775259716354635
 40
0.43764386285621
 40
0.4976549269786361
 40
0.558229635680444
 40
0.617938975155526
 40
0.6778033369758213
 40
0.7380041848819318
 40
0.800147493050737
 40
0.8643818768479297
 40
0.9303141854458022
 40
1.0
 40
1.0
 40
1.0
 40
1.0
 10
-9.509214743589752
 20
41.46033653846153
 30
0.0
 10
-9.51073201916704
 20
41.52650912425125
 30
0.0
 10
-9.513715639391544
 20
41.65663305705902
 30
0.0
 10
-9.53774514581191
 20
41.84654130833277
 30
0.0
 10
-9.578484547611149
 20
42.02591434646171
 30
0.0
 10
-9.631884173093654
 20
42.19649672293193
 30
0.0
 10
-9.704442823152613
 20
42.35575706298499
 30
0.0
 10
-9.7913549377173
 20
42.50681339231434
 30
0.0
 10
-9.895530130212597
 20
42.64600909122637
 30
0.0
 10
-10.01409821163474
 20
42.7752450537733
 30
0.0
 10
-10.14626667734561
 20
42.88966364299004
 30
0.0
 10
-10.28621808954057
 20
42.9945933392784
 30
0.0
 10
-10.44013201620029
 20
43.0768889727054
 30
0.0
 10
-10.60138693451854
 20
43.14921875361325
 30
0.0
 10
-10.77465765663803
 20
43.2017698539829
 30
0.0
 10
-10.95653272827394
 20
43.24295644133087
 30
0.0
 10
-11.14933600136828
 20
43.26425818831058
 30
0.0
 10
-11.2806717075105
 20
43.26754293822407
 30
0.0
 10
-11.34815705128206
 20
43.26923076923076
 30
0.0
  0
SPLINE
  5
E9
330
1F
100
AcDbEntity
  8
0
  6
Continuous
 62
     7
370
    25
100
AcDbSpline
210
0.0
220
0.0
230
1.0
 70
     8
 71
     3
 72
    23
 73
    19
 74
     0
 42
0.000000001
 43
0.00000001
 40
0.0
 40
0.0
 40
0.0
 40
0.0
 40
0.0634385965823401
 40
0.1247400675202296
 40
0.184930155307555
 40
0.2442219773396619
 40
0.3035721622654325
 40
0.3633582528885333
 40
0.4243766835875324
 40
0.4871017962256788
 40
0.5502235226905936
 40
0.6121058412028688
 40
0.6734661145244834
 40
0.7357480977040503
 40
0.7985949822547675
 40
0.8634970386572012
 40
0.9301210503799086
 40
1.0
 40
1.0
 40
1.0
 40
1.0
 10
-11.34815705128206
 20
43.26923076923076
 30
0.0
 10
-11.42707846866963
 20
43.26759363695238
 30
0.0
 10
-11.5822625910192
 20
43.26437452426791
 30
0.0
 10
-11.8101139674532
 20
43.23034235330186
 30
0.0
 10
-12.0294319444428
 20
43.17968899449309
 30
0.0
 10
-12.23886357076214
 20
43.10388411851754
 30
0.0
 10
-12.44050526300359
 20
43.01050290414668
 30
0.0
 10
-12.63122932825989
 20
42.89233186072425
 30
0.0
 10
-12.81486019896014
 20
42.75634570409914
 30
0.0
 10
-12.98533472410584
 20
42.59799431250305
 30
0.0
 10
-13.1433842464663
 20
42.42584126566731
 30
0.0
 10
-13.28039301567873
 20
42.23839475403939
 30
0.0
 10
-13.3956884735804
 20
42.03810339192717
 30
0.0
 10
-13.48898899196904
 20
41.82550929593052
 30
0.0
 10
-13.5648781003207
 20
41.60131694762127
 30
0.0
 10
-13.61507936693262
 20
41.36459956140192
 30
0.0
 10
-13.64913746247864
 20
41.11610618019341
 30
0.0
 10
-13.65225183579129
 20
40.94630173269154
 30
0.0
 10
-13.65384615384616
 20
40.85937499999999
 30
0.0
  0
LINE
  5
EA
330
1F
100
AcDbEntity
  8
0
  6
Continuous
 62
     7
370
    25
100
AcDbLine
 10
-4.3008814103
 20
41.858974359
 30
0.0
 11
-0.5769230769
 21
41.858974359
 31
0.0
  0
SPLINE
  5
EB
330
1F
100
AcDbEntity
  8
0
  6
Continuous
 62
     7
370
    25
100
AcDbSpline
210
0.0
220
0.0
230
1.0
 70
     8
 71
     3
 72
    15
 73
    11
 74
     0
 42
0.000000001
 43
0.00000001
 40
0.0
 40
0.0
 40
0.0
 40
0.0
 40
0.1414350047362156
 40
0.2723353514675648
 40
0.394958664457391
 40
0.5146837927552477
 40
0.6323709455547595
 40
0.7495886849838781
 40
0.8713396318414431
 40
1.0
 40
1.0
 40
1.0
 40
1.0
 10
-0.5769230769230912
 20
41.85897435897435
 30
0.0
 10
-0.6125432730283441
 20
41.96903339736978
 30
0.0
 10
-0.6811305272498847
 20
42.18095382654147
 30
0.0
 10
-0.8307426771123777
 20
42.46864349890363
 30
0.0
 10
-1.0133735606244
 20
42.71445008585162
 30
0.0
 10
-1.22924779242333
 20
42.91660936136078
 30
0.0
 10
-1.474231890500933
 20
43.07405030210481
 30
0.0
 10
-1.743657387371992
 20
43.187920516574
 30
0.0
 10
-2.037712196833418
 20
43.25806484168591
 30
0.0
 10
-2.242524591539825
 20
43.26544095212619
 30
0.0
 10
-2.347756410256425
 20
43.26923076923076
 30
0.0
  0
SPLINE
  5
EC
330
1F
100
AcDbEntity
  8
0
  6
Continuous
 62
     7
370
    25
100
AcDbSpline
210
0.0
220
0.0
230
1.0
 70
     8
 71
     3
 72
    15
 73
    11
 74
     0
 42
0.000000001
 43
0.00000001
 40
0.0
 40
0.0
 40
0.0
 40
0.0
 40
0.1229290617632652
 40
0.242476598823659
 40
0.3612664614354058
 40
0.4835661151020894
 40
0.6072743517162372
 40
0.7329203110364831
 40
0.862686586405283
 40
0.9999999999999999
 40
0.9999999999999999
 40
0.9999999999999999
 40
0.9999999999999999
 10
-2.347756410256425
 20
43.26923076923076
 30
0.0
 10
-2.453032715161062
 20
43.26553361419231
 30
0.0
 10
-2.660689391164647
 20
43.25824100521776
 30
0.0
 10
-2.962392692962927
 20
43.18393675654065
 30
0.0
 10
-3.249808151478953
 20
43.06948101928482
 30
0.0
 10
-3.516719255668012
 20
42.90574912943182
 30
0.0
 10
-3.763767520730474
 20
42.70385085334451
 30
0.0
 10
-3.975813034780316
 20
42.45721164660709
 30
0.0
 10
-4.162687839697271
 20
42.1765435553619
 30
0.0
 10
-4.25395719025792
 20
41.96680634258792
 30
0.0
 10
-4.300881410256425
 20
41.85897435897435
 30
0.0
  0
LINE
  5
ED
330
1F
100
AcDbEntity
  8
0
  6
Continuous
 62
     7
370
    25
100
AcDbLine
 10
9.9459134615
 20
45.8333333333
 30
0.0
 11
9.453125
 21
45.8333333333
 31
0.0
  0
LINE
  5
EE
330
1F
100
AcDbEntity
  8
0
  6
Continuous
 62
     7
370
    25
100
AcDbLine
 10
9.453125
 20
45.8333333333
 30
0.0
 11
8.5196314103
 21
39.1666666667
 31
0.0
  0
LINE
  5
EF
330
1F
100
AcDbEntity
  8
0
  6
Continuous
 62
     7
370
    25
100
AcDbLine
 10
8.5196314103
 20
39.1666666667
 30
0.0
 11
9.1666666667
 21
39.1666666667
 31
0.0
  0
SPLINE
  5
F0
330
1F
100
AcDbEntity
  8
0
  6
Continuous
 62
     7
370
    25
100
AcDbSpline
210
0.0
220
0.0
230
1.0
 70
     8
 71
     3
 72
    15
 73
    11
 74
     0
 42
0.000000001
 43
0.00000001
 40
0.0
 40
0.0
 40
0.0
 40
0.0
 40
0.1653864093022262
 40
0.3179996087854001
 40
0.4597295516027745
 40
0.589911244871868
 40
0.7085447553251425
 40
0.8168528797875287
 40
0.9131252527578798
 40
1.0
 40
1.0
 40
1.0
 40
1.0
 10
9.166666666666659
 20
39.16666666666666
 30
0.0
 10
9.286875704273514
 20
39.16728234801135
 30
0.0
 10
9.518009732110071
 20
39.16846616007655
 30
0.0
 10
9.851890138696241
 20
39.1817189130204
 30
0.0
 10
10.16010369603423
 20
39.19749591077775
 30
0.0
 10
10.44249099942189
 20
39.22679174688645
 30
0.0
 10
10.70008386275833
 20
39.25939007149274
 30
0.0
 10
10.93113245238313
 20
39.30185982839378
 30
0.0
 10
11.13829421770883
 20
39.34750907394592
 30
0.0
 10
11.26433289348082
 20
39.39061205133125
 30
0.0
 10
11.32411858974358
 20
39.41105769230768
 30
0.0
  0
SPLINE
  5
F1
330
1F
100
AcDbEntity
  8
0
  6
Continuous
 62
     7
370
    25
100
AcDbSpline
210
0.0
220
0.0
230
1.0
 70
     8
 71
     3
 72
    23
 73
    19
 74
     0
 42
0.000000001
 43
0.00000001
 40
0.0
 40
0.0
 40
0.0
 40
0.0
 40
0.0595409925520776
 40
0.1182836670357127
 40
0.1763336182629371
 40
0.2343775444818017
 40
0.2922505014744443
 40
0.350981267452131
 40
0.4099022807067946
 40
0.470750532736579
 40
0.5325304322468982
 40
0.5940740065872007
 40
0.6571092070542145
 40
0.7218631181694947
 40
0.7878051425998415
 40
0.8557584002120959
 40
0.9265795955238486
 40
1.0
 40
1.0
 40
1.0
 40
1.0
 10
11.32411858974358
 20
39.41105769230768
 30
0.0
 10
11.40093633528341
 20
39.44091415062071
 30
0.0
 10
11.55354186378412
 20
39.50022675564446
 30
0.0
 10
11.76875779644553
 20
39.61560152822457
 30
0.0
 10
11.97757147712514
 20
39.73788510050191
 30
0.0
 10
12.17085192456562
 20
39.88171925868694
 30
0.0
 10
12.35545044650361
 20
40.03785464722183
 30
0.0
 10
12.52398219822625
 20
40.21296201847965
 30
0.0
 10
12.68462904500426
 20
40.40060086343286
 30
0.0
 10
12.83169740305994
 20
40.60438525726493
 30
0.0
 10
12.96614661482081
 20
40.82104661386507
 30
0.0
 10
13.08064307113531
 20
41.05227952895932
 30
0.0
 10
13.17950795065287
 20
41.29501148262375
 30
0.0
 10
13.25867351491515
 20
41.55124840866746
 30
0.0
 10
13.32139922313676
 20
41.81896718785985
 30
0.0
 10
13.36425234950531
 20
42.09896269876146
 30
0.0
 10
13.39417064016744
 20
42.39117884223218
 30
0.0
 10
13.39633448099815
 20
42.59073276632676
 30
0.0
 10
13.39743589743589
 20
42.69230769230768
 30
0.0
  0
SPLINE
  5
F2
330
1F
100
AcDbEntity
  8
0
  6
Continuous
 62
     7
370
    25
100
AcDbSpline
210
0.0
220
0.0
230
1.0
 70
     8
 71
     3
 72
    27
 73
    23
 74
     0
 42
0.000000001
 43
0.00000001
 40
0.0
 40
0.0
 40
0.0
 40
0.0
 40
0.0470686827897682
 40
0.0919931030885674
 40
0.1353279936974596
 40
0.1775565608571647
 40
0.217737125893289
 40
0.2571413537581932
 40
0.29559734641682
 40
0.3331528848671908
 40
0.4066553521048706
 40
0.4791278340265322
 40
0.5522049250026935
 40
0.6273518395926803
 40
0.6664219972193081
 40
0.70739704925366
 40
0.7501608202738046
 40
0.7952788167681635
 40
0.8426221736461458
 40
0.8922167657523883
 40
0.9446516412474318
 40
1.0
 40
1.0
 40
1.0
 40
1.0
 10
13.39743589743589
 20
42.69230769230769
 30
0.0
 10
13.39628492396988
 20
42.77580139512295
 30
0.0
 10
13.39403541082364
 20
42.93898515882924
 30
0.0
 10
13.37635950308224
 20
43.17858719808434
 30
0.0
 10
13.3435976658615
 20
43.40784062403745
 30
0.0
 10
13.3007187320804
 20
43.62687357827313
 30
0.0
 10
13.24372920310658
 20
43.83549471316693
 30
0.0
 10
13.17581916787539
 20
44.03366042248319
 30
0.0
 10
13.09670572468068
 20
44.22280552745613
 30
0.0
 10
12.9700905394187
 20
44.45611358078235
 30
0.0
 10
12.78961078563067
 20
44.72831128091602
 30
0.0
 10
12.52596774925006
 20
45.0160156650516
 30
0.0
 10
12.21959295693119
 20
45.26179193031979
 30
0.0
 10
11.93402023217371
 20
45.43354864532654
 30
0.0
 10
11.68479803634486
 20
45.55107348313349
 30
0.0
 10
11.48011998568482
 20
45.62632724564281
 30
0.0
 10
11.26067507268646
 20
45.69092704541802
 30
0.0
 10
11.02608348576229
 20
45.74151541777464
 30
0.0
 10
10.77772750483365
 20
45.78497932260161
 30
0.0
 10
10.51390922685219
 20
45.81103944812619
 30
0.0
 10
10.23532907340634
 20
45.83034197332598
 30
0.0
 10
10.04410829197967
 20
45.83231840505486
 30
0.0
 10
9.945913461538455
 20
45.83333333333332
 30
0.0
  0
LINE
  5
F3
330
1F
100
AcDbEntity
  8
0
  6
Continuous
 62
     7
370
    25
100
AcDbLine
 10
21.2119391026
 20
41.858974359
 30
0.0
 11
24.9358974359
 21
41.858974359
 31
0.0
  0
SPLINE
  5
F4
330
1F
100
AcDbEntity
  8
0
  6
Continuous
 62
     7
370
    25
100
AcDbSpline
210
0.0
220
0.0
230
1.0
 70
     8
 71
     3
 72
    15
 73
    11
 74
     0
 42
0.000000001
 43
0.00000001
 40
0.0
 40
0.0
 40
0.0
 40
0.0
 40
0.1414350047362151
 40
0.2723353514675646
 40
0.3949586644573906
 40
0.514683792755247
 40
0.6323709455547587
 40
0.749588684983878
 40
0.8713396318414426
 40
1.0
 40
1.0
 40
1.0
 40
1.0
 10
24.93589743589743
 20
41.85897435897435
 30
0.0
 10
24.90027723979219
 20
41.96903339736978
 30
0.0
 10
24.83168998557065
 20
42.18095382654149
 30
0.0
 10
24.68207783570813
 20
42.46864349890362
 30
0.0
 10
24.49944695219613
 20
42.71445008585164
 30
0.0
 10
24.2835727203972
 20
42.91660936136077
 30
0.0
 10
24.03858862231958
 20
43.0740503021048
 30
0.0
 10
23.76916312544855
 20
43.18792051657402
 30
0.0
 10
23.4751083159871
 20
43.25806484168588
 30
0.0
 10
23.2702959212807
 20
43.26544095212618
 30
0.0
 10
23.1650641025641
 20
43.26923076923076
 30
0.0
  0
SPLINE
  5
F5
330
1F
100
AcDbEntity
  8
0
  6
Continuous
 62
     7
370
    25
100
AcDbSpline
210
0.0
220
0.0
230
1.0
 70
     8
 71
     3
 72
    15
 73
    11
 74
     0
 42
0.000000001
 43
0.00000001
 40
0.0
 40
0.0
 40
0.0
 40
0.0
 40
0.1229290617632645
 40
0.2424765988236586
 40
0.3612664614354056
 40
0.4835661151020884
 40
0.6072743517162368
 40
0.7329203110364829
 40
0.8626865864052832
 40
0.9999999999999999
 40
0.9999999999999999
 40
0.9999999999999999
 40
0.9999999999999999
 10
23.1650641025641
 20
43.26923076923076
 30
0.0
 10
23.05978779765946
 20
43.26553361419229
 30
0.0
 10
22.85213112165587
 20
43.25824100521773
 30
0.0
 10
22.55042781985761
 20
43.18393675654064
 30
0.0
 10
22.26301236134158
 20
43.06948101928482
 30
0.0
 10
21.99610125715251
 20
42.9057491294318
 30
0.0
 10
21.74905299209005
 20
42.70385085334451
 30
0.0
 10
21.53700747804021
 20
42.45721164660711
 30
0.0
 10
21.35013267312325
 20
42.17654355536189
 30
0.0
 10
21.2588633225626
 20
41.96680634258792
 30
0.0
 10
21.2119391025641
 20
41.85897435897435
 30
0.0
  0
SPLINE
  5
F6
330
1F
100
AcDbEntity
  8
0
  6
Continuous
 62
     7
370
    25
100
AcDbSpline
210
0.0
220
0.0
230
1.0
 70
     8
 71
     3
 72
    23
 73
    19
 74
     0
 42
0.000000001
 43
0.00000001
 40
0.0
 40
0.0
 40
0.0
 40
0.0
 40
0.0702769808490855
 40
0.1374324730018384
 40
0.2021728763058138
 40
0.2647994613842374
 40
0.3258390941790127
 40
0.386200420081199
 40
0.4466066592094003
 40
0.5077794387322521
 40
0.5684300736224002
 40
0.6281177762668079
 40
0.6876110222183013
 40
0.7470047255803528
 40
0.807626898400469
 40
0.8694730717505792
 40
0.9332311075493184
 40
0.9999999999999999
 40
0.9999999999999999
 40
0.9999999999999999
 40
0.9999999999999999
 10
29.80769230769231
 20
40.85937499999999
 30
0.0
 10
29.80940646553613
 20
40.79255749680785
 30
0.0
 10
29.81275864357145
 20
40.66189031969584
 30
0.0
 10
29.83383799817413
 20
40.47041226193685
 30
0.0
 10
29.87488793832116
 20
40.2897359402874
 30
0.0
 10
29.92879157242104
 20
40.11868465584126
 30
0.0
 10
29.99679244764679
 20
39.95709368869961
 30
0.0
 10
30.08148936626594
 20
39.80595089125259
 30
0.0
 10
30.18232697889849
 20
39.66497404960023
 30
0.0
 10
30.29785303835424
 20
39.53530902525943
 30
0.0
 10
30.42649496310607
 20
39.4198767982086
 30
0.0
 10
30.56282093942373
 20
39.31615678165421
 30
0.0
 10
30.70975648552484
 20
39.23028066191738
 30
0.0
 10
30.86529591663087
 20
39.15926808360488
 30
0.0
 10
31.03000884343595
 20
39.10530617676232
 30
0.0
 10
31.20331140869862
 20
39.06807332722161
 30
0.0
 10
31.38480319139039
 20
39.04260754093034
 30
0.0
 10
31.50899020944675
 20
39.03986462947459
 30
0.0
 10
31.57251602564103
 20
39.03846153846153
 30
0.0
  0
SPLINE
  5
F7
330
1F
100
AcDbEntity
  8
0
  6
Continuous
 62
     7
370
    25
100
AcDbSpline
210
0.0
220
0.0
230
1.0
 70
     8
 71
     3
 72
    19
 73
    15
 74
     0
 42
0.000000001
 43
0.00000001
 40
0.0
 40
0.0
 40
0.0
 40
0.0
 40
0.0848250973193125
 40
0.1654247678554495
 40
0.2425034445177435
 40
0.3182477586761113
 40
0.3946062285936756
 40
0.4744620981665881
 40
0.5579725137780475
 40
0.6480918162489716
 40
0.7396546764138032
 40
0.8277182703240149
 40
0.9140584057177379
 40
0.9999999999999999
 40
0.9999999999999999
 40
0.9999999999999999
 40
0.9999999999999999
 10
31.57251602564103
 20
39.03846153846153
 30
0.0
 10
31.67694095817959
 20
39.04168916247257
 30
0.0
 10
31.88058906197702
 20
39.04798363155804
 30
0.0
 10
32.17480603238209
 20
39.10374243783828
 30
0.0
 10
32.44897530621488
 20
39.19154819896176
 30
0.0
 10
32.70268260377066
 20
39.31706672397227
 30
0.0
 10
32.93680041637429
 20
39.48214963625414
 30
0.0
 10
33.14931122412781
 20
39.68818552993873
 30
0.0
 10
33.34125336580996
 20
39.93500216786985
 30
0.0
 10
33.50958336225368
 20
40.21516344284802
 30
0.0
 10
33.65026176049219
 20
40.51647443748997
 30
0.0
 10
33.7533345515635
 20
40.82754442101538
 30
0.0
 10
33.81906684469531
 20
41.1424027601088
 30
0.0
 10
33.82644677567419
 20
41.35452217836045
 30
0.0
 10
33.8301282051282
 20
41.46033653846153
 30
0.0
  0
SPLINE
  5
F8
330
1F
100
AcDbEntity
  8
0
  6
Continuous
 62
     7
370
    25
100
AcDbSpline
210
0.0
220
0.0
230
1.0
 70
     8
 71
     3
 72
    23
 73
    19
 74
     0
 42
0.000000001
 43
0.00000001
 40
0.0
 40
0.0
 40
0.0
 40
0.0
 40
0.0693213528217463
 40
0.1362316921720683
 40
0.1999032164781075
 40
0.2616347324709579
 40
0.3227285914338294
 40
0.3822601039877379
 40
0.4424458286303498
 40
0.5024074729650828
 40
0.5628367011968037
 40
0.6223065123910125
 40
0.681838024944922
 40
0.7416525439764237
 40
0.8027183534174209
 40
0.8658571814666238
 40
0.9313777158207113
 40
0.9999999999999999
 40
0.9999999999999999
 40
0.9999999999999999
 40
0.9999999999999999
 10
33.8301282051282
 20
41.46033653846153
 30
0.0
 10
33.82844410502554
 20
41.5264964785534
 30
0.0
 10
33.82513447823041
 20
41.65651529996755
 30
0.0
 10
33.80350032897501
 20
41.8463809129821
 30
0.0
 10
33.76546889506155
 20
42.0262400805547
 30
0.0
 10
33.71090034836532
 20
42.19598168958071
 30
0.0
 10
33.64119722556022
 20
42.35578828742928
 30
0.0
 10
33.55584294079799
 20
42.50612836517823
 30
0.0
 10
33.45605627728693
 20
42.6459492495901
 30
0.0
 10
33.34135923839965
 20
42.77513151404963
 30
0.0
 10
33.21318497524275
 20
42.88958162656854
 30
0.0
 10
33.07728464915079
 20
42.99450657910936
 30
0.0
 10
32.92734036049749
 20
43.0768987538016
 30
0.0
 10
32.77062034437689
 20
43.14879592815122
 30
0.0
 10
32.60284195473513
 20
43.20182967968552
 30
0.0
 10
32.42628853867264
 20
43.24315115875311
 30
0.0
 10
32.23875394419267
 20
43.26415391257989
 30
0.0
 10
32.11075285076197
 20
43.26751259635401
 30
0.0
 10
32.04527243589745
 20
43.26923076923076
 30
0.0
  0
SPLINE
  5
F9
330
1F
100
AcDbEntity
  8
0
  6
Continuous
 62
     7
370
    25
100
AcDbSpline
210
0.0
220
0.0
230
1.0
 70
     8
 71
     3
 72
    23
 73
    19
 74
     0
 42
0.000000001
 43
0.00000001
 40
0.0
 40
0.0
 40
0.0
 40
0.0
 40
0.0621810782005553
 40
0.1227535126566213
 40
0.1822276869470444
 40
0.2408418756727347
 40
0.2995775237351528
 40
0.3588416296440458
 40
0.4194434705754044
 40
0.4822801046187368
 40
0.54523005149113
 40
0.6073729143830414
 40
0.6693530993443358
 40
0.732319553967143
 40
0.7957417994796891
 40
0.8615852385958163
 40
0.9291074794875549
 40
1.0
 40
1.0
 40
1.0
 40
1.0
 10
32.04527243589745
 20
43.26923076923076
 30
0.0
 10
31.96902043374529
 20
43.26756633332933
 30
0.0
 10
31.81848909234451
 20
43.26428052099859
 30
0.0
 10
31.59728509187496
 20
43.23034440446931
 30
0.0
 10
31.38393322128606
 20
43.17967361595788
 30
0.0
 10
31.18049916227727
 20
43.10384706943366
 30
0.0
 10
30.98486031367566
 20
43.01038924950544
 30
0.0
 10
30.80005872487856
 20
42.89231154621635
 30
0.0
 10
30.6225014358051
 20
42.75549192607584
 30
0.0
 10
30.45595822927131
 20
42.5986314443953
 30
0.0
 10
30.30405007108072
 20
42.4250699718519
 30
0.0
 10
30.17109797615792
 20
42.2378335315358
 30
0.0
 10
30.05795719526007
 20
42.03798980382626
 30
0.0
 10
29.96576638521308
 20
41.82585128334814
 30
0.0
 10
29.8959666620196
 20
41.60050885190601
 30
0.0
 10
29.84344671238961
 20
41.36487434855518
 30
0.0
 10
29.81319755259425
 20
41.11590495299812
 30
0.0
 10
29.80955693793147
 20
40.94626187172489
 30
0.0
 10
29.80769230769231
 20
40.85937499999999
 30
0.0
  0
MTEXT
  5
FB
330
1F
100
AcDbEntity
  8
0
  6
Continuous
 62
     7
100
AcDbMText
 10
-56.0
 20
-63.5195663917
 30
0.0
 40
4.83362
 41
0.0
 71
     1
 72
     1
  1
SOLIDWORKS Educational Product.
  7
SLDTEXTSTYLE0
 73
     1
 44
1.0
  0
MTEXT
  5
FC
330
1F
100
AcDbEntity
  8
0
  6
Continuous
 62
     7
100
AcDbMText
 10
-56.0
 20
-70.7699963917
 30
0.0
 40
4.83362
 41
0.0
 71
     1
 72
     1
  1
For Instructional Use Only.
  7
SLDTEXTSTYLE0
 73
     1
 44
1.0
  0
ENDSEC
  0
SECTION
  2
OBJECTS
  0
DICTIONARY
  5
C
330
0
100
AcDbDictionary
281
     1
  3
ACAD_GROUP
350
D
  3
ACAD_LAYOUT
350
1A
  3
ACAD_MLINESTYLE
350
17
  3
ACAD_PLOTSETTINGS
350
19
  3
ACAD_PLOTSTYLENAME
350
E
  3
ACAD_SCALELIST
350
47
  0
DICTIONARY
  5
D
102
{ACAD_REACTORS
330
C
102
}
330
C
100
AcDbDictionary
281
     1
  0
DICTIONARY
  5
1A
102
{ACAD_REACTORS
330
C
102
}
330
C
100
AcDbDictionary
281
     1
  3
Layout1
350
1E
  3
Layout2
350
26
  3
Model
350
22
  0
DICTIONARY
  5
17
102
{ACAD_REACTORS
330
C
102
}
330
C
100
AcDbDictionary
281
     1
  3
Standard
350
18
  0
DICTIONARY
  5
19
102
{ACAD_REACTORS
330
C
102
}
330
C
100
AcDbDictionary
281
     1
  0
ACDBDICTIONARYWDFLT
  5
E
102
{ACAD_REACTORS
330
C
102
}
330
C
100
AcDbDictionary
281
     1
  3
Normal
350
F
100
AcDbDictionaryWithDefault
340
F
  0
DICTIONARY
  5
47
102
{ACAD_REACTORS
330
C
102
}
330
C
100
AcDbDictionary
281
     1
  3
A0
350
48
  3
A1
350
49
  3
A2
350
4A
  3
A3
350
4B
  3
A4
350
4C
  3
A5
350
4D
  3
A6
350
4E
  3
A7
350
4F
  3
A8
350
50
  3
A9
350
51
  3
B0
350
52
  3
B1
350
53
  3
B2
350
54
  3
B3
350
55
  3
B4
350
56
  3
B5
350
57
  3
B6
350
58
  3
B7
350
59
  3
B8
350
5A
  3
B9
350
5B
  3
C0
350
5C
  3
C1
350
5D
  3
C2
350
5E
  3
C3
350
5F
  3
C4
350
60
  3
C5
350
61
  3
C6
350
62
  3
C7
350
63
  3
C8
350
64
  3
C9
350
65
  3
D0
350
66
  3
D1
350
67
  3
D2
350
68
  0
LAYOUT
  5
1E
102
{ACAD_REACTORS
330
1A
102
}
330
1A
100
AcDbPlotSettings
  1

  2
none_device
  4

  6

 40
0.0
 41
0.0
 42
0.0
 43
0.0
 44
0.0
 45
0.0
 46
0.0
 47
0.0
 48
0.0
 49
0.0
140
0.0
141
0.0
142
1.0
143
1.0
 70
   688
 72
     1
 73
     0
 74
     5
  7

 75
    16
147
1.0
148
0.0
149
0.0
100
AcDbLayout
  1
Layout1
 70
     1
 71
     1
 10
0.0
 20
0.0
 11
420.0
 21
297.0
 12
0.0
 22
0.0
 32
0.0
 14
1.0000000000E+20
 24
1.0000000000E+20
 34
1.0000000000E+20
 15
-1.0000000000E+20
 25
-1.0000000000E+20
 35
-1.0000000000E+20
146
0.0
 13
0.0
 23
0.0
 33
0.0
 16
1.0
 26
0.0
 36
0.0
 17
0.0
 27
1.0
 37
0.0
 76
     0
330
1B
  0
LAYOUT
  5
26
102
{ACAD_REACTORS
330
1A
102
}
330
1A
100
AcDbPlotSettings
  1

  2
none_device
  4

  6

 40
0.0
 41
0.0
 42
0.0
 43
0.0
 44
0.0
 45
0.0
 46
0.0
 47
0.0
 48
0.0
 49
0.0
140
0.0
141
0.0
142
1.0
143
1.0
 70
   688
 72
     1
 73
     0
 74
     5
  7

 75
    16
147
1.0
148
0.0
149
0.0
100
AcDbLayout
  1
Layout2
 70
     1
 71
     2
 10
0.0
 20
0.0
 11
0.0
 21
0.0
 12
0.0
 22
0.0
 32
0.0
 14
0.0
 24
0.0
 34
0.0
 15
0.0
 25
0.0
 35
0.0
146
0.0
 13
0.0
 23
0.0
 33
0.0
 16
1.0
 26
0.0
 36
0.0
 17
0.0
 27
1.0
 37
0.0
 76
     0
330
23
  0
LAYOUT
  5
22
102
{ACAD_REACTORS
330
1A
102
}
330
1A
100
AcDbPlotSettings
  1

  2
none_device
  4
ANSI_A_(11.00_x_8.50_Inches)
  6

 40
6.35
 41
19.05
 42
6.35000508
 43
19.05000254
 44
279.4
 45
215.9
 46
133.34999746
 47
88.89999873
 48
0.0
 49
0.0
140
0.0
141
0.0
142
0.06732
143
1.0
 70
  1696
 72
     0
 73
     0
 74
     0
  7

 75
     0
147
0.0179189148
148
-1300.4909072572
149
0.0
100
AcDbLayout
  1
Model
 70
     1
 71
     0
 10
0.0
 20
0.0
 11
420.0
 21
297.0
 12
0.0
 22
0.0
 32
0.0
 14
-56.0
 24
-62.5
 34
0.0
 15
56.0
 25
62.5
 35
0.0
146
0.0
 13
0.0
 23
0.0
 33
0.0
 16
1.0
 26
0.0
 36
0.0
 17
0.0
 27
1.0
 37
0.0
 76
     0
330
1F
331
29
  0
MLINESTYLE
  5
18
102
{ACAD_REACTORS
330
17
102
}
330
17
100
AcDbMlineStyle
  2
Standard
 70
     0
  3

 62
   256
 51
90.0
 52
90.0
 71
     2
 49
0.5
 62
   256
  6
BYLAYER
 49
-0.5
 62
   256
  6
BYLAYER
  0
ACDBPLACEHOLDER
  5
F
102
{ACAD_REACTORS
330
E
102
}
330
E
  0
SCALE
  5
48
102
{ACAD_REACTORS
330
47
102
}
330
47
100
AcDbScale
 70
     0
300
1:1
140
1.0
141
1.0
290
     1
  0
SCALE
  5
49
102
{ACAD_REACTORS
330
47
102
}
330
47
100
AcDbScale
 70
     0
300
1:2
140
1.0
141
2.0
290
     0
  0
SCALE
  5
4A
102
{ACAD_REACTORS
330
47
102
}
330
47
100
AcDbScale
 70
     0
300
1:4
140
1.0
141
4.0
290
     0
  0
SCALE
  5
4B
102
{ACAD_REACTORS
330
47
102
}
330
47
100
AcDbScale
 70
     0
300
1:5
140
1.0
141
5.0
290
     0
  0
SCALE
  5
4C
102
{ACAD_REACTORS
330
47
102
}
330
47
100
AcDbScale
 70
     0
300
1:8
140
1.0
141
8.0
290
     0
  0
SCALE
  5
4D
102
{ACAD_REACTORS
330
47
102
}
330
47
100
AcDbScale
 70
     0
300
1:10
140
1.0
141
10.0
290
     0
  0
SCALE
  5
4E
102
{ACAD_REACTORS
330
47
102
}
330
47
100
AcDbScale
 70
     0
300
1:16
140
1.0
141
16.0
290
     0
  0
SCALE
  5
4F
102
{ACAD_REACTORS
330
47
102
}
330
47
100
AcDbScale
 70
     0
300
1:20
140
1.0
141
20.0
290
     0
  0
SCALE
  5
50
102
{ACAD_REACTORS
330
47
102
}
330
47
100
AcDbScale
 70
     0
300
1:30
140
1.0
141
30.0
290
     0
  0
SCALE
  5
51
102
{ACAD_REACTORS
330
47
102
}
330
47
100
AcDbScale
 70
     0
300
1:40
140
1.0
141
40.0
290
     0
  0
SCALE
  5
52
102
{ACAD_REACTORS
330
47
102
}
330
47
100
AcDbScale
 70
     0
300
1:50
140
1.0
141
50.0
290
     0
  0
SCALE
  5
53
102
{ACAD_REACTORS
330
47
102
}
330
47
100
AcDbScale
 70
     0
300
1:100
140
1.0
141
100.0
290
     0
  0
SCALE
  5
54
102
{ACAD_REACTORS
330
47
102
}
330
47
100
AcDbScale
 70
     0
300
2:1
140
2.0
141
1.0
290
     0
  0
SCALE
  5
55
102
{ACAD_REACTORS
330
47
102
}
330
47
100
AcDbScale
 70
     0
300
4:1
140
4.0
141
1.0
290
     0
  0
SCALE
  5
56
102
{ACAD_REACTORS
330
47
102
}
330
47
100
AcDbScale
 70
     0
300
8:1
140
8.0
141
1.0
290
     0
  0
SCALE
  5
57
102
{ACAD_REACTORS
330
47
102
}
330
47
100
AcDbScale
 70
     0
300
10:1
140
10.0
141
1.0
290
     0
  0
SCALE
  5
58
102
{ACAD_REACTORS
330
47
102
}
330
47
100
AcDbScale
 70
     0
300
100:1
140
100.0
141
1.0
290
     0
  0
SCALE
  5
59
102
{ACAD_REACTORS
330
47
102
}
330
47
100
AcDbScale
 70
     0
300
1/128" = 1'-0"
140
0.0078125
141
12.0
290
     0
  0
SCALE
  5
5A
102
{ACAD_REACTORS
330
47
102
}
330
47
100
AcDbScale
 70
     0
300
1/64" = 1'-0"
140
0.015625
141
12.0
290
     0
  0
SCALE
  5
5B
102
{ACAD_REACTORS
330
47
102
}
330
47
100
AcDbScale
 70
     0
300
1/32" = 1'-0"
140
0.03125
141
12.0
290
     0
  0
SCALE
  5
5C
102
{ACAD_REACTORS
330
47
102
}
330
47
100
AcDbScale
 70
     0
300
1/16" = 1'-0"
140
0.0625
141
12.0
290
     0
  0
SCALE
  5
5D
102
{ACAD_REACTORS
330
47
102
}
330
47
100
AcDbScale
 70
     0
300
3/32" = 1'-0"
140
0.09375
141
12.0
290
     0
  0
SCALE
  5
5E
102
{ACAD_REACTORS
330
47
102
}
330
47
100
AcDbScale
 70
     0
300
1/8" = 1'-0"
140
0.125
141
12.0
290
     0
  0
SCALE
  5
5F
102
{ACAD_REACTORS
330
47
102
}
330
47
100
AcDbScale
 70
     0
300
3/16" = 1'-0"
140
0.1875
141
12.0
290
     0
  0
SCALE
  5
60
102
{ACAD_REACTORS
330
47
102
}
330
47
100
AcDbScale
 70
     0
300
1/4" = 1'-0"
140
0.25
141
12.0
290
     0
  0
SCALE
  5
61
102
{ACAD_REACTORS
330
47
102
}
330
47
100
AcDbScale
 70
     0
300
3/8" = 1'-0"
140
0.375
141
12.0
290
     0
  0
SCALE
  5
62
102
{ACAD_REACTORS
330
47
102
}
330
47
100
AcDbScale
 70
     0
300
1/2" = 1'-0"
140
0.5
141
12.0
290
     0
  0
SCALE
  5
63
102
{ACAD_REACTORS
330
47
102
}
330
47
100
AcDbScale
 70
     0
300
3/4" = 1'-0"
140
0.75
141
12.0
290
     0
  0
SCALE
  5
64
102
{ACAD_REACTORS
330
47
102
}
330
47
100
AcDbScale
 70
     0
300
1" = 1'-0"
140
1.0
141
12.0
290
     0
  0
SCALE
  5
65
102
{ACAD_REACTORS
330
47
102
}
330
47
100
AcDbScale
 70
     0
300
1-1/2" = 1'-0"
140
1.5
141
12.0
290
     0
  0
SCALE
  5
66
102
{ACAD_REACTORS
330
47
102
}
330
47
100
AcDbScale
 70
     0
300
3" = 1'-0"
140
3.0
141
12.0
290
     0
  0
SCALE
  5
67
102
{ACAD_REACTORS
330
47
102
}
330
47
100
AcDbScale
 70
     0
300
6" = 1'-0"
140
6.0
141
12.0
290
     0
  0
SCALE
  5
68
102
{ACAD_REACTORS
330
47
102
}
330
47
100
AcDbScale
 70
     0
300
1'-0" = 1'-0"
140
12.0
141
12.0
290
     0
  0
ENDSEC
  0
EOF
