G04 #@! TF.FileFunction,Copper,L2,Bot,Signal*
%FSLAX46Y46*%
G04 Gerber Fmt 4.6, Leading zero omitted, Abs format (unit mm)*
G04 Created by KiCad (PCBNEW 4.0.7-e2-6376~58~ubuntu16.04.1) date Fri Dec 29 23:07:09 2017*
%MOMM*%
%LPD*%
G01*
G04 APERTURE LIST*
%ADD10C,0.100000*%
%ADD11O,1.800000X3.600000*%
%ADD12R,2.500000X2.500000*%
%ADD13O,2.500000X2.500000*%
%ADD14C,1.700000*%
%ADD15R,1.800000X1.800000*%
%ADD16C,1.800000*%
%ADD17R,1.600000X1.600000*%
%ADD18O,1.600000X1.600000*%
%ADD19C,1.778000*%
%ADD20C,1.000000*%
%ADD21R,1.000000X1.000000*%
%ADD22C,1.400000*%
%ADD23O,1.400000X1.400000*%
%ADD24C,1.524000*%
%ADD25R,1.700000X1.700000*%
%ADD26O,1.700000X1.700000*%
%ADD27C,0.400000*%
%ADD28C,0.250000*%
%ADD29C,1.270000*%
%ADD30C,0.254000*%
G04 APERTURE END LIST*
D10*
D11*
X143500000Y-74900000D03*
X148500000Y-74900000D03*
X146000000Y-74900000D03*
D12*
X174000000Y-79000000D03*
D13*
X180000000Y-77000000D03*
X180000000Y-64800000D03*
X168000000Y-64800000D03*
X168000000Y-77000000D03*
D14*
X131826000Y-81280000D03*
X131826000Y-78740000D03*
X131826000Y-76200000D03*
X131826000Y-73660000D03*
X131826000Y-71120000D03*
X131826000Y-68580000D03*
X131826000Y-66040000D03*
X131826000Y-63500000D03*
X131826000Y-60960000D03*
X131826000Y-58420000D03*
X131826000Y-55880000D03*
X131826000Y-53340000D03*
X131826000Y-50800000D03*
X131826000Y-48260000D03*
X131826000Y-45720000D03*
X108966000Y-81280000D03*
X108966000Y-78740000D03*
X108966000Y-76200000D03*
X108966000Y-73660000D03*
X108966000Y-71120000D03*
X108966000Y-68580000D03*
X108966000Y-66040000D03*
X108966000Y-63500000D03*
X108966000Y-60960000D03*
X108966000Y-58420000D03*
X108966000Y-55880000D03*
X108966000Y-53340000D03*
X108966000Y-50800000D03*
X108966000Y-48260000D03*
X108966000Y-45720000D03*
D15*
X123030000Y-99630000D03*
D16*
X125570000Y-99630000D03*
D15*
X111460000Y-99630000D03*
D16*
X114000000Y-99630000D03*
D17*
X136000000Y-80000000D03*
D18*
X143620000Y-80000000D03*
D17*
X136000000Y-85000000D03*
D18*
X143620000Y-85000000D03*
D17*
X163000000Y-67000000D03*
D18*
X163000000Y-74620000D03*
D15*
X160000000Y-61000000D03*
D16*
X160000000Y-63540000D03*
D19*
X192000000Y-52762500D03*
X192000000Y-43237500D03*
X192000000Y-73762500D03*
X192000000Y-64237500D03*
D20*
X155270000Y-71730000D03*
X156540000Y-73000000D03*
D21*
X154000000Y-73000000D03*
D22*
X142000000Y-102000000D03*
D23*
X149620000Y-102000000D03*
D22*
X130000000Y-102000000D03*
D23*
X137620000Y-102000000D03*
D22*
X120000000Y-93000000D03*
D23*
X127620000Y-93000000D03*
D22*
X109000000Y-93000000D03*
D23*
X116620000Y-93000000D03*
D22*
X147000000Y-80000000D03*
D23*
X154620000Y-80000000D03*
D22*
X155000000Y-68000000D03*
D23*
X155000000Y-60380000D03*
D22*
X152000000Y-85000000D03*
D23*
X152000000Y-92620000D03*
D22*
X160000000Y-67000000D03*
D23*
X160000000Y-74620000D03*
D14*
X142500000Y-92500000D03*
X149000000Y-92500000D03*
X142500000Y-97000000D03*
X149000000Y-97000000D03*
X130500000Y-92500000D03*
X137000000Y-92500000D03*
X130500000Y-97000000D03*
X137000000Y-97000000D03*
D24*
X179240000Y-55620000D03*
X179240000Y-40380000D03*
X151300000Y-55620000D03*
X151300000Y-48000000D03*
D25*
X198000000Y-82000000D03*
D26*
X198000000Y-84540000D03*
D25*
X137000000Y-68000000D03*
D26*
X137000000Y-65460000D03*
X137000000Y-62920000D03*
X137000000Y-60380000D03*
X137000000Y-57840000D03*
D27*
X149620000Y-102000000D02*
X149968000Y-102000000D01*
D28*
X170000000Y-74000000D02*
X163000000Y-67000000D01*
X177000000Y-74000000D02*
X170000000Y-74000000D01*
X180000000Y-77000000D02*
X177000000Y-74000000D01*
D29*
X179240000Y-55620000D02*
X189142500Y-55620000D01*
X189142500Y-55620000D02*
X192000000Y-52762500D01*
D28*
X155000000Y-60380000D02*
X141380000Y-60380000D01*
X127240000Y-50760000D02*
X108966000Y-50800000D01*
X128000000Y-50000000D02*
X127240000Y-50760000D01*
X128000000Y-45000000D02*
X128000000Y-50000000D01*
X129000000Y-44000000D02*
X128000000Y-45000000D01*
X134000000Y-44000000D02*
X129000000Y-44000000D01*
X135000000Y-45000000D02*
X134000000Y-44000000D01*
X135000000Y-53000000D02*
X135000000Y-45000000D01*
X136000000Y-54000000D02*
X135000000Y-53000000D01*
X141000000Y-54000000D02*
X136000000Y-54000000D01*
X141000000Y-54000000D02*
X141000000Y-54000000D01*
X141000000Y-60000000D02*
X141000000Y-54000000D01*
X141380000Y-60380000D02*
X141000000Y-60000000D01*
D30*
G36*
X200025000Y-104013000D02*
X107315000Y-104013000D01*
X107315000Y-102264383D01*
X128664769Y-102264383D01*
X128867582Y-102755229D01*
X129242796Y-103131098D01*
X129733287Y-103334768D01*
X130264383Y-103335231D01*
X130755229Y-103132418D01*
X131131098Y-102757204D01*
X131307106Y-102333329D01*
X136327284Y-102333329D01*
X136470203Y-102678396D01*
X136817337Y-103066764D01*
X137286669Y-103292727D01*
X137493000Y-103170206D01*
X137493000Y-102127000D01*
X137747000Y-102127000D01*
X137747000Y-103170206D01*
X137953331Y-103292727D01*
X138422663Y-103066764D01*
X138769797Y-102678396D01*
X138912716Y-102333329D01*
X138871501Y-102264383D01*
X140664769Y-102264383D01*
X140867582Y-102755229D01*
X141242796Y-103131098D01*
X141733287Y-103334768D01*
X142264383Y-103335231D01*
X142755229Y-103132418D01*
X143131098Y-102757204D01*
X143307106Y-102333329D01*
X148327284Y-102333329D01*
X148470203Y-102678396D01*
X148817337Y-103066764D01*
X149286669Y-103292727D01*
X149493000Y-103170206D01*
X149493000Y-102127000D01*
X149747000Y-102127000D01*
X149747000Y-103170206D01*
X149953331Y-103292727D01*
X150422663Y-103066764D01*
X150769797Y-102678396D01*
X150912716Y-102333329D01*
X150789374Y-102127000D01*
X149747000Y-102127000D01*
X149493000Y-102127000D01*
X148450626Y-102127000D01*
X148327284Y-102333329D01*
X143307106Y-102333329D01*
X143334768Y-102266713D01*
X143335231Y-101735617D01*
X143306744Y-101666671D01*
X148327284Y-101666671D01*
X148450626Y-101873000D01*
X149493000Y-101873000D01*
X149493000Y-100829794D01*
X149747000Y-100829794D01*
X149747000Y-101873000D01*
X150789374Y-101873000D01*
X150912716Y-101666671D01*
X150769797Y-101321604D01*
X150422663Y-100933236D01*
X149953331Y-100707273D01*
X149747000Y-100829794D01*
X149493000Y-100829794D01*
X149286669Y-100707273D01*
X148817337Y-100933236D01*
X148470203Y-101321604D01*
X148327284Y-101666671D01*
X143306744Y-101666671D01*
X143132418Y-101244771D01*
X142757204Y-100868902D01*
X142266713Y-100665232D01*
X141735617Y-100664769D01*
X141244771Y-100867582D01*
X140868902Y-101242796D01*
X140665232Y-101733287D01*
X140664769Y-102264383D01*
X138871501Y-102264383D01*
X138789374Y-102127000D01*
X137747000Y-102127000D01*
X137493000Y-102127000D01*
X136450626Y-102127000D01*
X136327284Y-102333329D01*
X131307106Y-102333329D01*
X131334768Y-102266713D01*
X131335231Y-101735617D01*
X131306744Y-101666671D01*
X136327284Y-101666671D01*
X136450626Y-101873000D01*
X137493000Y-101873000D01*
X137493000Y-100829794D01*
X137747000Y-100829794D01*
X137747000Y-101873000D01*
X138789374Y-101873000D01*
X138912716Y-101666671D01*
X138769797Y-101321604D01*
X138422663Y-100933236D01*
X137953331Y-100707273D01*
X137747000Y-100829794D01*
X137493000Y-100829794D01*
X137286669Y-100707273D01*
X136817337Y-100933236D01*
X136470203Y-101321604D01*
X136327284Y-101666671D01*
X131306744Y-101666671D01*
X131132418Y-101244771D01*
X130757204Y-100868902D01*
X130266713Y-100665232D01*
X129735617Y-100664769D01*
X129244771Y-100867582D01*
X128868902Y-101242796D01*
X128665232Y-101733287D01*
X128664769Y-102264383D01*
X107315000Y-102264383D01*
X107315000Y-99915750D01*
X109925000Y-99915750D01*
X109925000Y-100656310D01*
X110021673Y-100889699D01*
X110200302Y-101068327D01*
X110433691Y-101165000D01*
X111174250Y-101165000D01*
X111333000Y-101006250D01*
X111333000Y-99757000D01*
X110083750Y-99757000D01*
X109925000Y-99915750D01*
X107315000Y-99915750D01*
X107315000Y-98603690D01*
X109925000Y-98603690D01*
X109925000Y-99344250D01*
X110083750Y-99503000D01*
X111333000Y-99503000D01*
X111333000Y-98253750D01*
X111587000Y-98253750D01*
X111587000Y-99503000D01*
X111607000Y-99503000D01*
X111607000Y-99757000D01*
X111587000Y-99757000D01*
X111587000Y-101006250D01*
X111745750Y-101165000D01*
X112486309Y-101165000D01*
X112719698Y-101068327D01*
X112898327Y-100889699D01*
X112954119Y-100755006D01*
X113129357Y-100930551D01*
X113693330Y-101164733D01*
X114303991Y-101165265D01*
X114868371Y-100932068D01*
X115300551Y-100500643D01*
X115534733Y-99936670D01*
X115534751Y-99915750D01*
X121495000Y-99915750D01*
X121495000Y-100656310D01*
X121591673Y-100889699D01*
X121770302Y-101068327D01*
X122003691Y-101165000D01*
X122744250Y-101165000D01*
X122903000Y-101006250D01*
X122903000Y-99757000D01*
X121653750Y-99757000D01*
X121495000Y-99915750D01*
X115534751Y-99915750D01*
X115535265Y-99326009D01*
X115302068Y-98761629D01*
X115144405Y-98603690D01*
X121495000Y-98603690D01*
X121495000Y-99344250D01*
X121653750Y-99503000D01*
X122903000Y-99503000D01*
X122903000Y-98253750D01*
X123157000Y-98253750D01*
X123157000Y-99503000D01*
X123177000Y-99503000D01*
X123177000Y-99757000D01*
X123157000Y-99757000D01*
X123157000Y-101006250D01*
X123315750Y-101165000D01*
X124056309Y-101165000D01*
X124289698Y-101068327D01*
X124468327Y-100889699D01*
X124524119Y-100755006D01*
X124699357Y-100930551D01*
X125263330Y-101164733D01*
X125873991Y-101165265D01*
X126438371Y-100932068D01*
X126870551Y-100500643D01*
X127104733Y-99936670D01*
X127105265Y-99326009D01*
X126872068Y-98761629D01*
X126440643Y-98329449D01*
X125876670Y-98095267D01*
X125266009Y-98094735D01*
X124701629Y-98327932D01*
X124524159Y-98505092D01*
X124468327Y-98370301D01*
X124289698Y-98191673D01*
X124056309Y-98095000D01*
X123315750Y-98095000D01*
X123157000Y-98253750D01*
X122903000Y-98253750D01*
X122744250Y-98095000D01*
X122003691Y-98095000D01*
X121770302Y-98191673D01*
X121591673Y-98370301D01*
X121495000Y-98603690D01*
X115144405Y-98603690D01*
X114870643Y-98329449D01*
X114306670Y-98095267D01*
X113696009Y-98094735D01*
X113131629Y-98327932D01*
X112954159Y-98505092D01*
X112898327Y-98370301D01*
X112719698Y-98191673D01*
X112486309Y-98095000D01*
X111745750Y-98095000D01*
X111587000Y-98253750D01*
X111333000Y-98253750D01*
X111174250Y-98095000D01*
X110433691Y-98095000D01*
X110200302Y-98191673D01*
X110021673Y-98370301D01*
X109925000Y-98603690D01*
X107315000Y-98603690D01*
X107315000Y-97294089D01*
X129014743Y-97294089D01*
X129240344Y-97840086D01*
X129657717Y-98258188D01*
X130203319Y-98484742D01*
X130794089Y-98485257D01*
X131340086Y-98259656D01*
X131758188Y-97842283D01*
X131984742Y-97296681D01*
X131984744Y-97294089D01*
X135514743Y-97294089D01*
X135740344Y-97840086D01*
X136157717Y-98258188D01*
X136703319Y-98484742D01*
X137294089Y-98485257D01*
X137840086Y-98259656D01*
X138258188Y-97842283D01*
X138484742Y-97296681D01*
X138484744Y-97294089D01*
X141014743Y-97294089D01*
X141240344Y-97840086D01*
X141657717Y-98258188D01*
X142203319Y-98484742D01*
X142794089Y-98485257D01*
X143340086Y-98259656D01*
X143758188Y-97842283D01*
X143984742Y-97296681D01*
X143984744Y-97294089D01*
X147514743Y-97294089D01*
X147740344Y-97840086D01*
X148157717Y-98258188D01*
X148703319Y-98484742D01*
X149294089Y-98485257D01*
X149840086Y-98259656D01*
X150258188Y-97842283D01*
X150484742Y-97296681D01*
X150485257Y-96705911D01*
X150259656Y-96159914D01*
X149842283Y-95741812D01*
X149833330Y-95738094D01*
X186272355Y-95738094D01*
X186838561Y-97108418D01*
X187886068Y-98157754D01*
X189255402Y-98726351D01*
X190738094Y-98727645D01*
X192108418Y-98161439D01*
X193157754Y-97113932D01*
X193726351Y-95744598D01*
X193727645Y-94261906D01*
X193161439Y-92891582D01*
X192113932Y-91842246D01*
X190744598Y-91273649D01*
X189261906Y-91272355D01*
X187891582Y-91838561D01*
X186842246Y-92886068D01*
X186273649Y-94255402D01*
X186272355Y-95738094D01*
X149833330Y-95738094D01*
X149296681Y-95515258D01*
X148705911Y-95514743D01*
X148159914Y-95740344D01*
X147741812Y-96157717D01*
X147515258Y-96703319D01*
X147514743Y-97294089D01*
X143984744Y-97294089D01*
X143985257Y-96705911D01*
X143759656Y-96159914D01*
X143342283Y-95741812D01*
X142796681Y-95515258D01*
X142205911Y-95514743D01*
X141659914Y-95740344D01*
X141241812Y-96157717D01*
X141015258Y-96703319D01*
X141014743Y-97294089D01*
X138484744Y-97294089D01*
X138485257Y-96705911D01*
X138259656Y-96159914D01*
X137842283Y-95741812D01*
X137296681Y-95515258D01*
X136705911Y-95514743D01*
X136159914Y-95740344D01*
X135741812Y-96157717D01*
X135515258Y-96703319D01*
X135514743Y-97294089D01*
X131984744Y-97294089D01*
X131985257Y-96705911D01*
X131759656Y-96159914D01*
X131342283Y-95741812D01*
X130796681Y-95515258D01*
X130205911Y-95514743D01*
X129659914Y-95740344D01*
X129241812Y-96157717D01*
X129015258Y-96703319D01*
X129014743Y-97294089D01*
X107315000Y-97294089D01*
X107315000Y-93264383D01*
X107664769Y-93264383D01*
X107867582Y-93755229D01*
X108242796Y-94131098D01*
X108733287Y-94334768D01*
X109264383Y-94335231D01*
X109755229Y-94132418D01*
X110131098Y-93757204D01*
X110334768Y-93266713D01*
X110335000Y-93000000D01*
X115258846Y-93000000D01*
X115360467Y-93510882D01*
X115649858Y-93943988D01*
X116082964Y-94233379D01*
X116593846Y-94335000D01*
X116646154Y-94335000D01*
X117157036Y-94233379D01*
X117590142Y-93943988D01*
X117879533Y-93510882D01*
X117928564Y-93264383D01*
X118664769Y-93264383D01*
X118867582Y-93755229D01*
X119242796Y-94131098D01*
X119733287Y-94334768D01*
X120264383Y-94335231D01*
X120755229Y-94132418D01*
X121131098Y-93757204D01*
X121334768Y-93266713D01*
X121335000Y-93000000D01*
X126258846Y-93000000D01*
X126360467Y-93510882D01*
X126649858Y-93943988D01*
X127082964Y-94233379D01*
X127593846Y-94335000D01*
X127646154Y-94335000D01*
X128157036Y-94233379D01*
X128590142Y-93943988D01*
X128879533Y-93510882D01*
X128981154Y-93000000D01*
X128940196Y-92794089D01*
X129014743Y-92794089D01*
X129240344Y-93340086D01*
X129657717Y-93758188D01*
X130203319Y-93984742D01*
X130794089Y-93985257D01*
X131340086Y-93759656D01*
X131758188Y-93342283D01*
X131984742Y-92796681D01*
X131984744Y-92794089D01*
X135514743Y-92794089D01*
X135740344Y-93340086D01*
X136157717Y-93758188D01*
X136703319Y-93984742D01*
X137294089Y-93985257D01*
X137840086Y-93759656D01*
X138258188Y-93342283D01*
X138484742Y-92796681D01*
X138484744Y-92794089D01*
X141014743Y-92794089D01*
X141240344Y-93340086D01*
X141657717Y-93758188D01*
X142203319Y-93984742D01*
X142794089Y-93985257D01*
X143340086Y-93759656D01*
X143758188Y-93342283D01*
X143984742Y-92796681D01*
X143984744Y-92794089D01*
X147514743Y-92794089D01*
X147740344Y-93340086D01*
X148157717Y-93758188D01*
X148703319Y-93984742D01*
X149294089Y-93985257D01*
X149840086Y-93759656D01*
X150258188Y-93342283D01*
X150419695Y-92953331D01*
X150707273Y-92953331D01*
X150933236Y-93422663D01*
X151321604Y-93769797D01*
X151666671Y-93912716D01*
X151873000Y-93789374D01*
X151873000Y-92747000D01*
X152127000Y-92747000D01*
X152127000Y-93789374D01*
X152333329Y-93912716D01*
X152678396Y-93769797D01*
X153066764Y-93422663D01*
X153292727Y-92953331D01*
X153170206Y-92747000D01*
X152127000Y-92747000D01*
X151873000Y-92747000D01*
X150829794Y-92747000D01*
X150707273Y-92953331D01*
X150419695Y-92953331D01*
X150484742Y-92796681D01*
X150485186Y-92286669D01*
X150707273Y-92286669D01*
X150829794Y-92493000D01*
X151873000Y-92493000D01*
X151873000Y-91450626D01*
X152127000Y-91450626D01*
X152127000Y-92493000D01*
X153170206Y-92493000D01*
X153292727Y-92286669D01*
X153066764Y-91817337D01*
X152678396Y-91470203D01*
X152333329Y-91327284D01*
X152127000Y-91450626D01*
X151873000Y-91450626D01*
X151666671Y-91327284D01*
X151321604Y-91470203D01*
X150933236Y-91817337D01*
X150707273Y-92286669D01*
X150485186Y-92286669D01*
X150485257Y-92205911D01*
X150259656Y-91659914D01*
X149842283Y-91241812D01*
X149296681Y-91015258D01*
X148705911Y-91014743D01*
X148159914Y-91240344D01*
X147741812Y-91657717D01*
X147515258Y-92203319D01*
X147514743Y-92794089D01*
X143984744Y-92794089D01*
X143985257Y-92205911D01*
X143759656Y-91659914D01*
X143342283Y-91241812D01*
X142796681Y-91015258D01*
X142205911Y-91014743D01*
X141659914Y-91240344D01*
X141241812Y-91657717D01*
X141015258Y-92203319D01*
X141014743Y-92794089D01*
X138484744Y-92794089D01*
X138485257Y-92205911D01*
X138259656Y-91659914D01*
X137842283Y-91241812D01*
X137296681Y-91015258D01*
X136705911Y-91014743D01*
X136159914Y-91240344D01*
X135741812Y-91657717D01*
X135515258Y-92203319D01*
X135514743Y-92794089D01*
X131984744Y-92794089D01*
X131985257Y-92205911D01*
X131759656Y-91659914D01*
X131342283Y-91241812D01*
X130796681Y-91015258D01*
X130205911Y-91014743D01*
X129659914Y-91240344D01*
X129241812Y-91657717D01*
X129015258Y-92203319D01*
X129014743Y-92794089D01*
X128940196Y-92794089D01*
X128879533Y-92489118D01*
X128590142Y-92056012D01*
X128157036Y-91766621D01*
X127646154Y-91665000D01*
X127593846Y-91665000D01*
X127082964Y-91766621D01*
X126649858Y-92056012D01*
X126360467Y-92489118D01*
X126258846Y-93000000D01*
X121335000Y-93000000D01*
X121335231Y-92735617D01*
X121132418Y-92244771D01*
X120757204Y-91868902D01*
X120266713Y-91665232D01*
X119735617Y-91664769D01*
X119244771Y-91867582D01*
X118868902Y-92242796D01*
X118665232Y-92733287D01*
X118664769Y-93264383D01*
X117928564Y-93264383D01*
X117981154Y-93000000D01*
X117879533Y-92489118D01*
X117590142Y-92056012D01*
X117157036Y-91766621D01*
X116646154Y-91665000D01*
X116593846Y-91665000D01*
X116082964Y-91766621D01*
X115649858Y-92056012D01*
X115360467Y-92489118D01*
X115258846Y-93000000D01*
X110335000Y-93000000D01*
X110335231Y-92735617D01*
X110132418Y-92244771D01*
X109757204Y-91868902D01*
X109266713Y-91665232D01*
X108735617Y-91664769D01*
X108244771Y-91867582D01*
X107868902Y-92242796D01*
X107665232Y-92733287D01*
X107664769Y-93264383D01*
X107315000Y-93264383D01*
X107315000Y-84200000D01*
X134552560Y-84200000D01*
X134552560Y-85800000D01*
X134596838Y-86035317D01*
X134735910Y-86251441D01*
X134948110Y-86396431D01*
X135200000Y-86447440D01*
X136800000Y-86447440D01*
X137035317Y-86403162D01*
X137251441Y-86264090D01*
X137396431Y-86051890D01*
X137447440Y-85800000D01*
X137447440Y-85000000D01*
X142156887Y-85000000D01*
X142266120Y-85549151D01*
X142577189Y-86014698D01*
X143042736Y-86325767D01*
X143591887Y-86435000D01*
X143648113Y-86435000D01*
X144197264Y-86325767D01*
X144662811Y-86014698D01*
X144973880Y-85549151D01*
X145030523Y-85264383D01*
X150664769Y-85264383D01*
X150867582Y-85755229D01*
X151242796Y-86131098D01*
X151733287Y-86334768D01*
X152264383Y-86335231D01*
X152755229Y-86132418D01*
X153131098Y-85757204D01*
X153334768Y-85266713D01*
X153335231Y-84735617D01*
X153254404Y-84540000D01*
X196485907Y-84540000D01*
X196598946Y-85108285D01*
X196920853Y-85590054D01*
X197402622Y-85911961D01*
X197970907Y-86025000D01*
X198029093Y-86025000D01*
X198597378Y-85911961D01*
X199079147Y-85590054D01*
X199401054Y-85108285D01*
X199514093Y-84540000D01*
X199401054Y-83971715D01*
X199079147Y-83489946D01*
X199037548Y-83462150D01*
X199085317Y-83453162D01*
X199301441Y-83314090D01*
X199446431Y-83101890D01*
X199497440Y-82850000D01*
X199497440Y-81150000D01*
X199453162Y-80914683D01*
X199314090Y-80698559D01*
X199101890Y-80553569D01*
X198850000Y-80502560D01*
X197150000Y-80502560D01*
X196914683Y-80546838D01*
X196698559Y-80685910D01*
X196553569Y-80898110D01*
X196502560Y-81150000D01*
X196502560Y-82850000D01*
X196546838Y-83085317D01*
X196685910Y-83301441D01*
X196898110Y-83446431D01*
X196965541Y-83460086D01*
X196920853Y-83489946D01*
X196598946Y-83971715D01*
X196485907Y-84540000D01*
X153254404Y-84540000D01*
X153132418Y-84244771D01*
X152757204Y-83868902D01*
X152266713Y-83665232D01*
X151735617Y-83664769D01*
X151244771Y-83867582D01*
X150868902Y-84242796D01*
X150665232Y-84733287D01*
X150664769Y-85264383D01*
X145030523Y-85264383D01*
X145083113Y-85000000D01*
X144973880Y-84450849D01*
X144662811Y-83985302D01*
X144197264Y-83674233D01*
X143648113Y-83565000D01*
X143591887Y-83565000D01*
X143042736Y-83674233D01*
X142577189Y-83985302D01*
X142266120Y-84450849D01*
X142156887Y-85000000D01*
X137447440Y-85000000D01*
X137447440Y-84200000D01*
X137403162Y-83964683D01*
X137264090Y-83748559D01*
X137051890Y-83603569D01*
X136800000Y-83552560D01*
X135200000Y-83552560D01*
X134964683Y-83596838D01*
X134748559Y-83735910D01*
X134603569Y-83948110D01*
X134552560Y-84200000D01*
X107315000Y-84200000D01*
X107315000Y-68874089D01*
X107480743Y-68874089D01*
X107706344Y-69420086D01*
X108123717Y-69838188D01*
X108151557Y-69849748D01*
X108125914Y-69860344D01*
X107707812Y-70277717D01*
X107481258Y-70823319D01*
X107480743Y-71414089D01*
X107706344Y-71960086D01*
X108123717Y-72378188D01*
X108151557Y-72389748D01*
X108125914Y-72400344D01*
X107707812Y-72817717D01*
X107481258Y-73363319D01*
X107480743Y-73954089D01*
X107706344Y-74500086D01*
X108123717Y-74918188D01*
X108151557Y-74929748D01*
X108125914Y-74940344D01*
X107707812Y-75357717D01*
X107481258Y-75903319D01*
X107480743Y-76494089D01*
X107706344Y-77040086D01*
X108123717Y-77458188D01*
X108151557Y-77469748D01*
X108125914Y-77480344D01*
X107707812Y-77897717D01*
X107481258Y-78443319D01*
X107480743Y-79034089D01*
X107706344Y-79580086D01*
X108123717Y-79998188D01*
X108151557Y-80009748D01*
X108125914Y-80020344D01*
X107707812Y-80437717D01*
X107481258Y-80983319D01*
X107480743Y-81574089D01*
X107706344Y-82120086D01*
X108123717Y-82538188D01*
X108669319Y-82764742D01*
X109260089Y-82765257D01*
X109806086Y-82539656D01*
X110224188Y-82122283D01*
X110450742Y-81576681D01*
X110451257Y-80985911D01*
X110225656Y-80439914D01*
X109808283Y-80021812D01*
X109780443Y-80010252D01*
X109806086Y-79999656D01*
X110224188Y-79582283D01*
X110450742Y-79036681D01*
X110451257Y-78445911D01*
X110225656Y-77899914D01*
X109808283Y-77481812D01*
X109780443Y-77470252D01*
X109806086Y-77459656D01*
X110224188Y-77042283D01*
X110450742Y-76496681D01*
X110451257Y-75905911D01*
X110225656Y-75359914D01*
X109808283Y-74941812D01*
X109780443Y-74930252D01*
X109806086Y-74919656D01*
X110224188Y-74502283D01*
X110450742Y-73956681D01*
X110451257Y-73365911D01*
X110225656Y-72819914D01*
X109808283Y-72401812D01*
X109780443Y-72390252D01*
X109806086Y-72379656D01*
X110224188Y-71962283D01*
X110450742Y-71416681D01*
X110451257Y-70825911D01*
X110225656Y-70279914D01*
X109808283Y-69861812D01*
X109780443Y-69850252D01*
X109806086Y-69839656D01*
X110224188Y-69422283D01*
X110450742Y-68876681D01*
X110451257Y-68285911D01*
X110225656Y-67739914D01*
X109808283Y-67321812D01*
X109760688Y-67302049D01*
X109830353Y-67083958D01*
X108966000Y-66219605D01*
X108101647Y-67083958D01*
X108171181Y-67301640D01*
X108125914Y-67320344D01*
X107707812Y-67737717D01*
X107481258Y-68283319D01*
X107480743Y-68874089D01*
X107315000Y-68874089D01*
X107315000Y-65811279D01*
X107469282Y-65811279D01*
X107495685Y-66401458D01*
X107670741Y-66824080D01*
X107922042Y-66904353D01*
X108786395Y-66040000D01*
X109145605Y-66040000D01*
X110009958Y-66904353D01*
X110261259Y-66824080D01*
X110462718Y-66268721D01*
X110436315Y-65678542D01*
X110261259Y-65255920D01*
X110009958Y-65175647D01*
X109145605Y-66040000D01*
X108786395Y-66040000D01*
X107922042Y-65175647D01*
X107670741Y-65255920D01*
X107469282Y-65811279D01*
X107315000Y-65811279D01*
X107315000Y-51094089D01*
X107480743Y-51094089D01*
X107706344Y-51640086D01*
X108123717Y-52058188D01*
X108151557Y-52069748D01*
X108125914Y-52080344D01*
X107707812Y-52497717D01*
X107481258Y-53043319D01*
X107480743Y-53634089D01*
X107706344Y-54180086D01*
X108123717Y-54598188D01*
X108151557Y-54609748D01*
X108125914Y-54620344D01*
X107707812Y-55037717D01*
X107481258Y-55583319D01*
X107480743Y-56174089D01*
X107706344Y-56720086D01*
X108123717Y-57138188D01*
X108151557Y-57149748D01*
X108125914Y-57160344D01*
X107707812Y-57577717D01*
X107481258Y-58123319D01*
X107480743Y-58714089D01*
X107706344Y-59260086D01*
X108123717Y-59678188D01*
X108151557Y-59689748D01*
X108125914Y-59700344D01*
X107707812Y-60117717D01*
X107481258Y-60663319D01*
X107480743Y-61254089D01*
X107706344Y-61800086D01*
X108123717Y-62218188D01*
X108151557Y-62229748D01*
X108125914Y-62240344D01*
X107707812Y-62657717D01*
X107481258Y-63203319D01*
X107480743Y-63794089D01*
X107706344Y-64340086D01*
X108123717Y-64758188D01*
X108171312Y-64777951D01*
X108101647Y-64996042D01*
X108966000Y-65860395D01*
X109830353Y-64996042D01*
X109760819Y-64778360D01*
X109806086Y-64759656D01*
X110224188Y-64342283D01*
X110450742Y-63796681D01*
X110451257Y-63205911D01*
X110225656Y-62659914D01*
X109808283Y-62241812D01*
X109780443Y-62230252D01*
X109806086Y-62219656D01*
X110224188Y-61802283D01*
X110450742Y-61256681D01*
X110450744Y-61254089D01*
X130340743Y-61254089D01*
X130566344Y-61800086D01*
X130983717Y-62218188D01*
X131011557Y-62229748D01*
X130985914Y-62240344D01*
X130567812Y-62657717D01*
X130341258Y-63203319D01*
X130340743Y-63794089D01*
X130566344Y-64340086D01*
X130983717Y-64758188D01*
X131011557Y-64769748D01*
X130985914Y-64780344D01*
X130567812Y-65197717D01*
X130341258Y-65743319D01*
X130340743Y-66334089D01*
X130566344Y-66880086D01*
X130983717Y-67298188D01*
X131011557Y-67309748D01*
X130985914Y-67320344D01*
X130567812Y-67737717D01*
X130341258Y-68283319D01*
X130340743Y-68874089D01*
X130566344Y-69420086D01*
X130983717Y-69838188D01*
X131011557Y-69849748D01*
X130985914Y-69860344D01*
X130567812Y-70277717D01*
X130341258Y-70823319D01*
X130340743Y-71414089D01*
X130566344Y-71960086D01*
X130983717Y-72378188D01*
X131011557Y-72389748D01*
X130985914Y-72400344D01*
X130567812Y-72817717D01*
X130341258Y-73363319D01*
X130340743Y-73954089D01*
X130566344Y-74500086D01*
X130983717Y-74918188D01*
X131011557Y-74929748D01*
X130985914Y-74940344D01*
X130567812Y-75357717D01*
X130341258Y-75903319D01*
X130340743Y-76494089D01*
X130566344Y-77040086D01*
X130983717Y-77458188D01*
X131011557Y-77469748D01*
X130985914Y-77480344D01*
X130567812Y-77897717D01*
X130341258Y-78443319D01*
X130340743Y-79034089D01*
X130566344Y-79580086D01*
X130983717Y-79998188D01*
X131011557Y-80009748D01*
X130985914Y-80020344D01*
X130567812Y-80437717D01*
X130341258Y-80983319D01*
X130340743Y-81574089D01*
X130566344Y-82120086D01*
X130983717Y-82538188D01*
X131529319Y-82764742D01*
X132120089Y-82765257D01*
X132666086Y-82539656D01*
X133084188Y-82122283D01*
X133310742Y-81576681D01*
X133311257Y-80985911D01*
X133085656Y-80439914D01*
X132668283Y-80021812D01*
X132640443Y-80010252D01*
X132666086Y-79999656D01*
X133084188Y-79582283D01*
X133242925Y-79200000D01*
X134552560Y-79200000D01*
X134552560Y-80800000D01*
X134596838Y-81035317D01*
X134735910Y-81251441D01*
X134948110Y-81396431D01*
X135200000Y-81447440D01*
X136800000Y-81447440D01*
X137035317Y-81403162D01*
X137251441Y-81264090D01*
X137396431Y-81051890D01*
X137447440Y-80800000D01*
X137447440Y-80000000D01*
X142156887Y-80000000D01*
X142266120Y-80549151D01*
X142577189Y-81014698D01*
X143042736Y-81325767D01*
X143591887Y-81435000D01*
X143648113Y-81435000D01*
X144197264Y-81325767D01*
X144662811Y-81014698D01*
X144973880Y-80549151D01*
X145030523Y-80264383D01*
X145664769Y-80264383D01*
X145867582Y-80755229D01*
X146242796Y-81131098D01*
X146733287Y-81334768D01*
X147264383Y-81335231D01*
X147755229Y-81132418D01*
X148131098Y-80757204D01*
X148307106Y-80333329D01*
X153327284Y-80333329D01*
X153470203Y-80678396D01*
X153817337Y-81066764D01*
X154286669Y-81292727D01*
X154493000Y-81170206D01*
X154493000Y-80127000D01*
X154747000Y-80127000D01*
X154747000Y-81170206D01*
X154953331Y-81292727D01*
X155422663Y-81066764D01*
X155769797Y-80678396D01*
X155912716Y-80333329D01*
X155789374Y-80127000D01*
X154747000Y-80127000D01*
X154493000Y-80127000D01*
X153450626Y-80127000D01*
X153327284Y-80333329D01*
X148307106Y-80333329D01*
X148334768Y-80266713D01*
X148335231Y-79735617D01*
X148306744Y-79666671D01*
X153327284Y-79666671D01*
X153450626Y-79873000D01*
X154493000Y-79873000D01*
X154493000Y-78829794D01*
X154747000Y-78829794D01*
X154747000Y-79873000D01*
X155789374Y-79873000D01*
X155912716Y-79666671D01*
X155769797Y-79321604D01*
X155422663Y-78933236D01*
X154953331Y-78707273D01*
X154747000Y-78829794D01*
X154493000Y-78829794D01*
X154286669Y-78707273D01*
X153817337Y-78933236D01*
X153470203Y-79321604D01*
X153327284Y-79666671D01*
X148306744Y-79666671D01*
X148132418Y-79244771D01*
X147757204Y-78868902D01*
X147266713Y-78665232D01*
X146735617Y-78664769D01*
X146244771Y-78867582D01*
X145868902Y-79242796D01*
X145665232Y-79733287D01*
X145664769Y-80264383D01*
X145030523Y-80264383D01*
X145083113Y-80000000D01*
X144973880Y-79450849D01*
X144662811Y-78985302D01*
X144197264Y-78674233D01*
X143648113Y-78565000D01*
X143591887Y-78565000D01*
X143042736Y-78674233D01*
X142577189Y-78985302D01*
X142266120Y-79450849D01*
X142156887Y-80000000D01*
X137447440Y-80000000D01*
X137447440Y-79200000D01*
X137403162Y-78964683D01*
X137264090Y-78748559D01*
X137051890Y-78603569D01*
X136800000Y-78552560D01*
X135200000Y-78552560D01*
X134964683Y-78596838D01*
X134748559Y-78735910D01*
X134603569Y-78948110D01*
X134552560Y-79200000D01*
X133242925Y-79200000D01*
X133310742Y-79036681D01*
X133311257Y-78445911D01*
X133085656Y-77899914D01*
X132668283Y-77481812D01*
X132640443Y-77470252D01*
X132666086Y-77459656D01*
X133084188Y-77042283D01*
X133310742Y-76496681D01*
X133311257Y-75905911D01*
X133085656Y-75359914D01*
X132753323Y-75027000D01*
X141965000Y-75027000D01*
X141965000Y-75927000D01*
X142130446Y-76504752D01*
X142504394Y-76975212D01*
X143029914Y-77266756D01*
X143135260Y-77291036D01*
X143373000Y-77170378D01*
X143373000Y-75027000D01*
X141965000Y-75027000D01*
X132753323Y-75027000D01*
X132668283Y-74941812D01*
X132640443Y-74930252D01*
X132666086Y-74919656D01*
X133084188Y-74502283D01*
X133310742Y-73956681D01*
X133310814Y-73873000D01*
X141965000Y-73873000D01*
X141965000Y-74773000D01*
X143373000Y-74773000D01*
X143373000Y-72629622D01*
X143627000Y-72629622D01*
X143627000Y-74773000D01*
X143647000Y-74773000D01*
X143647000Y-75027000D01*
X143627000Y-75027000D01*
X143627000Y-77170378D01*
X143864740Y-77291036D01*
X143970086Y-77266756D01*
X144495606Y-76975212D01*
X144738520Y-76669604D01*
X144914591Y-76933113D01*
X145412581Y-77265859D01*
X146000000Y-77382704D01*
X146587419Y-77265859D01*
X147085409Y-76933113D01*
X147250000Y-76686785D01*
X147414591Y-76933113D01*
X147912581Y-77265859D01*
X148500000Y-77382704D01*
X149087419Y-77265859D01*
X149485305Y-77000000D01*
X166078071Y-77000000D01*
X166221558Y-77721358D01*
X166630175Y-78332896D01*
X167241713Y-78741513D01*
X167963071Y-78885000D01*
X168036929Y-78885000D01*
X168758287Y-78741513D01*
X169369825Y-78332896D01*
X169759304Y-77750000D01*
X171600921Y-77750000D01*
X171600921Y-80250000D01*
X171679506Y-80667641D01*
X171926331Y-81051219D01*
X172302944Y-81308548D01*
X172750000Y-81399079D01*
X175250000Y-81399079D01*
X175667641Y-81320494D01*
X176051219Y-81073669D01*
X176308548Y-80697056D01*
X176399079Y-80250000D01*
X176399079Y-77750000D01*
X176320494Y-77332359D01*
X176073669Y-76948781D01*
X175697056Y-76691452D01*
X175250000Y-76600921D01*
X172750000Y-76600921D01*
X172332359Y-76679506D01*
X171948781Y-76926331D01*
X171691452Y-77302944D01*
X171600921Y-77750000D01*
X169759304Y-77750000D01*
X169778442Y-77721358D01*
X169921929Y-77000000D01*
X169778442Y-76278642D01*
X169369825Y-75667104D01*
X168758287Y-75258487D01*
X168036929Y-75115000D01*
X167963071Y-75115000D01*
X167241713Y-75258487D01*
X166630175Y-75667104D01*
X166221558Y-76278642D01*
X166078071Y-77000000D01*
X149485305Y-77000000D01*
X149585409Y-76933113D01*
X149918155Y-76435123D01*
X150035000Y-75847704D01*
X150035000Y-74593846D01*
X158665000Y-74593846D01*
X158665000Y-74646154D01*
X158766621Y-75157036D01*
X159056012Y-75590142D01*
X159489118Y-75879533D01*
X160000000Y-75981154D01*
X160510882Y-75879533D01*
X160943988Y-75590142D01*
X161233379Y-75157036D01*
X161335000Y-74646154D01*
X161335000Y-74593846D01*
X161334611Y-74591887D01*
X161565000Y-74591887D01*
X161565000Y-74648113D01*
X161674233Y-75197264D01*
X161985302Y-75662811D01*
X162450849Y-75973880D01*
X163000000Y-76083113D01*
X163549151Y-75973880D01*
X164014698Y-75662811D01*
X164325767Y-75197264D01*
X164435000Y-74648113D01*
X164435000Y-74591887D01*
X164325767Y-74042736D01*
X164014698Y-73577189D01*
X163549151Y-73266120D01*
X163000000Y-73156887D01*
X162450849Y-73266120D01*
X161985302Y-73577189D01*
X161674233Y-74042736D01*
X161565000Y-74591887D01*
X161334611Y-74591887D01*
X161233379Y-74082964D01*
X160943988Y-73649858D01*
X160510882Y-73360467D01*
X160000000Y-73258846D01*
X159489118Y-73360467D01*
X159056012Y-73649858D01*
X158766621Y-74082964D01*
X158665000Y-74593846D01*
X150035000Y-74593846D01*
X150035000Y-73952296D01*
X149918155Y-73364877D01*
X149865285Y-73285750D01*
X152865000Y-73285750D01*
X152865000Y-73626309D01*
X152961673Y-73859698D01*
X153140301Y-74038327D01*
X153373690Y-74135000D01*
X153714250Y-74135000D01*
X153873000Y-73976250D01*
X153873000Y-73127000D01*
X154127000Y-73127000D01*
X154127000Y-73976250D01*
X154285750Y-74135000D01*
X154626310Y-74135000D01*
X154859699Y-74038327D01*
X155038327Y-73859698D01*
X155135000Y-73626309D01*
X155135000Y-73285750D01*
X154976250Y-73127000D01*
X154127000Y-73127000D01*
X153873000Y-73127000D01*
X153023750Y-73127000D01*
X152865000Y-73285750D01*
X149865285Y-73285750D01*
X149585409Y-72866887D01*
X149087419Y-72534141D01*
X148500000Y-72417296D01*
X147912581Y-72534141D01*
X147414591Y-72866887D01*
X147250000Y-73113215D01*
X147085409Y-72866887D01*
X146587419Y-72534141D01*
X146000000Y-72417296D01*
X145412581Y-72534141D01*
X144914591Y-72866887D01*
X144738520Y-73130396D01*
X144495606Y-72824788D01*
X143970086Y-72533244D01*
X143864740Y-72508964D01*
X143627000Y-72629622D01*
X143373000Y-72629622D01*
X143135260Y-72508964D01*
X143029914Y-72533244D01*
X142504394Y-72824788D01*
X142130446Y-73295248D01*
X141965000Y-73873000D01*
X133310814Y-73873000D01*
X133311257Y-73365911D01*
X133085656Y-72819914D01*
X132668283Y-72401812D01*
X132640443Y-72390252D01*
X132666086Y-72379656D01*
X132672061Y-72373691D01*
X152865000Y-72373691D01*
X152865000Y-72714250D01*
X153023750Y-72873000D01*
X153873000Y-72873000D01*
X153873000Y-72023750D01*
X154127000Y-72023750D01*
X154127000Y-72873000D01*
X154976250Y-72873000D01*
X155001698Y-72847552D01*
X155043244Y-72864803D01*
X155405117Y-72865119D01*
X155404803Y-73224775D01*
X155577233Y-73642086D01*
X155896235Y-73961645D01*
X156313244Y-74134803D01*
X156764775Y-74135197D01*
X157182086Y-73962767D01*
X157501645Y-73643765D01*
X157674803Y-73226756D01*
X157675197Y-72775225D01*
X157502767Y-72357914D01*
X157183765Y-72038355D01*
X156766756Y-71865197D01*
X156404883Y-71864881D01*
X156405197Y-71505225D01*
X156232767Y-71087914D01*
X155913765Y-70768355D01*
X155496756Y-70595197D01*
X155045225Y-70594803D01*
X154627914Y-70767233D01*
X154308355Y-71086235D01*
X154135197Y-71503244D01*
X154134803Y-71954775D01*
X154152689Y-71998061D01*
X154127000Y-72023750D01*
X153873000Y-72023750D01*
X153714250Y-71865000D01*
X153373690Y-71865000D01*
X153140301Y-71961673D01*
X152961673Y-72140302D01*
X152865000Y-72373691D01*
X132672061Y-72373691D01*
X133084188Y-71962283D01*
X133310742Y-71416681D01*
X133311257Y-70825911D01*
X133085656Y-70279914D01*
X132668283Y-69861812D01*
X132640443Y-69850252D01*
X132666086Y-69839656D01*
X133084188Y-69422283D01*
X133310742Y-68876681D01*
X133311257Y-68285911D01*
X133311191Y-68285750D01*
X135515000Y-68285750D01*
X135515000Y-68976310D01*
X135611673Y-69209699D01*
X135790302Y-69388327D01*
X136023691Y-69485000D01*
X136714250Y-69485000D01*
X136873000Y-69326250D01*
X136873000Y-68127000D01*
X137127000Y-68127000D01*
X137127000Y-69326250D01*
X137285750Y-69485000D01*
X137976309Y-69485000D01*
X138209698Y-69388327D01*
X138388327Y-69209699D01*
X138485000Y-68976310D01*
X138485000Y-68285750D01*
X138463633Y-68264383D01*
X153664769Y-68264383D01*
X153867582Y-68755229D01*
X154242796Y-69131098D01*
X154733287Y-69334768D01*
X155264383Y-69335231D01*
X155755229Y-69132418D01*
X156131098Y-68757204D01*
X156334768Y-68266713D01*
X156335231Y-67735617D01*
X156140522Y-67264383D01*
X158664769Y-67264383D01*
X158867582Y-67755229D01*
X159242796Y-68131098D01*
X159733287Y-68334768D01*
X160264383Y-68335231D01*
X160755229Y-68132418D01*
X161131098Y-67757204D01*
X161334768Y-67266713D01*
X161335231Y-66735617D01*
X161132418Y-66244771D01*
X161087726Y-66200000D01*
X161552560Y-66200000D01*
X161552560Y-67800000D01*
X161596838Y-68035317D01*
X161735910Y-68251441D01*
X161948110Y-68396431D01*
X162200000Y-68447440D01*
X163372638Y-68447440D01*
X169462599Y-74537401D01*
X169709161Y-74702148D01*
X170000000Y-74760000D01*
X176685198Y-74760000D01*
X178218618Y-76293420D01*
X178078071Y-77000000D01*
X178221558Y-77721358D01*
X178630175Y-78332896D01*
X179241713Y-78741513D01*
X179963071Y-78885000D01*
X180036929Y-78885000D01*
X180758287Y-78741513D01*
X181369825Y-78332896D01*
X181778442Y-77721358D01*
X181921929Y-77000000D01*
X181778442Y-76278642D01*
X181369825Y-75667104D01*
X180758287Y-75258487D01*
X180036929Y-75115000D01*
X179963071Y-75115000D01*
X179318096Y-75243294D01*
X178236550Y-74161748D01*
X189983651Y-74161748D01*
X190289922Y-74902981D01*
X190856537Y-75470585D01*
X191597233Y-75778150D01*
X192399248Y-75778849D01*
X193140481Y-75472578D01*
X193708085Y-74905963D01*
X194015650Y-74165267D01*
X194016349Y-73363252D01*
X193710078Y-72622019D01*
X193143463Y-72054415D01*
X192402767Y-71746850D01*
X191600752Y-71746151D01*
X190859519Y-72052422D01*
X190291915Y-72619037D01*
X189984350Y-73359733D01*
X189983651Y-74161748D01*
X178236550Y-74161748D01*
X177537401Y-73462599D01*
X177290839Y-73297852D01*
X177000000Y-73240000D01*
X170314802Y-73240000D01*
X164447440Y-67372638D01*
X164447440Y-66200000D01*
X164403162Y-65964683D01*
X164264090Y-65748559D01*
X164051890Y-65603569D01*
X163800000Y-65552560D01*
X162200000Y-65552560D01*
X161964683Y-65596838D01*
X161748559Y-65735910D01*
X161603569Y-65948110D01*
X161552560Y-66200000D01*
X161087726Y-66200000D01*
X160757204Y-65868902D01*
X160266713Y-65665232D01*
X159735617Y-65664769D01*
X159244771Y-65867582D01*
X158868902Y-66242796D01*
X158665232Y-66733287D01*
X158664769Y-67264383D01*
X156140522Y-67264383D01*
X156132418Y-67244771D01*
X155757204Y-66868902D01*
X155266713Y-66665232D01*
X154735617Y-66664769D01*
X154244771Y-66867582D01*
X153868902Y-67242796D01*
X153665232Y-67733287D01*
X153664769Y-68264383D01*
X138463633Y-68264383D01*
X138326250Y-68127000D01*
X137127000Y-68127000D01*
X136873000Y-68127000D01*
X135673750Y-68127000D01*
X135515000Y-68285750D01*
X133311191Y-68285750D01*
X133085656Y-67739914D01*
X132668283Y-67321812D01*
X132640443Y-67310252D01*
X132666086Y-67299656D01*
X133084188Y-66882283D01*
X133310742Y-66336681D01*
X133311257Y-65745911D01*
X133085656Y-65199914D01*
X132668283Y-64781812D01*
X132640443Y-64770252D01*
X132666086Y-64759656D01*
X133084188Y-64342283D01*
X133310742Y-63796681D01*
X133311257Y-63205911D01*
X133085656Y-62659914D01*
X132668283Y-62241812D01*
X132640443Y-62230252D01*
X132666086Y-62219656D01*
X133084188Y-61802283D01*
X133310742Y-61256681D01*
X133311257Y-60665911D01*
X133085656Y-60119914D01*
X132668283Y-59701812D01*
X132620688Y-59682049D01*
X132690353Y-59463958D01*
X131826000Y-58599605D01*
X130961647Y-59463958D01*
X131031181Y-59681640D01*
X130985914Y-59700344D01*
X130567812Y-60117717D01*
X130341258Y-60663319D01*
X130340743Y-61254089D01*
X110450744Y-61254089D01*
X110451257Y-60665911D01*
X110225656Y-60119914D01*
X109808283Y-59701812D01*
X109780443Y-59690252D01*
X109806086Y-59679656D01*
X110224188Y-59262283D01*
X110450742Y-58716681D01*
X110451200Y-58191279D01*
X130329282Y-58191279D01*
X130355685Y-58781458D01*
X130530741Y-59204080D01*
X130782042Y-59284353D01*
X131646395Y-58420000D01*
X132005605Y-58420000D01*
X132869958Y-59284353D01*
X133121259Y-59204080D01*
X133322718Y-58648721D01*
X133296315Y-58058542D01*
X133205792Y-57840000D01*
X135485907Y-57840000D01*
X135598946Y-58408285D01*
X135920853Y-58890054D01*
X136250026Y-59110000D01*
X135920853Y-59329946D01*
X135598946Y-59811715D01*
X135485907Y-60380000D01*
X135598946Y-60948285D01*
X135920853Y-61430054D01*
X136250026Y-61650000D01*
X135920853Y-61869946D01*
X135598946Y-62351715D01*
X135485907Y-62920000D01*
X135598946Y-63488285D01*
X135920853Y-63970054D01*
X136250026Y-64190000D01*
X135920853Y-64409946D01*
X135598946Y-64891715D01*
X135485907Y-65460000D01*
X135598946Y-66028285D01*
X135920853Y-66510054D01*
X135964777Y-66539403D01*
X135790302Y-66611673D01*
X135611673Y-66790301D01*
X135515000Y-67023690D01*
X135515000Y-67714250D01*
X135673750Y-67873000D01*
X136873000Y-67873000D01*
X136873000Y-67853000D01*
X137127000Y-67853000D01*
X137127000Y-67873000D01*
X138326250Y-67873000D01*
X138485000Y-67714250D01*
X138485000Y-67023690D01*
X138388327Y-66790301D01*
X138209698Y-66611673D01*
X138035223Y-66539403D01*
X138079147Y-66510054D01*
X138401054Y-66028285D01*
X138514093Y-65460000D01*
X138401054Y-64891715D01*
X138079147Y-64409946D01*
X137749974Y-64190000D01*
X138079147Y-63970054D01*
X138163379Y-63843991D01*
X158464735Y-63843991D01*
X158697932Y-64408371D01*
X159129357Y-64840551D01*
X159693330Y-65074733D01*
X160303991Y-65075265D01*
X160868371Y-64842068D01*
X160910512Y-64800000D01*
X166078071Y-64800000D01*
X166221558Y-65521358D01*
X166630175Y-66132896D01*
X167241713Y-66541513D01*
X167963071Y-66685000D01*
X168036929Y-66685000D01*
X168758287Y-66541513D01*
X169369825Y-66132896D01*
X169778442Y-65521358D01*
X169921929Y-64800000D01*
X177576432Y-64800000D01*
X177757370Y-65709639D01*
X178272639Y-66480793D01*
X179043793Y-66996062D01*
X179953432Y-67177000D01*
X180046568Y-67177000D01*
X180956207Y-66996062D01*
X181727361Y-66480793D01*
X182242630Y-65709639D01*
X182423568Y-64800000D01*
X182391096Y-64636748D01*
X189983651Y-64636748D01*
X190289922Y-65377981D01*
X190856537Y-65945585D01*
X191597233Y-66253150D01*
X192399248Y-66253849D01*
X193140481Y-65947578D01*
X193708085Y-65380963D01*
X194015650Y-64640267D01*
X194016349Y-63838252D01*
X193710078Y-63097019D01*
X193143463Y-62529415D01*
X192402767Y-62221850D01*
X191600752Y-62221151D01*
X190859519Y-62527422D01*
X190291915Y-63094037D01*
X189984350Y-63834733D01*
X189983651Y-64636748D01*
X182391096Y-64636748D01*
X182242630Y-63890361D01*
X181727361Y-63119207D01*
X180956207Y-62603938D01*
X180046568Y-62423000D01*
X179953432Y-62423000D01*
X179043793Y-62603938D01*
X178272639Y-63119207D01*
X177757370Y-63890361D01*
X177576432Y-64800000D01*
X169921929Y-64800000D01*
X169778442Y-64078642D01*
X169369825Y-63467104D01*
X168758287Y-63058487D01*
X168036929Y-62915000D01*
X167963071Y-62915000D01*
X167241713Y-63058487D01*
X166630175Y-63467104D01*
X166221558Y-64078642D01*
X166078071Y-64800000D01*
X160910512Y-64800000D01*
X161300551Y-64410643D01*
X161534733Y-63846670D01*
X161535265Y-63236009D01*
X161302068Y-62671629D01*
X161124908Y-62494159D01*
X161259699Y-62438327D01*
X161438327Y-62259698D01*
X161535000Y-62026309D01*
X161535000Y-61285750D01*
X161376250Y-61127000D01*
X160127000Y-61127000D01*
X160127000Y-61147000D01*
X159873000Y-61147000D01*
X159873000Y-61127000D01*
X158623750Y-61127000D01*
X158465000Y-61285750D01*
X158465000Y-62026309D01*
X158561673Y-62259698D01*
X158740301Y-62438327D01*
X158874994Y-62494119D01*
X158699449Y-62669357D01*
X158465267Y-63233330D01*
X158464735Y-63843991D01*
X138163379Y-63843991D01*
X138401054Y-63488285D01*
X138514093Y-62920000D01*
X138401054Y-62351715D01*
X138079147Y-61869946D01*
X137749974Y-61650000D01*
X138079147Y-61430054D01*
X138401054Y-60948285D01*
X138514093Y-60380000D01*
X138401054Y-59811715D01*
X138079147Y-59329946D01*
X137749974Y-59110000D01*
X138079147Y-58890054D01*
X138401054Y-58408285D01*
X138514093Y-57840000D01*
X138401054Y-57271715D01*
X138079147Y-56789946D01*
X137597378Y-56468039D01*
X137029093Y-56355000D01*
X136970907Y-56355000D01*
X136402622Y-56468039D01*
X135920853Y-56789946D01*
X135598946Y-57271715D01*
X135485907Y-57840000D01*
X133205792Y-57840000D01*
X133121259Y-57635920D01*
X132869958Y-57555647D01*
X132005605Y-58420000D01*
X131646395Y-58420000D01*
X130782042Y-57555647D01*
X130530741Y-57635920D01*
X130329282Y-58191279D01*
X110451200Y-58191279D01*
X110451257Y-58125911D01*
X110225656Y-57579914D01*
X109808283Y-57161812D01*
X109780443Y-57150252D01*
X109806086Y-57139656D01*
X110224188Y-56722283D01*
X110450742Y-56176681D01*
X110451257Y-55585911D01*
X110225656Y-55039914D01*
X109808283Y-54621812D01*
X109780443Y-54610252D01*
X109806086Y-54599656D01*
X110224188Y-54182283D01*
X110450742Y-53636681D01*
X110451257Y-53045911D01*
X110225656Y-52499914D01*
X109808283Y-52081812D01*
X109780443Y-52070252D01*
X109806086Y-52059656D01*
X110224188Y-51642283D01*
X110259530Y-51557170D01*
X127241664Y-51519998D01*
X127386256Y-51490908D01*
X127530839Y-51462148D01*
X127531543Y-51461677D01*
X127532375Y-51461510D01*
X127654755Y-51379350D01*
X127777401Y-51297401D01*
X127980713Y-51094089D01*
X130340743Y-51094089D01*
X130566344Y-51640086D01*
X130983717Y-52058188D01*
X131011557Y-52069748D01*
X130985914Y-52080344D01*
X130567812Y-52497717D01*
X130341258Y-53043319D01*
X130340743Y-53634089D01*
X130566344Y-54180086D01*
X130983717Y-54598188D01*
X131011557Y-54609748D01*
X130985914Y-54620344D01*
X130567812Y-55037717D01*
X130341258Y-55583319D01*
X130340743Y-56174089D01*
X130566344Y-56720086D01*
X130983717Y-57138188D01*
X131031312Y-57157951D01*
X130961647Y-57376042D01*
X131826000Y-58240395D01*
X132690353Y-57376042D01*
X132620819Y-57158360D01*
X132666086Y-57139656D01*
X133084188Y-56722283D01*
X133310742Y-56176681D01*
X133311257Y-55585911D01*
X133085656Y-55039914D01*
X132668283Y-54621812D01*
X132640443Y-54610252D01*
X132666086Y-54599656D01*
X133084188Y-54182283D01*
X133310742Y-53636681D01*
X133311257Y-53045911D01*
X133085656Y-52499914D01*
X132668283Y-52081812D01*
X132640443Y-52070252D01*
X132666086Y-52059656D01*
X133084188Y-51642283D01*
X133310742Y-51096681D01*
X133311257Y-50505911D01*
X133085656Y-49959914D01*
X132668283Y-49541812D01*
X132620688Y-49522049D01*
X132690353Y-49303958D01*
X131826000Y-48439605D01*
X130961647Y-49303958D01*
X131031181Y-49521640D01*
X130985914Y-49540344D01*
X130567812Y-49957717D01*
X130341258Y-50503319D01*
X130340743Y-51094089D01*
X127980713Y-51094089D01*
X128537401Y-50537401D01*
X128702148Y-50290840D01*
X128760000Y-50000000D01*
X128760000Y-48031279D01*
X130329282Y-48031279D01*
X130355685Y-48621458D01*
X130530741Y-49044080D01*
X130782042Y-49124353D01*
X131646395Y-48260000D01*
X132005605Y-48260000D01*
X132869958Y-49124353D01*
X133121259Y-49044080D01*
X133322718Y-48488721D01*
X133296315Y-47898542D01*
X133121259Y-47475920D01*
X132869958Y-47395647D01*
X132005605Y-48260000D01*
X131646395Y-48260000D01*
X130782042Y-47395647D01*
X130530741Y-47475920D01*
X130329282Y-48031279D01*
X128760000Y-48031279D01*
X128760000Y-45314802D01*
X129314802Y-44760000D01*
X130685735Y-44760000D01*
X130567812Y-44877717D01*
X130341258Y-45423319D01*
X130340743Y-46014089D01*
X130566344Y-46560086D01*
X130983717Y-46978188D01*
X131031312Y-46997951D01*
X130961647Y-47216042D01*
X131826000Y-48080395D01*
X132690353Y-47216042D01*
X132620819Y-46998360D01*
X132666086Y-46979656D01*
X133084188Y-46562283D01*
X133310742Y-46016681D01*
X133311257Y-45425911D01*
X133085656Y-44879914D01*
X132965951Y-44760000D01*
X133685198Y-44760000D01*
X134240000Y-45314802D01*
X134240000Y-53000000D01*
X134297852Y-53290839D01*
X134462599Y-53537401D01*
X135462599Y-54537401D01*
X135709161Y-54702148D01*
X136000000Y-54760000D01*
X140240000Y-54760000D01*
X140240000Y-60000000D01*
X140297852Y-60290839D01*
X140462599Y-60537401D01*
X140842599Y-60917401D01*
X141089161Y-61082148D01*
X141380000Y-61140000D01*
X153915600Y-61140000D01*
X154056012Y-61350142D01*
X154489118Y-61639533D01*
X155000000Y-61741154D01*
X155510882Y-61639533D01*
X155943988Y-61350142D01*
X156233379Y-60917036D01*
X156335000Y-60406154D01*
X156335000Y-60353846D01*
X156259383Y-59973691D01*
X158465000Y-59973691D01*
X158465000Y-60714250D01*
X158623750Y-60873000D01*
X159873000Y-60873000D01*
X159873000Y-59623750D01*
X160127000Y-59623750D01*
X160127000Y-60873000D01*
X161376250Y-60873000D01*
X161535000Y-60714250D01*
X161535000Y-59973691D01*
X161438327Y-59740302D01*
X161259699Y-59561673D01*
X161026310Y-59465000D01*
X160285750Y-59465000D01*
X160127000Y-59623750D01*
X159873000Y-59623750D01*
X159714250Y-59465000D01*
X158973690Y-59465000D01*
X158740301Y-59561673D01*
X158561673Y-59740302D01*
X158465000Y-59973691D01*
X156259383Y-59973691D01*
X156233379Y-59842964D01*
X155943988Y-59409858D01*
X155510882Y-59120467D01*
X155000000Y-59018846D01*
X154489118Y-59120467D01*
X154056012Y-59409858D01*
X153915600Y-59620000D01*
X141760000Y-59620000D01*
X141760000Y-56600213D01*
X150499392Y-56600213D01*
X150568857Y-56842397D01*
X151092302Y-57029144D01*
X151647368Y-57001362D01*
X152031143Y-56842397D01*
X152100608Y-56600213D01*
X151300000Y-55799605D01*
X150499392Y-56600213D01*
X141760000Y-56600213D01*
X141760000Y-55412302D01*
X149890856Y-55412302D01*
X149918638Y-55967368D01*
X150077603Y-56351143D01*
X150319787Y-56420608D01*
X151120395Y-55620000D01*
X151479605Y-55620000D01*
X152280213Y-56420608D01*
X152522397Y-56351143D01*
X152649778Y-55994097D01*
X177350673Y-55994097D01*
X177637650Y-56688635D01*
X178168570Y-57220483D01*
X178862606Y-57508672D01*
X179614097Y-57509327D01*
X179922252Y-57382000D01*
X189142500Y-57382000D01*
X189816789Y-57247876D01*
X190388422Y-56865922D01*
X192529183Y-54725161D01*
X193140481Y-54472578D01*
X193708085Y-53905963D01*
X194015650Y-53165267D01*
X194016349Y-52363252D01*
X193710078Y-51622019D01*
X193143463Y-51054415D01*
X192402767Y-50746850D01*
X191600752Y-50746151D01*
X190859519Y-51052422D01*
X190291915Y-51619037D01*
X190036490Y-52234166D01*
X188412656Y-53858000D01*
X179922454Y-53858000D01*
X179617394Y-53731328D01*
X178865903Y-53730673D01*
X178171365Y-54017650D01*
X177639517Y-54548570D01*
X177351328Y-55242606D01*
X177350673Y-55994097D01*
X152649778Y-55994097D01*
X152709144Y-55827698D01*
X152681362Y-55272632D01*
X152522397Y-54888857D01*
X152280213Y-54819392D01*
X151479605Y-55620000D01*
X151120395Y-55620000D01*
X150319787Y-54819392D01*
X150077603Y-54888857D01*
X149890856Y-55412302D01*
X141760000Y-55412302D01*
X141760000Y-54639787D01*
X150499392Y-54639787D01*
X151300000Y-55440395D01*
X152100608Y-54639787D01*
X152031143Y-54397603D01*
X151507698Y-54210856D01*
X150952632Y-54238638D01*
X150568857Y-54397603D01*
X150499392Y-54639787D01*
X141760000Y-54639787D01*
X141760000Y-54000000D01*
X141702148Y-53709161D01*
X141537401Y-53462599D01*
X141290839Y-53297852D01*
X141000000Y-53240000D01*
X136314802Y-53240000D01*
X135760000Y-52685198D01*
X135760000Y-45738094D01*
X136272355Y-45738094D01*
X136838561Y-47108418D01*
X137886068Y-48157754D01*
X139255402Y-48726351D01*
X140738094Y-48727645D01*
X141829559Y-48276661D01*
X149902758Y-48276661D01*
X150114990Y-48790303D01*
X150507630Y-49183629D01*
X151020900Y-49396757D01*
X151576661Y-49397242D01*
X152090303Y-49185010D01*
X152483629Y-48792370D01*
X152696757Y-48279100D01*
X152697242Y-47723339D01*
X152485010Y-47209697D01*
X152092370Y-46816371D01*
X151579100Y-46603243D01*
X151023339Y-46602758D01*
X150509697Y-46814990D01*
X150116371Y-47207630D01*
X149903243Y-47720900D01*
X149902758Y-48276661D01*
X141829559Y-48276661D01*
X142108418Y-48161439D01*
X143157754Y-47113932D01*
X143726351Y-45744598D01*
X143727645Y-44261906D01*
X143469336Y-43636748D01*
X189983651Y-43636748D01*
X190289922Y-44377981D01*
X190856537Y-44945585D01*
X191597233Y-45253150D01*
X192399248Y-45253849D01*
X193140481Y-44947578D01*
X193708085Y-44380963D01*
X194015650Y-43640267D01*
X194016349Y-42838252D01*
X193710078Y-42097019D01*
X193143463Y-41529415D01*
X192402767Y-41221850D01*
X191600752Y-41221151D01*
X190859519Y-41527422D01*
X190291915Y-42094037D01*
X189984350Y-42834733D01*
X189983651Y-43636748D01*
X143469336Y-43636748D01*
X143161439Y-42891582D01*
X142113932Y-41842246D01*
X140744598Y-41273649D01*
X139261906Y-41272355D01*
X137891582Y-41838561D01*
X136842246Y-42886068D01*
X136273649Y-44255402D01*
X136272355Y-45738094D01*
X135760000Y-45738094D01*
X135760000Y-45000000D01*
X135702148Y-44709161D01*
X135537401Y-44462599D01*
X134537401Y-43462599D01*
X134290839Y-43297852D01*
X134000000Y-43240000D01*
X129000000Y-43240000D01*
X128709161Y-43297852D01*
X128462599Y-43462599D01*
X127462599Y-44462599D01*
X127297852Y-44709161D01*
X127240000Y-45000000D01*
X127240000Y-49685198D01*
X126924509Y-50000689D01*
X110257578Y-50037171D01*
X110225656Y-49959914D01*
X109808283Y-49541812D01*
X109760688Y-49522049D01*
X109830353Y-49303958D01*
X108966000Y-48439605D01*
X108101647Y-49303958D01*
X108171181Y-49521640D01*
X108125914Y-49540344D01*
X107707812Y-49957717D01*
X107481258Y-50503319D01*
X107480743Y-51094089D01*
X107315000Y-51094089D01*
X107315000Y-48031279D01*
X107469282Y-48031279D01*
X107495685Y-48621458D01*
X107670741Y-49044080D01*
X107922042Y-49124353D01*
X108786395Y-48260000D01*
X109145605Y-48260000D01*
X110009958Y-49124353D01*
X110261259Y-49044080D01*
X110462718Y-48488721D01*
X110436315Y-47898542D01*
X110261259Y-47475920D01*
X110009958Y-47395647D01*
X109145605Y-48260000D01*
X108786395Y-48260000D01*
X107922042Y-47395647D01*
X107670741Y-47475920D01*
X107469282Y-48031279D01*
X107315000Y-48031279D01*
X107315000Y-46014089D01*
X107480743Y-46014089D01*
X107706344Y-46560086D01*
X108123717Y-46978188D01*
X108171312Y-46997951D01*
X108101647Y-47216042D01*
X108966000Y-48080395D01*
X109830353Y-47216042D01*
X109760819Y-46998360D01*
X109806086Y-46979656D01*
X110224188Y-46562283D01*
X110450742Y-46016681D01*
X110451257Y-45425911D01*
X110225656Y-44879914D01*
X109808283Y-44461812D01*
X109262681Y-44235258D01*
X108671911Y-44234743D01*
X108125914Y-44460344D01*
X107707812Y-44877717D01*
X107481258Y-45423319D01*
X107480743Y-46014089D01*
X107315000Y-46014089D01*
X107315000Y-40754097D01*
X177350673Y-40754097D01*
X177637650Y-41448635D01*
X178168570Y-41980483D01*
X178862606Y-42268672D01*
X179614097Y-42269327D01*
X180308635Y-41982350D01*
X180840483Y-41451430D01*
X181128672Y-40757394D01*
X181129327Y-40005903D01*
X180842350Y-39311365D01*
X180311430Y-38779517D01*
X179617394Y-38491328D01*
X178865903Y-38490673D01*
X178171365Y-38777650D01*
X177639517Y-39308570D01*
X177351328Y-40002606D01*
X177350673Y-40754097D01*
X107315000Y-40754097D01*
X107315000Y-38227000D01*
X200025000Y-38227000D01*
X200025000Y-104013000D01*
X200025000Y-104013000D01*
G37*
X200025000Y-104013000D02*
X107315000Y-104013000D01*
X107315000Y-102264383D01*
X128664769Y-102264383D01*
X128867582Y-102755229D01*
X129242796Y-103131098D01*
X129733287Y-103334768D01*
X130264383Y-103335231D01*
X130755229Y-103132418D01*
X131131098Y-102757204D01*
X131307106Y-102333329D01*
X136327284Y-102333329D01*
X136470203Y-102678396D01*
X136817337Y-103066764D01*
X137286669Y-103292727D01*
X137493000Y-103170206D01*
X137493000Y-102127000D01*
X137747000Y-102127000D01*
X137747000Y-103170206D01*
X137953331Y-103292727D01*
X138422663Y-103066764D01*
X138769797Y-102678396D01*
X138912716Y-102333329D01*
X138871501Y-102264383D01*
X140664769Y-102264383D01*
X140867582Y-102755229D01*
X141242796Y-103131098D01*
X141733287Y-103334768D01*
X142264383Y-103335231D01*
X142755229Y-103132418D01*
X143131098Y-102757204D01*
X143307106Y-102333329D01*
X148327284Y-102333329D01*
X148470203Y-102678396D01*
X148817337Y-103066764D01*
X149286669Y-103292727D01*
X149493000Y-103170206D01*
X149493000Y-102127000D01*
X149747000Y-102127000D01*
X149747000Y-103170206D01*
X149953331Y-103292727D01*
X150422663Y-103066764D01*
X150769797Y-102678396D01*
X150912716Y-102333329D01*
X150789374Y-102127000D01*
X149747000Y-102127000D01*
X149493000Y-102127000D01*
X148450626Y-102127000D01*
X148327284Y-102333329D01*
X143307106Y-102333329D01*
X143334768Y-102266713D01*
X143335231Y-101735617D01*
X143306744Y-101666671D01*
X148327284Y-101666671D01*
X148450626Y-101873000D01*
X149493000Y-101873000D01*
X149493000Y-100829794D01*
X149747000Y-100829794D01*
X149747000Y-101873000D01*
X150789374Y-101873000D01*
X150912716Y-101666671D01*
X150769797Y-101321604D01*
X150422663Y-100933236D01*
X149953331Y-100707273D01*
X149747000Y-100829794D01*
X149493000Y-100829794D01*
X149286669Y-100707273D01*
X148817337Y-100933236D01*
X148470203Y-101321604D01*
X148327284Y-101666671D01*
X143306744Y-101666671D01*
X143132418Y-101244771D01*
X142757204Y-100868902D01*
X142266713Y-100665232D01*
X141735617Y-100664769D01*
X141244771Y-100867582D01*
X140868902Y-101242796D01*
X140665232Y-101733287D01*
X140664769Y-102264383D01*
X138871501Y-102264383D01*
X138789374Y-102127000D01*
X137747000Y-102127000D01*
X137493000Y-102127000D01*
X136450626Y-102127000D01*
X136327284Y-102333329D01*
X131307106Y-102333329D01*
X131334768Y-102266713D01*
X131335231Y-101735617D01*
X131306744Y-101666671D01*
X136327284Y-101666671D01*
X136450626Y-101873000D01*
X137493000Y-101873000D01*
X137493000Y-100829794D01*
X137747000Y-100829794D01*
X137747000Y-101873000D01*
X138789374Y-101873000D01*
X138912716Y-101666671D01*
X138769797Y-101321604D01*
X138422663Y-100933236D01*
X137953331Y-100707273D01*
X137747000Y-100829794D01*
X137493000Y-100829794D01*
X137286669Y-100707273D01*
X136817337Y-100933236D01*
X136470203Y-101321604D01*
X136327284Y-101666671D01*
X131306744Y-101666671D01*
X131132418Y-101244771D01*
X130757204Y-100868902D01*
X130266713Y-100665232D01*
X129735617Y-100664769D01*
X129244771Y-100867582D01*
X128868902Y-101242796D01*
X128665232Y-101733287D01*
X128664769Y-102264383D01*
X107315000Y-102264383D01*
X107315000Y-99915750D01*
X109925000Y-99915750D01*
X109925000Y-100656310D01*
X110021673Y-100889699D01*
X110200302Y-101068327D01*
X110433691Y-101165000D01*
X111174250Y-101165000D01*
X111333000Y-101006250D01*
X111333000Y-99757000D01*
X110083750Y-99757000D01*
X109925000Y-99915750D01*
X107315000Y-99915750D01*
X107315000Y-98603690D01*
X109925000Y-98603690D01*
X109925000Y-99344250D01*
X110083750Y-99503000D01*
X111333000Y-99503000D01*
X111333000Y-98253750D01*
X111587000Y-98253750D01*
X111587000Y-99503000D01*
X111607000Y-99503000D01*
X111607000Y-99757000D01*
X111587000Y-99757000D01*
X111587000Y-101006250D01*
X111745750Y-101165000D01*
X112486309Y-101165000D01*
X112719698Y-101068327D01*
X112898327Y-100889699D01*
X112954119Y-100755006D01*
X113129357Y-100930551D01*
X113693330Y-101164733D01*
X114303991Y-101165265D01*
X114868371Y-100932068D01*
X115300551Y-100500643D01*
X115534733Y-99936670D01*
X115534751Y-99915750D01*
X121495000Y-99915750D01*
X121495000Y-100656310D01*
X121591673Y-100889699D01*
X121770302Y-101068327D01*
X122003691Y-101165000D01*
X122744250Y-101165000D01*
X122903000Y-101006250D01*
X122903000Y-99757000D01*
X121653750Y-99757000D01*
X121495000Y-99915750D01*
X115534751Y-99915750D01*
X115535265Y-99326009D01*
X115302068Y-98761629D01*
X115144405Y-98603690D01*
X121495000Y-98603690D01*
X121495000Y-99344250D01*
X121653750Y-99503000D01*
X122903000Y-99503000D01*
X122903000Y-98253750D01*
X123157000Y-98253750D01*
X123157000Y-99503000D01*
X123177000Y-99503000D01*
X123177000Y-99757000D01*
X123157000Y-99757000D01*
X123157000Y-101006250D01*
X123315750Y-101165000D01*
X124056309Y-101165000D01*
X124289698Y-101068327D01*
X124468327Y-100889699D01*
X124524119Y-100755006D01*
X124699357Y-100930551D01*
X125263330Y-101164733D01*
X125873991Y-101165265D01*
X126438371Y-100932068D01*
X126870551Y-100500643D01*
X127104733Y-99936670D01*
X127105265Y-99326009D01*
X126872068Y-98761629D01*
X126440643Y-98329449D01*
X125876670Y-98095267D01*
X125266009Y-98094735D01*
X124701629Y-98327932D01*
X124524159Y-98505092D01*
X124468327Y-98370301D01*
X124289698Y-98191673D01*
X124056309Y-98095000D01*
X123315750Y-98095000D01*
X123157000Y-98253750D01*
X122903000Y-98253750D01*
X122744250Y-98095000D01*
X122003691Y-98095000D01*
X121770302Y-98191673D01*
X121591673Y-98370301D01*
X121495000Y-98603690D01*
X115144405Y-98603690D01*
X114870643Y-98329449D01*
X114306670Y-98095267D01*
X113696009Y-98094735D01*
X113131629Y-98327932D01*
X112954159Y-98505092D01*
X112898327Y-98370301D01*
X112719698Y-98191673D01*
X112486309Y-98095000D01*
X111745750Y-98095000D01*
X111587000Y-98253750D01*
X111333000Y-98253750D01*
X111174250Y-98095000D01*
X110433691Y-98095000D01*
X110200302Y-98191673D01*
X110021673Y-98370301D01*
X109925000Y-98603690D01*
X107315000Y-98603690D01*
X107315000Y-97294089D01*
X129014743Y-97294089D01*
X129240344Y-97840086D01*
X129657717Y-98258188D01*
X130203319Y-98484742D01*
X130794089Y-98485257D01*
X131340086Y-98259656D01*
X131758188Y-97842283D01*
X131984742Y-97296681D01*
X131984744Y-97294089D01*
X135514743Y-97294089D01*
X135740344Y-97840086D01*
X136157717Y-98258188D01*
X136703319Y-98484742D01*
X137294089Y-98485257D01*
X137840086Y-98259656D01*
X138258188Y-97842283D01*
X138484742Y-97296681D01*
X138484744Y-97294089D01*
X141014743Y-97294089D01*
X141240344Y-97840086D01*
X141657717Y-98258188D01*
X142203319Y-98484742D01*
X142794089Y-98485257D01*
X143340086Y-98259656D01*
X143758188Y-97842283D01*
X143984742Y-97296681D01*
X143984744Y-97294089D01*
X147514743Y-97294089D01*
X147740344Y-97840086D01*
X148157717Y-98258188D01*
X148703319Y-98484742D01*
X149294089Y-98485257D01*
X149840086Y-98259656D01*
X150258188Y-97842283D01*
X150484742Y-97296681D01*
X150485257Y-96705911D01*
X150259656Y-96159914D01*
X149842283Y-95741812D01*
X149833330Y-95738094D01*
X186272355Y-95738094D01*
X186838561Y-97108418D01*
X187886068Y-98157754D01*
X189255402Y-98726351D01*
X190738094Y-98727645D01*
X192108418Y-98161439D01*
X193157754Y-97113932D01*
X193726351Y-95744598D01*
X193727645Y-94261906D01*
X193161439Y-92891582D01*
X192113932Y-91842246D01*
X190744598Y-91273649D01*
X189261906Y-91272355D01*
X187891582Y-91838561D01*
X186842246Y-92886068D01*
X186273649Y-94255402D01*
X186272355Y-95738094D01*
X149833330Y-95738094D01*
X149296681Y-95515258D01*
X148705911Y-95514743D01*
X148159914Y-95740344D01*
X147741812Y-96157717D01*
X147515258Y-96703319D01*
X147514743Y-97294089D01*
X143984744Y-97294089D01*
X143985257Y-96705911D01*
X143759656Y-96159914D01*
X143342283Y-95741812D01*
X142796681Y-95515258D01*
X142205911Y-95514743D01*
X141659914Y-95740344D01*
X141241812Y-96157717D01*
X141015258Y-96703319D01*
X141014743Y-97294089D01*
X138484744Y-97294089D01*
X138485257Y-96705911D01*
X138259656Y-96159914D01*
X137842283Y-95741812D01*
X137296681Y-95515258D01*
X136705911Y-95514743D01*
X136159914Y-95740344D01*
X135741812Y-96157717D01*
X135515258Y-96703319D01*
X135514743Y-97294089D01*
X131984744Y-97294089D01*
X131985257Y-96705911D01*
X131759656Y-96159914D01*
X131342283Y-95741812D01*
X130796681Y-95515258D01*
X130205911Y-95514743D01*
X129659914Y-95740344D01*
X129241812Y-96157717D01*
X129015258Y-96703319D01*
X129014743Y-97294089D01*
X107315000Y-97294089D01*
X107315000Y-93264383D01*
X107664769Y-93264383D01*
X107867582Y-93755229D01*
X108242796Y-94131098D01*
X108733287Y-94334768D01*
X109264383Y-94335231D01*
X109755229Y-94132418D01*
X110131098Y-93757204D01*
X110334768Y-93266713D01*
X110335000Y-93000000D01*
X115258846Y-93000000D01*
X115360467Y-93510882D01*
X115649858Y-93943988D01*
X116082964Y-94233379D01*
X116593846Y-94335000D01*
X116646154Y-94335000D01*
X117157036Y-94233379D01*
X117590142Y-93943988D01*
X117879533Y-93510882D01*
X117928564Y-93264383D01*
X118664769Y-93264383D01*
X118867582Y-93755229D01*
X119242796Y-94131098D01*
X119733287Y-94334768D01*
X120264383Y-94335231D01*
X120755229Y-94132418D01*
X121131098Y-93757204D01*
X121334768Y-93266713D01*
X121335000Y-93000000D01*
X126258846Y-93000000D01*
X126360467Y-93510882D01*
X126649858Y-93943988D01*
X127082964Y-94233379D01*
X127593846Y-94335000D01*
X127646154Y-94335000D01*
X128157036Y-94233379D01*
X128590142Y-93943988D01*
X128879533Y-93510882D01*
X128981154Y-93000000D01*
X128940196Y-92794089D01*
X129014743Y-92794089D01*
X129240344Y-93340086D01*
X129657717Y-93758188D01*
X130203319Y-93984742D01*
X130794089Y-93985257D01*
X131340086Y-93759656D01*
X131758188Y-93342283D01*
X131984742Y-92796681D01*
X131984744Y-92794089D01*
X135514743Y-92794089D01*
X135740344Y-93340086D01*
X136157717Y-93758188D01*
X136703319Y-93984742D01*
X137294089Y-93985257D01*
X137840086Y-93759656D01*
X138258188Y-93342283D01*
X138484742Y-92796681D01*
X138484744Y-92794089D01*
X141014743Y-92794089D01*
X141240344Y-93340086D01*
X141657717Y-93758188D01*
X142203319Y-93984742D01*
X142794089Y-93985257D01*
X143340086Y-93759656D01*
X143758188Y-93342283D01*
X143984742Y-92796681D01*
X143984744Y-92794089D01*
X147514743Y-92794089D01*
X147740344Y-93340086D01*
X148157717Y-93758188D01*
X148703319Y-93984742D01*
X149294089Y-93985257D01*
X149840086Y-93759656D01*
X150258188Y-93342283D01*
X150419695Y-92953331D01*
X150707273Y-92953331D01*
X150933236Y-93422663D01*
X151321604Y-93769797D01*
X151666671Y-93912716D01*
X151873000Y-93789374D01*
X151873000Y-92747000D01*
X152127000Y-92747000D01*
X152127000Y-93789374D01*
X152333329Y-93912716D01*
X152678396Y-93769797D01*
X153066764Y-93422663D01*
X153292727Y-92953331D01*
X153170206Y-92747000D01*
X152127000Y-92747000D01*
X151873000Y-92747000D01*
X150829794Y-92747000D01*
X150707273Y-92953331D01*
X150419695Y-92953331D01*
X150484742Y-92796681D01*
X150485186Y-92286669D01*
X150707273Y-92286669D01*
X150829794Y-92493000D01*
X151873000Y-92493000D01*
X151873000Y-91450626D01*
X152127000Y-91450626D01*
X152127000Y-92493000D01*
X153170206Y-92493000D01*
X153292727Y-92286669D01*
X153066764Y-91817337D01*
X152678396Y-91470203D01*
X152333329Y-91327284D01*
X152127000Y-91450626D01*
X151873000Y-91450626D01*
X151666671Y-91327284D01*
X151321604Y-91470203D01*
X150933236Y-91817337D01*
X150707273Y-92286669D01*
X150485186Y-92286669D01*
X150485257Y-92205911D01*
X150259656Y-91659914D01*
X149842283Y-91241812D01*
X149296681Y-91015258D01*
X148705911Y-91014743D01*
X148159914Y-91240344D01*
X147741812Y-91657717D01*
X147515258Y-92203319D01*
X147514743Y-92794089D01*
X143984744Y-92794089D01*
X143985257Y-92205911D01*
X143759656Y-91659914D01*
X143342283Y-91241812D01*
X142796681Y-91015258D01*
X142205911Y-91014743D01*
X141659914Y-91240344D01*
X141241812Y-91657717D01*
X141015258Y-92203319D01*
X141014743Y-92794089D01*
X138484744Y-92794089D01*
X138485257Y-92205911D01*
X138259656Y-91659914D01*
X137842283Y-91241812D01*
X137296681Y-91015258D01*
X136705911Y-91014743D01*
X136159914Y-91240344D01*
X135741812Y-91657717D01*
X135515258Y-92203319D01*
X135514743Y-92794089D01*
X131984744Y-92794089D01*
X131985257Y-92205911D01*
X131759656Y-91659914D01*
X131342283Y-91241812D01*
X130796681Y-91015258D01*
X130205911Y-91014743D01*
X129659914Y-91240344D01*
X129241812Y-91657717D01*
X129015258Y-92203319D01*
X129014743Y-92794089D01*
X128940196Y-92794089D01*
X128879533Y-92489118D01*
X128590142Y-92056012D01*
X128157036Y-91766621D01*
X127646154Y-91665000D01*
X127593846Y-91665000D01*
X127082964Y-91766621D01*
X126649858Y-92056012D01*
X126360467Y-92489118D01*
X126258846Y-93000000D01*
X121335000Y-93000000D01*
X121335231Y-92735617D01*
X121132418Y-92244771D01*
X120757204Y-91868902D01*
X120266713Y-91665232D01*
X119735617Y-91664769D01*
X119244771Y-91867582D01*
X118868902Y-92242796D01*
X118665232Y-92733287D01*
X118664769Y-93264383D01*
X117928564Y-93264383D01*
X117981154Y-93000000D01*
X117879533Y-92489118D01*
X117590142Y-92056012D01*
X117157036Y-91766621D01*
X116646154Y-91665000D01*
X116593846Y-91665000D01*
X116082964Y-91766621D01*
X115649858Y-92056012D01*
X115360467Y-92489118D01*
X115258846Y-93000000D01*
X110335000Y-93000000D01*
X110335231Y-92735617D01*
X110132418Y-92244771D01*
X109757204Y-91868902D01*
X109266713Y-91665232D01*
X108735617Y-91664769D01*
X108244771Y-91867582D01*
X107868902Y-92242796D01*
X107665232Y-92733287D01*
X107664769Y-93264383D01*
X107315000Y-93264383D01*
X107315000Y-84200000D01*
X134552560Y-84200000D01*
X134552560Y-85800000D01*
X134596838Y-86035317D01*
X134735910Y-86251441D01*
X134948110Y-86396431D01*
X135200000Y-86447440D01*
X136800000Y-86447440D01*
X137035317Y-86403162D01*
X137251441Y-86264090D01*
X137396431Y-86051890D01*
X137447440Y-85800000D01*
X137447440Y-85000000D01*
X142156887Y-85000000D01*
X142266120Y-85549151D01*
X142577189Y-86014698D01*
X143042736Y-86325767D01*
X143591887Y-86435000D01*
X143648113Y-86435000D01*
X144197264Y-86325767D01*
X144662811Y-86014698D01*
X144973880Y-85549151D01*
X145030523Y-85264383D01*
X150664769Y-85264383D01*
X150867582Y-85755229D01*
X151242796Y-86131098D01*
X151733287Y-86334768D01*
X152264383Y-86335231D01*
X152755229Y-86132418D01*
X153131098Y-85757204D01*
X153334768Y-85266713D01*
X153335231Y-84735617D01*
X153254404Y-84540000D01*
X196485907Y-84540000D01*
X196598946Y-85108285D01*
X196920853Y-85590054D01*
X197402622Y-85911961D01*
X197970907Y-86025000D01*
X198029093Y-86025000D01*
X198597378Y-85911961D01*
X199079147Y-85590054D01*
X199401054Y-85108285D01*
X199514093Y-84540000D01*
X199401054Y-83971715D01*
X199079147Y-83489946D01*
X199037548Y-83462150D01*
X199085317Y-83453162D01*
X199301441Y-83314090D01*
X199446431Y-83101890D01*
X199497440Y-82850000D01*
X199497440Y-81150000D01*
X199453162Y-80914683D01*
X199314090Y-80698559D01*
X199101890Y-80553569D01*
X198850000Y-80502560D01*
X197150000Y-80502560D01*
X196914683Y-80546838D01*
X196698559Y-80685910D01*
X196553569Y-80898110D01*
X196502560Y-81150000D01*
X196502560Y-82850000D01*
X196546838Y-83085317D01*
X196685910Y-83301441D01*
X196898110Y-83446431D01*
X196965541Y-83460086D01*
X196920853Y-83489946D01*
X196598946Y-83971715D01*
X196485907Y-84540000D01*
X153254404Y-84540000D01*
X153132418Y-84244771D01*
X152757204Y-83868902D01*
X152266713Y-83665232D01*
X151735617Y-83664769D01*
X151244771Y-83867582D01*
X150868902Y-84242796D01*
X150665232Y-84733287D01*
X150664769Y-85264383D01*
X145030523Y-85264383D01*
X145083113Y-85000000D01*
X144973880Y-84450849D01*
X144662811Y-83985302D01*
X144197264Y-83674233D01*
X143648113Y-83565000D01*
X143591887Y-83565000D01*
X143042736Y-83674233D01*
X142577189Y-83985302D01*
X142266120Y-84450849D01*
X142156887Y-85000000D01*
X137447440Y-85000000D01*
X137447440Y-84200000D01*
X137403162Y-83964683D01*
X137264090Y-83748559D01*
X137051890Y-83603569D01*
X136800000Y-83552560D01*
X135200000Y-83552560D01*
X134964683Y-83596838D01*
X134748559Y-83735910D01*
X134603569Y-83948110D01*
X134552560Y-84200000D01*
X107315000Y-84200000D01*
X107315000Y-68874089D01*
X107480743Y-68874089D01*
X107706344Y-69420086D01*
X108123717Y-69838188D01*
X108151557Y-69849748D01*
X108125914Y-69860344D01*
X107707812Y-70277717D01*
X107481258Y-70823319D01*
X107480743Y-71414089D01*
X107706344Y-71960086D01*
X108123717Y-72378188D01*
X108151557Y-72389748D01*
X108125914Y-72400344D01*
X107707812Y-72817717D01*
X107481258Y-73363319D01*
X107480743Y-73954089D01*
X107706344Y-74500086D01*
X108123717Y-74918188D01*
X108151557Y-74929748D01*
X108125914Y-74940344D01*
X107707812Y-75357717D01*
X107481258Y-75903319D01*
X107480743Y-76494089D01*
X107706344Y-77040086D01*
X108123717Y-77458188D01*
X108151557Y-77469748D01*
X108125914Y-77480344D01*
X107707812Y-77897717D01*
X107481258Y-78443319D01*
X107480743Y-79034089D01*
X107706344Y-79580086D01*
X108123717Y-79998188D01*
X108151557Y-80009748D01*
X108125914Y-80020344D01*
X107707812Y-80437717D01*
X107481258Y-80983319D01*
X107480743Y-81574089D01*
X107706344Y-82120086D01*
X108123717Y-82538188D01*
X108669319Y-82764742D01*
X109260089Y-82765257D01*
X109806086Y-82539656D01*
X110224188Y-82122283D01*
X110450742Y-81576681D01*
X110451257Y-80985911D01*
X110225656Y-80439914D01*
X109808283Y-80021812D01*
X109780443Y-80010252D01*
X109806086Y-79999656D01*
X110224188Y-79582283D01*
X110450742Y-79036681D01*
X110451257Y-78445911D01*
X110225656Y-77899914D01*
X109808283Y-77481812D01*
X109780443Y-77470252D01*
X109806086Y-77459656D01*
X110224188Y-77042283D01*
X110450742Y-76496681D01*
X110451257Y-75905911D01*
X110225656Y-75359914D01*
X109808283Y-74941812D01*
X109780443Y-74930252D01*
X109806086Y-74919656D01*
X110224188Y-74502283D01*
X110450742Y-73956681D01*
X110451257Y-73365911D01*
X110225656Y-72819914D01*
X109808283Y-72401812D01*
X109780443Y-72390252D01*
X109806086Y-72379656D01*
X110224188Y-71962283D01*
X110450742Y-71416681D01*
X110451257Y-70825911D01*
X110225656Y-70279914D01*
X109808283Y-69861812D01*
X109780443Y-69850252D01*
X109806086Y-69839656D01*
X110224188Y-69422283D01*
X110450742Y-68876681D01*
X110451257Y-68285911D01*
X110225656Y-67739914D01*
X109808283Y-67321812D01*
X109760688Y-67302049D01*
X109830353Y-67083958D01*
X108966000Y-66219605D01*
X108101647Y-67083958D01*
X108171181Y-67301640D01*
X108125914Y-67320344D01*
X107707812Y-67737717D01*
X107481258Y-68283319D01*
X107480743Y-68874089D01*
X107315000Y-68874089D01*
X107315000Y-65811279D01*
X107469282Y-65811279D01*
X107495685Y-66401458D01*
X107670741Y-66824080D01*
X107922042Y-66904353D01*
X108786395Y-66040000D01*
X109145605Y-66040000D01*
X110009958Y-66904353D01*
X110261259Y-66824080D01*
X110462718Y-66268721D01*
X110436315Y-65678542D01*
X110261259Y-65255920D01*
X110009958Y-65175647D01*
X109145605Y-66040000D01*
X108786395Y-66040000D01*
X107922042Y-65175647D01*
X107670741Y-65255920D01*
X107469282Y-65811279D01*
X107315000Y-65811279D01*
X107315000Y-51094089D01*
X107480743Y-51094089D01*
X107706344Y-51640086D01*
X108123717Y-52058188D01*
X108151557Y-52069748D01*
X108125914Y-52080344D01*
X107707812Y-52497717D01*
X107481258Y-53043319D01*
X107480743Y-53634089D01*
X107706344Y-54180086D01*
X108123717Y-54598188D01*
X108151557Y-54609748D01*
X108125914Y-54620344D01*
X107707812Y-55037717D01*
X107481258Y-55583319D01*
X107480743Y-56174089D01*
X107706344Y-56720086D01*
X108123717Y-57138188D01*
X108151557Y-57149748D01*
X108125914Y-57160344D01*
X107707812Y-57577717D01*
X107481258Y-58123319D01*
X107480743Y-58714089D01*
X107706344Y-59260086D01*
X108123717Y-59678188D01*
X108151557Y-59689748D01*
X108125914Y-59700344D01*
X107707812Y-60117717D01*
X107481258Y-60663319D01*
X107480743Y-61254089D01*
X107706344Y-61800086D01*
X108123717Y-62218188D01*
X108151557Y-62229748D01*
X108125914Y-62240344D01*
X107707812Y-62657717D01*
X107481258Y-63203319D01*
X107480743Y-63794089D01*
X107706344Y-64340086D01*
X108123717Y-64758188D01*
X108171312Y-64777951D01*
X108101647Y-64996042D01*
X108966000Y-65860395D01*
X109830353Y-64996042D01*
X109760819Y-64778360D01*
X109806086Y-64759656D01*
X110224188Y-64342283D01*
X110450742Y-63796681D01*
X110451257Y-63205911D01*
X110225656Y-62659914D01*
X109808283Y-62241812D01*
X109780443Y-62230252D01*
X109806086Y-62219656D01*
X110224188Y-61802283D01*
X110450742Y-61256681D01*
X110450744Y-61254089D01*
X130340743Y-61254089D01*
X130566344Y-61800086D01*
X130983717Y-62218188D01*
X131011557Y-62229748D01*
X130985914Y-62240344D01*
X130567812Y-62657717D01*
X130341258Y-63203319D01*
X130340743Y-63794089D01*
X130566344Y-64340086D01*
X130983717Y-64758188D01*
X131011557Y-64769748D01*
X130985914Y-64780344D01*
X130567812Y-65197717D01*
X130341258Y-65743319D01*
X130340743Y-66334089D01*
X130566344Y-66880086D01*
X130983717Y-67298188D01*
X131011557Y-67309748D01*
X130985914Y-67320344D01*
X130567812Y-67737717D01*
X130341258Y-68283319D01*
X130340743Y-68874089D01*
X130566344Y-69420086D01*
X130983717Y-69838188D01*
X131011557Y-69849748D01*
X130985914Y-69860344D01*
X130567812Y-70277717D01*
X130341258Y-70823319D01*
X130340743Y-71414089D01*
X130566344Y-71960086D01*
X130983717Y-72378188D01*
X131011557Y-72389748D01*
X130985914Y-72400344D01*
X130567812Y-72817717D01*
X130341258Y-73363319D01*
X130340743Y-73954089D01*
X130566344Y-74500086D01*
X130983717Y-74918188D01*
X131011557Y-74929748D01*
X130985914Y-74940344D01*
X130567812Y-75357717D01*
X130341258Y-75903319D01*
X130340743Y-76494089D01*
X130566344Y-77040086D01*
X130983717Y-77458188D01*
X131011557Y-77469748D01*
X130985914Y-77480344D01*
X130567812Y-77897717D01*
X130341258Y-78443319D01*
X130340743Y-79034089D01*
X130566344Y-79580086D01*
X130983717Y-79998188D01*
X131011557Y-80009748D01*
X130985914Y-80020344D01*
X130567812Y-80437717D01*
X130341258Y-80983319D01*
X130340743Y-81574089D01*
X130566344Y-82120086D01*
X130983717Y-82538188D01*
X131529319Y-82764742D01*
X132120089Y-82765257D01*
X132666086Y-82539656D01*
X133084188Y-82122283D01*
X133310742Y-81576681D01*
X133311257Y-80985911D01*
X133085656Y-80439914D01*
X132668283Y-80021812D01*
X132640443Y-80010252D01*
X132666086Y-79999656D01*
X133084188Y-79582283D01*
X133242925Y-79200000D01*
X134552560Y-79200000D01*
X134552560Y-80800000D01*
X134596838Y-81035317D01*
X134735910Y-81251441D01*
X134948110Y-81396431D01*
X135200000Y-81447440D01*
X136800000Y-81447440D01*
X137035317Y-81403162D01*
X137251441Y-81264090D01*
X137396431Y-81051890D01*
X137447440Y-80800000D01*
X137447440Y-80000000D01*
X142156887Y-80000000D01*
X142266120Y-80549151D01*
X142577189Y-81014698D01*
X143042736Y-81325767D01*
X143591887Y-81435000D01*
X143648113Y-81435000D01*
X144197264Y-81325767D01*
X144662811Y-81014698D01*
X144973880Y-80549151D01*
X145030523Y-80264383D01*
X145664769Y-80264383D01*
X145867582Y-80755229D01*
X146242796Y-81131098D01*
X146733287Y-81334768D01*
X147264383Y-81335231D01*
X147755229Y-81132418D01*
X148131098Y-80757204D01*
X148307106Y-80333329D01*
X153327284Y-80333329D01*
X153470203Y-80678396D01*
X153817337Y-81066764D01*
X154286669Y-81292727D01*
X154493000Y-81170206D01*
X154493000Y-80127000D01*
X154747000Y-80127000D01*
X154747000Y-81170206D01*
X154953331Y-81292727D01*
X155422663Y-81066764D01*
X155769797Y-80678396D01*
X155912716Y-80333329D01*
X155789374Y-80127000D01*
X154747000Y-80127000D01*
X154493000Y-80127000D01*
X153450626Y-80127000D01*
X153327284Y-80333329D01*
X148307106Y-80333329D01*
X148334768Y-80266713D01*
X148335231Y-79735617D01*
X148306744Y-79666671D01*
X153327284Y-79666671D01*
X153450626Y-79873000D01*
X154493000Y-79873000D01*
X154493000Y-78829794D01*
X154747000Y-78829794D01*
X154747000Y-79873000D01*
X155789374Y-79873000D01*
X155912716Y-79666671D01*
X155769797Y-79321604D01*
X155422663Y-78933236D01*
X154953331Y-78707273D01*
X154747000Y-78829794D01*
X154493000Y-78829794D01*
X154286669Y-78707273D01*
X153817337Y-78933236D01*
X153470203Y-79321604D01*
X153327284Y-79666671D01*
X148306744Y-79666671D01*
X148132418Y-79244771D01*
X147757204Y-78868902D01*
X147266713Y-78665232D01*
X146735617Y-78664769D01*
X146244771Y-78867582D01*
X145868902Y-79242796D01*
X145665232Y-79733287D01*
X145664769Y-80264383D01*
X145030523Y-80264383D01*
X145083113Y-80000000D01*
X144973880Y-79450849D01*
X144662811Y-78985302D01*
X144197264Y-78674233D01*
X143648113Y-78565000D01*
X143591887Y-78565000D01*
X143042736Y-78674233D01*
X142577189Y-78985302D01*
X142266120Y-79450849D01*
X142156887Y-80000000D01*
X137447440Y-80000000D01*
X137447440Y-79200000D01*
X137403162Y-78964683D01*
X137264090Y-78748559D01*
X137051890Y-78603569D01*
X136800000Y-78552560D01*
X135200000Y-78552560D01*
X134964683Y-78596838D01*
X134748559Y-78735910D01*
X134603569Y-78948110D01*
X134552560Y-79200000D01*
X133242925Y-79200000D01*
X133310742Y-79036681D01*
X133311257Y-78445911D01*
X133085656Y-77899914D01*
X132668283Y-77481812D01*
X132640443Y-77470252D01*
X132666086Y-77459656D01*
X133084188Y-77042283D01*
X133310742Y-76496681D01*
X133311257Y-75905911D01*
X133085656Y-75359914D01*
X132753323Y-75027000D01*
X141965000Y-75027000D01*
X141965000Y-75927000D01*
X142130446Y-76504752D01*
X142504394Y-76975212D01*
X143029914Y-77266756D01*
X143135260Y-77291036D01*
X143373000Y-77170378D01*
X143373000Y-75027000D01*
X141965000Y-75027000D01*
X132753323Y-75027000D01*
X132668283Y-74941812D01*
X132640443Y-74930252D01*
X132666086Y-74919656D01*
X133084188Y-74502283D01*
X133310742Y-73956681D01*
X133310814Y-73873000D01*
X141965000Y-73873000D01*
X141965000Y-74773000D01*
X143373000Y-74773000D01*
X143373000Y-72629622D01*
X143627000Y-72629622D01*
X143627000Y-74773000D01*
X143647000Y-74773000D01*
X143647000Y-75027000D01*
X143627000Y-75027000D01*
X143627000Y-77170378D01*
X143864740Y-77291036D01*
X143970086Y-77266756D01*
X144495606Y-76975212D01*
X144738520Y-76669604D01*
X144914591Y-76933113D01*
X145412581Y-77265859D01*
X146000000Y-77382704D01*
X146587419Y-77265859D01*
X147085409Y-76933113D01*
X147250000Y-76686785D01*
X147414591Y-76933113D01*
X147912581Y-77265859D01*
X148500000Y-77382704D01*
X149087419Y-77265859D01*
X149485305Y-77000000D01*
X166078071Y-77000000D01*
X166221558Y-77721358D01*
X166630175Y-78332896D01*
X167241713Y-78741513D01*
X167963071Y-78885000D01*
X168036929Y-78885000D01*
X168758287Y-78741513D01*
X169369825Y-78332896D01*
X169759304Y-77750000D01*
X171600921Y-77750000D01*
X171600921Y-80250000D01*
X171679506Y-80667641D01*
X171926331Y-81051219D01*
X172302944Y-81308548D01*
X172750000Y-81399079D01*
X175250000Y-81399079D01*
X175667641Y-81320494D01*
X176051219Y-81073669D01*
X176308548Y-80697056D01*
X176399079Y-80250000D01*
X176399079Y-77750000D01*
X176320494Y-77332359D01*
X176073669Y-76948781D01*
X175697056Y-76691452D01*
X175250000Y-76600921D01*
X172750000Y-76600921D01*
X172332359Y-76679506D01*
X171948781Y-76926331D01*
X171691452Y-77302944D01*
X171600921Y-77750000D01*
X169759304Y-77750000D01*
X169778442Y-77721358D01*
X169921929Y-77000000D01*
X169778442Y-76278642D01*
X169369825Y-75667104D01*
X168758287Y-75258487D01*
X168036929Y-75115000D01*
X167963071Y-75115000D01*
X167241713Y-75258487D01*
X166630175Y-75667104D01*
X166221558Y-76278642D01*
X166078071Y-77000000D01*
X149485305Y-77000000D01*
X149585409Y-76933113D01*
X149918155Y-76435123D01*
X150035000Y-75847704D01*
X150035000Y-74593846D01*
X158665000Y-74593846D01*
X158665000Y-74646154D01*
X158766621Y-75157036D01*
X159056012Y-75590142D01*
X159489118Y-75879533D01*
X160000000Y-75981154D01*
X160510882Y-75879533D01*
X160943988Y-75590142D01*
X161233379Y-75157036D01*
X161335000Y-74646154D01*
X161335000Y-74593846D01*
X161334611Y-74591887D01*
X161565000Y-74591887D01*
X161565000Y-74648113D01*
X161674233Y-75197264D01*
X161985302Y-75662811D01*
X162450849Y-75973880D01*
X163000000Y-76083113D01*
X163549151Y-75973880D01*
X164014698Y-75662811D01*
X164325767Y-75197264D01*
X164435000Y-74648113D01*
X164435000Y-74591887D01*
X164325767Y-74042736D01*
X164014698Y-73577189D01*
X163549151Y-73266120D01*
X163000000Y-73156887D01*
X162450849Y-73266120D01*
X161985302Y-73577189D01*
X161674233Y-74042736D01*
X161565000Y-74591887D01*
X161334611Y-74591887D01*
X161233379Y-74082964D01*
X160943988Y-73649858D01*
X160510882Y-73360467D01*
X160000000Y-73258846D01*
X159489118Y-73360467D01*
X159056012Y-73649858D01*
X158766621Y-74082964D01*
X158665000Y-74593846D01*
X150035000Y-74593846D01*
X150035000Y-73952296D01*
X149918155Y-73364877D01*
X149865285Y-73285750D01*
X152865000Y-73285750D01*
X152865000Y-73626309D01*
X152961673Y-73859698D01*
X153140301Y-74038327D01*
X153373690Y-74135000D01*
X153714250Y-74135000D01*
X153873000Y-73976250D01*
X153873000Y-73127000D01*
X154127000Y-73127000D01*
X154127000Y-73976250D01*
X154285750Y-74135000D01*
X154626310Y-74135000D01*
X154859699Y-74038327D01*
X155038327Y-73859698D01*
X155135000Y-73626309D01*
X155135000Y-73285750D01*
X154976250Y-73127000D01*
X154127000Y-73127000D01*
X153873000Y-73127000D01*
X153023750Y-73127000D01*
X152865000Y-73285750D01*
X149865285Y-73285750D01*
X149585409Y-72866887D01*
X149087419Y-72534141D01*
X148500000Y-72417296D01*
X147912581Y-72534141D01*
X147414591Y-72866887D01*
X147250000Y-73113215D01*
X147085409Y-72866887D01*
X146587419Y-72534141D01*
X146000000Y-72417296D01*
X145412581Y-72534141D01*
X144914591Y-72866887D01*
X144738520Y-73130396D01*
X144495606Y-72824788D01*
X143970086Y-72533244D01*
X143864740Y-72508964D01*
X143627000Y-72629622D01*
X143373000Y-72629622D01*
X143135260Y-72508964D01*
X143029914Y-72533244D01*
X142504394Y-72824788D01*
X142130446Y-73295248D01*
X141965000Y-73873000D01*
X133310814Y-73873000D01*
X133311257Y-73365911D01*
X133085656Y-72819914D01*
X132668283Y-72401812D01*
X132640443Y-72390252D01*
X132666086Y-72379656D01*
X132672061Y-72373691D01*
X152865000Y-72373691D01*
X152865000Y-72714250D01*
X153023750Y-72873000D01*
X153873000Y-72873000D01*
X153873000Y-72023750D01*
X154127000Y-72023750D01*
X154127000Y-72873000D01*
X154976250Y-72873000D01*
X155001698Y-72847552D01*
X155043244Y-72864803D01*
X155405117Y-72865119D01*
X155404803Y-73224775D01*
X155577233Y-73642086D01*
X155896235Y-73961645D01*
X156313244Y-74134803D01*
X156764775Y-74135197D01*
X157182086Y-73962767D01*
X157501645Y-73643765D01*
X157674803Y-73226756D01*
X157675197Y-72775225D01*
X157502767Y-72357914D01*
X157183765Y-72038355D01*
X156766756Y-71865197D01*
X156404883Y-71864881D01*
X156405197Y-71505225D01*
X156232767Y-71087914D01*
X155913765Y-70768355D01*
X155496756Y-70595197D01*
X155045225Y-70594803D01*
X154627914Y-70767233D01*
X154308355Y-71086235D01*
X154135197Y-71503244D01*
X154134803Y-71954775D01*
X154152689Y-71998061D01*
X154127000Y-72023750D01*
X153873000Y-72023750D01*
X153714250Y-71865000D01*
X153373690Y-71865000D01*
X153140301Y-71961673D01*
X152961673Y-72140302D01*
X152865000Y-72373691D01*
X132672061Y-72373691D01*
X133084188Y-71962283D01*
X133310742Y-71416681D01*
X133311257Y-70825911D01*
X133085656Y-70279914D01*
X132668283Y-69861812D01*
X132640443Y-69850252D01*
X132666086Y-69839656D01*
X133084188Y-69422283D01*
X133310742Y-68876681D01*
X133311257Y-68285911D01*
X133311191Y-68285750D01*
X135515000Y-68285750D01*
X135515000Y-68976310D01*
X135611673Y-69209699D01*
X135790302Y-69388327D01*
X136023691Y-69485000D01*
X136714250Y-69485000D01*
X136873000Y-69326250D01*
X136873000Y-68127000D01*
X137127000Y-68127000D01*
X137127000Y-69326250D01*
X137285750Y-69485000D01*
X137976309Y-69485000D01*
X138209698Y-69388327D01*
X138388327Y-69209699D01*
X138485000Y-68976310D01*
X138485000Y-68285750D01*
X138463633Y-68264383D01*
X153664769Y-68264383D01*
X153867582Y-68755229D01*
X154242796Y-69131098D01*
X154733287Y-69334768D01*
X155264383Y-69335231D01*
X155755229Y-69132418D01*
X156131098Y-68757204D01*
X156334768Y-68266713D01*
X156335231Y-67735617D01*
X156140522Y-67264383D01*
X158664769Y-67264383D01*
X158867582Y-67755229D01*
X159242796Y-68131098D01*
X159733287Y-68334768D01*
X160264383Y-68335231D01*
X160755229Y-68132418D01*
X161131098Y-67757204D01*
X161334768Y-67266713D01*
X161335231Y-66735617D01*
X161132418Y-66244771D01*
X161087726Y-66200000D01*
X161552560Y-66200000D01*
X161552560Y-67800000D01*
X161596838Y-68035317D01*
X161735910Y-68251441D01*
X161948110Y-68396431D01*
X162200000Y-68447440D01*
X163372638Y-68447440D01*
X169462599Y-74537401D01*
X169709161Y-74702148D01*
X170000000Y-74760000D01*
X176685198Y-74760000D01*
X178218618Y-76293420D01*
X178078071Y-77000000D01*
X178221558Y-77721358D01*
X178630175Y-78332896D01*
X179241713Y-78741513D01*
X179963071Y-78885000D01*
X180036929Y-78885000D01*
X180758287Y-78741513D01*
X181369825Y-78332896D01*
X181778442Y-77721358D01*
X181921929Y-77000000D01*
X181778442Y-76278642D01*
X181369825Y-75667104D01*
X180758287Y-75258487D01*
X180036929Y-75115000D01*
X179963071Y-75115000D01*
X179318096Y-75243294D01*
X178236550Y-74161748D01*
X189983651Y-74161748D01*
X190289922Y-74902981D01*
X190856537Y-75470585D01*
X191597233Y-75778150D01*
X192399248Y-75778849D01*
X193140481Y-75472578D01*
X193708085Y-74905963D01*
X194015650Y-74165267D01*
X194016349Y-73363252D01*
X193710078Y-72622019D01*
X193143463Y-72054415D01*
X192402767Y-71746850D01*
X191600752Y-71746151D01*
X190859519Y-72052422D01*
X190291915Y-72619037D01*
X189984350Y-73359733D01*
X189983651Y-74161748D01*
X178236550Y-74161748D01*
X177537401Y-73462599D01*
X177290839Y-73297852D01*
X177000000Y-73240000D01*
X170314802Y-73240000D01*
X164447440Y-67372638D01*
X164447440Y-66200000D01*
X164403162Y-65964683D01*
X164264090Y-65748559D01*
X164051890Y-65603569D01*
X163800000Y-65552560D01*
X162200000Y-65552560D01*
X161964683Y-65596838D01*
X161748559Y-65735910D01*
X161603569Y-65948110D01*
X161552560Y-66200000D01*
X161087726Y-66200000D01*
X160757204Y-65868902D01*
X160266713Y-65665232D01*
X159735617Y-65664769D01*
X159244771Y-65867582D01*
X158868902Y-66242796D01*
X158665232Y-66733287D01*
X158664769Y-67264383D01*
X156140522Y-67264383D01*
X156132418Y-67244771D01*
X155757204Y-66868902D01*
X155266713Y-66665232D01*
X154735617Y-66664769D01*
X154244771Y-66867582D01*
X153868902Y-67242796D01*
X153665232Y-67733287D01*
X153664769Y-68264383D01*
X138463633Y-68264383D01*
X138326250Y-68127000D01*
X137127000Y-68127000D01*
X136873000Y-68127000D01*
X135673750Y-68127000D01*
X135515000Y-68285750D01*
X133311191Y-68285750D01*
X133085656Y-67739914D01*
X132668283Y-67321812D01*
X132640443Y-67310252D01*
X132666086Y-67299656D01*
X133084188Y-66882283D01*
X133310742Y-66336681D01*
X133311257Y-65745911D01*
X133085656Y-65199914D01*
X132668283Y-64781812D01*
X132640443Y-64770252D01*
X132666086Y-64759656D01*
X133084188Y-64342283D01*
X133310742Y-63796681D01*
X133311257Y-63205911D01*
X133085656Y-62659914D01*
X132668283Y-62241812D01*
X132640443Y-62230252D01*
X132666086Y-62219656D01*
X133084188Y-61802283D01*
X133310742Y-61256681D01*
X133311257Y-60665911D01*
X133085656Y-60119914D01*
X132668283Y-59701812D01*
X132620688Y-59682049D01*
X132690353Y-59463958D01*
X131826000Y-58599605D01*
X130961647Y-59463958D01*
X131031181Y-59681640D01*
X130985914Y-59700344D01*
X130567812Y-60117717D01*
X130341258Y-60663319D01*
X130340743Y-61254089D01*
X110450744Y-61254089D01*
X110451257Y-60665911D01*
X110225656Y-60119914D01*
X109808283Y-59701812D01*
X109780443Y-59690252D01*
X109806086Y-59679656D01*
X110224188Y-59262283D01*
X110450742Y-58716681D01*
X110451200Y-58191279D01*
X130329282Y-58191279D01*
X130355685Y-58781458D01*
X130530741Y-59204080D01*
X130782042Y-59284353D01*
X131646395Y-58420000D01*
X132005605Y-58420000D01*
X132869958Y-59284353D01*
X133121259Y-59204080D01*
X133322718Y-58648721D01*
X133296315Y-58058542D01*
X133205792Y-57840000D01*
X135485907Y-57840000D01*
X135598946Y-58408285D01*
X135920853Y-58890054D01*
X136250026Y-59110000D01*
X135920853Y-59329946D01*
X135598946Y-59811715D01*
X135485907Y-60380000D01*
X135598946Y-60948285D01*
X135920853Y-61430054D01*
X136250026Y-61650000D01*
X135920853Y-61869946D01*
X135598946Y-62351715D01*
X135485907Y-62920000D01*
X135598946Y-63488285D01*
X135920853Y-63970054D01*
X136250026Y-64190000D01*
X135920853Y-64409946D01*
X135598946Y-64891715D01*
X135485907Y-65460000D01*
X135598946Y-66028285D01*
X135920853Y-66510054D01*
X135964777Y-66539403D01*
X135790302Y-66611673D01*
X135611673Y-66790301D01*
X135515000Y-67023690D01*
X135515000Y-67714250D01*
X135673750Y-67873000D01*
X136873000Y-67873000D01*
X136873000Y-67853000D01*
X137127000Y-67853000D01*
X137127000Y-67873000D01*
X138326250Y-67873000D01*
X138485000Y-67714250D01*
X138485000Y-67023690D01*
X138388327Y-66790301D01*
X138209698Y-66611673D01*
X138035223Y-66539403D01*
X138079147Y-66510054D01*
X138401054Y-66028285D01*
X138514093Y-65460000D01*
X138401054Y-64891715D01*
X138079147Y-64409946D01*
X137749974Y-64190000D01*
X138079147Y-63970054D01*
X138163379Y-63843991D01*
X158464735Y-63843991D01*
X158697932Y-64408371D01*
X159129357Y-64840551D01*
X159693330Y-65074733D01*
X160303991Y-65075265D01*
X160868371Y-64842068D01*
X160910512Y-64800000D01*
X166078071Y-64800000D01*
X166221558Y-65521358D01*
X166630175Y-66132896D01*
X167241713Y-66541513D01*
X167963071Y-66685000D01*
X168036929Y-66685000D01*
X168758287Y-66541513D01*
X169369825Y-66132896D01*
X169778442Y-65521358D01*
X169921929Y-64800000D01*
X177576432Y-64800000D01*
X177757370Y-65709639D01*
X178272639Y-66480793D01*
X179043793Y-66996062D01*
X179953432Y-67177000D01*
X180046568Y-67177000D01*
X180956207Y-66996062D01*
X181727361Y-66480793D01*
X182242630Y-65709639D01*
X182423568Y-64800000D01*
X182391096Y-64636748D01*
X189983651Y-64636748D01*
X190289922Y-65377981D01*
X190856537Y-65945585D01*
X191597233Y-66253150D01*
X192399248Y-66253849D01*
X193140481Y-65947578D01*
X193708085Y-65380963D01*
X194015650Y-64640267D01*
X194016349Y-63838252D01*
X193710078Y-63097019D01*
X193143463Y-62529415D01*
X192402767Y-62221850D01*
X191600752Y-62221151D01*
X190859519Y-62527422D01*
X190291915Y-63094037D01*
X189984350Y-63834733D01*
X189983651Y-64636748D01*
X182391096Y-64636748D01*
X182242630Y-63890361D01*
X181727361Y-63119207D01*
X180956207Y-62603938D01*
X180046568Y-62423000D01*
X179953432Y-62423000D01*
X179043793Y-62603938D01*
X178272639Y-63119207D01*
X177757370Y-63890361D01*
X177576432Y-64800000D01*
X169921929Y-64800000D01*
X169778442Y-64078642D01*
X169369825Y-63467104D01*
X168758287Y-63058487D01*
X168036929Y-62915000D01*
X167963071Y-62915000D01*
X167241713Y-63058487D01*
X166630175Y-63467104D01*
X166221558Y-64078642D01*
X166078071Y-64800000D01*
X160910512Y-64800000D01*
X161300551Y-64410643D01*
X161534733Y-63846670D01*
X161535265Y-63236009D01*
X161302068Y-62671629D01*
X161124908Y-62494159D01*
X161259699Y-62438327D01*
X161438327Y-62259698D01*
X161535000Y-62026309D01*
X161535000Y-61285750D01*
X161376250Y-61127000D01*
X160127000Y-61127000D01*
X160127000Y-61147000D01*
X159873000Y-61147000D01*
X159873000Y-61127000D01*
X158623750Y-61127000D01*
X158465000Y-61285750D01*
X158465000Y-62026309D01*
X158561673Y-62259698D01*
X158740301Y-62438327D01*
X158874994Y-62494119D01*
X158699449Y-62669357D01*
X158465267Y-63233330D01*
X158464735Y-63843991D01*
X138163379Y-63843991D01*
X138401054Y-63488285D01*
X138514093Y-62920000D01*
X138401054Y-62351715D01*
X138079147Y-61869946D01*
X137749974Y-61650000D01*
X138079147Y-61430054D01*
X138401054Y-60948285D01*
X138514093Y-60380000D01*
X138401054Y-59811715D01*
X138079147Y-59329946D01*
X137749974Y-59110000D01*
X138079147Y-58890054D01*
X138401054Y-58408285D01*
X138514093Y-57840000D01*
X138401054Y-57271715D01*
X138079147Y-56789946D01*
X137597378Y-56468039D01*
X137029093Y-56355000D01*
X136970907Y-56355000D01*
X136402622Y-56468039D01*
X135920853Y-56789946D01*
X135598946Y-57271715D01*
X135485907Y-57840000D01*
X133205792Y-57840000D01*
X133121259Y-57635920D01*
X132869958Y-57555647D01*
X132005605Y-58420000D01*
X131646395Y-58420000D01*
X130782042Y-57555647D01*
X130530741Y-57635920D01*
X130329282Y-58191279D01*
X110451200Y-58191279D01*
X110451257Y-58125911D01*
X110225656Y-57579914D01*
X109808283Y-57161812D01*
X109780443Y-57150252D01*
X109806086Y-57139656D01*
X110224188Y-56722283D01*
X110450742Y-56176681D01*
X110451257Y-55585911D01*
X110225656Y-55039914D01*
X109808283Y-54621812D01*
X109780443Y-54610252D01*
X109806086Y-54599656D01*
X110224188Y-54182283D01*
X110450742Y-53636681D01*
X110451257Y-53045911D01*
X110225656Y-52499914D01*
X109808283Y-52081812D01*
X109780443Y-52070252D01*
X109806086Y-52059656D01*
X110224188Y-51642283D01*
X110259530Y-51557170D01*
X127241664Y-51519998D01*
X127386256Y-51490908D01*
X127530839Y-51462148D01*
X127531543Y-51461677D01*
X127532375Y-51461510D01*
X127654755Y-51379350D01*
X127777401Y-51297401D01*
X127980713Y-51094089D01*
X130340743Y-51094089D01*
X130566344Y-51640086D01*
X130983717Y-52058188D01*
X131011557Y-52069748D01*
X130985914Y-52080344D01*
X130567812Y-52497717D01*
X130341258Y-53043319D01*
X130340743Y-53634089D01*
X130566344Y-54180086D01*
X130983717Y-54598188D01*
X131011557Y-54609748D01*
X130985914Y-54620344D01*
X130567812Y-55037717D01*
X130341258Y-55583319D01*
X130340743Y-56174089D01*
X130566344Y-56720086D01*
X130983717Y-57138188D01*
X131031312Y-57157951D01*
X130961647Y-57376042D01*
X131826000Y-58240395D01*
X132690353Y-57376042D01*
X132620819Y-57158360D01*
X132666086Y-57139656D01*
X133084188Y-56722283D01*
X133310742Y-56176681D01*
X133311257Y-55585911D01*
X133085656Y-55039914D01*
X132668283Y-54621812D01*
X132640443Y-54610252D01*
X132666086Y-54599656D01*
X133084188Y-54182283D01*
X133310742Y-53636681D01*
X133311257Y-53045911D01*
X133085656Y-52499914D01*
X132668283Y-52081812D01*
X132640443Y-52070252D01*
X132666086Y-52059656D01*
X133084188Y-51642283D01*
X133310742Y-51096681D01*
X133311257Y-50505911D01*
X133085656Y-49959914D01*
X132668283Y-49541812D01*
X132620688Y-49522049D01*
X132690353Y-49303958D01*
X131826000Y-48439605D01*
X130961647Y-49303958D01*
X131031181Y-49521640D01*
X130985914Y-49540344D01*
X130567812Y-49957717D01*
X130341258Y-50503319D01*
X130340743Y-51094089D01*
X127980713Y-51094089D01*
X128537401Y-50537401D01*
X128702148Y-50290840D01*
X128760000Y-50000000D01*
X128760000Y-48031279D01*
X130329282Y-48031279D01*
X130355685Y-48621458D01*
X130530741Y-49044080D01*
X130782042Y-49124353D01*
X131646395Y-48260000D01*
X132005605Y-48260000D01*
X132869958Y-49124353D01*
X133121259Y-49044080D01*
X133322718Y-48488721D01*
X133296315Y-47898542D01*
X133121259Y-47475920D01*
X132869958Y-47395647D01*
X132005605Y-48260000D01*
X131646395Y-48260000D01*
X130782042Y-47395647D01*
X130530741Y-47475920D01*
X130329282Y-48031279D01*
X128760000Y-48031279D01*
X128760000Y-45314802D01*
X129314802Y-44760000D01*
X130685735Y-44760000D01*
X130567812Y-44877717D01*
X130341258Y-45423319D01*
X130340743Y-46014089D01*
X130566344Y-46560086D01*
X130983717Y-46978188D01*
X131031312Y-46997951D01*
X130961647Y-47216042D01*
X131826000Y-48080395D01*
X132690353Y-47216042D01*
X132620819Y-46998360D01*
X132666086Y-46979656D01*
X133084188Y-46562283D01*
X133310742Y-46016681D01*
X133311257Y-45425911D01*
X133085656Y-44879914D01*
X132965951Y-44760000D01*
X133685198Y-44760000D01*
X134240000Y-45314802D01*
X134240000Y-53000000D01*
X134297852Y-53290839D01*
X134462599Y-53537401D01*
X135462599Y-54537401D01*
X135709161Y-54702148D01*
X136000000Y-54760000D01*
X140240000Y-54760000D01*
X140240000Y-60000000D01*
X140297852Y-60290839D01*
X140462599Y-60537401D01*
X140842599Y-60917401D01*
X141089161Y-61082148D01*
X141380000Y-61140000D01*
X153915600Y-61140000D01*
X154056012Y-61350142D01*
X154489118Y-61639533D01*
X155000000Y-61741154D01*
X155510882Y-61639533D01*
X155943988Y-61350142D01*
X156233379Y-60917036D01*
X156335000Y-60406154D01*
X156335000Y-60353846D01*
X156259383Y-59973691D01*
X158465000Y-59973691D01*
X158465000Y-60714250D01*
X158623750Y-60873000D01*
X159873000Y-60873000D01*
X159873000Y-59623750D01*
X160127000Y-59623750D01*
X160127000Y-60873000D01*
X161376250Y-60873000D01*
X161535000Y-60714250D01*
X161535000Y-59973691D01*
X161438327Y-59740302D01*
X161259699Y-59561673D01*
X161026310Y-59465000D01*
X160285750Y-59465000D01*
X160127000Y-59623750D01*
X159873000Y-59623750D01*
X159714250Y-59465000D01*
X158973690Y-59465000D01*
X158740301Y-59561673D01*
X158561673Y-59740302D01*
X158465000Y-59973691D01*
X156259383Y-59973691D01*
X156233379Y-59842964D01*
X155943988Y-59409858D01*
X155510882Y-59120467D01*
X155000000Y-59018846D01*
X154489118Y-59120467D01*
X154056012Y-59409858D01*
X153915600Y-59620000D01*
X141760000Y-59620000D01*
X141760000Y-56600213D01*
X150499392Y-56600213D01*
X150568857Y-56842397D01*
X151092302Y-57029144D01*
X151647368Y-57001362D01*
X152031143Y-56842397D01*
X152100608Y-56600213D01*
X151300000Y-55799605D01*
X150499392Y-56600213D01*
X141760000Y-56600213D01*
X141760000Y-55412302D01*
X149890856Y-55412302D01*
X149918638Y-55967368D01*
X150077603Y-56351143D01*
X150319787Y-56420608D01*
X151120395Y-55620000D01*
X151479605Y-55620000D01*
X152280213Y-56420608D01*
X152522397Y-56351143D01*
X152649778Y-55994097D01*
X177350673Y-55994097D01*
X177637650Y-56688635D01*
X178168570Y-57220483D01*
X178862606Y-57508672D01*
X179614097Y-57509327D01*
X179922252Y-57382000D01*
X189142500Y-57382000D01*
X189816789Y-57247876D01*
X190388422Y-56865922D01*
X192529183Y-54725161D01*
X193140481Y-54472578D01*
X193708085Y-53905963D01*
X194015650Y-53165267D01*
X194016349Y-52363252D01*
X193710078Y-51622019D01*
X193143463Y-51054415D01*
X192402767Y-50746850D01*
X191600752Y-50746151D01*
X190859519Y-51052422D01*
X190291915Y-51619037D01*
X190036490Y-52234166D01*
X188412656Y-53858000D01*
X179922454Y-53858000D01*
X179617394Y-53731328D01*
X178865903Y-53730673D01*
X178171365Y-54017650D01*
X177639517Y-54548570D01*
X177351328Y-55242606D01*
X177350673Y-55994097D01*
X152649778Y-55994097D01*
X152709144Y-55827698D01*
X152681362Y-55272632D01*
X152522397Y-54888857D01*
X152280213Y-54819392D01*
X151479605Y-55620000D01*
X151120395Y-55620000D01*
X150319787Y-54819392D01*
X150077603Y-54888857D01*
X149890856Y-55412302D01*
X141760000Y-55412302D01*
X141760000Y-54639787D01*
X150499392Y-54639787D01*
X151300000Y-55440395D01*
X152100608Y-54639787D01*
X152031143Y-54397603D01*
X151507698Y-54210856D01*
X150952632Y-54238638D01*
X150568857Y-54397603D01*
X150499392Y-54639787D01*
X141760000Y-54639787D01*
X141760000Y-54000000D01*
X141702148Y-53709161D01*
X141537401Y-53462599D01*
X141290839Y-53297852D01*
X141000000Y-53240000D01*
X136314802Y-53240000D01*
X135760000Y-52685198D01*
X135760000Y-45738094D01*
X136272355Y-45738094D01*
X136838561Y-47108418D01*
X137886068Y-48157754D01*
X139255402Y-48726351D01*
X140738094Y-48727645D01*
X141829559Y-48276661D01*
X149902758Y-48276661D01*
X150114990Y-48790303D01*
X150507630Y-49183629D01*
X151020900Y-49396757D01*
X151576661Y-49397242D01*
X152090303Y-49185010D01*
X152483629Y-48792370D01*
X152696757Y-48279100D01*
X152697242Y-47723339D01*
X152485010Y-47209697D01*
X152092370Y-46816371D01*
X151579100Y-46603243D01*
X151023339Y-46602758D01*
X150509697Y-46814990D01*
X150116371Y-47207630D01*
X149903243Y-47720900D01*
X149902758Y-48276661D01*
X141829559Y-48276661D01*
X142108418Y-48161439D01*
X143157754Y-47113932D01*
X143726351Y-45744598D01*
X143727645Y-44261906D01*
X143469336Y-43636748D01*
X189983651Y-43636748D01*
X190289922Y-44377981D01*
X190856537Y-44945585D01*
X191597233Y-45253150D01*
X192399248Y-45253849D01*
X193140481Y-44947578D01*
X193708085Y-44380963D01*
X194015650Y-43640267D01*
X194016349Y-42838252D01*
X193710078Y-42097019D01*
X193143463Y-41529415D01*
X192402767Y-41221850D01*
X191600752Y-41221151D01*
X190859519Y-41527422D01*
X190291915Y-42094037D01*
X189984350Y-42834733D01*
X189983651Y-43636748D01*
X143469336Y-43636748D01*
X143161439Y-42891582D01*
X142113932Y-41842246D01*
X140744598Y-41273649D01*
X139261906Y-41272355D01*
X137891582Y-41838561D01*
X136842246Y-42886068D01*
X136273649Y-44255402D01*
X136272355Y-45738094D01*
X135760000Y-45738094D01*
X135760000Y-45000000D01*
X135702148Y-44709161D01*
X135537401Y-44462599D01*
X134537401Y-43462599D01*
X134290839Y-43297852D01*
X134000000Y-43240000D01*
X129000000Y-43240000D01*
X128709161Y-43297852D01*
X128462599Y-43462599D01*
X127462599Y-44462599D01*
X127297852Y-44709161D01*
X127240000Y-45000000D01*
X127240000Y-49685198D01*
X126924509Y-50000689D01*
X110257578Y-50037171D01*
X110225656Y-49959914D01*
X109808283Y-49541812D01*
X109760688Y-49522049D01*
X109830353Y-49303958D01*
X108966000Y-48439605D01*
X108101647Y-49303958D01*
X108171181Y-49521640D01*
X108125914Y-49540344D01*
X107707812Y-49957717D01*
X107481258Y-50503319D01*
X107480743Y-51094089D01*
X107315000Y-51094089D01*
X107315000Y-48031279D01*
X107469282Y-48031279D01*
X107495685Y-48621458D01*
X107670741Y-49044080D01*
X107922042Y-49124353D01*
X108786395Y-48260000D01*
X109145605Y-48260000D01*
X110009958Y-49124353D01*
X110261259Y-49044080D01*
X110462718Y-48488721D01*
X110436315Y-47898542D01*
X110261259Y-47475920D01*
X110009958Y-47395647D01*
X109145605Y-48260000D01*
X108786395Y-48260000D01*
X107922042Y-47395647D01*
X107670741Y-47475920D01*
X107469282Y-48031279D01*
X107315000Y-48031279D01*
X107315000Y-46014089D01*
X107480743Y-46014089D01*
X107706344Y-46560086D01*
X108123717Y-46978188D01*
X108171312Y-46997951D01*
X108101647Y-47216042D01*
X108966000Y-48080395D01*
X109830353Y-47216042D01*
X109760819Y-46998360D01*
X109806086Y-46979656D01*
X110224188Y-46562283D01*
X110450742Y-46016681D01*
X110451257Y-45425911D01*
X110225656Y-44879914D01*
X109808283Y-44461812D01*
X109262681Y-44235258D01*
X108671911Y-44234743D01*
X108125914Y-44460344D01*
X107707812Y-44877717D01*
X107481258Y-45423319D01*
X107480743Y-46014089D01*
X107315000Y-46014089D01*
X107315000Y-40754097D01*
X177350673Y-40754097D01*
X177637650Y-41448635D01*
X178168570Y-41980483D01*
X178862606Y-42268672D01*
X179614097Y-42269327D01*
X180308635Y-41982350D01*
X180840483Y-41451430D01*
X181128672Y-40757394D01*
X181129327Y-40005903D01*
X180842350Y-39311365D01*
X180311430Y-38779517D01*
X179617394Y-38491328D01*
X178865903Y-38490673D01*
X178171365Y-38777650D01*
X177639517Y-39308570D01*
X177351328Y-40002606D01*
X177350673Y-40754097D01*
X107315000Y-40754097D01*
X107315000Y-38227000D01*
X200025000Y-38227000D01*
X200025000Y-104013000D01*
M02*
