G04 #@! TF.FileFunction,Copper,L1,Top,Signal*
%FSLAX46Y46*%
G04 Gerber Fmt 4.6, Leading zero omitted, Abs format (unit mm)*
G04 Created by KiCad (PCBNEW 4.0.7-e2-6376~58~ubuntu16.04.1) date Fri Dec 29 21:32:54 2017*
%MOMM*%
%LPD*%
G01*
G04 APERTURE LIST*
%ADD10C,0.100000*%
%ADD11R,2.500000X2.500000*%
%ADD12O,2.500000X2.500000*%
%ADD13C,1.700000*%
%ADD14R,1.800000X1.800000*%
%ADD15C,1.800000*%
%ADD16R,1.600000X1.600000*%
%ADD17O,1.600000X1.600000*%
%ADD18C,1.778000*%
%ADD19C,1.000000*%
%ADD20R,1.000000X1.000000*%
%ADD21C,1.400000*%
%ADD22O,1.400000X1.400000*%
%ADD23C,1.524000*%
%ADD24R,1.700000X1.700000*%
%ADD25O,1.700000X1.700000*%
%ADD26C,0.250000*%
%ADD27C,1.270000*%
%ADD28C,0.400000*%
%ADD29C,0.254000*%
G04 APERTURE END LIST*
D10*
D11*
X174000000Y-79000000D03*
D12*
X180000000Y-77000000D03*
X180000000Y-64800000D03*
X168000000Y-64800000D03*
X168000000Y-77000000D03*
D13*
X131826000Y-81280000D03*
X131826000Y-78740000D03*
X131826000Y-76200000D03*
X131826000Y-73660000D03*
X131826000Y-71120000D03*
X131826000Y-68580000D03*
X131826000Y-66040000D03*
X131826000Y-63500000D03*
X131826000Y-60960000D03*
X131826000Y-58420000D03*
X131826000Y-55880000D03*
X131826000Y-53340000D03*
X131826000Y-50800000D03*
X131826000Y-48260000D03*
X131826000Y-45720000D03*
X108966000Y-81280000D03*
X108966000Y-78740000D03*
X108966000Y-76200000D03*
X108966000Y-73660000D03*
X108966000Y-71120000D03*
X108966000Y-68580000D03*
X108966000Y-66040000D03*
X108966000Y-63500000D03*
X108966000Y-60960000D03*
X108966000Y-58420000D03*
X108966000Y-55880000D03*
X108966000Y-53340000D03*
X108966000Y-50800000D03*
X108966000Y-48260000D03*
X108966000Y-45720000D03*
D14*
X123030000Y-99630000D03*
D15*
X125570000Y-99630000D03*
D14*
X111460000Y-99630000D03*
D15*
X114000000Y-99630000D03*
D16*
X136000000Y-80000000D03*
D17*
X143620000Y-80000000D03*
D16*
X136000000Y-85000000D03*
D17*
X143620000Y-85000000D03*
D16*
X163000000Y-67000000D03*
D17*
X163000000Y-74620000D03*
D14*
X160000000Y-61000000D03*
D15*
X160000000Y-63540000D03*
D18*
X192000000Y-52762500D03*
X192000000Y-43237500D03*
X192000000Y-73762500D03*
X192000000Y-64237500D03*
D19*
X154270000Y-72730000D03*
X155540000Y-74000000D03*
D20*
X153000000Y-74000000D03*
D21*
X142000000Y-102000000D03*
D22*
X149620000Y-102000000D03*
D21*
X130000000Y-102000000D03*
D22*
X137620000Y-102000000D03*
D21*
X120000000Y-93000000D03*
D22*
X127620000Y-93000000D03*
D21*
X109000000Y-93000000D03*
D22*
X116620000Y-93000000D03*
D21*
X152000000Y-80000000D03*
D22*
X159620000Y-80000000D03*
D21*
X154000000Y-68000000D03*
D22*
X154000000Y-60380000D03*
D21*
X152000000Y-85000000D03*
D22*
X152000000Y-92620000D03*
D21*
X160000000Y-67000000D03*
D22*
X160000000Y-74620000D03*
D13*
X142500000Y-92500000D03*
X149000000Y-92500000D03*
X142500000Y-97000000D03*
X149000000Y-97000000D03*
X130500000Y-92500000D03*
X137000000Y-92500000D03*
X130500000Y-97000000D03*
X137000000Y-97000000D03*
D23*
X179240000Y-55620000D03*
X179240000Y-40380000D03*
X151300000Y-55620000D03*
X151300000Y-48000000D03*
D24*
X198000000Y-82000000D03*
D25*
X198000000Y-84540000D03*
D24*
X141000000Y-76000000D03*
D25*
X143540000Y-76000000D03*
X146080000Y-76000000D03*
D24*
X137000000Y-68000000D03*
D25*
X137000000Y-65460000D03*
X137000000Y-62920000D03*
X137000000Y-60380000D03*
X137000000Y-57840000D03*
D26*
X125570000Y-99630000D02*
X125570000Y-95820000D01*
X125570000Y-95820000D02*
X127620000Y-93000000D01*
X114000000Y-99630000D02*
X114000000Y-95820000D01*
X114000000Y-95820000D02*
X116620000Y-93000000D01*
X136000000Y-85000000D02*
X135190000Y-85000000D01*
X135190000Y-85000000D02*
X131826000Y-81280000D01*
X136000000Y-80000000D02*
X136000000Y-79810000D01*
X136000000Y-79810000D02*
X131826000Y-81280000D01*
X143620000Y-80000000D02*
X143620000Y-76080000D01*
X143620000Y-76080000D02*
X143540000Y-76000000D01*
X152000000Y-80000000D02*
X146000000Y-80000000D01*
X146000000Y-80000000D02*
X143620000Y-80000000D01*
X152000000Y-85000000D02*
X197540000Y-85000000D01*
X197540000Y-85000000D02*
X198000000Y-84540000D01*
X152000000Y-85000000D02*
X143620000Y-85000000D01*
X180000000Y-77000000D02*
X179000000Y-77000000D01*
X155540000Y-74000000D02*
X157380000Y-74000000D01*
X157380000Y-74000000D02*
X160000000Y-74620000D01*
X163000000Y-74620000D02*
X160000000Y-74620000D01*
X168000000Y-77000000D02*
X163380000Y-75000000D01*
X163380000Y-75000000D02*
X163000000Y-74620000D01*
X160000000Y-67000000D02*
X160000000Y-63540000D01*
D27*
X192000000Y-64237500D02*
X192000000Y-52762500D01*
X180000000Y-64800000D02*
X180200000Y-64800000D01*
X180200000Y-64800000D02*
X183000000Y-62000000D01*
X183000000Y-62000000D02*
X183000000Y-44140000D01*
X183000000Y-44140000D02*
X179240000Y-40380000D01*
X179240000Y-40380000D02*
X189142500Y-40380000D01*
X189142500Y-40380000D02*
X192000000Y-43237500D01*
D26*
X198000000Y-82000000D02*
X190000000Y-82000000D01*
X149080000Y-71080000D02*
X131826000Y-71120000D01*
X150000000Y-72000000D02*
X149080000Y-71080000D01*
X150000000Y-77000000D02*
X150000000Y-72000000D01*
X151000000Y-78000000D02*
X150000000Y-77000000D01*
X161000000Y-78000000D02*
X151000000Y-78000000D01*
X162000000Y-79000000D02*
X161000000Y-78000000D01*
X162000000Y-82000000D02*
X162000000Y-79000000D01*
X163000000Y-83000000D02*
X162000000Y-82000000D01*
X189000000Y-83000000D02*
X163000000Y-83000000D01*
X190000000Y-82000000D02*
X189000000Y-83000000D01*
X131826000Y-71120000D02*
X131826000Y-71470000D01*
X131826000Y-71120000D02*
X132316000Y-71120000D01*
X141000000Y-76000000D02*
X133810000Y-76000000D01*
X133810000Y-76000000D02*
X131826000Y-73660000D01*
X131826000Y-73660000D02*
X132016000Y-73660000D01*
D27*
X174000000Y-79000000D02*
X177000000Y-79000000D01*
X184762500Y-81000000D02*
X192000000Y-73762500D01*
X179000000Y-81000000D02*
X184762500Y-81000000D01*
X177000000Y-79000000D02*
X179000000Y-81000000D01*
D26*
X154000000Y-68000000D02*
X154000000Y-72460000D01*
X154000000Y-72460000D02*
X154270000Y-72730000D01*
X142500000Y-97000000D02*
X142500000Y-101500000D01*
X142500000Y-101500000D02*
X142000000Y-102000000D01*
X130000000Y-102000000D02*
X130000000Y-97500000D01*
X130000000Y-97500000D02*
X130500000Y-97000000D01*
X120000000Y-93000000D02*
X120000000Y-82916000D01*
X113244000Y-76160000D02*
X108966000Y-76200000D01*
X120000000Y-82916000D02*
X113244000Y-76160000D01*
X108966000Y-76200000D02*
X108966000Y-76470000D01*
X108966000Y-76200000D02*
X108236000Y-76200000D01*
X109000000Y-93000000D02*
X109000000Y-85000000D01*
X111000000Y-81130000D02*
X108966000Y-78740000D01*
X111000000Y-83000000D02*
X111000000Y-81130000D01*
X109000000Y-85000000D02*
X111000000Y-83000000D01*
X108666000Y-79040000D02*
X108966000Y-78740000D01*
X142500000Y-92500000D02*
X139744000Y-92500000D01*
X111720000Y-71080000D02*
X108966000Y-71120000D01*
X133096000Y-92456000D02*
X111720000Y-71080000D01*
X133096000Y-99568000D02*
X133096000Y-92456000D01*
X139700000Y-99568000D02*
X133096000Y-99568000D01*
X139700000Y-92544000D02*
X139700000Y-99568000D01*
X139744000Y-92500000D02*
X139700000Y-92544000D01*
X108966000Y-71120000D02*
X108966000Y-71470000D01*
X130500000Y-92500000D02*
X130500000Y-91500000D01*
X112620000Y-73620000D02*
X108966000Y-73660000D01*
X130500000Y-91500000D02*
X112620000Y-73620000D01*
X137000000Y-62920000D02*
X132366000Y-62960000D01*
X132366000Y-62960000D02*
X131826000Y-63500000D01*
X137000000Y-60380000D02*
X132366000Y-60420000D01*
X132366000Y-60420000D02*
X131826000Y-60960000D01*
D28*
X151300000Y-48000000D02*
X148000000Y-48000000D01*
X143000000Y-53000000D02*
X134000000Y-53000000D01*
X148000000Y-48000000D02*
X143000000Y-53000000D01*
X131826000Y-45720000D02*
X132680000Y-45680000D01*
X132680000Y-45680000D02*
X134000000Y-47000000D01*
X134000000Y-47000000D02*
X134000000Y-53000000D01*
X135000000Y-55000000D02*
X140000000Y-55000000D01*
X140000000Y-55000000D02*
X140000000Y-63000000D01*
X140000000Y-63000000D02*
X137540000Y-65460000D01*
X134000000Y-53000000D02*
X134000000Y-54000000D01*
X134000000Y-54000000D02*
X135000000Y-55000000D01*
X137540000Y-65460000D02*
X137000000Y-65460000D01*
X151300000Y-48000000D02*
X151000000Y-48000000D01*
D29*
G36*
X200025000Y-104013000D02*
X107315000Y-104013000D01*
X107315000Y-102264383D01*
X128664769Y-102264383D01*
X128867582Y-102755229D01*
X129242796Y-103131098D01*
X129733287Y-103334768D01*
X130264383Y-103335231D01*
X130755229Y-103132418D01*
X131131098Y-102757204D01*
X131334768Y-102266713D01*
X131335000Y-102000000D01*
X136258846Y-102000000D01*
X136360467Y-102510882D01*
X136649858Y-102943988D01*
X137082964Y-103233379D01*
X137593846Y-103335000D01*
X137646154Y-103335000D01*
X138157036Y-103233379D01*
X138590142Y-102943988D01*
X138879533Y-102510882D01*
X138928564Y-102264383D01*
X140664769Y-102264383D01*
X140867582Y-102755229D01*
X141242796Y-103131098D01*
X141733287Y-103334768D01*
X142264383Y-103335231D01*
X142755229Y-103132418D01*
X143131098Y-102757204D01*
X143334768Y-102266713D01*
X143335000Y-102000000D01*
X148258846Y-102000000D01*
X148360467Y-102510882D01*
X148649858Y-102943988D01*
X149082964Y-103233379D01*
X149593846Y-103335000D01*
X149646154Y-103335000D01*
X150157036Y-103233379D01*
X150590142Y-102943988D01*
X150879533Y-102510882D01*
X150981154Y-102000000D01*
X150879533Y-101489118D01*
X150590142Y-101056012D01*
X150157036Y-100766621D01*
X149646154Y-100665000D01*
X149593846Y-100665000D01*
X149082964Y-100766621D01*
X148649858Y-101056012D01*
X148360467Y-101489118D01*
X148258846Y-102000000D01*
X143335000Y-102000000D01*
X143335231Y-101735617D01*
X143252811Y-101536144D01*
X143260000Y-101500000D01*
X143260000Y-98292747D01*
X143340086Y-98259656D01*
X143556160Y-98043958D01*
X148135647Y-98043958D01*
X148215920Y-98295259D01*
X148771279Y-98496718D01*
X149361458Y-98470315D01*
X149784080Y-98295259D01*
X149864353Y-98043958D01*
X149000000Y-97179605D01*
X148135647Y-98043958D01*
X143556160Y-98043958D01*
X143758188Y-97842283D01*
X143984742Y-97296681D01*
X143985200Y-96771279D01*
X147503282Y-96771279D01*
X147529685Y-97361458D01*
X147704741Y-97784080D01*
X147956042Y-97864353D01*
X148820395Y-97000000D01*
X149179605Y-97000000D01*
X150043958Y-97864353D01*
X150295259Y-97784080D01*
X150496718Y-97228721D01*
X150470315Y-96638542D01*
X150295259Y-96215920D01*
X150043958Y-96135647D01*
X149179605Y-97000000D01*
X148820395Y-97000000D01*
X147956042Y-96135647D01*
X147704741Y-96215920D01*
X147503282Y-96771279D01*
X143985200Y-96771279D01*
X143985257Y-96705911D01*
X143759656Y-96159914D01*
X143556140Y-95956042D01*
X148135647Y-95956042D01*
X149000000Y-96820395D01*
X149864353Y-95956042D01*
X149794734Y-95738094D01*
X186272355Y-95738094D01*
X186838561Y-97108418D01*
X187886068Y-98157754D01*
X189255402Y-98726351D01*
X190738094Y-98727645D01*
X192108418Y-98161439D01*
X193157754Y-97113932D01*
X193726351Y-95744598D01*
X193727645Y-94261906D01*
X193161439Y-92891582D01*
X192113932Y-91842246D01*
X190744598Y-91273649D01*
X189261906Y-91272355D01*
X187891582Y-91838561D01*
X186842246Y-92886068D01*
X186273649Y-94255402D01*
X186272355Y-95738094D01*
X149794734Y-95738094D01*
X149784080Y-95704741D01*
X149228721Y-95503282D01*
X148638542Y-95529685D01*
X148215920Y-95704741D01*
X148135647Y-95956042D01*
X143556140Y-95956042D01*
X143342283Y-95741812D01*
X142796681Y-95515258D01*
X142205911Y-95514743D01*
X141659914Y-95740344D01*
X141241812Y-96157717D01*
X141015258Y-96703319D01*
X141014743Y-97294089D01*
X141240344Y-97840086D01*
X141657717Y-98258188D01*
X141740000Y-98292355D01*
X141740000Y-100664773D01*
X141735617Y-100664769D01*
X141244771Y-100867582D01*
X140868902Y-101242796D01*
X140665232Y-101733287D01*
X140664769Y-102264383D01*
X138928564Y-102264383D01*
X138981154Y-102000000D01*
X138879533Y-101489118D01*
X138590142Y-101056012D01*
X138157036Y-100766621D01*
X137646154Y-100665000D01*
X137593846Y-100665000D01*
X137082964Y-100766621D01*
X136649858Y-101056012D01*
X136360467Y-101489118D01*
X136258846Y-102000000D01*
X131335000Y-102000000D01*
X131335231Y-101735617D01*
X131132418Y-101244771D01*
X130760000Y-100871703D01*
X130760000Y-98485227D01*
X130794089Y-98485257D01*
X131340086Y-98259656D01*
X131758188Y-97842283D01*
X131984742Y-97296681D01*
X131985257Y-96705911D01*
X131759656Y-96159914D01*
X131342283Y-95741812D01*
X130796681Y-95515258D01*
X130205911Y-95514743D01*
X129659914Y-95740344D01*
X129241812Y-96157717D01*
X129015258Y-96703319D01*
X129014743Y-97294089D01*
X129240000Y-97839253D01*
X129240000Y-100872345D01*
X128868902Y-101242796D01*
X128665232Y-101733287D01*
X128664769Y-102264383D01*
X107315000Y-102264383D01*
X107315000Y-98730000D01*
X109912560Y-98730000D01*
X109912560Y-100530000D01*
X109956838Y-100765317D01*
X110095910Y-100981441D01*
X110308110Y-101126431D01*
X110560000Y-101177440D01*
X112360000Y-101177440D01*
X112595317Y-101133162D01*
X112811441Y-100994090D01*
X112956431Y-100781890D01*
X112960567Y-100761466D01*
X113129357Y-100930551D01*
X113693330Y-101164733D01*
X114303991Y-101165265D01*
X114868371Y-100932068D01*
X115300551Y-100500643D01*
X115534733Y-99936670D01*
X115535265Y-99326009D01*
X115302068Y-98761629D01*
X115270495Y-98730000D01*
X121482560Y-98730000D01*
X121482560Y-100530000D01*
X121526838Y-100765317D01*
X121665910Y-100981441D01*
X121878110Y-101126431D01*
X122130000Y-101177440D01*
X123930000Y-101177440D01*
X124165317Y-101133162D01*
X124381441Y-100994090D01*
X124526431Y-100781890D01*
X124530567Y-100761466D01*
X124699357Y-100930551D01*
X125263330Y-101164733D01*
X125873991Y-101165265D01*
X126438371Y-100932068D01*
X126870551Y-100500643D01*
X127104733Y-99936670D01*
X127105265Y-99326009D01*
X126872068Y-98761629D01*
X126440643Y-98329449D01*
X126330000Y-98283506D01*
X126330000Y-96067052D01*
X127589713Y-94334178D01*
X127593846Y-94335000D01*
X127646154Y-94335000D01*
X128157036Y-94233379D01*
X128590142Y-93943988D01*
X128879533Y-93510882D01*
X128981154Y-93000000D01*
X128879533Y-92489118D01*
X128590142Y-92056012D01*
X128157036Y-91766621D01*
X127646154Y-91665000D01*
X127593846Y-91665000D01*
X127082964Y-91766621D01*
X126649858Y-92056012D01*
X126360467Y-92489118D01*
X126258846Y-93000000D01*
X126349414Y-93455315D01*
X124955266Y-95373119D01*
X124917687Y-95454577D01*
X124867852Y-95529161D01*
X124856157Y-95587953D01*
X124831047Y-95642384D01*
X124827501Y-95732017D01*
X124810000Y-95820000D01*
X124810000Y-98283154D01*
X124701629Y-98327932D01*
X124533387Y-98495880D01*
X124533162Y-98494683D01*
X124394090Y-98278559D01*
X124181890Y-98133569D01*
X123930000Y-98082560D01*
X122130000Y-98082560D01*
X121894683Y-98126838D01*
X121678559Y-98265910D01*
X121533569Y-98478110D01*
X121482560Y-98730000D01*
X115270495Y-98730000D01*
X114870643Y-98329449D01*
X114760000Y-98283506D01*
X114760000Y-96118563D01*
X116444644Y-94305322D01*
X116593846Y-94335000D01*
X116646154Y-94335000D01*
X117157036Y-94233379D01*
X117590142Y-93943988D01*
X117879533Y-93510882D01*
X117981154Y-93000000D01*
X117879533Y-92489118D01*
X117590142Y-92056012D01*
X117157036Y-91766621D01*
X116646154Y-91665000D01*
X116593846Y-91665000D01*
X116082964Y-91766621D01*
X115649858Y-92056012D01*
X115360467Y-92489118D01*
X115258846Y-93000000D01*
X115315940Y-93287028D01*
X113443218Y-95302706D01*
X113372619Y-95417265D01*
X113297852Y-95529161D01*
X113295084Y-95543077D01*
X113287641Y-95555154D01*
X113266255Y-95688011D01*
X113240000Y-95820000D01*
X113240000Y-98283154D01*
X113131629Y-98327932D01*
X112963387Y-98495880D01*
X112963162Y-98494683D01*
X112824090Y-98278559D01*
X112611890Y-98133569D01*
X112360000Y-98082560D01*
X110560000Y-98082560D01*
X110324683Y-98126838D01*
X110108559Y-98265910D01*
X109963569Y-98478110D01*
X109912560Y-98730000D01*
X107315000Y-98730000D01*
X107315000Y-76200000D01*
X107476000Y-76200000D01*
X107480978Y-76225024D01*
X107480743Y-76494089D01*
X107706344Y-77040086D01*
X108123717Y-77458188D01*
X108151557Y-77469748D01*
X108125914Y-77480344D01*
X107707812Y-77897717D01*
X107481258Y-78443319D01*
X107480743Y-79034089D01*
X107706344Y-79580086D01*
X108123717Y-79998188D01*
X108151557Y-80009748D01*
X108125914Y-80020344D01*
X107707812Y-80437717D01*
X107481258Y-80983319D01*
X107480743Y-81574089D01*
X107706344Y-82120086D01*
X108123717Y-82538188D01*
X108669319Y-82764742D01*
X109260089Y-82765257D01*
X109806086Y-82539656D01*
X110224188Y-82122283D01*
X110240000Y-82084204D01*
X110240000Y-82685198D01*
X108462599Y-84462599D01*
X108297852Y-84709161D01*
X108240000Y-85000000D01*
X108240000Y-91872345D01*
X107868902Y-92242796D01*
X107665232Y-92733287D01*
X107664769Y-93264383D01*
X107867582Y-93755229D01*
X108242796Y-94131098D01*
X108733287Y-94334768D01*
X109264383Y-94335231D01*
X109755229Y-94132418D01*
X110131098Y-93757204D01*
X110334768Y-93266713D01*
X110335231Y-92735617D01*
X110132418Y-92244771D01*
X109760000Y-91871703D01*
X109760000Y-85314802D01*
X111537401Y-83537401D01*
X111702148Y-83290839D01*
X111760000Y-83000000D01*
X111760000Y-81130000D01*
X111736915Y-81013946D01*
X111723214Y-80896417D01*
X111708172Y-80869447D01*
X111702148Y-80839161D01*
X111636414Y-80740783D01*
X111578775Y-80637435D01*
X110373916Y-79221697D01*
X110450742Y-79036681D01*
X110451257Y-78445911D01*
X110225656Y-77899914D01*
X109808283Y-77481812D01*
X109780443Y-77470252D01*
X109806086Y-77459656D01*
X110224188Y-77042283D01*
X110263378Y-76947903D01*
X112932147Y-76922949D01*
X119240000Y-83230802D01*
X119240000Y-91872345D01*
X118868902Y-92242796D01*
X118665232Y-92733287D01*
X118664769Y-93264383D01*
X118867582Y-93755229D01*
X119242796Y-94131098D01*
X119733287Y-94334768D01*
X120264383Y-94335231D01*
X120755229Y-94132418D01*
X121131098Y-93757204D01*
X121334768Y-93266713D01*
X121335231Y-92735617D01*
X121132418Y-92244771D01*
X120760000Y-91871703D01*
X120760000Y-82916000D01*
X120739838Y-82814641D01*
X129412512Y-91487315D01*
X129241812Y-91657717D01*
X129015258Y-92203319D01*
X129014743Y-92794089D01*
X129240344Y-93340086D01*
X129657717Y-93758188D01*
X130203319Y-93984742D01*
X130794089Y-93985257D01*
X131340086Y-93759656D01*
X131758188Y-93342283D01*
X131984742Y-92796681D01*
X131985070Y-92419872D01*
X132336000Y-92770802D01*
X132336000Y-99568000D01*
X132393852Y-99858839D01*
X132558599Y-100105401D01*
X132805161Y-100270148D01*
X133096000Y-100328000D01*
X139700000Y-100328000D01*
X139990839Y-100270148D01*
X140237401Y-100105401D01*
X140402148Y-99858839D01*
X140460000Y-99568000D01*
X140460000Y-93260000D01*
X141207253Y-93260000D01*
X141240344Y-93340086D01*
X141657717Y-93758188D01*
X142203319Y-93984742D01*
X142794089Y-93985257D01*
X143340086Y-93759656D01*
X143556160Y-93543958D01*
X148135647Y-93543958D01*
X148215920Y-93795259D01*
X148771279Y-93996718D01*
X149361458Y-93970315D01*
X149784080Y-93795259D01*
X149864353Y-93543958D01*
X149000000Y-92679605D01*
X148135647Y-93543958D01*
X143556160Y-93543958D01*
X143758188Y-93342283D01*
X143984742Y-92796681D01*
X143985200Y-92271279D01*
X147503282Y-92271279D01*
X147529685Y-92861458D01*
X147704741Y-93284080D01*
X147956042Y-93364353D01*
X148820395Y-92500000D01*
X149179605Y-92500000D01*
X150043958Y-93364353D01*
X150295259Y-93284080D01*
X150496718Y-92728721D01*
X150490685Y-92593846D01*
X150665000Y-92593846D01*
X150665000Y-92646154D01*
X150766621Y-93157036D01*
X151056012Y-93590142D01*
X151489118Y-93879533D01*
X152000000Y-93981154D01*
X152510882Y-93879533D01*
X152943988Y-93590142D01*
X153233379Y-93157036D01*
X153335000Y-92646154D01*
X153335000Y-92593846D01*
X153233379Y-92082964D01*
X152943988Y-91649858D01*
X152510882Y-91360467D01*
X152000000Y-91258846D01*
X151489118Y-91360467D01*
X151056012Y-91649858D01*
X150766621Y-92082964D01*
X150665000Y-92593846D01*
X150490685Y-92593846D01*
X150470315Y-92138542D01*
X150295259Y-91715920D01*
X150043958Y-91635647D01*
X149179605Y-92500000D01*
X148820395Y-92500000D01*
X147956042Y-91635647D01*
X147704741Y-91715920D01*
X147503282Y-92271279D01*
X143985200Y-92271279D01*
X143985257Y-92205911D01*
X143759656Y-91659914D01*
X143556140Y-91456042D01*
X148135647Y-91456042D01*
X149000000Y-92320395D01*
X149864353Y-91456042D01*
X149784080Y-91204741D01*
X149228721Y-91003282D01*
X148638542Y-91029685D01*
X148215920Y-91204741D01*
X148135647Y-91456042D01*
X143556140Y-91456042D01*
X143342283Y-91241812D01*
X142796681Y-91015258D01*
X142205911Y-91014743D01*
X141659914Y-91240344D01*
X141241812Y-91657717D01*
X141207645Y-91740000D01*
X139744000Y-91740000D01*
X139453160Y-91797852D01*
X139206599Y-91962599D01*
X139162599Y-92006599D01*
X138997852Y-92253161D01*
X138940000Y-92544000D01*
X138940000Y-98808000D01*
X133856000Y-98808000D01*
X133856000Y-98043958D01*
X136135647Y-98043958D01*
X136215920Y-98295259D01*
X136771279Y-98496718D01*
X137361458Y-98470315D01*
X137784080Y-98295259D01*
X137864353Y-98043958D01*
X137000000Y-97179605D01*
X136135647Y-98043958D01*
X133856000Y-98043958D01*
X133856000Y-96771279D01*
X135503282Y-96771279D01*
X135529685Y-97361458D01*
X135704741Y-97784080D01*
X135956042Y-97864353D01*
X136820395Y-97000000D01*
X137179605Y-97000000D01*
X138043958Y-97864353D01*
X138295259Y-97784080D01*
X138496718Y-97228721D01*
X138470315Y-96638542D01*
X138295259Y-96215920D01*
X138043958Y-96135647D01*
X137179605Y-97000000D01*
X136820395Y-97000000D01*
X135956042Y-96135647D01*
X135704741Y-96215920D01*
X135503282Y-96771279D01*
X133856000Y-96771279D01*
X133856000Y-95956042D01*
X136135647Y-95956042D01*
X137000000Y-96820395D01*
X137864353Y-95956042D01*
X137784080Y-95704741D01*
X137228721Y-95503282D01*
X136638542Y-95529685D01*
X136215920Y-95704741D01*
X136135647Y-95956042D01*
X133856000Y-95956042D01*
X133856000Y-93543958D01*
X136135647Y-93543958D01*
X136215920Y-93795259D01*
X136771279Y-93996718D01*
X137361458Y-93970315D01*
X137784080Y-93795259D01*
X137864353Y-93543958D01*
X137000000Y-92679605D01*
X136135647Y-93543958D01*
X133856000Y-93543958D01*
X133856000Y-92456000D01*
X133819257Y-92271279D01*
X135503282Y-92271279D01*
X135529685Y-92861458D01*
X135704741Y-93284080D01*
X135956042Y-93364353D01*
X136820395Y-92500000D01*
X137179605Y-92500000D01*
X138043958Y-93364353D01*
X138295259Y-93284080D01*
X138496718Y-92728721D01*
X138470315Y-92138542D01*
X138295259Y-91715920D01*
X138043958Y-91635647D01*
X137179605Y-92500000D01*
X136820395Y-92500000D01*
X135956042Y-91635647D01*
X135704741Y-91715920D01*
X135503282Y-92271279D01*
X133819257Y-92271279D01*
X133798148Y-92165161D01*
X133633401Y-91918599D01*
X133170844Y-91456042D01*
X136135647Y-91456042D01*
X137000000Y-92320395D01*
X137864353Y-91456042D01*
X137784080Y-91204741D01*
X137228721Y-91003282D01*
X136638542Y-91029685D01*
X136215920Y-91204741D01*
X136135647Y-91456042D01*
X133170844Y-91456042D01*
X112257401Y-70542599D01*
X112252728Y-70539476D01*
X112249539Y-70534851D01*
X112129625Y-70457222D01*
X112010839Y-70377852D01*
X112005328Y-70376756D01*
X112000611Y-70373702D01*
X111860104Y-70347869D01*
X111720000Y-70320000D01*
X111714489Y-70321096D01*
X111708962Y-70320080D01*
X110251002Y-70341256D01*
X110225656Y-70279914D01*
X109808283Y-69861812D01*
X109760688Y-69842049D01*
X109830353Y-69623958D01*
X108966000Y-68759605D01*
X108101647Y-69623958D01*
X108171181Y-69841640D01*
X108125914Y-69860344D01*
X107707812Y-70277717D01*
X107481258Y-70823319D01*
X107480743Y-71414089D01*
X107706344Y-71960086D01*
X108123717Y-72378188D01*
X108151557Y-72389748D01*
X108125914Y-72400344D01*
X107707812Y-72817717D01*
X107481258Y-73363319D01*
X107480743Y-73954089D01*
X107706344Y-74500086D01*
X108123717Y-74918188D01*
X108151557Y-74929748D01*
X108125914Y-74940344D01*
X107707812Y-75357717D01*
X107481258Y-75903319D01*
X107481021Y-76174756D01*
X107476000Y-76200000D01*
X107315000Y-76200000D01*
X107315000Y-68351279D01*
X107469282Y-68351279D01*
X107495685Y-68941458D01*
X107670741Y-69364080D01*
X107922042Y-69444353D01*
X108786395Y-68580000D01*
X109145605Y-68580000D01*
X110009958Y-69444353D01*
X110261259Y-69364080D01*
X110462718Y-68808721D01*
X110436315Y-68218542D01*
X110261259Y-67795920D01*
X110009958Y-67715647D01*
X109145605Y-68580000D01*
X108786395Y-68580000D01*
X107922042Y-67715647D01*
X107670741Y-67795920D01*
X107469282Y-68351279D01*
X107315000Y-68351279D01*
X107315000Y-48554089D01*
X107480743Y-48554089D01*
X107706344Y-49100086D01*
X108123717Y-49518188D01*
X108151557Y-49529748D01*
X108125914Y-49540344D01*
X107707812Y-49957717D01*
X107481258Y-50503319D01*
X107480743Y-51094089D01*
X107706344Y-51640086D01*
X108123717Y-52058188D01*
X108151557Y-52069748D01*
X108125914Y-52080344D01*
X107707812Y-52497717D01*
X107481258Y-53043319D01*
X107480743Y-53634089D01*
X107706344Y-54180086D01*
X108123717Y-54598188D01*
X108151557Y-54609748D01*
X108125914Y-54620344D01*
X107707812Y-55037717D01*
X107481258Y-55583319D01*
X107480743Y-56174089D01*
X107706344Y-56720086D01*
X108123717Y-57138188D01*
X108151557Y-57149748D01*
X108125914Y-57160344D01*
X107707812Y-57577717D01*
X107481258Y-58123319D01*
X107480743Y-58714089D01*
X107706344Y-59260086D01*
X108123717Y-59678188D01*
X108151557Y-59689748D01*
X108125914Y-59700344D01*
X107707812Y-60117717D01*
X107481258Y-60663319D01*
X107480743Y-61254089D01*
X107706344Y-61800086D01*
X108123717Y-62218188D01*
X108151557Y-62229748D01*
X108125914Y-62240344D01*
X107707812Y-62657717D01*
X107481258Y-63203319D01*
X107480743Y-63794089D01*
X107706344Y-64340086D01*
X108123717Y-64758188D01*
X108151557Y-64769748D01*
X108125914Y-64780344D01*
X107707812Y-65197717D01*
X107481258Y-65743319D01*
X107480743Y-66334089D01*
X107706344Y-66880086D01*
X108123717Y-67298188D01*
X108171312Y-67317951D01*
X108101647Y-67536042D01*
X108966000Y-68400395D01*
X109830353Y-67536042D01*
X109760819Y-67318360D01*
X109806086Y-67299656D01*
X110224188Y-66882283D01*
X110450742Y-66336681D01*
X110451257Y-65745911D01*
X110225656Y-65199914D01*
X109808283Y-64781812D01*
X109780443Y-64770252D01*
X109806086Y-64759656D01*
X110224188Y-64342283D01*
X110450742Y-63796681D01*
X110451257Y-63205911D01*
X110225656Y-62659914D01*
X109808283Y-62241812D01*
X109780443Y-62230252D01*
X109806086Y-62219656D01*
X110224188Y-61802283D01*
X110450742Y-61256681D01*
X110451257Y-60665911D01*
X110225656Y-60119914D01*
X109808283Y-59701812D01*
X109780443Y-59690252D01*
X109806086Y-59679656D01*
X110224188Y-59262283D01*
X110450742Y-58716681D01*
X110451257Y-58125911D01*
X110225656Y-57579914D01*
X109808283Y-57161812D01*
X109780443Y-57150252D01*
X109806086Y-57139656D01*
X110224188Y-56722283D01*
X110450742Y-56176681D01*
X110451257Y-55585911D01*
X110225656Y-55039914D01*
X109808283Y-54621812D01*
X109780443Y-54610252D01*
X109806086Y-54599656D01*
X110224188Y-54182283D01*
X110450742Y-53636681D01*
X110451257Y-53045911D01*
X110225656Y-52499914D01*
X109808283Y-52081812D01*
X109780443Y-52070252D01*
X109806086Y-52059656D01*
X110224188Y-51642283D01*
X110450742Y-51096681D01*
X110451257Y-50505911D01*
X110225656Y-49959914D01*
X109808283Y-49541812D01*
X109780443Y-49530252D01*
X109806086Y-49519656D01*
X110224188Y-49102283D01*
X110450742Y-48556681D01*
X110451257Y-47965911D01*
X110225656Y-47419914D01*
X109808283Y-47001812D01*
X109760688Y-46982049D01*
X109830353Y-46763958D01*
X108966000Y-45899605D01*
X108101647Y-46763958D01*
X108171181Y-46981640D01*
X108125914Y-47000344D01*
X107707812Y-47417717D01*
X107481258Y-47963319D01*
X107480743Y-48554089D01*
X107315000Y-48554089D01*
X107315000Y-45491279D01*
X107469282Y-45491279D01*
X107495685Y-46081458D01*
X107670741Y-46504080D01*
X107922042Y-46584353D01*
X108786395Y-45720000D01*
X109145605Y-45720000D01*
X110009958Y-46584353D01*
X110261259Y-46504080D01*
X110439005Y-46014089D01*
X130340743Y-46014089D01*
X130566344Y-46560086D01*
X130983717Y-46978188D01*
X131011557Y-46989748D01*
X130985914Y-47000344D01*
X130567812Y-47417717D01*
X130341258Y-47963319D01*
X130340743Y-48554089D01*
X130566344Y-49100086D01*
X130983717Y-49518188D01*
X131011557Y-49529748D01*
X130985914Y-49540344D01*
X130567812Y-49957717D01*
X130341258Y-50503319D01*
X130340743Y-51094089D01*
X130566344Y-51640086D01*
X130983717Y-52058188D01*
X131011557Y-52069748D01*
X130985914Y-52080344D01*
X130567812Y-52497717D01*
X130341258Y-53043319D01*
X130340743Y-53634089D01*
X130566344Y-54180086D01*
X130983717Y-54598188D01*
X131011557Y-54609748D01*
X130985914Y-54620344D01*
X130567812Y-55037717D01*
X130341258Y-55583319D01*
X130340743Y-56174089D01*
X130566344Y-56720086D01*
X130983717Y-57138188D01*
X131011557Y-57149748D01*
X130985914Y-57160344D01*
X130567812Y-57577717D01*
X130341258Y-58123319D01*
X130340743Y-58714089D01*
X130566344Y-59260086D01*
X130983717Y-59678188D01*
X131011557Y-59689748D01*
X130985914Y-59700344D01*
X130567812Y-60117717D01*
X130341258Y-60663319D01*
X130340743Y-61254089D01*
X130566344Y-61800086D01*
X130983717Y-62218188D01*
X131011557Y-62229748D01*
X130985914Y-62240344D01*
X130567812Y-62657717D01*
X130341258Y-63203319D01*
X130340743Y-63794089D01*
X130566344Y-64340086D01*
X130983717Y-64758188D01*
X131011557Y-64769748D01*
X130985914Y-64780344D01*
X130567812Y-65197717D01*
X130341258Y-65743319D01*
X130340743Y-66334089D01*
X130566344Y-66880086D01*
X130983717Y-67298188D01*
X131011557Y-67309748D01*
X130985914Y-67320344D01*
X130567812Y-67737717D01*
X130341258Y-68283319D01*
X130340743Y-68874089D01*
X130566344Y-69420086D01*
X130983717Y-69838188D01*
X131011557Y-69849748D01*
X130985914Y-69860344D01*
X130567812Y-70277717D01*
X130341258Y-70823319D01*
X130340743Y-71414089D01*
X130566344Y-71960086D01*
X130983717Y-72378188D01*
X131011557Y-72389748D01*
X130985914Y-72400344D01*
X130567812Y-72817717D01*
X130341258Y-73363319D01*
X130340743Y-73954089D01*
X130566344Y-74500086D01*
X130983717Y-74918188D01*
X131011557Y-74929748D01*
X130985914Y-74940344D01*
X130567812Y-75357717D01*
X130341258Y-75903319D01*
X130340743Y-76494089D01*
X130566344Y-77040086D01*
X130983717Y-77458188D01*
X131011557Y-77469748D01*
X130985914Y-77480344D01*
X130567812Y-77897717D01*
X130341258Y-78443319D01*
X130340743Y-79034089D01*
X130566344Y-79580086D01*
X130983717Y-79998188D01*
X131011557Y-80009748D01*
X130985914Y-80020344D01*
X130567812Y-80437717D01*
X130341258Y-80983319D01*
X130340743Y-81574089D01*
X130566344Y-82120086D01*
X130983717Y-82538188D01*
X131529319Y-82764742D01*
X132120089Y-82765257D01*
X132137827Y-82757928D01*
X134552560Y-85428204D01*
X134552560Y-85800000D01*
X134596838Y-86035317D01*
X134735910Y-86251441D01*
X134948110Y-86396431D01*
X135200000Y-86447440D01*
X136800000Y-86447440D01*
X137035317Y-86403162D01*
X137251441Y-86264090D01*
X137396431Y-86051890D01*
X137447440Y-85800000D01*
X137447440Y-84200000D01*
X137403162Y-83964683D01*
X137264090Y-83748559D01*
X137051890Y-83603569D01*
X136800000Y-83552560D01*
X135200000Y-83552560D01*
X134964683Y-83596838D01*
X134952736Y-83604526D01*
X133250389Y-81722026D01*
X133310742Y-81576681D01*
X133310754Y-81562854D01*
X134635975Y-81096137D01*
X134735910Y-81251441D01*
X134948110Y-81396431D01*
X135200000Y-81447440D01*
X136800000Y-81447440D01*
X137035317Y-81403162D01*
X137251441Y-81264090D01*
X137396431Y-81051890D01*
X137447440Y-80800000D01*
X137447440Y-79200000D01*
X137403162Y-78964683D01*
X137264090Y-78748559D01*
X137051890Y-78603569D01*
X136800000Y-78552560D01*
X135200000Y-78552560D01*
X134964683Y-78596838D01*
X134748559Y-78735910D01*
X134603569Y-78948110D01*
X134552560Y-79200000D01*
X134552560Y-79514005D01*
X132783354Y-80137084D01*
X132668283Y-80021812D01*
X132640443Y-80010252D01*
X132666086Y-79999656D01*
X133084188Y-79582283D01*
X133310742Y-79036681D01*
X133311257Y-78445911D01*
X133085656Y-77899914D01*
X132668283Y-77481812D01*
X132640443Y-77470252D01*
X132666086Y-77459656D01*
X133084188Y-77042283D01*
X133289222Y-76548508D01*
X133370409Y-76602756D01*
X133462528Y-76675916D01*
X133492898Y-76684600D01*
X133519161Y-76702148D01*
X133634535Y-76725098D01*
X133747639Y-76757437D01*
X133779020Y-76753838D01*
X133810000Y-76760000D01*
X139502560Y-76760000D01*
X139502560Y-76850000D01*
X139546838Y-77085317D01*
X139685910Y-77301441D01*
X139898110Y-77446431D01*
X140150000Y-77497440D01*
X141850000Y-77497440D01*
X142085317Y-77453162D01*
X142301441Y-77314090D01*
X142446431Y-77101890D01*
X142460086Y-77034459D01*
X142489946Y-77079147D01*
X142860000Y-77326409D01*
X142860000Y-78796333D01*
X142577189Y-78985302D01*
X142266120Y-79450849D01*
X142156887Y-80000000D01*
X142266120Y-80549151D01*
X142577189Y-81014698D01*
X143042736Y-81325767D01*
X143591887Y-81435000D01*
X143648113Y-81435000D01*
X144197264Y-81325767D01*
X144662811Y-81014698D01*
X144832995Y-80760000D01*
X150872345Y-80760000D01*
X151242796Y-81131098D01*
X151733287Y-81334768D01*
X152264383Y-81335231D01*
X152755229Y-81132418D01*
X153131098Y-80757204D01*
X153334768Y-80266713D01*
X153335231Y-79735617D01*
X153132418Y-79244771D01*
X152757204Y-78868902D01*
X152494939Y-78760000D01*
X159116250Y-78760000D01*
X159082964Y-78766621D01*
X158649858Y-79056012D01*
X158360467Y-79489118D01*
X158258846Y-80000000D01*
X158360467Y-80510882D01*
X158649858Y-80943988D01*
X159082964Y-81233379D01*
X159593846Y-81335000D01*
X159646154Y-81335000D01*
X160157036Y-81233379D01*
X160590142Y-80943988D01*
X160879533Y-80510882D01*
X160981154Y-80000000D01*
X160879533Y-79489118D01*
X160590142Y-79056012D01*
X160157036Y-78766621D01*
X160123750Y-78760000D01*
X160685198Y-78760000D01*
X161240000Y-79314802D01*
X161240000Y-82000000D01*
X161297852Y-82290839D01*
X161462599Y-82537401D01*
X162462599Y-83537401D01*
X162709161Y-83702148D01*
X163000000Y-83760000D01*
X189000000Y-83760000D01*
X189290839Y-83702148D01*
X189537401Y-83537401D01*
X190314802Y-82760000D01*
X196502560Y-82760000D01*
X196502560Y-82850000D01*
X196546838Y-83085317D01*
X196685910Y-83301441D01*
X196898110Y-83446431D01*
X196965541Y-83460086D01*
X196920853Y-83489946D01*
X196598946Y-83971715D01*
X196545581Y-84240000D01*
X153127655Y-84240000D01*
X152757204Y-83868902D01*
X152266713Y-83665232D01*
X151735617Y-83664769D01*
X151244771Y-83867582D01*
X150871703Y-84240000D01*
X144832995Y-84240000D01*
X144662811Y-83985302D01*
X144197264Y-83674233D01*
X143648113Y-83565000D01*
X143591887Y-83565000D01*
X143042736Y-83674233D01*
X142577189Y-83985302D01*
X142266120Y-84450849D01*
X142156887Y-85000000D01*
X142266120Y-85549151D01*
X142577189Y-86014698D01*
X143042736Y-86325767D01*
X143591887Y-86435000D01*
X143648113Y-86435000D01*
X144197264Y-86325767D01*
X144662811Y-86014698D01*
X144832995Y-85760000D01*
X150872345Y-85760000D01*
X151242796Y-86131098D01*
X151733287Y-86334768D01*
X152264383Y-86335231D01*
X152755229Y-86132418D01*
X153128297Y-85760000D01*
X197175196Y-85760000D01*
X197402622Y-85911961D01*
X197970907Y-86025000D01*
X198029093Y-86025000D01*
X198597378Y-85911961D01*
X199079147Y-85590054D01*
X199401054Y-85108285D01*
X199514093Y-84540000D01*
X199401054Y-83971715D01*
X199079147Y-83489946D01*
X199037548Y-83462150D01*
X199085317Y-83453162D01*
X199301441Y-83314090D01*
X199446431Y-83101890D01*
X199497440Y-82850000D01*
X199497440Y-81150000D01*
X199453162Y-80914683D01*
X199314090Y-80698559D01*
X199101890Y-80553569D01*
X198850000Y-80502560D01*
X197150000Y-80502560D01*
X196914683Y-80546838D01*
X196698559Y-80685910D01*
X196553569Y-80898110D01*
X196502560Y-81150000D01*
X196502560Y-81240000D01*
X190000000Y-81240000D01*
X189709161Y-81297852D01*
X189462599Y-81462599D01*
X188685198Y-82240000D01*
X186014344Y-82240000D01*
X192529183Y-75725161D01*
X193140481Y-75472578D01*
X193708085Y-74905963D01*
X194015650Y-74165267D01*
X194016349Y-73363252D01*
X193710078Y-72622019D01*
X193143463Y-72054415D01*
X192402767Y-71746850D01*
X191600752Y-71746151D01*
X190859519Y-72052422D01*
X190291915Y-72619037D01*
X190036490Y-73234166D01*
X184032656Y-79238000D01*
X179729844Y-79238000D01*
X179216531Y-78724687D01*
X179241713Y-78741513D01*
X179963071Y-78885000D01*
X180036929Y-78885000D01*
X180758287Y-78741513D01*
X181369825Y-78332896D01*
X181778442Y-77721358D01*
X181921929Y-77000000D01*
X181778442Y-76278642D01*
X181369825Y-75667104D01*
X180758287Y-75258487D01*
X180036929Y-75115000D01*
X179963071Y-75115000D01*
X179241713Y-75258487D01*
X178630175Y-75667104D01*
X178221558Y-76278642D01*
X178078071Y-77000000D01*
X178221558Y-77721358D01*
X178241403Y-77751059D01*
X177674289Y-77372124D01*
X177000000Y-77238000D01*
X176259776Y-77238000D01*
X176073669Y-76948781D01*
X175697056Y-76691452D01*
X175250000Y-76600921D01*
X172750000Y-76600921D01*
X172332359Y-76679506D01*
X171948781Y-76926331D01*
X171691452Y-77302944D01*
X171600921Y-77750000D01*
X171600921Y-80250000D01*
X171679506Y-80667641D01*
X171926331Y-81051219D01*
X172302944Y-81308548D01*
X172750000Y-81399079D01*
X175250000Y-81399079D01*
X175667641Y-81320494D01*
X176051219Y-81073669D01*
X176264174Y-80762000D01*
X176270156Y-80762000D01*
X177748156Y-82240000D01*
X163314802Y-82240000D01*
X162760000Y-81685198D01*
X162760000Y-79000000D01*
X162702148Y-78709161D01*
X162537401Y-78462599D01*
X161537401Y-77462599D01*
X161290839Y-77297852D01*
X161000000Y-77240000D01*
X151314802Y-77240000D01*
X150760000Y-76685198D01*
X150760000Y-73500000D01*
X151852560Y-73500000D01*
X151852560Y-74500000D01*
X151896838Y-74735317D01*
X152035910Y-74951441D01*
X152248110Y-75096431D01*
X152500000Y-75147440D01*
X153500000Y-75147440D01*
X153735317Y-75103162D01*
X153951441Y-74964090D01*
X154096431Y-74751890D01*
X154147440Y-74500000D01*
X154147440Y-73864894D01*
X154405117Y-73865119D01*
X154404803Y-74224775D01*
X154577233Y-74642086D01*
X154896235Y-74961645D01*
X155313244Y-75134803D01*
X155764775Y-75135197D01*
X156182086Y-74962767D01*
X156385207Y-74760000D01*
X157291302Y-74760000D01*
X158756619Y-75106754D01*
X158766621Y-75157036D01*
X159056012Y-75590142D01*
X159489118Y-75879533D01*
X160000000Y-75981154D01*
X160510882Y-75879533D01*
X160943988Y-75590142D01*
X161084400Y-75380000D01*
X161796333Y-75380000D01*
X161985302Y-75662811D01*
X162450849Y-75973880D01*
X163000000Y-76083113D01*
X163549151Y-75973880D01*
X163614994Y-75929885D01*
X166078776Y-76996458D01*
X166078071Y-77000000D01*
X166221558Y-77721358D01*
X166630175Y-78332896D01*
X167241713Y-78741513D01*
X167963071Y-78885000D01*
X168036929Y-78885000D01*
X168758287Y-78741513D01*
X169369825Y-78332896D01*
X169778442Y-77721358D01*
X169921929Y-77000000D01*
X169778442Y-76278642D01*
X169369825Y-75667104D01*
X168758287Y-75258487D01*
X168036929Y-75115000D01*
X167963071Y-75115000D01*
X167241713Y-75258487D01*
X166710331Y-75613545D01*
X164435000Y-74628554D01*
X164435000Y-74591887D01*
X164325767Y-74042736D01*
X164014698Y-73577189D01*
X163549151Y-73266120D01*
X163000000Y-73156887D01*
X162450849Y-73266120D01*
X161985302Y-73577189D01*
X161796333Y-73860000D01*
X161084400Y-73860000D01*
X160943988Y-73649858D01*
X160510882Y-73360467D01*
X160000000Y-73258846D01*
X159489118Y-73360467D01*
X159093847Y-73624577D01*
X157555014Y-73260426D01*
X157466688Y-73257243D01*
X157380000Y-73240000D01*
X156385059Y-73240000D01*
X156183765Y-73038355D01*
X155766756Y-72865197D01*
X155404883Y-72864881D01*
X155405197Y-72505225D01*
X155232767Y-72087914D01*
X154913765Y-71768355D01*
X154760000Y-71704506D01*
X154760000Y-69127655D01*
X155131098Y-68757204D01*
X155334768Y-68266713D01*
X155335231Y-67735617D01*
X155132418Y-67244771D01*
X154757204Y-66868902D01*
X154266713Y-66665232D01*
X153735617Y-66664769D01*
X153244771Y-66867582D01*
X152868902Y-67242796D01*
X152665232Y-67733287D01*
X152664769Y-68264383D01*
X152867582Y-68755229D01*
X153240000Y-69128297D01*
X153240000Y-72250851D01*
X153135197Y-72503244D01*
X153134892Y-72852560D01*
X152500000Y-72852560D01*
X152264683Y-72896838D01*
X152048559Y-73035910D01*
X151903569Y-73248110D01*
X151852560Y-73500000D01*
X150760000Y-73500000D01*
X150760000Y-72000000D01*
X150702148Y-71709161D01*
X150702148Y-71709160D01*
X150537401Y-71462599D01*
X149617401Y-70542599D01*
X149616653Y-70542099D01*
X149616153Y-70541355D01*
X149493629Y-70459898D01*
X149370839Y-70377852D01*
X149369957Y-70377677D01*
X149369210Y-70377180D01*
X149224662Y-70348775D01*
X149080000Y-70320000D01*
X149079119Y-70320175D01*
X149078238Y-70320002D01*
X133117509Y-70357004D01*
X133085656Y-70279914D01*
X132668283Y-69861812D01*
X132640443Y-69850252D01*
X132666086Y-69839656D01*
X133084188Y-69422283D01*
X133310742Y-68876681D01*
X133311257Y-68285911D01*
X133085656Y-67739914D01*
X132668283Y-67321812D01*
X132640443Y-67310252D01*
X132666086Y-67299656D01*
X133084188Y-66882283D01*
X133310742Y-66336681D01*
X133311257Y-65745911D01*
X133085656Y-65199914D01*
X132668283Y-64781812D01*
X132640443Y-64770252D01*
X132666086Y-64759656D01*
X133084188Y-64342283D01*
X133310742Y-63796681D01*
X133310816Y-63711873D01*
X135734364Y-63690953D01*
X135920853Y-63970054D01*
X136250026Y-64190000D01*
X135920853Y-64409946D01*
X135598946Y-64891715D01*
X135485907Y-65460000D01*
X135598946Y-66028285D01*
X135920853Y-66510054D01*
X135962452Y-66537850D01*
X135914683Y-66546838D01*
X135698559Y-66685910D01*
X135553569Y-66898110D01*
X135502560Y-67150000D01*
X135502560Y-68850000D01*
X135546838Y-69085317D01*
X135685910Y-69301441D01*
X135898110Y-69446431D01*
X136150000Y-69497440D01*
X137850000Y-69497440D01*
X138085317Y-69453162D01*
X138301441Y-69314090D01*
X138446431Y-69101890D01*
X138497440Y-68850000D01*
X138497440Y-67150000D01*
X138453162Y-66914683D01*
X138314090Y-66698559D01*
X138101890Y-66553569D01*
X138034459Y-66539914D01*
X138079147Y-66510054D01*
X138401054Y-66028285D01*
X138462750Y-65718118D01*
X140590434Y-63590434D01*
X140650860Y-63500000D01*
X140771439Y-63319541D01*
X140835000Y-63000000D01*
X140835000Y-60353846D01*
X152665000Y-60353846D01*
X152665000Y-60406154D01*
X152766621Y-60917036D01*
X153056012Y-61350142D01*
X153489118Y-61639533D01*
X154000000Y-61741154D01*
X154510882Y-61639533D01*
X154943988Y-61350142D01*
X155233379Y-60917036D01*
X155335000Y-60406154D01*
X155335000Y-60353846D01*
X155284507Y-60100000D01*
X158452560Y-60100000D01*
X158452560Y-61900000D01*
X158496838Y-62135317D01*
X158635910Y-62351441D01*
X158848110Y-62496431D01*
X158868534Y-62500567D01*
X158699449Y-62669357D01*
X158465267Y-63233330D01*
X158464735Y-63843991D01*
X158697932Y-64408371D01*
X159129357Y-64840551D01*
X159240000Y-64886494D01*
X159240000Y-65872345D01*
X158868902Y-66242796D01*
X158665232Y-66733287D01*
X158664769Y-67264383D01*
X158867582Y-67755229D01*
X159242796Y-68131098D01*
X159733287Y-68334768D01*
X160264383Y-68335231D01*
X160755229Y-68132418D01*
X161131098Y-67757204D01*
X161334768Y-67266713D01*
X161335231Y-66735617D01*
X161132418Y-66244771D01*
X161087726Y-66200000D01*
X161552560Y-66200000D01*
X161552560Y-67800000D01*
X161596838Y-68035317D01*
X161735910Y-68251441D01*
X161948110Y-68396431D01*
X162200000Y-68447440D01*
X163800000Y-68447440D01*
X164035317Y-68403162D01*
X164251441Y-68264090D01*
X164396431Y-68051890D01*
X164447440Y-67800000D01*
X164447440Y-66200000D01*
X164403162Y-65964683D01*
X164264090Y-65748559D01*
X164051890Y-65603569D01*
X163800000Y-65552560D01*
X162200000Y-65552560D01*
X161964683Y-65596838D01*
X161748559Y-65735910D01*
X161603569Y-65948110D01*
X161552560Y-66200000D01*
X161087726Y-66200000D01*
X160760000Y-65871703D01*
X160760000Y-64886846D01*
X160868371Y-64842068D01*
X160910512Y-64800000D01*
X166078071Y-64800000D01*
X166221558Y-65521358D01*
X166630175Y-66132896D01*
X167241713Y-66541513D01*
X167963071Y-66685000D01*
X168036929Y-66685000D01*
X168758287Y-66541513D01*
X169369825Y-66132896D01*
X169778442Y-65521358D01*
X169921929Y-64800000D01*
X169778442Y-64078642D01*
X169369825Y-63467104D01*
X168758287Y-63058487D01*
X168036929Y-62915000D01*
X167963071Y-62915000D01*
X167241713Y-63058487D01*
X166630175Y-63467104D01*
X166221558Y-64078642D01*
X166078071Y-64800000D01*
X160910512Y-64800000D01*
X161300551Y-64410643D01*
X161534733Y-63846670D01*
X161535265Y-63236009D01*
X161302068Y-62671629D01*
X161134120Y-62503387D01*
X161135317Y-62503162D01*
X161351441Y-62364090D01*
X161496431Y-62151890D01*
X161547440Y-61900000D01*
X161547440Y-60100000D01*
X161503162Y-59864683D01*
X161364090Y-59648559D01*
X161151890Y-59503569D01*
X160900000Y-59452560D01*
X159100000Y-59452560D01*
X158864683Y-59496838D01*
X158648559Y-59635910D01*
X158503569Y-59848110D01*
X158452560Y-60100000D01*
X155284507Y-60100000D01*
X155233379Y-59842964D01*
X154943988Y-59409858D01*
X154510882Y-59120467D01*
X154000000Y-59018846D01*
X153489118Y-59120467D01*
X153056012Y-59409858D01*
X152766621Y-59842964D01*
X152665000Y-60353846D01*
X140835000Y-60353846D01*
X140835000Y-55896661D01*
X149902758Y-55896661D01*
X150114990Y-56410303D01*
X150507630Y-56803629D01*
X151020900Y-57016757D01*
X151576661Y-57017242D01*
X152090303Y-56805010D01*
X152483629Y-56412370D01*
X152657310Y-55994097D01*
X177350673Y-55994097D01*
X177637650Y-56688635D01*
X178168570Y-57220483D01*
X178862606Y-57508672D01*
X179614097Y-57509327D01*
X180308635Y-57222350D01*
X180840483Y-56691430D01*
X181128672Y-55997394D01*
X181129327Y-55245903D01*
X180842350Y-54551365D01*
X180311430Y-54019517D01*
X179617394Y-53731328D01*
X178865903Y-53730673D01*
X178171365Y-54017650D01*
X177639517Y-54548570D01*
X177351328Y-55242606D01*
X177350673Y-55994097D01*
X152657310Y-55994097D01*
X152696757Y-55899100D01*
X152697242Y-55343339D01*
X152485010Y-54829697D01*
X152092370Y-54436371D01*
X151579100Y-54223243D01*
X151023339Y-54222758D01*
X150509697Y-54434990D01*
X150116371Y-54827630D01*
X149903243Y-55340900D01*
X149902758Y-55896661D01*
X140835000Y-55896661D01*
X140835000Y-55000000D01*
X140771439Y-54680459D01*
X140590434Y-54409566D01*
X140319541Y-54228561D01*
X140000000Y-54165000D01*
X135345868Y-54165000D01*
X135015868Y-53835000D01*
X143000000Y-53835000D01*
X143319541Y-53771439D01*
X143590434Y-53590434D01*
X148345868Y-48835000D01*
X150159609Y-48835000D01*
X150507630Y-49183629D01*
X151020900Y-49396757D01*
X151576661Y-49397242D01*
X152090303Y-49185010D01*
X152483629Y-48792370D01*
X152696757Y-48279100D01*
X152697242Y-47723339D01*
X152485010Y-47209697D01*
X152092370Y-46816371D01*
X151579100Y-46603243D01*
X151023339Y-46602758D01*
X150509697Y-46814990D01*
X150159075Y-47165000D01*
X148000000Y-47165000D01*
X147680459Y-47228561D01*
X147409566Y-47409566D01*
X142654132Y-52165000D01*
X134835000Y-52165000D01*
X134835000Y-47000000D01*
X134771439Y-46680459D01*
X134590434Y-46409566D01*
X133918962Y-45738094D01*
X136272355Y-45738094D01*
X136838561Y-47108418D01*
X137886068Y-48157754D01*
X139255402Y-48726351D01*
X140738094Y-48727645D01*
X142108418Y-48161439D01*
X143157754Y-47113932D01*
X143726351Y-45744598D01*
X143727645Y-44261906D01*
X143161439Y-42891582D01*
X142113932Y-41842246D01*
X140744598Y-41273649D01*
X139261906Y-41272355D01*
X137891582Y-41838561D01*
X136842246Y-42886068D01*
X136273649Y-44255402D01*
X136272355Y-45738094D01*
X133918962Y-45738094D01*
X133270434Y-45089566D01*
X133253941Y-45078545D01*
X133242162Y-45062588D01*
X133134278Y-44997590D01*
X133085656Y-44879914D01*
X132668283Y-44461812D01*
X132122681Y-44235258D01*
X131531911Y-44234743D01*
X130985914Y-44460344D01*
X130567812Y-44877717D01*
X130341258Y-45423319D01*
X130340743Y-46014089D01*
X110439005Y-46014089D01*
X110462718Y-45948721D01*
X110436315Y-45358542D01*
X110261259Y-44935920D01*
X110009958Y-44855647D01*
X109145605Y-45720000D01*
X108786395Y-45720000D01*
X107922042Y-44855647D01*
X107670741Y-44935920D01*
X107469282Y-45491279D01*
X107315000Y-45491279D01*
X107315000Y-44676042D01*
X108101647Y-44676042D01*
X108966000Y-45540395D01*
X109830353Y-44676042D01*
X109750080Y-44424741D01*
X109194721Y-44223282D01*
X108604542Y-44249685D01*
X108181920Y-44424741D01*
X108101647Y-44676042D01*
X107315000Y-44676042D01*
X107315000Y-40754097D01*
X177350673Y-40754097D01*
X177637650Y-41448635D01*
X178168570Y-41980483D01*
X178476505Y-42108349D01*
X181238000Y-44869844D01*
X181238000Y-61270156D01*
X180078754Y-62429402D01*
X180046568Y-62423000D01*
X179953432Y-62423000D01*
X179043793Y-62603938D01*
X178272639Y-63119207D01*
X177757370Y-63890361D01*
X177576432Y-64800000D01*
X177757370Y-65709639D01*
X178272639Y-66480793D01*
X179043793Y-66996062D01*
X179953432Y-67177000D01*
X180046568Y-67177000D01*
X180956207Y-66996062D01*
X181727361Y-66480793D01*
X182242630Y-65709639D01*
X182356955Y-65134889D01*
X184245922Y-63245922D01*
X184627876Y-62674289D01*
X184762000Y-62000000D01*
X184762000Y-53161748D01*
X189983651Y-53161748D01*
X190238000Y-53777320D01*
X190238000Y-63223878D01*
X189984350Y-63834733D01*
X189983651Y-64636748D01*
X190289922Y-65377981D01*
X190856537Y-65945585D01*
X191597233Y-66253150D01*
X192399248Y-66253849D01*
X193140481Y-65947578D01*
X193708085Y-65380963D01*
X194015650Y-64640267D01*
X194016349Y-63838252D01*
X193762000Y-63222680D01*
X193762000Y-53776122D01*
X194015650Y-53165267D01*
X194016349Y-52363252D01*
X193710078Y-51622019D01*
X193143463Y-51054415D01*
X192402767Y-50746850D01*
X191600752Y-50746151D01*
X190859519Y-51052422D01*
X190291915Y-51619037D01*
X189984350Y-52359733D01*
X189983651Y-53161748D01*
X184762000Y-53161748D01*
X184762000Y-44140000D01*
X184627876Y-43465712D01*
X184627876Y-43465711D01*
X184245922Y-42894078D01*
X183493844Y-42142000D01*
X188412656Y-42142000D01*
X190037339Y-43766683D01*
X190289922Y-44377981D01*
X190856537Y-44945585D01*
X191597233Y-45253150D01*
X192399248Y-45253849D01*
X193140481Y-44947578D01*
X193708085Y-44380963D01*
X194015650Y-43640267D01*
X194016349Y-42838252D01*
X193710078Y-42097019D01*
X193143463Y-41529415D01*
X192528334Y-41273990D01*
X190388422Y-39134078D01*
X189816789Y-38752124D01*
X189142500Y-38618000D01*
X179922454Y-38618000D01*
X179617394Y-38491328D01*
X178865903Y-38490673D01*
X178171365Y-38777650D01*
X177639517Y-39308570D01*
X177351328Y-40002606D01*
X177350673Y-40754097D01*
X107315000Y-40754097D01*
X107315000Y-38227000D01*
X200025000Y-38227000D01*
X200025000Y-104013000D01*
X200025000Y-104013000D01*
G37*
X200025000Y-104013000D02*
X107315000Y-104013000D01*
X107315000Y-102264383D01*
X128664769Y-102264383D01*
X128867582Y-102755229D01*
X129242796Y-103131098D01*
X129733287Y-103334768D01*
X130264383Y-103335231D01*
X130755229Y-103132418D01*
X131131098Y-102757204D01*
X131334768Y-102266713D01*
X131335000Y-102000000D01*
X136258846Y-102000000D01*
X136360467Y-102510882D01*
X136649858Y-102943988D01*
X137082964Y-103233379D01*
X137593846Y-103335000D01*
X137646154Y-103335000D01*
X138157036Y-103233379D01*
X138590142Y-102943988D01*
X138879533Y-102510882D01*
X138928564Y-102264383D01*
X140664769Y-102264383D01*
X140867582Y-102755229D01*
X141242796Y-103131098D01*
X141733287Y-103334768D01*
X142264383Y-103335231D01*
X142755229Y-103132418D01*
X143131098Y-102757204D01*
X143334768Y-102266713D01*
X143335000Y-102000000D01*
X148258846Y-102000000D01*
X148360467Y-102510882D01*
X148649858Y-102943988D01*
X149082964Y-103233379D01*
X149593846Y-103335000D01*
X149646154Y-103335000D01*
X150157036Y-103233379D01*
X150590142Y-102943988D01*
X150879533Y-102510882D01*
X150981154Y-102000000D01*
X150879533Y-101489118D01*
X150590142Y-101056012D01*
X150157036Y-100766621D01*
X149646154Y-100665000D01*
X149593846Y-100665000D01*
X149082964Y-100766621D01*
X148649858Y-101056012D01*
X148360467Y-101489118D01*
X148258846Y-102000000D01*
X143335000Y-102000000D01*
X143335231Y-101735617D01*
X143252811Y-101536144D01*
X143260000Y-101500000D01*
X143260000Y-98292747D01*
X143340086Y-98259656D01*
X143556160Y-98043958D01*
X148135647Y-98043958D01*
X148215920Y-98295259D01*
X148771279Y-98496718D01*
X149361458Y-98470315D01*
X149784080Y-98295259D01*
X149864353Y-98043958D01*
X149000000Y-97179605D01*
X148135647Y-98043958D01*
X143556160Y-98043958D01*
X143758188Y-97842283D01*
X143984742Y-97296681D01*
X143985200Y-96771279D01*
X147503282Y-96771279D01*
X147529685Y-97361458D01*
X147704741Y-97784080D01*
X147956042Y-97864353D01*
X148820395Y-97000000D01*
X149179605Y-97000000D01*
X150043958Y-97864353D01*
X150295259Y-97784080D01*
X150496718Y-97228721D01*
X150470315Y-96638542D01*
X150295259Y-96215920D01*
X150043958Y-96135647D01*
X149179605Y-97000000D01*
X148820395Y-97000000D01*
X147956042Y-96135647D01*
X147704741Y-96215920D01*
X147503282Y-96771279D01*
X143985200Y-96771279D01*
X143985257Y-96705911D01*
X143759656Y-96159914D01*
X143556140Y-95956042D01*
X148135647Y-95956042D01*
X149000000Y-96820395D01*
X149864353Y-95956042D01*
X149794734Y-95738094D01*
X186272355Y-95738094D01*
X186838561Y-97108418D01*
X187886068Y-98157754D01*
X189255402Y-98726351D01*
X190738094Y-98727645D01*
X192108418Y-98161439D01*
X193157754Y-97113932D01*
X193726351Y-95744598D01*
X193727645Y-94261906D01*
X193161439Y-92891582D01*
X192113932Y-91842246D01*
X190744598Y-91273649D01*
X189261906Y-91272355D01*
X187891582Y-91838561D01*
X186842246Y-92886068D01*
X186273649Y-94255402D01*
X186272355Y-95738094D01*
X149794734Y-95738094D01*
X149784080Y-95704741D01*
X149228721Y-95503282D01*
X148638542Y-95529685D01*
X148215920Y-95704741D01*
X148135647Y-95956042D01*
X143556140Y-95956042D01*
X143342283Y-95741812D01*
X142796681Y-95515258D01*
X142205911Y-95514743D01*
X141659914Y-95740344D01*
X141241812Y-96157717D01*
X141015258Y-96703319D01*
X141014743Y-97294089D01*
X141240344Y-97840086D01*
X141657717Y-98258188D01*
X141740000Y-98292355D01*
X141740000Y-100664773D01*
X141735617Y-100664769D01*
X141244771Y-100867582D01*
X140868902Y-101242796D01*
X140665232Y-101733287D01*
X140664769Y-102264383D01*
X138928564Y-102264383D01*
X138981154Y-102000000D01*
X138879533Y-101489118D01*
X138590142Y-101056012D01*
X138157036Y-100766621D01*
X137646154Y-100665000D01*
X137593846Y-100665000D01*
X137082964Y-100766621D01*
X136649858Y-101056012D01*
X136360467Y-101489118D01*
X136258846Y-102000000D01*
X131335000Y-102000000D01*
X131335231Y-101735617D01*
X131132418Y-101244771D01*
X130760000Y-100871703D01*
X130760000Y-98485227D01*
X130794089Y-98485257D01*
X131340086Y-98259656D01*
X131758188Y-97842283D01*
X131984742Y-97296681D01*
X131985257Y-96705911D01*
X131759656Y-96159914D01*
X131342283Y-95741812D01*
X130796681Y-95515258D01*
X130205911Y-95514743D01*
X129659914Y-95740344D01*
X129241812Y-96157717D01*
X129015258Y-96703319D01*
X129014743Y-97294089D01*
X129240000Y-97839253D01*
X129240000Y-100872345D01*
X128868902Y-101242796D01*
X128665232Y-101733287D01*
X128664769Y-102264383D01*
X107315000Y-102264383D01*
X107315000Y-98730000D01*
X109912560Y-98730000D01*
X109912560Y-100530000D01*
X109956838Y-100765317D01*
X110095910Y-100981441D01*
X110308110Y-101126431D01*
X110560000Y-101177440D01*
X112360000Y-101177440D01*
X112595317Y-101133162D01*
X112811441Y-100994090D01*
X112956431Y-100781890D01*
X112960567Y-100761466D01*
X113129357Y-100930551D01*
X113693330Y-101164733D01*
X114303991Y-101165265D01*
X114868371Y-100932068D01*
X115300551Y-100500643D01*
X115534733Y-99936670D01*
X115535265Y-99326009D01*
X115302068Y-98761629D01*
X115270495Y-98730000D01*
X121482560Y-98730000D01*
X121482560Y-100530000D01*
X121526838Y-100765317D01*
X121665910Y-100981441D01*
X121878110Y-101126431D01*
X122130000Y-101177440D01*
X123930000Y-101177440D01*
X124165317Y-101133162D01*
X124381441Y-100994090D01*
X124526431Y-100781890D01*
X124530567Y-100761466D01*
X124699357Y-100930551D01*
X125263330Y-101164733D01*
X125873991Y-101165265D01*
X126438371Y-100932068D01*
X126870551Y-100500643D01*
X127104733Y-99936670D01*
X127105265Y-99326009D01*
X126872068Y-98761629D01*
X126440643Y-98329449D01*
X126330000Y-98283506D01*
X126330000Y-96067052D01*
X127589713Y-94334178D01*
X127593846Y-94335000D01*
X127646154Y-94335000D01*
X128157036Y-94233379D01*
X128590142Y-93943988D01*
X128879533Y-93510882D01*
X128981154Y-93000000D01*
X128879533Y-92489118D01*
X128590142Y-92056012D01*
X128157036Y-91766621D01*
X127646154Y-91665000D01*
X127593846Y-91665000D01*
X127082964Y-91766621D01*
X126649858Y-92056012D01*
X126360467Y-92489118D01*
X126258846Y-93000000D01*
X126349414Y-93455315D01*
X124955266Y-95373119D01*
X124917687Y-95454577D01*
X124867852Y-95529161D01*
X124856157Y-95587953D01*
X124831047Y-95642384D01*
X124827501Y-95732017D01*
X124810000Y-95820000D01*
X124810000Y-98283154D01*
X124701629Y-98327932D01*
X124533387Y-98495880D01*
X124533162Y-98494683D01*
X124394090Y-98278559D01*
X124181890Y-98133569D01*
X123930000Y-98082560D01*
X122130000Y-98082560D01*
X121894683Y-98126838D01*
X121678559Y-98265910D01*
X121533569Y-98478110D01*
X121482560Y-98730000D01*
X115270495Y-98730000D01*
X114870643Y-98329449D01*
X114760000Y-98283506D01*
X114760000Y-96118563D01*
X116444644Y-94305322D01*
X116593846Y-94335000D01*
X116646154Y-94335000D01*
X117157036Y-94233379D01*
X117590142Y-93943988D01*
X117879533Y-93510882D01*
X117981154Y-93000000D01*
X117879533Y-92489118D01*
X117590142Y-92056012D01*
X117157036Y-91766621D01*
X116646154Y-91665000D01*
X116593846Y-91665000D01*
X116082964Y-91766621D01*
X115649858Y-92056012D01*
X115360467Y-92489118D01*
X115258846Y-93000000D01*
X115315940Y-93287028D01*
X113443218Y-95302706D01*
X113372619Y-95417265D01*
X113297852Y-95529161D01*
X113295084Y-95543077D01*
X113287641Y-95555154D01*
X113266255Y-95688011D01*
X113240000Y-95820000D01*
X113240000Y-98283154D01*
X113131629Y-98327932D01*
X112963387Y-98495880D01*
X112963162Y-98494683D01*
X112824090Y-98278559D01*
X112611890Y-98133569D01*
X112360000Y-98082560D01*
X110560000Y-98082560D01*
X110324683Y-98126838D01*
X110108559Y-98265910D01*
X109963569Y-98478110D01*
X109912560Y-98730000D01*
X107315000Y-98730000D01*
X107315000Y-76200000D01*
X107476000Y-76200000D01*
X107480978Y-76225024D01*
X107480743Y-76494089D01*
X107706344Y-77040086D01*
X108123717Y-77458188D01*
X108151557Y-77469748D01*
X108125914Y-77480344D01*
X107707812Y-77897717D01*
X107481258Y-78443319D01*
X107480743Y-79034089D01*
X107706344Y-79580086D01*
X108123717Y-79998188D01*
X108151557Y-80009748D01*
X108125914Y-80020344D01*
X107707812Y-80437717D01*
X107481258Y-80983319D01*
X107480743Y-81574089D01*
X107706344Y-82120086D01*
X108123717Y-82538188D01*
X108669319Y-82764742D01*
X109260089Y-82765257D01*
X109806086Y-82539656D01*
X110224188Y-82122283D01*
X110240000Y-82084204D01*
X110240000Y-82685198D01*
X108462599Y-84462599D01*
X108297852Y-84709161D01*
X108240000Y-85000000D01*
X108240000Y-91872345D01*
X107868902Y-92242796D01*
X107665232Y-92733287D01*
X107664769Y-93264383D01*
X107867582Y-93755229D01*
X108242796Y-94131098D01*
X108733287Y-94334768D01*
X109264383Y-94335231D01*
X109755229Y-94132418D01*
X110131098Y-93757204D01*
X110334768Y-93266713D01*
X110335231Y-92735617D01*
X110132418Y-92244771D01*
X109760000Y-91871703D01*
X109760000Y-85314802D01*
X111537401Y-83537401D01*
X111702148Y-83290839D01*
X111760000Y-83000000D01*
X111760000Y-81130000D01*
X111736915Y-81013946D01*
X111723214Y-80896417D01*
X111708172Y-80869447D01*
X111702148Y-80839161D01*
X111636414Y-80740783D01*
X111578775Y-80637435D01*
X110373916Y-79221697D01*
X110450742Y-79036681D01*
X110451257Y-78445911D01*
X110225656Y-77899914D01*
X109808283Y-77481812D01*
X109780443Y-77470252D01*
X109806086Y-77459656D01*
X110224188Y-77042283D01*
X110263378Y-76947903D01*
X112932147Y-76922949D01*
X119240000Y-83230802D01*
X119240000Y-91872345D01*
X118868902Y-92242796D01*
X118665232Y-92733287D01*
X118664769Y-93264383D01*
X118867582Y-93755229D01*
X119242796Y-94131098D01*
X119733287Y-94334768D01*
X120264383Y-94335231D01*
X120755229Y-94132418D01*
X121131098Y-93757204D01*
X121334768Y-93266713D01*
X121335231Y-92735617D01*
X121132418Y-92244771D01*
X120760000Y-91871703D01*
X120760000Y-82916000D01*
X120739838Y-82814641D01*
X129412512Y-91487315D01*
X129241812Y-91657717D01*
X129015258Y-92203319D01*
X129014743Y-92794089D01*
X129240344Y-93340086D01*
X129657717Y-93758188D01*
X130203319Y-93984742D01*
X130794089Y-93985257D01*
X131340086Y-93759656D01*
X131758188Y-93342283D01*
X131984742Y-92796681D01*
X131985070Y-92419872D01*
X132336000Y-92770802D01*
X132336000Y-99568000D01*
X132393852Y-99858839D01*
X132558599Y-100105401D01*
X132805161Y-100270148D01*
X133096000Y-100328000D01*
X139700000Y-100328000D01*
X139990839Y-100270148D01*
X140237401Y-100105401D01*
X140402148Y-99858839D01*
X140460000Y-99568000D01*
X140460000Y-93260000D01*
X141207253Y-93260000D01*
X141240344Y-93340086D01*
X141657717Y-93758188D01*
X142203319Y-93984742D01*
X142794089Y-93985257D01*
X143340086Y-93759656D01*
X143556160Y-93543958D01*
X148135647Y-93543958D01*
X148215920Y-93795259D01*
X148771279Y-93996718D01*
X149361458Y-93970315D01*
X149784080Y-93795259D01*
X149864353Y-93543958D01*
X149000000Y-92679605D01*
X148135647Y-93543958D01*
X143556160Y-93543958D01*
X143758188Y-93342283D01*
X143984742Y-92796681D01*
X143985200Y-92271279D01*
X147503282Y-92271279D01*
X147529685Y-92861458D01*
X147704741Y-93284080D01*
X147956042Y-93364353D01*
X148820395Y-92500000D01*
X149179605Y-92500000D01*
X150043958Y-93364353D01*
X150295259Y-93284080D01*
X150496718Y-92728721D01*
X150490685Y-92593846D01*
X150665000Y-92593846D01*
X150665000Y-92646154D01*
X150766621Y-93157036D01*
X151056012Y-93590142D01*
X151489118Y-93879533D01*
X152000000Y-93981154D01*
X152510882Y-93879533D01*
X152943988Y-93590142D01*
X153233379Y-93157036D01*
X153335000Y-92646154D01*
X153335000Y-92593846D01*
X153233379Y-92082964D01*
X152943988Y-91649858D01*
X152510882Y-91360467D01*
X152000000Y-91258846D01*
X151489118Y-91360467D01*
X151056012Y-91649858D01*
X150766621Y-92082964D01*
X150665000Y-92593846D01*
X150490685Y-92593846D01*
X150470315Y-92138542D01*
X150295259Y-91715920D01*
X150043958Y-91635647D01*
X149179605Y-92500000D01*
X148820395Y-92500000D01*
X147956042Y-91635647D01*
X147704741Y-91715920D01*
X147503282Y-92271279D01*
X143985200Y-92271279D01*
X143985257Y-92205911D01*
X143759656Y-91659914D01*
X143556140Y-91456042D01*
X148135647Y-91456042D01*
X149000000Y-92320395D01*
X149864353Y-91456042D01*
X149784080Y-91204741D01*
X149228721Y-91003282D01*
X148638542Y-91029685D01*
X148215920Y-91204741D01*
X148135647Y-91456042D01*
X143556140Y-91456042D01*
X143342283Y-91241812D01*
X142796681Y-91015258D01*
X142205911Y-91014743D01*
X141659914Y-91240344D01*
X141241812Y-91657717D01*
X141207645Y-91740000D01*
X139744000Y-91740000D01*
X139453160Y-91797852D01*
X139206599Y-91962599D01*
X139162599Y-92006599D01*
X138997852Y-92253161D01*
X138940000Y-92544000D01*
X138940000Y-98808000D01*
X133856000Y-98808000D01*
X133856000Y-98043958D01*
X136135647Y-98043958D01*
X136215920Y-98295259D01*
X136771279Y-98496718D01*
X137361458Y-98470315D01*
X137784080Y-98295259D01*
X137864353Y-98043958D01*
X137000000Y-97179605D01*
X136135647Y-98043958D01*
X133856000Y-98043958D01*
X133856000Y-96771279D01*
X135503282Y-96771279D01*
X135529685Y-97361458D01*
X135704741Y-97784080D01*
X135956042Y-97864353D01*
X136820395Y-97000000D01*
X137179605Y-97000000D01*
X138043958Y-97864353D01*
X138295259Y-97784080D01*
X138496718Y-97228721D01*
X138470315Y-96638542D01*
X138295259Y-96215920D01*
X138043958Y-96135647D01*
X137179605Y-97000000D01*
X136820395Y-97000000D01*
X135956042Y-96135647D01*
X135704741Y-96215920D01*
X135503282Y-96771279D01*
X133856000Y-96771279D01*
X133856000Y-95956042D01*
X136135647Y-95956042D01*
X137000000Y-96820395D01*
X137864353Y-95956042D01*
X137784080Y-95704741D01*
X137228721Y-95503282D01*
X136638542Y-95529685D01*
X136215920Y-95704741D01*
X136135647Y-95956042D01*
X133856000Y-95956042D01*
X133856000Y-93543958D01*
X136135647Y-93543958D01*
X136215920Y-93795259D01*
X136771279Y-93996718D01*
X137361458Y-93970315D01*
X137784080Y-93795259D01*
X137864353Y-93543958D01*
X137000000Y-92679605D01*
X136135647Y-93543958D01*
X133856000Y-93543958D01*
X133856000Y-92456000D01*
X133819257Y-92271279D01*
X135503282Y-92271279D01*
X135529685Y-92861458D01*
X135704741Y-93284080D01*
X135956042Y-93364353D01*
X136820395Y-92500000D01*
X137179605Y-92500000D01*
X138043958Y-93364353D01*
X138295259Y-93284080D01*
X138496718Y-92728721D01*
X138470315Y-92138542D01*
X138295259Y-91715920D01*
X138043958Y-91635647D01*
X137179605Y-92500000D01*
X136820395Y-92500000D01*
X135956042Y-91635647D01*
X135704741Y-91715920D01*
X135503282Y-92271279D01*
X133819257Y-92271279D01*
X133798148Y-92165161D01*
X133633401Y-91918599D01*
X133170844Y-91456042D01*
X136135647Y-91456042D01*
X137000000Y-92320395D01*
X137864353Y-91456042D01*
X137784080Y-91204741D01*
X137228721Y-91003282D01*
X136638542Y-91029685D01*
X136215920Y-91204741D01*
X136135647Y-91456042D01*
X133170844Y-91456042D01*
X112257401Y-70542599D01*
X112252728Y-70539476D01*
X112249539Y-70534851D01*
X112129625Y-70457222D01*
X112010839Y-70377852D01*
X112005328Y-70376756D01*
X112000611Y-70373702D01*
X111860104Y-70347869D01*
X111720000Y-70320000D01*
X111714489Y-70321096D01*
X111708962Y-70320080D01*
X110251002Y-70341256D01*
X110225656Y-70279914D01*
X109808283Y-69861812D01*
X109760688Y-69842049D01*
X109830353Y-69623958D01*
X108966000Y-68759605D01*
X108101647Y-69623958D01*
X108171181Y-69841640D01*
X108125914Y-69860344D01*
X107707812Y-70277717D01*
X107481258Y-70823319D01*
X107480743Y-71414089D01*
X107706344Y-71960086D01*
X108123717Y-72378188D01*
X108151557Y-72389748D01*
X108125914Y-72400344D01*
X107707812Y-72817717D01*
X107481258Y-73363319D01*
X107480743Y-73954089D01*
X107706344Y-74500086D01*
X108123717Y-74918188D01*
X108151557Y-74929748D01*
X108125914Y-74940344D01*
X107707812Y-75357717D01*
X107481258Y-75903319D01*
X107481021Y-76174756D01*
X107476000Y-76200000D01*
X107315000Y-76200000D01*
X107315000Y-68351279D01*
X107469282Y-68351279D01*
X107495685Y-68941458D01*
X107670741Y-69364080D01*
X107922042Y-69444353D01*
X108786395Y-68580000D01*
X109145605Y-68580000D01*
X110009958Y-69444353D01*
X110261259Y-69364080D01*
X110462718Y-68808721D01*
X110436315Y-68218542D01*
X110261259Y-67795920D01*
X110009958Y-67715647D01*
X109145605Y-68580000D01*
X108786395Y-68580000D01*
X107922042Y-67715647D01*
X107670741Y-67795920D01*
X107469282Y-68351279D01*
X107315000Y-68351279D01*
X107315000Y-48554089D01*
X107480743Y-48554089D01*
X107706344Y-49100086D01*
X108123717Y-49518188D01*
X108151557Y-49529748D01*
X108125914Y-49540344D01*
X107707812Y-49957717D01*
X107481258Y-50503319D01*
X107480743Y-51094089D01*
X107706344Y-51640086D01*
X108123717Y-52058188D01*
X108151557Y-52069748D01*
X108125914Y-52080344D01*
X107707812Y-52497717D01*
X107481258Y-53043319D01*
X107480743Y-53634089D01*
X107706344Y-54180086D01*
X108123717Y-54598188D01*
X108151557Y-54609748D01*
X108125914Y-54620344D01*
X107707812Y-55037717D01*
X107481258Y-55583319D01*
X107480743Y-56174089D01*
X107706344Y-56720086D01*
X108123717Y-57138188D01*
X108151557Y-57149748D01*
X108125914Y-57160344D01*
X107707812Y-57577717D01*
X107481258Y-58123319D01*
X107480743Y-58714089D01*
X107706344Y-59260086D01*
X108123717Y-59678188D01*
X108151557Y-59689748D01*
X108125914Y-59700344D01*
X107707812Y-60117717D01*
X107481258Y-60663319D01*
X107480743Y-61254089D01*
X107706344Y-61800086D01*
X108123717Y-62218188D01*
X108151557Y-62229748D01*
X108125914Y-62240344D01*
X107707812Y-62657717D01*
X107481258Y-63203319D01*
X107480743Y-63794089D01*
X107706344Y-64340086D01*
X108123717Y-64758188D01*
X108151557Y-64769748D01*
X108125914Y-64780344D01*
X107707812Y-65197717D01*
X107481258Y-65743319D01*
X107480743Y-66334089D01*
X107706344Y-66880086D01*
X108123717Y-67298188D01*
X108171312Y-67317951D01*
X108101647Y-67536042D01*
X108966000Y-68400395D01*
X109830353Y-67536042D01*
X109760819Y-67318360D01*
X109806086Y-67299656D01*
X110224188Y-66882283D01*
X110450742Y-66336681D01*
X110451257Y-65745911D01*
X110225656Y-65199914D01*
X109808283Y-64781812D01*
X109780443Y-64770252D01*
X109806086Y-64759656D01*
X110224188Y-64342283D01*
X110450742Y-63796681D01*
X110451257Y-63205911D01*
X110225656Y-62659914D01*
X109808283Y-62241812D01*
X109780443Y-62230252D01*
X109806086Y-62219656D01*
X110224188Y-61802283D01*
X110450742Y-61256681D01*
X110451257Y-60665911D01*
X110225656Y-60119914D01*
X109808283Y-59701812D01*
X109780443Y-59690252D01*
X109806086Y-59679656D01*
X110224188Y-59262283D01*
X110450742Y-58716681D01*
X110451257Y-58125911D01*
X110225656Y-57579914D01*
X109808283Y-57161812D01*
X109780443Y-57150252D01*
X109806086Y-57139656D01*
X110224188Y-56722283D01*
X110450742Y-56176681D01*
X110451257Y-55585911D01*
X110225656Y-55039914D01*
X109808283Y-54621812D01*
X109780443Y-54610252D01*
X109806086Y-54599656D01*
X110224188Y-54182283D01*
X110450742Y-53636681D01*
X110451257Y-53045911D01*
X110225656Y-52499914D01*
X109808283Y-52081812D01*
X109780443Y-52070252D01*
X109806086Y-52059656D01*
X110224188Y-51642283D01*
X110450742Y-51096681D01*
X110451257Y-50505911D01*
X110225656Y-49959914D01*
X109808283Y-49541812D01*
X109780443Y-49530252D01*
X109806086Y-49519656D01*
X110224188Y-49102283D01*
X110450742Y-48556681D01*
X110451257Y-47965911D01*
X110225656Y-47419914D01*
X109808283Y-47001812D01*
X109760688Y-46982049D01*
X109830353Y-46763958D01*
X108966000Y-45899605D01*
X108101647Y-46763958D01*
X108171181Y-46981640D01*
X108125914Y-47000344D01*
X107707812Y-47417717D01*
X107481258Y-47963319D01*
X107480743Y-48554089D01*
X107315000Y-48554089D01*
X107315000Y-45491279D01*
X107469282Y-45491279D01*
X107495685Y-46081458D01*
X107670741Y-46504080D01*
X107922042Y-46584353D01*
X108786395Y-45720000D01*
X109145605Y-45720000D01*
X110009958Y-46584353D01*
X110261259Y-46504080D01*
X110439005Y-46014089D01*
X130340743Y-46014089D01*
X130566344Y-46560086D01*
X130983717Y-46978188D01*
X131011557Y-46989748D01*
X130985914Y-47000344D01*
X130567812Y-47417717D01*
X130341258Y-47963319D01*
X130340743Y-48554089D01*
X130566344Y-49100086D01*
X130983717Y-49518188D01*
X131011557Y-49529748D01*
X130985914Y-49540344D01*
X130567812Y-49957717D01*
X130341258Y-50503319D01*
X130340743Y-51094089D01*
X130566344Y-51640086D01*
X130983717Y-52058188D01*
X131011557Y-52069748D01*
X130985914Y-52080344D01*
X130567812Y-52497717D01*
X130341258Y-53043319D01*
X130340743Y-53634089D01*
X130566344Y-54180086D01*
X130983717Y-54598188D01*
X131011557Y-54609748D01*
X130985914Y-54620344D01*
X130567812Y-55037717D01*
X130341258Y-55583319D01*
X130340743Y-56174089D01*
X130566344Y-56720086D01*
X130983717Y-57138188D01*
X131011557Y-57149748D01*
X130985914Y-57160344D01*
X130567812Y-57577717D01*
X130341258Y-58123319D01*
X130340743Y-58714089D01*
X130566344Y-59260086D01*
X130983717Y-59678188D01*
X131011557Y-59689748D01*
X130985914Y-59700344D01*
X130567812Y-60117717D01*
X130341258Y-60663319D01*
X130340743Y-61254089D01*
X130566344Y-61800086D01*
X130983717Y-62218188D01*
X131011557Y-62229748D01*
X130985914Y-62240344D01*
X130567812Y-62657717D01*
X130341258Y-63203319D01*
X130340743Y-63794089D01*
X130566344Y-64340086D01*
X130983717Y-64758188D01*
X131011557Y-64769748D01*
X130985914Y-64780344D01*
X130567812Y-65197717D01*
X130341258Y-65743319D01*
X130340743Y-66334089D01*
X130566344Y-66880086D01*
X130983717Y-67298188D01*
X131011557Y-67309748D01*
X130985914Y-67320344D01*
X130567812Y-67737717D01*
X130341258Y-68283319D01*
X130340743Y-68874089D01*
X130566344Y-69420086D01*
X130983717Y-69838188D01*
X131011557Y-69849748D01*
X130985914Y-69860344D01*
X130567812Y-70277717D01*
X130341258Y-70823319D01*
X130340743Y-71414089D01*
X130566344Y-71960086D01*
X130983717Y-72378188D01*
X131011557Y-72389748D01*
X130985914Y-72400344D01*
X130567812Y-72817717D01*
X130341258Y-73363319D01*
X130340743Y-73954089D01*
X130566344Y-74500086D01*
X130983717Y-74918188D01*
X131011557Y-74929748D01*
X130985914Y-74940344D01*
X130567812Y-75357717D01*
X130341258Y-75903319D01*
X130340743Y-76494089D01*
X130566344Y-77040086D01*
X130983717Y-77458188D01*
X131011557Y-77469748D01*
X130985914Y-77480344D01*
X130567812Y-77897717D01*
X130341258Y-78443319D01*
X130340743Y-79034089D01*
X130566344Y-79580086D01*
X130983717Y-79998188D01*
X131011557Y-80009748D01*
X130985914Y-80020344D01*
X130567812Y-80437717D01*
X130341258Y-80983319D01*
X130340743Y-81574089D01*
X130566344Y-82120086D01*
X130983717Y-82538188D01*
X131529319Y-82764742D01*
X132120089Y-82765257D01*
X132137827Y-82757928D01*
X134552560Y-85428204D01*
X134552560Y-85800000D01*
X134596838Y-86035317D01*
X134735910Y-86251441D01*
X134948110Y-86396431D01*
X135200000Y-86447440D01*
X136800000Y-86447440D01*
X137035317Y-86403162D01*
X137251441Y-86264090D01*
X137396431Y-86051890D01*
X137447440Y-85800000D01*
X137447440Y-84200000D01*
X137403162Y-83964683D01*
X137264090Y-83748559D01*
X137051890Y-83603569D01*
X136800000Y-83552560D01*
X135200000Y-83552560D01*
X134964683Y-83596838D01*
X134952736Y-83604526D01*
X133250389Y-81722026D01*
X133310742Y-81576681D01*
X133310754Y-81562854D01*
X134635975Y-81096137D01*
X134735910Y-81251441D01*
X134948110Y-81396431D01*
X135200000Y-81447440D01*
X136800000Y-81447440D01*
X137035317Y-81403162D01*
X137251441Y-81264090D01*
X137396431Y-81051890D01*
X137447440Y-80800000D01*
X137447440Y-79200000D01*
X137403162Y-78964683D01*
X137264090Y-78748559D01*
X137051890Y-78603569D01*
X136800000Y-78552560D01*
X135200000Y-78552560D01*
X134964683Y-78596838D01*
X134748559Y-78735910D01*
X134603569Y-78948110D01*
X134552560Y-79200000D01*
X134552560Y-79514005D01*
X132783354Y-80137084D01*
X132668283Y-80021812D01*
X132640443Y-80010252D01*
X132666086Y-79999656D01*
X133084188Y-79582283D01*
X133310742Y-79036681D01*
X133311257Y-78445911D01*
X133085656Y-77899914D01*
X132668283Y-77481812D01*
X132640443Y-77470252D01*
X132666086Y-77459656D01*
X133084188Y-77042283D01*
X133289222Y-76548508D01*
X133370409Y-76602756D01*
X133462528Y-76675916D01*
X133492898Y-76684600D01*
X133519161Y-76702148D01*
X133634535Y-76725098D01*
X133747639Y-76757437D01*
X133779020Y-76753838D01*
X133810000Y-76760000D01*
X139502560Y-76760000D01*
X139502560Y-76850000D01*
X139546838Y-77085317D01*
X139685910Y-77301441D01*
X139898110Y-77446431D01*
X140150000Y-77497440D01*
X141850000Y-77497440D01*
X142085317Y-77453162D01*
X142301441Y-77314090D01*
X142446431Y-77101890D01*
X142460086Y-77034459D01*
X142489946Y-77079147D01*
X142860000Y-77326409D01*
X142860000Y-78796333D01*
X142577189Y-78985302D01*
X142266120Y-79450849D01*
X142156887Y-80000000D01*
X142266120Y-80549151D01*
X142577189Y-81014698D01*
X143042736Y-81325767D01*
X143591887Y-81435000D01*
X143648113Y-81435000D01*
X144197264Y-81325767D01*
X144662811Y-81014698D01*
X144832995Y-80760000D01*
X150872345Y-80760000D01*
X151242796Y-81131098D01*
X151733287Y-81334768D01*
X152264383Y-81335231D01*
X152755229Y-81132418D01*
X153131098Y-80757204D01*
X153334768Y-80266713D01*
X153335231Y-79735617D01*
X153132418Y-79244771D01*
X152757204Y-78868902D01*
X152494939Y-78760000D01*
X159116250Y-78760000D01*
X159082964Y-78766621D01*
X158649858Y-79056012D01*
X158360467Y-79489118D01*
X158258846Y-80000000D01*
X158360467Y-80510882D01*
X158649858Y-80943988D01*
X159082964Y-81233379D01*
X159593846Y-81335000D01*
X159646154Y-81335000D01*
X160157036Y-81233379D01*
X160590142Y-80943988D01*
X160879533Y-80510882D01*
X160981154Y-80000000D01*
X160879533Y-79489118D01*
X160590142Y-79056012D01*
X160157036Y-78766621D01*
X160123750Y-78760000D01*
X160685198Y-78760000D01*
X161240000Y-79314802D01*
X161240000Y-82000000D01*
X161297852Y-82290839D01*
X161462599Y-82537401D01*
X162462599Y-83537401D01*
X162709161Y-83702148D01*
X163000000Y-83760000D01*
X189000000Y-83760000D01*
X189290839Y-83702148D01*
X189537401Y-83537401D01*
X190314802Y-82760000D01*
X196502560Y-82760000D01*
X196502560Y-82850000D01*
X196546838Y-83085317D01*
X196685910Y-83301441D01*
X196898110Y-83446431D01*
X196965541Y-83460086D01*
X196920853Y-83489946D01*
X196598946Y-83971715D01*
X196545581Y-84240000D01*
X153127655Y-84240000D01*
X152757204Y-83868902D01*
X152266713Y-83665232D01*
X151735617Y-83664769D01*
X151244771Y-83867582D01*
X150871703Y-84240000D01*
X144832995Y-84240000D01*
X144662811Y-83985302D01*
X144197264Y-83674233D01*
X143648113Y-83565000D01*
X143591887Y-83565000D01*
X143042736Y-83674233D01*
X142577189Y-83985302D01*
X142266120Y-84450849D01*
X142156887Y-85000000D01*
X142266120Y-85549151D01*
X142577189Y-86014698D01*
X143042736Y-86325767D01*
X143591887Y-86435000D01*
X143648113Y-86435000D01*
X144197264Y-86325767D01*
X144662811Y-86014698D01*
X144832995Y-85760000D01*
X150872345Y-85760000D01*
X151242796Y-86131098D01*
X151733287Y-86334768D01*
X152264383Y-86335231D01*
X152755229Y-86132418D01*
X153128297Y-85760000D01*
X197175196Y-85760000D01*
X197402622Y-85911961D01*
X197970907Y-86025000D01*
X198029093Y-86025000D01*
X198597378Y-85911961D01*
X199079147Y-85590054D01*
X199401054Y-85108285D01*
X199514093Y-84540000D01*
X199401054Y-83971715D01*
X199079147Y-83489946D01*
X199037548Y-83462150D01*
X199085317Y-83453162D01*
X199301441Y-83314090D01*
X199446431Y-83101890D01*
X199497440Y-82850000D01*
X199497440Y-81150000D01*
X199453162Y-80914683D01*
X199314090Y-80698559D01*
X199101890Y-80553569D01*
X198850000Y-80502560D01*
X197150000Y-80502560D01*
X196914683Y-80546838D01*
X196698559Y-80685910D01*
X196553569Y-80898110D01*
X196502560Y-81150000D01*
X196502560Y-81240000D01*
X190000000Y-81240000D01*
X189709161Y-81297852D01*
X189462599Y-81462599D01*
X188685198Y-82240000D01*
X186014344Y-82240000D01*
X192529183Y-75725161D01*
X193140481Y-75472578D01*
X193708085Y-74905963D01*
X194015650Y-74165267D01*
X194016349Y-73363252D01*
X193710078Y-72622019D01*
X193143463Y-72054415D01*
X192402767Y-71746850D01*
X191600752Y-71746151D01*
X190859519Y-72052422D01*
X190291915Y-72619037D01*
X190036490Y-73234166D01*
X184032656Y-79238000D01*
X179729844Y-79238000D01*
X179216531Y-78724687D01*
X179241713Y-78741513D01*
X179963071Y-78885000D01*
X180036929Y-78885000D01*
X180758287Y-78741513D01*
X181369825Y-78332896D01*
X181778442Y-77721358D01*
X181921929Y-77000000D01*
X181778442Y-76278642D01*
X181369825Y-75667104D01*
X180758287Y-75258487D01*
X180036929Y-75115000D01*
X179963071Y-75115000D01*
X179241713Y-75258487D01*
X178630175Y-75667104D01*
X178221558Y-76278642D01*
X178078071Y-77000000D01*
X178221558Y-77721358D01*
X178241403Y-77751059D01*
X177674289Y-77372124D01*
X177000000Y-77238000D01*
X176259776Y-77238000D01*
X176073669Y-76948781D01*
X175697056Y-76691452D01*
X175250000Y-76600921D01*
X172750000Y-76600921D01*
X172332359Y-76679506D01*
X171948781Y-76926331D01*
X171691452Y-77302944D01*
X171600921Y-77750000D01*
X171600921Y-80250000D01*
X171679506Y-80667641D01*
X171926331Y-81051219D01*
X172302944Y-81308548D01*
X172750000Y-81399079D01*
X175250000Y-81399079D01*
X175667641Y-81320494D01*
X176051219Y-81073669D01*
X176264174Y-80762000D01*
X176270156Y-80762000D01*
X177748156Y-82240000D01*
X163314802Y-82240000D01*
X162760000Y-81685198D01*
X162760000Y-79000000D01*
X162702148Y-78709161D01*
X162537401Y-78462599D01*
X161537401Y-77462599D01*
X161290839Y-77297852D01*
X161000000Y-77240000D01*
X151314802Y-77240000D01*
X150760000Y-76685198D01*
X150760000Y-73500000D01*
X151852560Y-73500000D01*
X151852560Y-74500000D01*
X151896838Y-74735317D01*
X152035910Y-74951441D01*
X152248110Y-75096431D01*
X152500000Y-75147440D01*
X153500000Y-75147440D01*
X153735317Y-75103162D01*
X153951441Y-74964090D01*
X154096431Y-74751890D01*
X154147440Y-74500000D01*
X154147440Y-73864894D01*
X154405117Y-73865119D01*
X154404803Y-74224775D01*
X154577233Y-74642086D01*
X154896235Y-74961645D01*
X155313244Y-75134803D01*
X155764775Y-75135197D01*
X156182086Y-74962767D01*
X156385207Y-74760000D01*
X157291302Y-74760000D01*
X158756619Y-75106754D01*
X158766621Y-75157036D01*
X159056012Y-75590142D01*
X159489118Y-75879533D01*
X160000000Y-75981154D01*
X160510882Y-75879533D01*
X160943988Y-75590142D01*
X161084400Y-75380000D01*
X161796333Y-75380000D01*
X161985302Y-75662811D01*
X162450849Y-75973880D01*
X163000000Y-76083113D01*
X163549151Y-75973880D01*
X163614994Y-75929885D01*
X166078776Y-76996458D01*
X166078071Y-77000000D01*
X166221558Y-77721358D01*
X166630175Y-78332896D01*
X167241713Y-78741513D01*
X167963071Y-78885000D01*
X168036929Y-78885000D01*
X168758287Y-78741513D01*
X169369825Y-78332896D01*
X169778442Y-77721358D01*
X169921929Y-77000000D01*
X169778442Y-76278642D01*
X169369825Y-75667104D01*
X168758287Y-75258487D01*
X168036929Y-75115000D01*
X167963071Y-75115000D01*
X167241713Y-75258487D01*
X166710331Y-75613545D01*
X164435000Y-74628554D01*
X164435000Y-74591887D01*
X164325767Y-74042736D01*
X164014698Y-73577189D01*
X163549151Y-73266120D01*
X163000000Y-73156887D01*
X162450849Y-73266120D01*
X161985302Y-73577189D01*
X161796333Y-73860000D01*
X161084400Y-73860000D01*
X160943988Y-73649858D01*
X160510882Y-73360467D01*
X160000000Y-73258846D01*
X159489118Y-73360467D01*
X159093847Y-73624577D01*
X157555014Y-73260426D01*
X157466688Y-73257243D01*
X157380000Y-73240000D01*
X156385059Y-73240000D01*
X156183765Y-73038355D01*
X155766756Y-72865197D01*
X155404883Y-72864881D01*
X155405197Y-72505225D01*
X155232767Y-72087914D01*
X154913765Y-71768355D01*
X154760000Y-71704506D01*
X154760000Y-69127655D01*
X155131098Y-68757204D01*
X155334768Y-68266713D01*
X155335231Y-67735617D01*
X155132418Y-67244771D01*
X154757204Y-66868902D01*
X154266713Y-66665232D01*
X153735617Y-66664769D01*
X153244771Y-66867582D01*
X152868902Y-67242796D01*
X152665232Y-67733287D01*
X152664769Y-68264383D01*
X152867582Y-68755229D01*
X153240000Y-69128297D01*
X153240000Y-72250851D01*
X153135197Y-72503244D01*
X153134892Y-72852560D01*
X152500000Y-72852560D01*
X152264683Y-72896838D01*
X152048559Y-73035910D01*
X151903569Y-73248110D01*
X151852560Y-73500000D01*
X150760000Y-73500000D01*
X150760000Y-72000000D01*
X150702148Y-71709161D01*
X150702148Y-71709160D01*
X150537401Y-71462599D01*
X149617401Y-70542599D01*
X149616653Y-70542099D01*
X149616153Y-70541355D01*
X149493629Y-70459898D01*
X149370839Y-70377852D01*
X149369957Y-70377677D01*
X149369210Y-70377180D01*
X149224662Y-70348775D01*
X149080000Y-70320000D01*
X149079119Y-70320175D01*
X149078238Y-70320002D01*
X133117509Y-70357004D01*
X133085656Y-70279914D01*
X132668283Y-69861812D01*
X132640443Y-69850252D01*
X132666086Y-69839656D01*
X133084188Y-69422283D01*
X133310742Y-68876681D01*
X133311257Y-68285911D01*
X133085656Y-67739914D01*
X132668283Y-67321812D01*
X132640443Y-67310252D01*
X132666086Y-67299656D01*
X133084188Y-66882283D01*
X133310742Y-66336681D01*
X133311257Y-65745911D01*
X133085656Y-65199914D01*
X132668283Y-64781812D01*
X132640443Y-64770252D01*
X132666086Y-64759656D01*
X133084188Y-64342283D01*
X133310742Y-63796681D01*
X133310816Y-63711873D01*
X135734364Y-63690953D01*
X135920853Y-63970054D01*
X136250026Y-64190000D01*
X135920853Y-64409946D01*
X135598946Y-64891715D01*
X135485907Y-65460000D01*
X135598946Y-66028285D01*
X135920853Y-66510054D01*
X135962452Y-66537850D01*
X135914683Y-66546838D01*
X135698559Y-66685910D01*
X135553569Y-66898110D01*
X135502560Y-67150000D01*
X135502560Y-68850000D01*
X135546838Y-69085317D01*
X135685910Y-69301441D01*
X135898110Y-69446431D01*
X136150000Y-69497440D01*
X137850000Y-69497440D01*
X138085317Y-69453162D01*
X138301441Y-69314090D01*
X138446431Y-69101890D01*
X138497440Y-68850000D01*
X138497440Y-67150000D01*
X138453162Y-66914683D01*
X138314090Y-66698559D01*
X138101890Y-66553569D01*
X138034459Y-66539914D01*
X138079147Y-66510054D01*
X138401054Y-66028285D01*
X138462750Y-65718118D01*
X140590434Y-63590434D01*
X140650860Y-63500000D01*
X140771439Y-63319541D01*
X140835000Y-63000000D01*
X140835000Y-60353846D01*
X152665000Y-60353846D01*
X152665000Y-60406154D01*
X152766621Y-60917036D01*
X153056012Y-61350142D01*
X153489118Y-61639533D01*
X154000000Y-61741154D01*
X154510882Y-61639533D01*
X154943988Y-61350142D01*
X155233379Y-60917036D01*
X155335000Y-60406154D01*
X155335000Y-60353846D01*
X155284507Y-60100000D01*
X158452560Y-60100000D01*
X158452560Y-61900000D01*
X158496838Y-62135317D01*
X158635910Y-62351441D01*
X158848110Y-62496431D01*
X158868534Y-62500567D01*
X158699449Y-62669357D01*
X158465267Y-63233330D01*
X158464735Y-63843991D01*
X158697932Y-64408371D01*
X159129357Y-64840551D01*
X159240000Y-64886494D01*
X159240000Y-65872345D01*
X158868902Y-66242796D01*
X158665232Y-66733287D01*
X158664769Y-67264383D01*
X158867582Y-67755229D01*
X159242796Y-68131098D01*
X159733287Y-68334768D01*
X160264383Y-68335231D01*
X160755229Y-68132418D01*
X161131098Y-67757204D01*
X161334768Y-67266713D01*
X161335231Y-66735617D01*
X161132418Y-66244771D01*
X161087726Y-66200000D01*
X161552560Y-66200000D01*
X161552560Y-67800000D01*
X161596838Y-68035317D01*
X161735910Y-68251441D01*
X161948110Y-68396431D01*
X162200000Y-68447440D01*
X163800000Y-68447440D01*
X164035317Y-68403162D01*
X164251441Y-68264090D01*
X164396431Y-68051890D01*
X164447440Y-67800000D01*
X164447440Y-66200000D01*
X164403162Y-65964683D01*
X164264090Y-65748559D01*
X164051890Y-65603569D01*
X163800000Y-65552560D01*
X162200000Y-65552560D01*
X161964683Y-65596838D01*
X161748559Y-65735910D01*
X161603569Y-65948110D01*
X161552560Y-66200000D01*
X161087726Y-66200000D01*
X160760000Y-65871703D01*
X160760000Y-64886846D01*
X160868371Y-64842068D01*
X160910512Y-64800000D01*
X166078071Y-64800000D01*
X166221558Y-65521358D01*
X166630175Y-66132896D01*
X167241713Y-66541513D01*
X167963071Y-66685000D01*
X168036929Y-66685000D01*
X168758287Y-66541513D01*
X169369825Y-66132896D01*
X169778442Y-65521358D01*
X169921929Y-64800000D01*
X169778442Y-64078642D01*
X169369825Y-63467104D01*
X168758287Y-63058487D01*
X168036929Y-62915000D01*
X167963071Y-62915000D01*
X167241713Y-63058487D01*
X166630175Y-63467104D01*
X166221558Y-64078642D01*
X166078071Y-64800000D01*
X160910512Y-64800000D01*
X161300551Y-64410643D01*
X161534733Y-63846670D01*
X161535265Y-63236009D01*
X161302068Y-62671629D01*
X161134120Y-62503387D01*
X161135317Y-62503162D01*
X161351441Y-62364090D01*
X161496431Y-62151890D01*
X161547440Y-61900000D01*
X161547440Y-60100000D01*
X161503162Y-59864683D01*
X161364090Y-59648559D01*
X161151890Y-59503569D01*
X160900000Y-59452560D01*
X159100000Y-59452560D01*
X158864683Y-59496838D01*
X158648559Y-59635910D01*
X158503569Y-59848110D01*
X158452560Y-60100000D01*
X155284507Y-60100000D01*
X155233379Y-59842964D01*
X154943988Y-59409858D01*
X154510882Y-59120467D01*
X154000000Y-59018846D01*
X153489118Y-59120467D01*
X153056012Y-59409858D01*
X152766621Y-59842964D01*
X152665000Y-60353846D01*
X140835000Y-60353846D01*
X140835000Y-55896661D01*
X149902758Y-55896661D01*
X150114990Y-56410303D01*
X150507630Y-56803629D01*
X151020900Y-57016757D01*
X151576661Y-57017242D01*
X152090303Y-56805010D01*
X152483629Y-56412370D01*
X152657310Y-55994097D01*
X177350673Y-55994097D01*
X177637650Y-56688635D01*
X178168570Y-57220483D01*
X178862606Y-57508672D01*
X179614097Y-57509327D01*
X180308635Y-57222350D01*
X180840483Y-56691430D01*
X181128672Y-55997394D01*
X181129327Y-55245903D01*
X180842350Y-54551365D01*
X180311430Y-54019517D01*
X179617394Y-53731328D01*
X178865903Y-53730673D01*
X178171365Y-54017650D01*
X177639517Y-54548570D01*
X177351328Y-55242606D01*
X177350673Y-55994097D01*
X152657310Y-55994097D01*
X152696757Y-55899100D01*
X152697242Y-55343339D01*
X152485010Y-54829697D01*
X152092370Y-54436371D01*
X151579100Y-54223243D01*
X151023339Y-54222758D01*
X150509697Y-54434990D01*
X150116371Y-54827630D01*
X149903243Y-55340900D01*
X149902758Y-55896661D01*
X140835000Y-55896661D01*
X140835000Y-55000000D01*
X140771439Y-54680459D01*
X140590434Y-54409566D01*
X140319541Y-54228561D01*
X140000000Y-54165000D01*
X135345868Y-54165000D01*
X135015868Y-53835000D01*
X143000000Y-53835000D01*
X143319541Y-53771439D01*
X143590434Y-53590434D01*
X148345868Y-48835000D01*
X150159609Y-48835000D01*
X150507630Y-49183629D01*
X151020900Y-49396757D01*
X151576661Y-49397242D01*
X152090303Y-49185010D01*
X152483629Y-48792370D01*
X152696757Y-48279100D01*
X152697242Y-47723339D01*
X152485010Y-47209697D01*
X152092370Y-46816371D01*
X151579100Y-46603243D01*
X151023339Y-46602758D01*
X150509697Y-46814990D01*
X150159075Y-47165000D01*
X148000000Y-47165000D01*
X147680459Y-47228561D01*
X147409566Y-47409566D01*
X142654132Y-52165000D01*
X134835000Y-52165000D01*
X134835000Y-47000000D01*
X134771439Y-46680459D01*
X134590434Y-46409566D01*
X133918962Y-45738094D01*
X136272355Y-45738094D01*
X136838561Y-47108418D01*
X137886068Y-48157754D01*
X139255402Y-48726351D01*
X140738094Y-48727645D01*
X142108418Y-48161439D01*
X143157754Y-47113932D01*
X143726351Y-45744598D01*
X143727645Y-44261906D01*
X143161439Y-42891582D01*
X142113932Y-41842246D01*
X140744598Y-41273649D01*
X139261906Y-41272355D01*
X137891582Y-41838561D01*
X136842246Y-42886068D01*
X136273649Y-44255402D01*
X136272355Y-45738094D01*
X133918962Y-45738094D01*
X133270434Y-45089566D01*
X133253941Y-45078545D01*
X133242162Y-45062588D01*
X133134278Y-44997590D01*
X133085656Y-44879914D01*
X132668283Y-44461812D01*
X132122681Y-44235258D01*
X131531911Y-44234743D01*
X130985914Y-44460344D01*
X130567812Y-44877717D01*
X130341258Y-45423319D01*
X130340743Y-46014089D01*
X110439005Y-46014089D01*
X110462718Y-45948721D01*
X110436315Y-45358542D01*
X110261259Y-44935920D01*
X110009958Y-44855647D01*
X109145605Y-45720000D01*
X108786395Y-45720000D01*
X107922042Y-44855647D01*
X107670741Y-44935920D01*
X107469282Y-45491279D01*
X107315000Y-45491279D01*
X107315000Y-44676042D01*
X108101647Y-44676042D01*
X108966000Y-45540395D01*
X109830353Y-44676042D01*
X109750080Y-44424741D01*
X109194721Y-44223282D01*
X108604542Y-44249685D01*
X108181920Y-44424741D01*
X108101647Y-44676042D01*
X107315000Y-44676042D01*
X107315000Y-40754097D01*
X177350673Y-40754097D01*
X177637650Y-41448635D01*
X178168570Y-41980483D01*
X178476505Y-42108349D01*
X181238000Y-44869844D01*
X181238000Y-61270156D01*
X180078754Y-62429402D01*
X180046568Y-62423000D01*
X179953432Y-62423000D01*
X179043793Y-62603938D01*
X178272639Y-63119207D01*
X177757370Y-63890361D01*
X177576432Y-64800000D01*
X177757370Y-65709639D01*
X178272639Y-66480793D01*
X179043793Y-66996062D01*
X179953432Y-67177000D01*
X180046568Y-67177000D01*
X180956207Y-66996062D01*
X181727361Y-66480793D01*
X182242630Y-65709639D01*
X182356955Y-65134889D01*
X184245922Y-63245922D01*
X184627876Y-62674289D01*
X184762000Y-62000000D01*
X184762000Y-53161748D01*
X189983651Y-53161748D01*
X190238000Y-53777320D01*
X190238000Y-63223878D01*
X189984350Y-63834733D01*
X189983651Y-64636748D01*
X190289922Y-65377981D01*
X190856537Y-65945585D01*
X191597233Y-66253150D01*
X192399248Y-66253849D01*
X193140481Y-65947578D01*
X193708085Y-65380963D01*
X194015650Y-64640267D01*
X194016349Y-63838252D01*
X193762000Y-63222680D01*
X193762000Y-53776122D01*
X194015650Y-53165267D01*
X194016349Y-52363252D01*
X193710078Y-51622019D01*
X193143463Y-51054415D01*
X192402767Y-50746850D01*
X191600752Y-50746151D01*
X190859519Y-51052422D01*
X190291915Y-51619037D01*
X189984350Y-52359733D01*
X189983651Y-53161748D01*
X184762000Y-53161748D01*
X184762000Y-44140000D01*
X184627876Y-43465712D01*
X184627876Y-43465711D01*
X184245922Y-42894078D01*
X183493844Y-42142000D01*
X188412656Y-42142000D01*
X190037339Y-43766683D01*
X190289922Y-44377981D01*
X190856537Y-44945585D01*
X191597233Y-45253150D01*
X192399248Y-45253849D01*
X193140481Y-44947578D01*
X193708085Y-44380963D01*
X194015650Y-43640267D01*
X194016349Y-42838252D01*
X193710078Y-42097019D01*
X193143463Y-41529415D01*
X192528334Y-41273990D01*
X190388422Y-39134078D01*
X189816789Y-38752124D01*
X189142500Y-38618000D01*
X179922454Y-38618000D01*
X179617394Y-38491328D01*
X178865903Y-38490673D01*
X178171365Y-38777650D01*
X177639517Y-39308570D01*
X177351328Y-40002606D01*
X177350673Y-40754097D01*
X107315000Y-40754097D01*
X107315000Y-38227000D01*
X200025000Y-38227000D01*
X200025000Y-104013000D01*
M02*
