G04 #@! TF.FileFunction,Legend,Top*
%FSLAX46Y46*%
G04 Gerber Fmt 4.6, Leading zero omitted, Abs format (unit mm)*
G04 Created by KiCad (PCBNEW 4.0.7-e2-6376~58~ubuntu16.04.1) date Fri Dec 29 21:32:54 2017*
%MOMM*%
%LPD*%
G01*
G04 APERTURE LIST*
%ADD10C,0.100000*%
%ADD11C,0.625000*%
%ADD12C,0.120000*%
%ADD13C,0.150000*%
G04 APERTURE END LIST*
D10*
D11*
X155595238Y-96214286D02*
X155952381Y-96357143D01*
X156547619Y-96357143D01*
X156785715Y-96214286D01*
X156904762Y-96071429D01*
X157023810Y-95785714D01*
X157023810Y-95500000D01*
X156904762Y-95214286D01*
X156785715Y-95071429D01*
X156547619Y-94928571D01*
X156071429Y-94785714D01*
X155833334Y-94642857D01*
X155714286Y-94500000D01*
X155595238Y-94214286D01*
X155595238Y-93928571D01*
X155714286Y-93642857D01*
X155833334Y-93500000D01*
X156071429Y-93357143D01*
X156666667Y-93357143D01*
X157023810Y-93500000D01*
X158452381Y-96357143D02*
X158214286Y-96214286D01*
X158095238Y-96071429D01*
X157976190Y-95785714D01*
X157976190Y-94928571D01*
X158095238Y-94642857D01*
X158214286Y-94500000D01*
X158452381Y-94357143D01*
X158809524Y-94357143D01*
X159047619Y-94500000D01*
X159166667Y-94642857D01*
X159285714Y-94928571D01*
X159285714Y-95785714D01*
X159166667Y-96071429D01*
X159047619Y-96214286D01*
X158809524Y-96357143D01*
X158452381Y-96357143D01*
X161428572Y-94357143D02*
X161428572Y-96357143D01*
X160357143Y-94357143D02*
X160357143Y-95928571D01*
X160476191Y-96214286D01*
X160714286Y-96357143D01*
X161071429Y-96357143D01*
X161309524Y-96214286D01*
X161428572Y-96071429D01*
X162500000Y-96214286D02*
X162738096Y-96357143D01*
X163214286Y-96357143D01*
X163452381Y-96214286D01*
X163571429Y-95928571D01*
X163571429Y-95785714D01*
X163452381Y-95500000D01*
X163214286Y-95357143D01*
X162857143Y-95357143D01*
X162619048Y-95214286D01*
X162500000Y-94928571D01*
X162500000Y-94785714D01*
X162619048Y-94500000D01*
X162857143Y-94357143D01*
X163214286Y-94357143D01*
X163452381Y-94500000D01*
X164642858Y-95214286D02*
X166547620Y-95214286D01*
X167380953Y-93357143D02*
X168214287Y-96357143D01*
X169047620Y-93357143D01*
X169880953Y-96357143D02*
X169880953Y-94357143D01*
X169880953Y-93357143D02*
X169761905Y-93500000D01*
X169880953Y-93642857D01*
X170000001Y-93500000D01*
X169880953Y-93357143D01*
X169880953Y-93642857D01*
X172142858Y-96357143D02*
X172142858Y-93357143D01*
X172142858Y-96214286D02*
X171904762Y-96357143D01*
X171428572Y-96357143D01*
X171190477Y-96214286D01*
X171071429Y-96071429D01*
X170952381Y-95785714D01*
X170952381Y-94928571D01*
X171071429Y-94642857D01*
X171190477Y-94500000D01*
X171428572Y-94357143D01*
X171904762Y-94357143D01*
X172142858Y-94500000D01*
X174285715Y-96214286D02*
X174047620Y-96357143D01*
X173571429Y-96357143D01*
X173333334Y-96214286D01*
X173214286Y-95928571D01*
X173214286Y-94785714D01*
X173333334Y-94500000D01*
X173571429Y-94357143D01*
X174047620Y-94357143D01*
X174285715Y-94500000D01*
X174404763Y-94785714D01*
X174404763Y-95071429D01*
X173214286Y-95357143D01*
X177023810Y-93357143D02*
X177857144Y-96357143D01*
X178690477Y-93357143D01*
X180000001Y-93357143D02*
X180238096Y-93357143D01*
X180476191Y-93500000D01*
X180595239Y-93642857D01*
X180714286Y-93928571D01*
X180833334Y-94500000D01*
X180833334Y-95214286D01*
X180714286Y-95785714D01*
X180595239Y-96071429D01*
X180476191Y-96214286D01*
X180238096Y-96357143D01*
X180000001Y-96357143D01*
X179761905Y-96214286D01*
X179642858Y-96071429D01*
X179523810Y-95785714D01*
X179404762Y-95214286D01*
X179404762Y-94500000D01*
X179523810Y-93928571D01*
X179642858Y-93642857D01*
X179761905Y-93500000D01*
X180000001Y-93357143D01*
X181904762Y-96071429D02*
X182023810Y-96214286D01*
X181904762Y-96357143D01*
X181785714Y-96214286D01*
X181904762Y-96071429D01*
X181904762Y-96357143D01*
X184404762Y-96357143D02*
X182976190Y-96357143D01*
X183690476Y-96357143D02*
X183690476Y-93357143D01*
X183452381Y-93785714D01*
X183214286Y-94071429D01*
X182976190Y-94214286D01*
D12*
X165650000Y-58950000D02*
X165650000Y-81650000D01*
X165650000Y-81650000D02*
X182350000Y-81650000D01*
X182350000Y-81650000D02*
X182350000Y-58950000D01*
X182350000Y-58950000D02*
X165650000Y-58950000D01*
X174350000Y-76600000D02*
X173650000Y-77000000D01*
X173650000Y-76200000D02*
X173650000Y-77400000D01*
X173650000Y-77400000D02*
X174350000Y-77400000D01*
X174350000Y-77400000D02*
X174350000Y-76200000D01*
X174350000Y-76200000D02*
X173650000Y-76200000D01*
X175000000Y-81910000D02*
X173000000Y-81910000D01*
X178500000Y-76800000D02*
X175350000Y-76800000D01*
X172650000Y-76800000D02*
X169500000Y-76800000D01*
D13*
X124206000Y-36830000D02*
X117856000Y-36830000D01*
X117856000Y-36830000D02*
X117856000Y-40640000D01*
X117856000Y-40640000D02*
X124206000Y-40640000D01*
X124206000Y-40640000D02*
X124206000Y-38100000D01*
X124206000Y-38100000D02*
X124206000Y-36830000D01*
X133096000Y-88900000D02*
X133096000Y-38100000D01*
X133096000Y-38100000D02*
X107696000Y-38100000D01*
X107696000Y-38100000D02*
X107696000Y-88900000D01*
X107696000Y-88900000D02*
X133096000Y-88900000D01*
D12*
X127290000Y-99630462D02*
G75*
G03X121740000Y-98085170I-2990000J462D01*
G01*
X127290000Y-99629538D02*
G75*
G02X121740000Y-101174830I-2990000J-462D01*
G01*
X126800000Y-99630000D02*
G75*
G03X126800000Y-99630000I-2500000J0D01*
G01*
X121740000Y-98085000D02*
X121740000Y-101175000D01*
X115720000Y-99630462D02*
G75*
G03X110170000Y-98085170I-2990000J462D01*
G01*
X115720000Y-99629538D02*
G75*
G02X110170000Y-101174830I-2990000J-462D01*
G01*
X115230000Y-99630000D02*
G75*
G03X115230000Y-99630000I-2500000J0D01*
G01*
X110170000Y-98085000D02*
X110170000Y-101175000D01*
X137750000Y-78940000D02*
X137750000Y-81060000D01*
X137750000Y-81060000D02*
X141870000Y-81060000D01*
X141870000Y-81060000D02*
X141870000Y-78940000D01*
X141870000Y-78940000D02*
X137750000Y-78940000D01*
X136980000Y-80000000D02*
X137750000Y-80000000D01*
X142640000Y-80000000D02*
X141870000Y-80000000D01*
X138410000Y-78940000D02*
X138410000Y-81060000D01*
X137750000Y-83940000D02*
X137750000Y-86060000D01*
X137750000Y-86060000D02*
X141870000Y-86060000D01*
X141870000Y-86060000D02*
X141870000Y-83940000D01*
X141870000Y-83940000D02*
X137750000Y-83940000D01*
X136980000Y-85000000D02*
X137750000Y-85000000D01*
X142640000Y-85000000D02*
X141870000Y-85000000D01*
X138410000Y-83940000D02*
X138410000Y-86060000D01*
X164060000Y-68750000D02*
X161940000Y-68750000D01*
X161940000Y-68750000D02*
X161940000Y-72870000D01*
X161940000Y-72870000D02*
X164060000Y-72870000D01*
X164060000Y-72870000D02*
X164060000Y-68750000D01*
X163000000Y-67980000D02*
X163000000Y-68750000D01*
X163000000Y-73640000D02*
X163000000Y-72870000D01*
X164060000Y-69410000D02*
X161940000Y-69410000D01*
X159999538Y-65260000D02*
G75*
G03X161544830Y-59710000I462J2990000D01*
G01*
X160000462Y-65260000D02*
G75*
G02X158455170Y-59710000I-462J2990000D01*
G01*
X162500000Y-62270000D02*
G75*
G03X162500000Y-62270000I-2500000J0D01*
G01*
X161545000Y-59710000D02*
X158455000Y-59710000D01*
D13*
X184126000Y-39364000D02*
X184126000Y-37840000D01*
X184126000Y-37840000D02*
X199874000Y-37840000D01*
X199874000Y-37840000D02*
X199874000Y-39364000D01*
X199874000Y-39364000D02*
X199874000Y-58160000D01*
X199874000Y-58160000D02*
X184126000Y-58160000D01*
X184126000Y-58160000D02*
X184126000Y-39364000D01*
X184126000Y-60364000D02*
X184126000Y-58840000D01*
X184126000Y-58840000D02*
X199874000Y-58840000D01*
X199874000Y-58840000D02*
X199874000Y-60364000D01*
X199874000Y-60364000D02*
X199874000Y-79160000D01*
X199874000Y-79160000D02*
X184126000Y-79160000D01*
X184126000Y-79160000D02*
X184126000Y-60364000D01*
D12*
X152470000Y-75850000D02*
X156070000Y-75850000D01*
X152431522Y-75838478D02*
G75*
G02X154270000Y-71400000I1838478J1838478D01*
G01*
X156108478Y-75838478D02*
G75*
G03X154270000Y-71400000I-1838478J1838478D01*
G01*
X143950000Y-101140000D02*
X143950000Y-102860000D01*
X143950000Y-102860000D02*
X147670000Y-102860000D01*
X147670000Y-102860000D02*
X147670000Y-101140000D01*
X147670000Y-101140000D02*
X143950000Y-101140000D01*
X142880000Y-102000000D02*
X143950000Y-102000000D01*
X148740000Y-102000000D02*
X147670000Y-102000000D01*
X131950000Y-101140000D02*
X131950000Y-102860000D01*
X131950000Y-102860000D02*
X135670000Y-102860000D01*
X135670000Y-102860000D02*
X135670000Y-101140000D01*
X135670000Y-101140000D02*
X131950000Y-101140000D01*
X130880000Y-102000000D02*
X131950000Y-102000000D01*
X136740000Y-102000000D02*
X135670000Y-102000000D01*
X121950000Y-92140000D02*
X121950000Y-93860000D01*
X121950000Y-93860000D02*
X125670000Y-93860000D01*
X125670000Y-93860000D02*
X125670000Y-92140000D01*
X125670000Y-92140000D02*
X121950000Y-92140000D01*
X120880000Y-93000000D02*
X121950000Y-93000000D01*
X126740000Y-93000000D02*
X125670000Y-93000000D01*
X110950000Y-92140000D02*
X110950000Y-93860000D01*
X110950000Y-93860000D02*
X114670000Y-93860000D01*
X114670000Y-93860000D02*
X114670000Y-92140000D01*
X114670000Y-92140000D02*
X110950000Y-92140000D01*
X109880000Y-93000000D02*
X110950000Y-93000000D01*
X115740000Y-93000000D02*
X114670000Y-93000000D01*
X153950000Y-79140000D02*
X153950000Y-80860000D01*
X153950000Y-80860000D02*
X157670000Y-80860000D01*
X157670000Y-80860000D02*
X157670000Y-79140000D01*
X157670000Y-79140000D02*
X153950000Y-79140000D01*
X152880000Y-80000000D02*
X153950000Y-80000000D01*
X158740000Y-80000000D02*
X157670000Y-80000000D01*
X153140000Y-66050000D02*
X154860000Y-66050000D01*
X154860000Y-66050000D02*
X154860000Y-62330000D01*
X154860000Y-62330000D02*
X153140000Y-62330000D01*
X153140000Y-62330000D02*
X153140000Y-66050000D01*
X154000000Y-67120000D02*
X154000000Y-66050000D01*
X154000000Y-61260000D02*
X154000000Y-62330000D01*
X152860000Y-86950000D02*
X151140000Y-86950000D01*
X151140000Y-86950000D02*
X151140000Y-90670000D01*
X151140000Y-90670000D02*
X152860000Y-90670000D01*
X152860000Y-90670000D02*
X152860000Y-86950000D01*
X152000000Y-85880000D02*
X152000000Y-86950000D01*
X152000000Y-91740000D02*
X152000000Y-90670000D01*
X160860000Y-68950000D02*
X159140000Y-68950000D01*
X159140000Y-68950000D02*
X159140000Y-72670000D01*
X159140000Y-72670000D02*
X160860000Y-72670000D01*
X160860000Y-72670000D02*
X160860000Y-68950000D01*
X160000000Y-67880000D02*
X160000000Y-68950000D01*
X160000000Y-73740000D02*
X160000000Y-72670000D01*
X147164214Y-94750000D02*
G75*
G03X147164214Y-94750000I-1414214J0D01*
G01*
X148720000Y-91630000D02*
X142780000Y-91630000D01*
X148720000Y-97870000D02*
X142780000Y-97870000D01*
X148870000Y-93410000D02*
X148870000Y-96090000D01*
X142630000Y-96090000D02*
X142630000Y-93410000D01*
X135164214Y-94750000D02*
G75*
G03X135164214Y-94750000I-1414214J0D01*
G01*
X136720000Y-91630000D02*
X130780000Y-91630000D01*
X136720000Y-97870000D02*
X130780000Y-97870000D01*
X136870000Y-93410000D02*
X136870000Y-96090000D01*
X130630000Y-96090000D02*
X130630000Y-93410000D01*
D13*
X151300000Y-58160000D02*
X148760000Y-58160000D01*
X148760000Y-58160000D02*
X148760000Y-37840000D01*
X148760000Y-37840000D02*
X151300000Y-37840000D01*
X179240000Y-37840000D02*
X181780000Y-37840000D01*
X181780000Y-37840000D02*
X181780000Y-58160000D01*
X181780000Y-58160000D02*
X179240000Y-58160000D01*
X151300000Y-58160000D02*
X179240000Y-58160000D01*
X179240000Y-37840000D02*
X151300000Y-37840000D01*
D12*
X196670000Y-85870000D02*
X199330000Y-85870000D01*
X196670000Y-83270000D02*
X196670000Y-85870000D01*
X199330000Y-83270000D02*
X199330000Y-85870000D01*
X196670000Y-83270000D02*
X199330000Y-83270000D01*
X196670000Y-82000000D02*
X196670000Y-80670000D01*
X196670000Y-80670000D02*
X198000000Y-80670000D01*
X147410000Y-77330000D02*
X147410000Y-74670000D01*
X142270000Y-77330000D02*
X147410000Y-77330000D01*
X142270000Y-74670000D02*
X147410000Y-74670000D01*
X142270000Y-77330000D02*
X142270000Y-74670000D01*
X141000000Y-77330000D02*
X139670000Y-77330000D01*
X139670000Y-77330000D02*
X139670000Y-76000000D01*
X138330000Y-56510000D02*
X135670000Y-56510000D01*
X138330000Y-66730000D02*
X138330000Y-56510000D01*
X135670000Y-66730000D02*
X135670000Y-56510000D01*
X138330000Y-66730000D02*
X135670000Y-66730000D01*
X138330000Y-68000000D02*
X138330000Y-69330000D01*
X138330000Y-69330000D02*
X137000000Y-69330000D01*
D13*
X173238095Y-82252381D02*
X173238095Y-83061905D01*
X173285714Y-83157143D01*
X173333333Y-83204762D01*
X173428571Y-83252381D01*
X173619048Y-83252381D01*
X173714286Y-83204762D01*
X173761905Y-83157143D01*
X173809524Y-83061905D01*
X173809524Y-82252381D01*
X174190476Y-82252381D02*
X174809524Y-82252381D01*
X174476190Y-82633333D01*
X174619048Y-82633333D01*
X174714286Y-82680952D01*
X174761905Y-82728571D01*
X174809524Y-82823810D01*
X174809524Y-83061905D01*
X174761905Y-83157143D01*
X174714286Y-83204762D01*
X174619048Y-83252381D01*
X174333333Y-83252381D01*
X174238095Y-83204762D01*
X174190476Y-83157143D01*
X119634095Y-87082381D02*
X119634095Y-87891905D01*
X119681714Y-87987143D01*
X119729333Y-88034762D01*
X119824571Y-88082381D01*
X120015048Y-88082381D01*
X120110286Y-88034762D01*
X120157905Y-87987143D01*
X120205524Y-87891905D01*
X120205524Y-87082381D01*
X121205524Y-88082381D02*
X120634095Y-88082381D01*
X120919809Y-88082381D02*
X120919809Y-87082381D01*
X120824571Y-87225238D01*
X120729333Y-87320476D01*
X120634095Y-87368095D01*
X111299810Y-45172381D02*
X111918858Y-45172381D01*
X111585524Y-45553333D01*
X111728382Y-45553333D01*
X111823620Y-45600952D01*
X111871239Y-45648571D01*
X111918858Y-45743810D01*
X111918858Y-45981905D01*
X111871239Y-46077143D01*
X111823620Y-46124762D01*
X111728382Y-46172381D01*
X111442667Y-46172381D01*
X111347429Y-46124762D01*
X111299810Y-46077143D01*
X112347429Y-46077143D02*
X112395048Y-46124762D01*
X112347429Y-46172381D01*
X112299810Y-46124762D01*
X112347429Y-46077143D01*
X112347429Y-46172381D01*
X112728381Y-45172381D02*
X113347429Y-45172381D01*
X113014095Y-45553333D01*
X113156953Y-45553333D01*
X113252191Y-45600952D01*
X113299810Y-45648571D01*
X113347429Y-45743810D01*
X113347429Y-45981905D01*
X113299810Y-46077143D01*
X113252191Y-46124762D01*
X113156953Y-46172381D01*
X112871238Y-46172381D01*
X112776000Y-46124762D01*
X112728381Y-46077143D01*
X113633143Y-45172381D02*
X113966476Y-46172381D01*
X114299810Y-45172381D01*
X128190762Y-45172381D02*
X128524095Y-46172381D01*
X128857429Y-45172381D01*
X129190762Y-46172381D02*
X129190762Y-45172381D01*
X129666952Y-46172381D02*
X129666952Y-45172381D01*
X130238381Y-46172381D01*
X130238381Y-45172381D01*
X128571714Y-81446667D02*
X129047905Y-81446667D01*
X128476476Y-81732381D02*
X128809809Y-80732381D01*
X129143143Y-81732381D01*
X129666952Y-80732381D02*
X129762191Y-80732381D01*
X129857429Y-80780000D01*
X129905048Y-80827619D01*
X129952667Y-80922857D01*
X130000286Y-81113333D01*
X130000286Y-81351429D01*
X129952667Y-81541905D01*
X129905048Y-81637143D01*
X129857429Y-81684762D01*
X129762191Y-81732381D01*
X129666952Y-81732381D01*
X129571714Y-81684762D01*
X129524095Y-81637143D01*
X129476476Y-81541905D01*
X129428857Y-81351429D01*
X129428857Y-81113333D01*
X129476476Y-80922857D01*
X129524095Y-80827619D01*
X129571714Y-80780000D01*
X129666952Y-80732381D01*
X123561905Y-96122381D02*
X123561905Y-95122381D01*
X123800000Y-95122381D01*
X123942858Y-95170000D01*
X124038096Y-95265238D01*
X124085715Y-95360476D01*
X124133334Y-95550952D01*
X124133334Y-95693810D01*
X124085715Y-95884286D01*
X124038096Y-95979524D01*
X123942858Y-96074762D01*
X123800000Y-96122381D01*
X123561905Y-96122381D01*
X125085715Y-96122381D02*
X124514286Y-96122381D01*
X124800000Y-96122381D02*
X124800000Y-95122381D01*
X124704762Y-95265238D01*
X124609524Y-95360476D01*
X124514286Y-95408095D01*
X111991905Y-96122381D02*
X111991905Y-95122381D01*
X112230000Y-95122381D01*
X112372858Y-95170000D01*
X112468096Y-95265238D01*
X112515715Y-95360476D01*
X112563334Y-95550952D01*
X112563334Y-95693810D01*
X112515715Y-95884286D01*
X112468096Y-95979524D01*
X112372858Y-96074762D01*
X112230000Y-96122381D01*
X111991905Y-96122381D01*
X112944286Y-95217619D02*
X112991905Y-95170000D01*
X113087143Y-95122381D01*
X113325239Y-95122381D01*
X113420477Y-95170000D01*
X113468096Y-95217619D01*
X113515715Y-95312857D01*
X113515715Y-95408095D01*
X113468096Y-95550952D01*
X112896667Y-96122381D01*
X113515715Y-96122381D01*
X139071905Y-78392381D02*
X139071905Y-77392381D01*
X139310000Y-77392381D01*
X139452858Y-77440000D01*
X139548096Y-77535238D01*
X139595715Y-77630476D01*
X139643334Y-77820952D01*
X139643334Y-77963810D01*
X139595715Y-78154286D01*
X139548096Y-78249524D01*
X139452858Y-78344762D01*
X139310000Y-78392381D01*
X139071905Y-78392381D01*
X139976667Y-77392381D02*
X140595715Y-77392381D01*
X140262381Y-77773333D01*
X140405239Y-77773333D01*
X140500477Y-77820952D01*
X140548096Y-77868571D01*
X140595715Y-77963810D01*
X140595715Y-78201905D01*
X140548096Y-78297143D01*
X140500477Y-78344762D01*
X140405239Y-78392381D01*
X140119524Y-78392381D01*
X140024286Y-78344762D01*
X139976667Y-78297143D01*
X139071905Y-83392381D02*
X139071905Y-82392381D01*
X139310000Y-82392381D01*
X139452858Y-82440000D01*
X139548096Y-82535238D01*
X139595715Y-82630476D01*
X139643334Y-82820952D01*
X139643334Y-82963810D01*
X139595715Y-83154286D01*
X139548096Y-83249524D01*
X139452858Y-83344762D01*
X139310000Y-83392381D01*
X139071905Y-83392381D01*
X140500477Y-82725714D02*
X140500477Y-83392381D01*
X140262381Y-82344762D02*
X140024286Y-83059048D01*
X140643334Y-83059048D01*
X165512381Y-71548095D02*
X164512381Y-71548095D01*
X164512381Y-71310000D01*
X164560000Y-71167142D01*
X164655238Y-71071904D01*
X164750476Y-71024285D01*
X164940952Y-70976666D01*
X165083810Y-70976666D01*
X165274286Y-71024285D01*
X165369524Y-71071904D01*
X165464762Y-71167142D01*
X165512381Y-71310000D01*
X165512381Y-71548095D01*
X164512381Y-70071904D02*
X164512381Y-70548095D01*
X164988571Y-70595714D01*
X164940952Y-70548095D01*
X164893333Y-70452857D01*
X164893333Y-70214761D01*
X164940952Y-70119523D01*
X164988571Y-70071904D01*
X165083810Y-70024285D01*
X165321905Y-70024285D01*
X165417143Y-70071904D01*
X165464762Y-70119523D01*
X165512381Y-70214761D01*
X165512381Y-70452857D01*
X165464762Y-70548095D01*
X165417143Y-70595714D01*
X164412381Y-63008095D02*
X163412381Y-63008095D01*
X163412381Y-62770000D01*
X163460000Y-62627142D01*
X163555238Y-62531904D01*
X163650476Y-62484285D01*
X163840952Y-62436666D01*
X163983810Y-62436666D01*
X164174286Y-62484285D01*
X164269524Y-62531904D01*
X164364762Y-62627142D01*
X164412381Y-62770000D01*
X164412381Y-63008095D01*
X163412381Y-61579523D02*
X163412381Y-61770000D01*
X163460000Y-61865238D01*
X163507619Y-61912857D01*
X163650476Y-62008095D01*
X163840952Y-62055714D01*
X164221905Y-62055714D01*
X164317143Y-62008095D01*
X164364762Y-61960476D01*
X164412381Y-61865238D01*
X164412381Y-61674761D01*
X164364762Y-61579523D01*
X164317143Y-61531904D01*
X164221905Y-61484285D01*
X163983810Y-61484285D01*
X163888571Y-61531904D01*
X163840952Y-61579523D01*
X163793333Y-61674761D01*
X163793333Y-61865238D01*
X163840952Y-61960476D01*
X163888571Y-62008095D01*
X163983810Y-62055714D01*
X185452381Y-48333333D02*
X186166667Y-48333333D01*
X186309524Y-48380953D01*
X186404762Y-48476191D01*
X186452381Y-48619048D01*
X186452381Y-48714286D01*
X185547619Y-47904762D02*
X185500000Y-47857143D01*
X185452381Y-47761905D01*
X185452381Y-47523809D01*
X185500000Y-47428571D01*
X185547619Y-47380952D01*
X185642857Y-47333333D01*
X185738095Y-47333333D01*
X185880952Y-47380952D01*
X186452381Y-47952381D01*
X186452381Y-47333333D01*
X188912381Y-44380381D02*
X189912381Y-44047048D01*
X188912381Y-43713714D01*
X189531429Y-43380381D02*
X189531429Y-42618476D01*
X188912381Y-53778381D02*
X189912381Y-53445048D01*
X188912381Y-53111714D01*
X189531429Y-52778381D02*
X189531429Y-52016476D01*
X189912381Y-52397428D02*
X189150476Y-52397428D01*
X190452381Y-69333333D02*
X191166667Y-69333333D01*
X191309524Y-69380953D01*
X191404762Y-69476191D01*
X191452381Y-69619048D01*
X191452381Y-69714286D01*
X190452381Y-68380952D02*
X190452381Y-68857143D01*
X190928571Y-68904762D01*
X190880952Y-68857143D01*
X190833333Y-68761905D01*
X190833333Y-68523809D01*
X190880952Y-68428571D01*
X190928571Y-68380952D01*
X191023810Y-68333333D01*
X191261905Y-68333333D01*
X191357143Y-68380952D01*
X191404762Y-68428571D01*
X191452381Y-68523809D01*
X191452381Y-68761905D01*
X191404762Y-68857143D01*
X191357143Y-68904762D01*
X188912381Y-65380381D02*
X189912381Y-65047048D01*
X188912381Y-64713714D01*
X189531429Y-64380381D02*
X189531429Y-63618476D01*
X188912381Y-74778381D02*
X189912381Y-74445048D01*
X188912381Y-74111714D01*
X189531429Y-73778381D02*
X189531429Y-73016476D01*
X189912381Y-73397428D02*
X189150476Y-73397428D01*
X154174762Y-70987619D02*
X154079524Y-70940000D01*
X153984286Y-70844762D01*
X153841429Y-70701905D01*
X153746190Y-70654286D01*
X153650952Y-70654286D01*
X153698571Y-70892381D02*
X153603333Y-70844762D01*
X153508095Y-70749524D01*
X153460476Y-70559048D01*
X153460476Y-70225714D01*
X153508095Y-70035238D01*
X153603333Y-69940000D01*
X153698571Y-69892381D01*
X153889048Y-69892381D01*
X153984286Y-69940000D01*
X154079524Y-70035238D01*
X154127143Y-70225714D01*
X154127143Y-70559048D01*
X154079524Y-70749524D01*
X153984286Y-70844762D01*
X153889048Y-70892381D01*
X153698571Y-70892381D01*
X155079524Y-70892381D02*
X154508095Y-70892381D01*
X154793809Y-70892381D02*
X154793809Y-69892381D01*
X154698571Y-70035238D01*
X154603333Y-70130476D01*
X154508095Y-70178095D01*
X145643334Y-100592381D02*
X145310000Y-100116190D01*
X145071905Y-100592381D02*
X145071905Y-99592381D01*
X145452858Y-99592381D01*
X145548096Y-99640000D01*
X145595715Y-99687619D01*
X145643334Y-99782857D01*
X145643334Y-99925714D01*
X145595715Y-100020952D01*
X145548096Y-100068571D01*
X145452858Y-100116190D01*
X145071905Y-100116190D01*
X146595715Y-100592381D02*
X146024286Y-100592381D01*
X146310000Y-100592381D02*
X146310000Y-99592381D01*
X146214762Y-99735238D01*
X146119524Y-99830476D01*
X146024286Y-99878095D01*
X133643334Y-100592381D02*
X133310000Y-100116190D01*
X133071905Y-100592381D02*
X133071905Y-99592381D01*
X133452858Y-99592381D01*
X133548096Y-99640000D01*
X133595715Y-99687619D01*
X133643334Y-99782857D01*
X133643334Y-99925714D01*
X133595715Y-100020952D01*
X133548096Y-100068571D01*
X133452858Y-100116190D01*
X133071905Y-100116190D01*
X134024286Y-99687619D02*
X134071905Y-99640000D01*
X134167143Y-99592381D01*
X134405239Y-99592381D01*
X134500477Y-99640000D01*
X134548096Y-99687619D01*
X134595715Y-99782857D01*
X134595715Y-99878095D01*
X134548096Y-100020952D01*
X133976667Y-100592381D01*
X134595715Y-100592381D01*
X123643334Y-91592381D02*
X123310000Y-91116190D01*
X123071905Y-91592381D02*
X123071905Y-90592381D01*
X123452858Y-90592381D01*
X123548096Y-90640000D01*
X123595715Y-90687619D01*
X123643334Y-90782857D01*
X123643334Y-90925714D01*
X123595715Y-91020952D01*
X123548096Y-91068571D01*
X123452858Y-91116190D01*
X123071905Y-91116190D01*
X123976667Y-90592381D02*
X124595715Y-90592381D01*
X124262381Y-90973333D01*
X124405239Y-90973333D01*
X124500477Y-91020952D01*
X124548096Y-91068571D01*
X124595715Y-91163810D01*
X124595715Y-91401905D01*
X124548096Y-91497143D01*
X124500477Y-91544762D01*
X124405239Y-91592381D01*
X124119524Y-91592381D01*
X124024286Y-91544762D01*
X123976667Y-91497143D01*
X112643334Y-91592381D02*
X112310000Y-91116190D01*
X112071905Y-91592381D02*
X112071905Y-90592381D01*
X112452858Y-90592381D01*
X112548096Y-90640000D01*
X112595715Y-90687619D01*
X112643334Y-90782857D01*
X112643334Y-90925714D01*
X112595715Y-91020952D01*
X112548096Y-91068571D01*
X112452858Y-91116190D01*
X112071905Y-91116190D01*
X113500477Y-90925714D02*
X113500477Y-91592381D01*
X113262381Y-90544762D02*
X113024286Y-91259048D01*
X113643334Y-91259048D01*
X155643334Y-78592381D02*
X155310000Y-78116190D01*
X155071905Y-78592381D02*
X155071905Y-77592381D01*
X155452858Y-77592381D01*
X155548096Y-77640000D01*
X155595715Y-77687619D01*
X155643334Y-77782857D01*
X155643334Y-77925714D01*
X155595715Y-78020952D01*
X155548096Y-78068571D01*
X155452858Y-78116190D01*
X155071905Y-78116190D01*
X156548096Y-77592381D02*
X156071905Y-77592381D01*
X156024286Y-78068571D01*
X156071905Y-78020952D01*
X156167143Y-77973333D01*
X156405239Y-77973333D01*
X156500477Y-78020952D01*
X156548096Y-78068571D01*
X156595715Y-78163810D01*
X156595715Y-78401905D01*
X156548096Y-78497143D01*
X156500477Y-78544762D01*
X156405239Y-78592381D01*
X156167143Y-78592381D01*
X156071905Y-78544762D01*
X156024286Y-78497143D01*
X152592381Y-64356666D02*
X152116190Y-64690000D01*
X152592381Y-64928095D02*
X151592381Y-64928095D01*
X151592381Y-64547142D01*
X151640000Y-64451904D01*
X151687619Y-64404285D01*
X151782857Y-64356666D01*
X151925714Y-64356666D01*
X152020952Y-64404285D01*
X152068571Y-64451904D01*
X152116190Y-64547142D01*
X152116190Y-64928095D01*
X151592381Y-63499523D02*
X151592381Y-63690000D01*
X151640000Y-63785238D01*
X151687619Y-63832857D01*
X151830476Y-63928095D01*
X152020952Y-63975714D01*
X152401905Y-63975714D01*
X152497143Y-63928095D01*
X152544762Y-63880476D01*
X152592381Y-63785238D01*
X152592381Y-63594761D01*
X152544762Y-63499523D01*
X152497143Y-63451904D01*
X152401905Y-63404285D01*
X152163810Y-63404285D01*
X152068571Y-63451904D01*
X152020952Y-63499523D01*
X151973333Y-63594761D01*
X151973333Y-63785238D01*
X152020952Y-63880476D01*
X152068571Y-63928095D01*
X152163810Y-63975714D01*
X154312381Y-88976666D02*
X153836190Y-89310000D01*
X154312381Y-89548095D02*
X153312381Y-89548095D01*
X153312381Y-89167142D01*
X153360000Y-89071904D01*
X153407619Y-89024285D01*
X153502857Y-88976666D01*
X153645714Y-88976666D01*
X153740952Y-89024285D01*
X153788571Y-89071904D01*
X153836190Y-89167142D01*
X153836190Y-89548095D01*
X153312381Y-88643333D02*
X153312381Y-87976666D01*
X154312381Y-88405238D01*
X162312381Y-70976666D02*
X161836190Y-71310000D01*
X162312381Y-71548095D02*
X161312381Y-71548095D01*
X161312381Y-71167142D01*
X161360000Y-71071904D01*
X161407619Y-71024285D01*
X161502857Y-70976666D01*
X161645714Y-70976666D01*
X161740952Y-71024285D01*
X161788571Y-71071904D01*
X161836190Y-71167142D01*
X161836190Y-71548095D01*
X161740952Y-70405238D02*
X161693333Y-70500476D01*
X161645714Y-70548095D01*
X161550476Y-70595714D01*
X161502857Y-70595714D01*
X161407619Y-70548095D01*
X161360000Y-70500476D01*
X161312381Y-70405238D01*
X161312381Y-70214761D01*
X161360000Y-70119523D01*
X161407619Y-70071904D01*
X161502857Y-70024285D01*
X161550476Y-70024285D01*
X161645714Y-70071904D01*
X161693333Y-70119523D01*
X161740952Y-70214761D01*
X161740952Y-70405238D01*
X161788571Y-70500476D01*
X161836190Y-70548095D01*
X161931429Y-70595714D01*
X162121905Y-70595714D01*
X162217143Y-70548095D01*
X162264762Y-70500476D01*
X162312381Y-70405238D01*
X162312381Y-70214761D01*
X162264762Y-70119523D01*
X162217143Y-70071904D01*
X162121905Y-70024285D01*
X161931429Y-70024285D01*
X161836190Y-70071904D01*
X161788571Y-70119523D01*
X161740952Y-70214761D01*
X144416667Y-99454762D02*
X144559524Y-99502381D01*
X144797620Y-99502381D01*
X144892858Y-99454762D01*
X144940477Y-99407143D01*
X144988096Y-99311905D01*
X144988096Y-99216667D01*
X144940477Y-99121429D01*
X144892858Y-99073810D01*
X144797620Y-99026190D01*
X144607143Y-98978571D01*
X144511905Y-98930952D01*
X144464286Y-98883333D01*
X144416667Y-98788095D01*
X144416667Y-98692857D01*
X144464286Y-98597619D01*
X144511905Y-98550000D01*
X144607143Y-98502381D01*
X144845239Y-98502381D01*
X144988096Y-98550000D01*
X145321429Y-98502381D02*
X145559524Y-99502381D01*
X145750001Y-98788095D01*
X145940477Y-99502381D01*
X146178572Y-98502381D01*
X147083334Y-99502381D02*
X146511905Y-99502381D01*
X146797619Y-99502381D02*
X146797619Y-98502381D01*
X146702381Y-98645238D01*
X146607143Y-98740476D01*
X146511905Y-98788095D01*
X132416667Y-99454762D02*
X132559524Y-99502381D01*
X132797620Y-99502381D01*
X132892858Y-99454762D01*
X132940477Y-99407143D01*
X132988096Y-99311905D01*
X132988096Y-99216667D01*
X132940477Y-99121429D01*
X132892858Y-99073810D01*
X132797620Y-99026190D01*
X132607143Y-98978571D01*
X132511905Y-98930952D01*
X132464286Y-98883333D01*
X132416667Y-98788095D01*
X132416667Y-98692857D01*
X132464286Y-98597619D01*
X132511905Y-98550000D01*
X132607143Y-98502381D01*
X132845239Y-98502381D01*
X132988096Y-98550000D01*
X133321429Y-98502381D02*
X133559524Y-99502381D01*
X133750001Y-98788095D01*
X133940477Y-99502381D01*
X134178572Y-98502381D01*
X134511905Y-98597619D02*
X134559524Y-98550000D01*
X134654762Y-98502381D01*
X134892858Y-98502381D01*
X134988096Y-98550000D01*
X135035715Y-98597619D01*
X135083334Y-98692857D01*
X135083334Y-98788095D01*
X135035715Y-98930952D01*
X134464286Y-99502381D01*
X135083334Y-99502381D01*
X164238095Y-47452381D02*
X164238095Y-48261905D01*
X164285714Y-48357143D01*
X164333333Y-48404762D01*
X164428571Y-48452381D01*
X164619048Y-48452381D01*
X164714286Y-48404762D01*
X164761905Y-48357143D01*
X164809524Y-48261905D01*
X164809524Y-47452381D01*
X165238095Y-47547619D02*
X165285714Y-47500000D01*
X165380952Y-47452381D01*
X165619048Y-47452381D01*
X165714286Y-47500000D01*
X165761905Y-47547619D01*
X165809524Y-47642857D01*
X165809524Y-47738095D01*
X165761905Y-47880952D01*
X165190476Y-48452381D01*
X165809524Y-48452381D01*
X152999047Y-48071429D02*
X153760952Y-48071429D01*
X153380000Y-48452381D02*
X153380000Y-47690476D01*
X154094285Y-47452381D02*
X154427618Y-48452381D01*
X154760952Y-47452381D01*
X155094285Y-48452381D02*
X155094285Y-47452381D01*
X155332380Y-47452381D01*
X155475238Y-47500000D01*
X155570476Y-47595238D01*
X155618095Y-47690476D01*
X155665714Y-47880952D01*
X155665714Y-48023810D01*
X155618095Y-48214286D01*
X155570476Y-48309524D01*
X155475238Y-48404762D01*
X155332380Y-48452381D01*
X155094285Y-48452381D01*
X156665714Y-48357143D02*
X156618095Y-48404762D01*
X156475238Y-48452381D01*
X156380000Y-48452381D01*
X156237142Y-48404762D01*
X156141904Y-48309524D01*
X156094285Y-48214286D01*
X156046666Y-48023810D01*
X156046666Y-47880952D01*
X156094285Y-47690476D01*
X156141904Y-47595238D01*
X156237142Y-47500000D01*
X156380000Y-47452381D01*
X156475238Y-47452381D01*
X156618095Y-47500000D01*
X156665714Y-47547619D01*
X157999047Y-48452381D02*
X157903809Y-48404762D01*
X157856190Y-48357143D01*
X157808571Y-48261905D01*
X157808571Y-47976190D01*
X157856190Y-47880952D01*
X157903809Y-47833333D01*
X157999047Y-47785714D01*
X158141905Y-47785714D01*
X158237143Y-47833333D01*
X158284762Y-47880952D01*
X158332381Y-47976190D01*
X158332381Y-48261905D01*
X158284762Y-48357143D01*
X158237143Y-48404762D01*
X158141905Y-48452381D01*
X157999047Y-48452381D01*
X159189524Y-47785714D02*
X159189524Y-48452381D01*
X158760952Y-47785714D02*
X158760952Y-48309524D01*
X158808571Y-48404762D01*
X158903809Y-48452381D01*
X159046667Y-48452381D01*
X159141905Y-48404762D01*
X159189524Y-48357143D01*
X159522857Y-47785714D02*
X159903809Y-47785714D01*
X159665714Y-47452381D02*
X159665714Y-48309524D01*
X159713333Y-48404762D01*
X159808571Y-48452381D01*
X159903809Y-48452381D01*
X152999047Y-55691429D02*
X153760952Y-55691429D01*
X154094285Y-55072381D02*
X154427618Y-56072381D01*
X154760952Y-55072381D01*
X155094285Y-56072381D02*
X155094285Y-55072381D01*
X155332380Y-55072381D01*
X155475238Y-55120000D01*
X155570476Y-55215238D01*
X155618095Y-55310476D01*
X155665714Y-55500952D01*
X155665714Y-55643810D01*
X155618095Y-55834286D01*
X155570476Y-55929524D01*
X155475238Y-56024762D01*
X155332380Y-56072381D01*
X155094285Y-56072381D01*
X156665714Y-55977143D02*
X156618095Y-56024762D01*
X156475238Y-56072381D01*
X156380000Y-56072381D01*
X156237142Y-56024762D01*
X156141904Y-55929524D01*
X156094285Y-55834286D01*
X156046666Y-55643810D01*
X156046666Y-55500952D01*
X156094285Y-55310476D01*
X156141904Y-55215238D01*
X156237142Y-55120000D01*
X156380000Y-55072381D01*
X156475238Y-55072381D01*
X156618095Y-55120000D01*
X156665714Y-55167619D01*
X157999047Y-56072381D02*
X157903809Y-56024762D01*
X157856190Y-55977143D01*
X157808571Y-55881905D01*
X157808571Y-55596190D01*
X157856190Y-55500952D01*
X157903809Y-55453333D01*
X157999047Y-55405714D01*
X158141905Y-55405714D01*
X158237143Y-55453333D01*
X158284762Y-55500952D01*
X158332381Y-55596190D01*
X158332381Y-55881905D01*
X158284762Y-55977143D01*
X158237143Y-56024762D01*
X158141905Y-56072381D01*
X157999047Y-56072381D01*
X159189524Y-55405714D02*
X159189524Y-56072381D01*
X158760952Y-55405714D02*
X158760952Y-55929524D01*
X158808571Y-56024762D01*
X158903809Y-56072381D01*
X159046667Y-56072381D01*
X159141905Y-56024762D01*
X159189524Y-55977143D01*
X159522857Y-55405714D02*
X159903809Y-55405714D01*
X159665714Y-55072381D02*
X159665714Y-55929524D01*
X159713333Y-56024762D01*
X159808571Y-56072381D01*
X159903809Y-56072381D01*
X170255238Y-55072381D02*
X170588571Y-56072381D01*
X170921905Y-55072381D01*
X171207619Y-55786667D02*
X171683810Y-55786667D01*
X171112381Y-56072381D02*
X171445714Y-55072381D01*
X171779048Y-56072381D01*
X172683810Y-55977143D02*
X172636191Y-56024762D01*
X172493334Y-56072381D01*
X172398096Y-56072381D01*
X172255238Y-56024762D01*
X172160000Y-55929524D01*
X172112381Y-55834286D01*
X172064762Y-55643810D01*
X172064762Y-55500952D01*
X172112381Y-55310476D01*
X172160000Y-55215238D01*
X172255238Y-55120000D01*
X172398096Y-55072381D01*
X172493334Y-55072381D01*
X172636191Y-55120000D01*
X172683810Y-55167619D01*
X173874286Y-56072381D02*
X173874286Y-55405714D01*
X173874286Y-55072381D02*
X173826667Y-55120000D01*
X173874286Y-55167619D01*
X173921905Y-55120000D01*
X173874286Y-55072381D01*
X173874286Y-55167619D01*
X174350476Y-55405714D02*
X174350476Y-56072381D01*
X174350476Y-55500952D02*
X174398095Y-55453333D01*
X174493333Y-55405714D01*
X174636191Y-55405714D01*
X174731429Y-55453333D01*
X174779048Y-55548571D01*
X174779048Y-56072381D01*
X176302858Y-56453333D02*
X176255238Y-56405714D01*
X176160000Y-56262857D01*
X176112381Y-56167619D01*
X176064762Y-56024762D01*
X176017143Y-55786667D01*
X176017143Y-55596190D01*
X176064762Y-55358095D01*
X176112381Y-55215238D01*
X176160000Y-55120000D01*
X176255238Y-54977143D01*
X176302858Y-54929524D01*
X176683810Y-56072381D02*
X176683810Y-55072381D01*
X177255239Y-56072381D01*
X177255239Y-55072381D01*
X177636191Y-56453333D02*
X177683810Y-56405714D01*
X177779048Y-56262857D01*
X177826667Y-56167619D01*
X177874286Y-56024762D01*
X177921905Y-55786667D01*
X177921905Y-55596190D01*
X177874286Y-55358095D01*
X177826667Y-55215238D01*
X177779048Y-55120000D01*
X177683810Y-54977143D01*
X177636191Y-54929524D01*
X170374285Y-39832381D02*
X170707618Y-40832381D01*
X171040952Y-39832381D01*
X171326666Y-40546667D02*
X171802857Y-40546667D01*
X171231428Y-40832381D02*
X171564761Y-39832381D01*
X171898095Y-40832381D01*
X172802857Y-40737143D02*
X172755238Y-40784762D01*
X172612381Y-40832381D01*
X172517143Y-40832381D01*
X172374285Y-40784762D01*
X172279047Y-40689524D01*
X172231428Y-40594286D01*
X172183809Y-40403810D01*
X172183809Y-40260952D01*
X172231428Y-40070476D01*
X172279047Y-39975238D01*
X172374285Y-39880000D01*
X172517143Y-39832381D01*
X172612381Y-39832381D01*
X172755238Y-39880000D01*
X172802857Y-39927619D01*
X173993333Y-40832381D02*
X173993333Y-40165714D01*
X173993333Y-39832381D02*
X173945714Y-39880000D01*
X173993333Y-39927619D01*
X174040952Y-39880000D01*
X173993333Y-39832381D01*
X173993333Y-39927619D01*
X174469523Y-40165714D02*
X174469523Y-40832381D01*
X174469523Y-40260952D02*
X174517142Y-40213333D01*
X174612380Y-40165714D01*
X174755238Y-40165714D01*
X174850476Y-40213333D01*
X174898095Y-40308571D01*
X174898095Y-40832381D01*
X176421905Y-41213333D02*
X176374285Y-41165714D01*
X176279047Y-41022857D01*
X176231428Y-40927619D01*
X176183809Y-40784762D01*
X176136190Y-40546667D01*
X176136190Y-40356190D01*
X176183809Y-40118095D01*
X176231428Y-39975238D01*
X176279047Y-39880000D01*
X176374285Y-39737143D01*
X176421905Y-39689524D01*
X177279048Y-40832381D02*
X176802857Y-40832381D01*
X176802857Y-39832381D01*
X177517143Y-41213333D02*
X177564762Y-41165714D01*
X177660000Y-41022857D01*
X177707619Y-40927619D01*
X177755238Y-40784762D01*
X177802857Y-40546667D01*
X177802857Y-40356190D01*
X177755238Y-40118095D01*
X177707619Y-39975238D01*
X177660000Y-39880000D01*
X177564762Y-39737143D01*
X177517143Y-39689524D01*
X197666667Y-79122381D02*
X197666667Y-79836667D01*
X197619047Y-79979524D01*
X197523809Y-80074762D01*
X197380952Y-80122381D01*
X197285714Y-80122381D01*
X198047619Y-79122381D02*
X198666667Y-79122381D01*
X198333333Y-79503333D01*
X198476191Y-79503333D01*
X198571429Y-79550952D01*
X198619048Y-79598571D01*
X198666667Y-79693810D01*
X198666667Y-79931905D01*
X198619048Y-80027143D01*
X198571429Y-80074762D01*
X198476191Y-80122381D01*
X198190476Y-80122381D01*
X198095238Y-80074762D01*
X198047619Y-80027143D01*
X138122381Y-76333333D02*
X138836667Y-76333333D01*
X138979524Y-76380953D01*
X139074762Y-76476191D01*
X139122381Y-76619048D01*
X139122381Y-76714286D01*
X138455714Y-75428571D02*
X139122381Y-75428571D01*
X138074762Y-75666667D02*
X138789048Y-75904762D01*
X138789048Y-75285714D01*
X136238095Y-69782381D02*
X136238095Y-70591905D01*
X136285714Y-70687143D01*
X136333333Y-70734762D01*
X136428571Y-70782381D01*
X136619048Y-70782381D01*
X136714286Y-70734762D01*
X136761905Y-70687143D01*
X136809524Y-70591905D01*
X136809524Y-69782381D01*
X137714286Y-70115714D02*
X137714286Y-70782381D01*
X137476190Y-69734762D02*
X137238095Y-70449048D01*
X137857143Y-70449048D01*
M02*
