G04 #@! TF.FileFunction,Soldermask,Bot*
%FSLAX46Y46*%
G04 Gerber Fmt 4.6, Leading zero omitted, Abs format (unit mm)*
G04 Created by KiCad (PCBNEW 4.0.7-e2-6376~58~ubuntu16.04.1) date Fri Dec 29 23:07:09 2017*
%MOMM*%
%LPD*%
G01*
G04 APERTURE LIST*
%ADD10C,0.100000*%
%ADD11O,2.200000X4.000000*%
%ADD12R,2.900000X2.900000*%
%ADD13O,2.900000X2.900000*%
%ADD14C,2.100000*%
%ADD15R,2.200000X2.200000*%
%ADD16C,2.200000*%
%ADD17R,2.000000X2.000000*%
%ADD18O,2.000000X2.000000*%
%ADD19C,2.178000*%
%ADD20C,1.400000*%
%ADD21R,1.400000X1.400000*%
%ADD22C,1.800000*%
%ADD23O,1.800000X1.800000*%
%ADD24C,1.924000*%
%ADD25R,2.100000X2.100000*%
%ADD26O,2.100000X2.100000*%
%ADD27C,3.600000*%
%ADD28C,7.200000*%
G04 APERTURE END LIST*
D10*
D11*
X143500000Y-74900000D03*
X148500000Y-74900000D03*
X146000000Y-74900000D03*
D12*
X174000000Y-79000000D03*
D13*
X180000000Y-77000000D03*
X180000000Y-64800000D03*
X168000000Y-64800000D03*
X168000000Y-77000000D03*
D14*
X131826000Y-81280000D03*
X131826000Y-78740000D03*
X131826000Y-76200000D03*
X131826000Y-73660000D03*
X131826000Y-71120000D03*
X131826000Y-68580000D03*
X131826000Y-66040000D03*
X131826000Y-63500000D03*
X131826000Y-60960000D03*
X131826000Y-58420000D03*
X131826000Y-55880000D03*
X131826000Y-53340000D03*
X131826000Y-50800000D03*
X131826000Y-48260000D03*
X131826000Y-45720000D03*
X108966000Y-81280000D03*
X108966000Y-78740000D03*
X108966000Y-76200000D03*
X108966000Y-73660000D03*
X108966000Y-71120000D03*
X108966000Y-68580000D03*
X108966000Y-66040000D03*
X108966000Y-63500000D03*
X108966000Y-60960000D03*
X108966000Y-58420000D03*
X108966000Y-55880000D03*
X108966000Y-53340000D03*
X108966000Y-50800000D03*
X108966000Y-48260000D03*
X108966000Y-45720000D03*
D15*
X123030000Y-99630000D03*
D16*
X125570000Y-99630000D03*
D15*
X111460000Y-99630000D03*
D16*
X114000000Y-99630000D03*
D17*
X136000000Y-80000000D03*
D18*
X143620000Y-80000000D03*
D17*
X136000000Y-85000000D03*
D18*
X143620000Y-85000000D03*
D17*
X163000000Y-67000000D03*
D18*
X163000000Y-74620000D03*
D15*
X160000000Y-61000000D03*
D16*
X160000000Y-63540000D03*
D19*
X192000000Y-52762500D03*
X192000000Y-43237500D03*
X192000000Y-73762500D03*
X192000000Y-64237500D03*
D20*
X155270000Y-71730000D03*
X156540000Y-73000000D03*
D21*
X154000000Y-73000000D03*
D22*
X142000000Y-102000000D03*
D23*
X149620000Y-102000000D03*
D22*
X130000000Y-102000000D03*
D23*
X137620000Y-102000000D03*
D22*
X120000000Y-93000000D03*
D23*
X127620000Y-93000000D03*
D22*
X109000000Y-93000000D03*
D23*
X116620000Y-93000000D03*
D22*
X147000000Y-80000000D03*
D23*
X154620000Y-80000000D03*
D22*
X155000000Y-68000000D03*
D23*
X155000000Y-60380000D03*
D22*
X152000000Y-85000000D03*
D23*
X152000000Y-92620000D03*
D22*
X160000000Y-67000000D03*
D23*
X160000000Y-74620000D03*
D14*
X142500000Y-92500000D03*
X149000000Y-92500000D03*
X142500000Y-97000000D03*
X149000000Y-97000000D03*
X130500000Y-92500000D03*
X137000000Y-92500000D03*
X130500000Y-97000000D03*
X137000000Y-97000000D03*
D24*
X179240000Y-55620000D03*
X179240000Y-40380000D03*
X151300000Y-55620000D03*
X151300000Y-48000000D03*
D25*
X198000000Y-82000000D03*
D26*
X198000000Y-84540000D03*
D25*
X137000000Y-68000000D03*
D26*
X137000000Y-65460000D03*
X137000000Y-62920000D03*
X137000000Y-60380000D03*
X137000000Y-57840000D03*
D27*
X140000000Y-45000000D03*
D28*
X190000000Y-95000000D03*
M02*
