M48
INCH,TZ
T1C0.024
T2C0.028
T3C0.030
T4C0.031
T5C0.035
T6C0.039
T7C0.040
T8C0.049
T9C0.051
T10C0.126
%
G90
G05
T1
X6.0236Y-2.9134
X6.0736Y-2.8634
X6.1236Y-2.9134
T2
X4.2913Y-3.6614
X4.5913Y-3.6614
X4.7244Y-3.6614
X5.0244Y-3.6614
X5.1181Y-4.0157
X5.4181Y-4.0157
X5.5906Y-4.0157
X5.8906Y-4.0157
X5.9843Y-3.1496
X5.9843Y-3.3465
X5.9843Y-3.6465
X6.063Y-2.3772
X6.063Y-2.6772
X6.2843Y-3.1496
X6.2992Y-2.6378
X6.2992Y-2.9378
T3
X5.9567Y-1.8898
X5.9567Y-2.1898
X7.0567Y-1.5898
X7.0567Y-2.1898
T4
X5.3543Y-3.1496
X5.3543Y-3.3465
X5.6543Y-3.1496
X5.6543Y-3.3465
X6.4173Y-2.6378
X6.4173Y-2.9378
T5
X4.3882Y-3.9224
X4.4882Y-3.9224
X4.8437Y-3.9224
X4.9437Y-3.9224
X6.2992Y-2.4016
X6.2992Y-2.5016
T6
X5.1378Y-3.6417
X5.1378Y-3.8189
X5.3937Y-2.2772
X5.3937Y-2.3772
X5.3937Y-2.4772
X5.3937Y-2.5772
X5.3937Y-2.6772
X5.3937Y-3.6417
X5.3937Y-3.8189
X5.5512Y-2.9921
X5.6102Y-3.6417
X5.6102Y-3.8189
X5.6512Y-2.9921
X5.7512Y-2.9921
X5.8661Y-3.6417
X5.8661Y-3.8189
X7.7953Y-3.2283
X7.7953Y-3.3283
T7
X7.5591Y-1.7023
X7.5591Y-2.0773
X7.5591Y-2.529
X7.5591Y-2.904
T8
X4.29Y-1.8
X4.29Y-1.9
X4.29Y-2.
X4.29Y-2.1
X4.29Y-2.2
X4.29Y-2.3
X4.29Y-2.4
X4.29Y-2.5
X4.29Y-2.6
X4.29Y-2.7
X4.29Y-2.8
X4.29Y-2.9
X4.29Y-3.
X4.29Y-3.1
X4.29Y-3.2
X5.19Y-1.8
X5.19Y-1.9
X5.19Y-2.
X5.19Y-2.1
X5.19Y-2.2
X5.19Y-2.3
X5.19Y-2.4
X5.19Y-2.5
X5.19Y-2.6
X5.19Y-2.7
X5.19Y-2.8
X5.19Y-2.9
X5.19Y-3.
X5.19Y-3.1
X5.19Y-3.2
T9
X6.6142Y-2.5512
X6.6142Y-3.0315
X6.8504Y-3.1102
X7.0866Y-2.5512
X7.0866Y-3.0315
T10
X5.5118Y-1.7717
X7.4803Y-3.7402
T0
M30
