G04 #@! TF.FileFunction,Legend,Bot*
%FSLAX46Y46*%
G04 Gerber Fmt 4.6, Leading zero omitted, Abs format (unit mm)*
G04 Created by KiCad (PCBNEW 4.0.7-e2-6376~58~ubuntu16.04.1) date Thu Jan  4 15:25:58 2018*
%MOMM*%
%LPD*%
G01*
G04 APERTURE LIST*
%ADD10C,0.100000*%
%ADD11C,0.150000*%
%ADD12C,0.200000*%
G04 APERTURE END LIST*
D10*
D11*
X187292952Y-81097381D02*
X187626286Y-80621190D01*
X187864381Y-81097381D02*
X187864381Y-80097381D01*
X187483428Y-80097381D01*
X187388190Y-80145000D01*
X187340571Y-80192619D01*
X187292952Y-80287857D01*
X187292952Y-80430714D01*
X187340571Y-80525952D01*
X187388190Y-80573571D01*
X187483428Y-80621190D01*
X187864381Y-80621190D01*
X186864381Y-80573571D02*
X186531047Y-80573571D01*
X186388190Y-81097381D02*
X186864381Y-81097381D01*
X186864381Y-80097381D01*
X186388190Y-80097381D01*
X185959619Y-81097381D02*
X185959619Y-80097381D01*
X185721524Y-80097381D01*
X185578666Y-80145000D01*
X185483428Y-80240238D01*
X185435809Y-80335476D01*
X185388190Y-80525952D01*
X185388190Y-80668810D01*
X185435809Y-80859286D01*
X185483428Y-80954524D01*
X185578666Y-81049762D01*
X185721524Y-81097381D01*
X185959619Y-81097381D01*
X185197714Y-81192619D02*
X184435809Y-81192619D01*
X183721523Y-81097381D02*
X184197714Y-81097381D01*
X184197714Y-80097381D01*
X183388190Y-80573571D02*
X183054856Y-80573571D01*
X182911999Y-81097381D02*
X183388190Y-81097381D01*
X183388190Y-80097381D01*
X182911999Y-80097381D01*
X182483428Y-81097381D02*
X182483428Y-80097381D01*
X182245333Y-80097381D01*
X182102475Y-80145000D01*
X182007237Y-80240238D01*
X181959618Y-80335476D01*
X181911999Y-80525952D01*
X181911999Y-80668810D01*
X181959618Y-80859286D01*
X182007237Y-80954524D01*
X182102475Y-81049762D01*
X182245333Y-81097381D01*
X182483428Y-81097381D01*
X188920000Y-77684381D02*
X188920000Y-78493905D01*
X188872381Y-78589143D01*
X188824762Y-78636762D01*
X188729524Y-78684381D01*
X188539047Y-78684381D01*
X188443809Y-78636762D01*
X188396190Y-78589143D01*
X188348571Y-78493905D01*
X188348571Y-77684381D01*
X187920000Y-78636762D02*
X187777143Y-78684381D01*
X187539047Y-78684381D01*
X187443809Y-78636762D01*
X187396190Y-78589143D01*
X187348571Y-78493905D01*
X187348571Y-78398667D01*
X187396190Y-78303429D01*
X187443809Y-78255810D01*
X187539047Y-78208190D01*
X187729524Y-78160571D01*
X187824762Y-78112952D01*
X187872381Y-78065333D01*
X187920000Y-77970095D01*
X187920000Y-77874857D01*
X187872381Y-77779619D01*
X187824762Y-77732000D01*
X187729524Y-77684381D01*
X187491428Y-77684381D01*
X187348571Y-77732000D01*
X186920000Y-78160571D02*
X186586666Y-78160571D01*
X186443809Y-78684381D02*
X186920000Y-78684381D01*
X186920000Y-77684381D01*
X186443809Y-77684381D01*
X185443809Y-78684381D02*
X185777143Y-78208190D01*
X186015238Y-78684381D02*
X186015238Y-77684381D01*
X185634285Y-77684381D01*
X185539047Y-77732000D01*
X185491428Y-77779619D01*
X185443809Y-77874857D01*
X185443809Y-78017714D01*
X185491428Y-78112952D01*
X185539047Y-78160571D01*
X185634285Y-78208190D01*
X186015238Y-78208190D01*
X185253333Y-78779619D02*
X184491428Y-78779619D01*
X184253333Y-78684381D02*
X184253333Y-77684381D01*
X183872380Y-77684381D01*
X183777142Y-77732000D01*
X183729523Y-77779619D01*
X183681904Y-77874857D01*
X183681904Y-78017714D01*
X183729523Y-78112952D01*
X183777142Y-78160571D01*
X183872380Y-78208190D01*
X184253333Y-78208190D01*
X183062857Y-77684381D02*
X182872380Y-77684381D01*
X182777142Y-77732000D01*
X182681904Y-77827238D01*
X182634285Y-78017714D01*
X182634285Y-78351048D01*
X182681904Y-78541524D01*
X182777142Y-78636762D01*
X182872380Y-78684381D01*
X183062857Y-78684381D01*
X183158095Y-78636762D01*
X183253333Y-78541524D01*
X183300952Y-78351048D01*
X183300952Y-78017714D01*
X183253333Y-77827238D01*
X183158095Y-77732000D01*
X183062857Y-77684381D01*
X182348571Y-77684381D02*
X181777142Y-77684381D01*
X182062857Y-78684381D02*
X182062857Y-77684381D01*
X190507381Y-75017381D02*
X189935952Y-75017381D01*
X190221667Y-76017381D02*
X190221667Y-75017381D01*
X189602619Y-76017381D02*
X189602619Y-75017381D01*
X189602619Y-75493571D02*
X189031190Y-75493571D01*
X189031190Y-76017381D02*
X189031190Y-75017381D01*
X188555000Y-75493571D02*
X188221666Y-75493571D01*
X188078809Y-76017381D02*
X188555000Y-76017381D01*
X188555000Y-75017381D01*
X188078809Y-75017381D01*
X187078809Y-76017381D02*
X187412143Y-75541190D01*
X187650238Y-76017381D02*
X187650238Y-75017381D01*
X187269285Y-75017381D01*
X187174047Y-75065000D01*
X187126428Y-75112619D01*
X187078809Y-75207857D01*
X187078809Y-75350714D01*
X187126428Y-75445952D01*
X187174047Y-75493571D01*
X187269285Y-75541190D01*
X187650238Y-75541190D01*
X186650238Y-76017381D02*
X186650238Y-75017381D01*
X186316904Y-75731667D01*
X185983571Y-75017381D01*
X185983571Y-76017381D01*
X185507381Y-76017381D02*
X185507381Y-75017381D01*
X185078810Y-75969762D02*
X184935953Y-76017381D01*
X184697857Y-76017381D01*
X184602619Y-75969762D01*
X184555000Y-75922143D01*
X184507381Y-75826905D01*
X184507381Y-75731667D01*
X184555000Y-75636429D01*
X184602619Y-75588810D01*
X184697857Y-75541190D01*
X184888334Y-75493571D01*
X184983572Y-75445952D01*
X185031191Y-75398333D01*
X185078810Y-75303095D01*
X185078810Y-75207857D01*
X185031191Y-75112619D01*
X184983572Y-75065000D01*
X184888334Y-75017381D01*
X184650238Y-75017381D01*
X184507381Y-75065000D01*
X184221667Y-75017381D02*
X183650238Y-75017381D01*
X183935953Y-76017381D02*
X183935953Y-75017381D01*
X183126429Y-75017381D02*
X182935952Y-75017381D01*
X182840714Y-75065000D01*
X182745476Y-75160238D01*
X182697857Y-75350714D01*
X182697857Y-75684048D01*
X182745476Y-75874524D01*
X182840714Y-75969762D01*
X182935952Y-76017381D01*
X183126429Y-76017381D01*
X183221667Y-75969762D01*
X183316905Y-75874524D01*
X183364524Y-75684048D01*
X183364524Y-75350714D01*
X183316905Y-75160238D01*
X183221667Y-75065000D01*
X183126429Y-75017381D01*
X181697857Y-76017381D02*
X182031191Y-75541190D01*
X182269286Y-76017381D02*
X182269286Y-75017381D01*
X181888333Y-75017381D01*
X181793095Y-75065000D01*
X181745476Y-75112619D01*
X181697857Y-75207857D01*
X181697857Y-75350714D01*
X181745476Y-75445952D01*
X181793095Y-75493571D01*
X181888333Y-75541190D01*
X182269286Y-75541190D01*
X184213333Y-73429762D02*
X184070476Y-73477381D01*
X183832380Y-73477381D01*
X183737142Y-73429762D01*
X183689523Y-73382143D01*
X183641904Y-73286905D01*
X183641904Y-73191667D01*
X183689523Y-73096429D01*
X183737142Y-73048810D01*
X183832380Y-73001190D01*
X184022857Y-72953571D01*
X184118095Y-72905952D01*
X184165714Y-72858333D01*
X184213333Y-72763095D01*
X184213333Y-72667857D01*
X184165714Y-72572619D01*
X184118095Y-72525000D01*
X184022857Y-72477381D01*
X183784761Y-72477381D01*
X183641904Y-72525000D01*
X183308571Y-72477381D02*
X183070476Y-73477381D01*
X182879999Y-72763095D01*
X182689523Y-73477381D01*
X182451428Y-72477381D01*
X181546666Y-73477381D02*
X182118095Y-73477381D01*
X181832381Y-73477381D02*
X181832381Y-72477381D01*
X181927619Y-72620238D01*
X182022857Y-72715476D01*
X182118095Y-72763095D01*
X187959619Y-70540571D02*
X187816762Y-70588190D01*
X187769143Y-70635810D01*
X187721524Y-70731048D01*
X187721524Y-70873905D01*
X187769143Y-70969143D01*
X187816762Y-71016762D01*
X187912000Y-71064381D01*
X188292953Y-71064381D01*
X188292953Y-70064381D01*
X187959619Y-70064381D01*
X187864381Y-70112000D01*
X187816762Y-70159619D01*
X187769143Y-70254857D01*
X187769143Y-70350095D01*
X187816762Y-70445333D01*
X187864381Y-70492952D01*
X187959619Y-70540571D01*
X188292953Y-70540571D01*
X186816762Y-71064381D02*
X187292953Y-71064381D01*
X187292953Y-70064381D01*
X186483429Y-70064381D02*
X186483429Y-70873905D01*
X186435810Y-70969143D01*
X186388191Y-71016762D01*
X186292953Y-71064381D01*
X186102476Y-71064381D01*
X186007238Y-71016762D01*
X185959619Y-70969143D01*
X185912000Y-70873905D01*
X185912000Y-70064381D01*
X185435810Y-70540571D02*
X185102476Y-70540571D01*
X184959619Y-71064381D02*
X185435810Y-71064381D01*
X185435810Y-70064381D01*
X184959619Y-70064381D01*
X184769143Y-71159619D02*
X184007238Y-71159619D01*
X183292952Y-71064381D02*
X183769143Y-71064381D01*
X183769143Y-70064381D01*
X182959619Y-70540571D02*
X182626285Y-70540571D01*
X182483428Y-71064381D02*
X182959619Y-71064381D01*
X182959619Y-70064381D01*
X182483428Y-70064381D01*
X182054857Y-71064381D02*
X182054857Y-70064381D01*
X181816762Y-70064381D01*
X181673904Y-70112000D01*
X181578666Y-70207238D01*
X181531047Y-70302476D01*
X181483428Y-70492952D01*
X181483428Y-70635810D01*
X181531047Y-70826286D01*
X181578666Y-70921524D01*
X181673904Y-71016762D01*
X181816762Y-71064381D01*
X182054857Y-71064381D01*
X184213333Y-63269762D02*
X184070476Y-63317381D01*
X183832380Y-63317381D01*
X183737142Y-63269762D01*
X183689523Y-63222143D01*
X183641904Y-63126905D01*
X183641904Y-63031667D01*
X183689523Y-62936429D01*
X183737142Y-62888810D01*
X183832380Y-62841190D01*
X184022857Y-62793571D01*
X184118095Y-62745952D01*
X184165714Y-62698333D01*
X184213333Y-62603095D01*
X184213333Y-62507857D01*
X184165714Y-62412619D01*
X184118095Y-62365000D01*
X184022857Y-62317381D01*
X183784761Y-62317381D01*
X183641904Y-62365000D01*
X183308571Y-62317381D02*
X183070476Y-63317381D01*
X182879999Y-62603095D01*
X182689523Y-63317381D01*
X182451428Y-62317381D01*
X182118095Y-62412619D02*
X182070476Y-62365000D01*
X181975238Y-62317381D01*
X181737142Y-62317381D01*
X181641904Y-62365000D01*
X181594285Y-62412619D01*
X181546666Y-62507857D01*
X181546666Y-62603095D01*
X181594285Y-62745952D01*
X182165714Y-63317381D01*
X181546666Y-63317381D01*
X183475238Y-60682143D02*
X183522857Y-60729762D01*
X183665714Y-60777381D01*
X183760952Y-60777381D01*
X183903810Y-60729762D01*
X183999048Y-60634524D01*
X184046667Y-60539286D01*
X184094286Y-60348810D01*
X184094286Y-60205952D01*
X184046667Y-60015476D01*
X183999048Y-59920238D01*
X183903810Y-59825000D01*
X183760952Y-59777381D01*
X183665714Y-59777381D01*
X183522857Y-59825000D01*
X183475238Y-59872619D01*
X182570476Y-60777381D02*
X183046667Y-60777381D01*
X183046667Y-59777381D01*
X182237143Y-60777381D02*
X182237143Y-59777381D01*
X181665714Y-60777381D02*
X182094286Y-60205952D01*
X181665714Y-59777381D02*
X182237143Y-60348810D01*
X183951429Y-58237381D02*
X183951429Y-57237381D01*
X183713334Y-57237381D01*
X183570476Y-57285000D01*
X183475238Y-57380238D01*
X183427619Y-57475476D01*
X183380000Y-57665952D01*
X183380000Y-57808810D01*
X183427619Y-57999286D01*
X183475238Y-58094524D01*
X183570476Y-58189762D01*
X183713334Y-58237381D01*
X183951429Y-58237381D01*
X182999048Y-57951667D02*
X182522857Y-57951667D01*
X183094286Y-58237381D02*
X182760953Y-57237381D01*
X182427619Y-58237381D01*
X182237143Y-57237381D02*
X181665714Y-57237381D01*
X181951429Y-58237381D02*
X181951429Y-57237381D01*
X184729286Y-55697381D02*
X185062620Y-55221190D01*
X185300715Y-55697381D02*
X185300715Y-54697381D01*
X184919762Y-54697381D01*
X184824524Y-54745000D01*
X184776905Y-54792619D01*
X184729286Y-54887857D01*
X184729286Y-55030714D01*
X184776905Y-55125952D01*
X184824524Y-55173571D01*
X184919762Y-55221190D01*
X185300715Y-55221190D01*
X183919762Y-55649762D02*
X184015000Y-55697381D01*
X184205477Y-55697381D01*
X184300715Y-55649762D01*
X184348334Y-55554524D01*
X184348334Y-55173571D01*
X184300715Y-55078333D01*
X184205477Y-55030714D01*
X184015000Y-55030714D01*
X183919762Y-55078333D01*
X183872143Y-55173571D01*
X183872143Y-55268810D01*
X184348334Y-55364048D01*
X183300715Y-55697381D02*
X183395953Y-55649762D01*
X183443572Y-55554524D01*
X183443572Y-54697381D01*
X182491190Y-55697381D02*
X182491190Y-55173571D01*
X182538809Y-55078333D01*
X182634047Y-55030714D01*
X182824524Y-55030714D01*
X182919762Y-55078333D01*
X182491190Y-55649762D02*
X182586428Y-55697381D01*
X182824524Y-55697381D01*
X182919762Y-55649762D01*
X182967381Y-55554524D01*
X182967381Y-55459286D01*
X182919762Y-55364048D01*
X182824524Y-55316429D01*
X182586428Y-55316429D01*
X182491190Y-55268810D01*
X182110238Y-55030714D02*
X181872143Y-55697381D01*
X181634047Y-55030714D02*
X181872143Y-55697381D01*
X181967381Y-55935476D01*
X182015000Y-55983095D01*
X182110238Y-56030714D01*
X200104286Y-80811667D02*
X199628095Y-80811667D01*
X200199524Y-81097381D02*
X199866191Y-80097381D01*
X199532857Y-81097381D01*
X199009048Y-80097381D02*
X198913809Y-80097381D01*
X198818571Y-80145000D01*
X198770952Y-80192619D01*
X198723333Y-80287857D01*
X198675714Y-80478333D01*
X198675714Y-80716429D01*
X198723333Y-80906905D01*
X198770952Y-81002143D01*
X198818571Y-81049762D01*
X198913809Y-81097381D01*
X199009048Y-81097381D01*
X199104286Y-81049762D01*
X199151905Y-81002143D01*
X199199524Y-80906905D01*
X199247143Y-80716429D01*
X199247143Y-80478333D01*
X199199524Y-80287857D01*
X199151905Y-80192619D01*
X199104286Y-80145000D01*
X199009048Y-80097381D01*
X200485238Y-44537381D02*
X200151905Y-45537381D01*
X199818571Y-44537381D01*
X199485238Y-45537381D02*
X199485238Y-44537381D01*
X199009048Y-45537381D02*
X199009048Y-44537381D01*
X198437619Y-45537381D01*
X198437619Y-44537381D01*
D12*
X149000000Y-37000000D02*
X149000000Y-35500000D01*
X108500000Y-87960000D02*
X106500000Y-87960000D01*
X111000000Y-87960000D02*
X109000000Y-87960000D01*
X113500000Y-87960000D02*
X111500000Y-87960000D01*
X116000000Y-87960000D02*
X114000000Y-87960000D01*
X149000000Y-87960000D02*
X147000000Y-87960000D01*
X149000000Y-85960000D02*
X149000000Y-87960000D01*
X149000000Y-42580000D02*
X149000000Y-44580000D01*
X149000000Y-40040000D02*
X149000000Y-42040000D01*
X149000000Y-37500000D02*
X149000000Y-39500000D01*
X116500000Y-88000000D02*
X118500000Y-88000000D01*
X119040000Y-88000000D02*
X121040000Y-88000000D01*
X121580000Y-88000000D02*
X123580000Y-88000000D01*
X124120000Y-88000000D02*
X126120000Y-88000000D01*
X126660000Y-88000000D02*
X128660000Y-88000000D01*
X129200000Y-88000000D02*
X131200000Y-88000000D01*
X131740000Y-88000000D02*
X133740000Y-88000000D01*
X134280000Y-88000000D02*
X136280000Y-88000000D01*
X136820000Y-88000000D02*
X138820000Y-88000000D01*
X139360000Y-88000000D02*
X141360000Y-88000000D01*
X141900000Y-88000000D02*
X143900000Y-88000000D01*
X144440000Y-88000000D02*
X146440000Y-88000000D01*
X144440000Y-88000000D02*
X146440000Y-88000000D01*
X141900000Y-88000000D02*
X143900000Y-88000000D01*
X139360000Y-88000000D02*
X141360000Y-88000000D01*
X136820000Y-88000000D02*
X138820000Y-88000000D01*
X134280000Y-88000000D02*
X136280000Y-88000000D01*
X131740000Y-88000000D02*
X133740000Y-88000000D01*
X129200000Y-88000000D02*
X131200000Y-88000000D01*
X126660000Y-88000000D02*
X128660000Y-88000000D01*
X124120000Y-88000000D02*
X126120000Y-88000000D01*
X121580000Y-88000000D02*
X123580000Y-88000000D01*
X119040000Y-88000000D02*
X121040000Y-88000000D01*
X116500000Y-88000000D02*
X118500000Y-88000000D01*
X149000000Y-83220000D02*
X149000000Y-85220000D01*
X149000000Y-80680000D02*
X149000000Y-82680000D01*
X149000000Y-78140000D02*
X149000000Y-80140000D01*
X149000000Y-75600000D02*
X149000000Y-77600000D01*
X149000000Y-73060000D02*
X149000000Y-75060000D01*
X149000000Y-70520000D02*
X149000000Y-72520000D01*
X149000000Y-67980000D02*
X149000000Y-69980000D01*
X149000000Y-65440000D02*
X149000000Y-67440000D01*
X149000000Y-62900000D02*
X149000000Y-64900000D01*
X149000000Y-60360000D02*
X149000000Y-62360000D01*
X149000000Y-57820000D02*
X149000000Y-59820000D01*
X149000000Y-55280000D02*
X149000000Y-57280000D01*
X149000000Y-52740000D02*
X149000000Y-54740000D01*
X149000000Y-50200000D02*
X149000000Y-52200000D01*
X149000000Y-47660000D02*
X149000000Y-49660000D01*
X149000000Y-45120000D02*
X149000000Y-47120000D01*
M02*
