G04 #@! TF.FileFunction,Copper,L1,Top,Signal*
%FSLAX46Y46*%
G04 Gerber Fmt 4.6, Leading zero omitted, Abs format (unit mm)*
G04 Created by KiCad (PCBNEW 4.0.7-e2-6376~58~ubuntu16.04.1) date Thu Jan  4 16:20:26 2018*
%MOMM*%
%LPD*%
G01*
G04 APERTURE LIST*
%ADD10C,0.100000*%
%ADD11C,1.700000*%
%ADD12C,2.500000*%
%ADD13C,1.524000*%
%ADD14R,1.600000X1.600000*%
%ADD15O,1.600000X1.600000*%
%ADD16C,1.000000*%
%ADD17R,1.000000X1.000000*%
%ADD18R,1.800000X1.800000*%
%ADD19C,1.800000*%
%ADD20R,1.700000X1.700000*%
%ADD21O,1.700000X1.700000*%
%ADD22R,2.500000X2.500000*%
%ADD23O,2.500000X2.500000*%
%ADD24C,1.600000*%
%ADD25O,1.800000X3.600000*%
%ADD26C,3.556000*%
%ADD27C,0.250000*%
%ADD28C,0.400000*%
%ADD29C,2.500000*%
G04 APERTURE END LIST*
D10*
D11*
X202430000Y-80700000D03*
X202430000Y-78160000D03*
X202430000Y-75620000D03*
X202430000Y-73080000D03*
X202430000Y-70540000D03*
X202430000Y-68000000D03*
X202430000Y-65460000D03*
X202430000Y-62920000D03*
X202430000Y-60380000D03*
X202430000Y-57840000D03*
X202430000Y-55300000D03*
X202430000Y-52760000D03*
X202430000Y-50220000D03*
X202430000Y-47680000D03*
X202430000Y-45140000D03*
X179570000Y-80700000D03*
X179570000Y-78160000D03*
X179570000Y-75620000D03*
X179570000Y-73080000D03*
X179570000Y-70540000D03*
X179570000Y-68000000D03*
X179570000Y-65460000D03*
X179570000Y-62920000D03*
X179570000Y-60380000D03*
X179570000Y-57840000D03*
X179570000Y-55300000D03*
X179570000Y-52760000D03*
X179570000Y-50220000D03*
X179570000Y-47680000D03*
X179570000Y-45140000D03*
D12*
X128500000Y-47000000D03*
X128500000Y-70000000D03*
X136760000Y-39380000D03*
X136760000Y-54620000D03*
D13*
X164700000Y-39380000D03*
X164700000Y-47000000D03*
D14*
X160000000Y-64750000D03*
D15*
X160000000Y-72370000D03*
D16*
X153730000Y-82730000D03*
X152460000Y-81460000D03*
D17*
X155000000Y-81460000D03*
D18*
X125600000Y-98000000D03*
D19*
X128140000Y-98000000D03*
D11*
X133500000Y-92500000D03*
X140000000Y-92500000D03*
X133500000Y-97000000D03*
X140000000Y-97000000D03*
X143500000Y-92500000D03*
X150000000Y-92500000D03*
X143500000Y-97000000D03*
X150000000Y-97000000D03*
D20*
X203000000Y-93500000D03*
D21*
X203000000Y-90960000D03*
D22*
X154500000Y-69960000D03*
D23*
X152500000Y-63960000D03*
X140300000Y-63960000D03*
X140300000Y-75960000D03*
X152500000Y-75960000D03*
D14*
X173000000Y-102000000D03*
D15*
X165380000Y-102000000D03*
D14*
X180000000Y-91000000D03*
D15*
X187620000Y-91000000D03*
D18*
X156000000Y-98000000D03*
D19*
X158540000Y-98000000D03*
D18*
X165000000Y-76460000D03*
D19*
X165000000Y-73920000D03*
D20*
X176000000Y-65460000D03*
D21*
X176000000Y-62920000D03*
X176000000Y-60380000D03*
X176000000Y-57840000D03*
X176000000Y-55300000D03*
D24*
X179000000Y-95000000D03*
D15*
X189160000Y-95000000D03*
D24*
X165000000Y-70460000D03*
D15*
X165000000Y-60300000D03*
D24*
X165000000Y-97000000D03*
D15*
X175160000Y-97000000D03*
D24*
X154000000Y-93000000D03*
D15*
X164160000Y-93000000D03*
D24*
X120600000Y-93000000D03*
D15*
X130760000Y-93000000D03*
D25*
X167000000Y-91900000D03*
X172000000Y-91900000D03*
X169500000Y-91900000D03*
D26*
X174072000Y-84984000D03*
X164928000Y-84984000D03*
D24*
X184000000Y-101000000D03*
X179000000Y-101000000D03*
X187000000Y-101000000D03*
D15*
X197160000Y-101000000D03*
D20*
X172000000Y-51460000D03*
D21*
X169460000Y-51460000D03*
D20*
X172000000Y-57460000D03*
D21*
X169460000Y-57460000D03*
D12*
X115000000Y-72762500D03*
X115000000Y-63237500D03*
X115000000Y-42237500D03*
X115000000Y-51762500D03*
D14*
X172000000Y-46460000D03*
D24*
X172000000Y-42960000D03*
X171000000Y-75460000D03*
D15*
X171000000Y-65300000D03*
D27*
X165000000Y-97000000D02*
X165500000Y-97000000D01*
X165500000Y-97000000D02*
X169500000Y-93000000D01*
X169500000Y-93000000D02*
X169500000Y-91900000D01*
X165000000Y-97000000D02*
X165000000Y-101620000D01*
X165000000Y-101620000D02*
X165380000Y-102000000D01*
X165000000Y-73920000D02*
X165000000Y-70460000D01*
X158540000Y-98000000D02*
X159160000Y-98000000D01*
X159160000Y-98000000D02*
X164160000Y-93000000D01*
X130760000Y-93000000D02*
X130760000Y-95380000D01*
X130760000Y-95380000D02*
X128140000Y-98000000D01*
X171000000Y-75460000D02*
X171000000Y-79500000D01*
X153730000Y-79520000D02*
X153730000Y-82730000D01*
X153750000Y-79500000D02*
X153730000Y-79520000D01*
X171000000Y-79500000D02*
X153750000Y-79500000D01*
D28*
X172000000Y-46460000D02*
X177460000Y-46460000D01*
X202430000Y-42930000D02*
X202430000Y-45140000D01*
X202000000Y-42500000D02*
X202430000Y-42930000D01*
X177500000Y-42500000D02*
X202000000Y-42500000D01*
X177500000Y-46420000D02*
X177500000Y-42500000D01*
X177460000Y-46460000D02*
X177500000Y-46420000D01*
X172000000Y-46460000D02*
X165240000Y-46460000D01*
X165240000Y-46460000D02*
X164700000Y-47000000D01*
X172000000Y-51460000D02*
X172000000Y-46460000D01*
X176000000Y-62920000D02*
X173940000Y-62920000D01*
X173900000Y-53360000D02*
X172000000Y-51460000D01*
X173900000Y-62880000D02*
X173900000Y-53360000D01*
X173940000Y-62920000D02*
X173900000Y-62880000D01*
D27*
X180000000Y-91000000D02*
X180000000Y-88960000D01*
X177000000Y-90960000D02*
X179960000Y-90960000D01*
X179960000Y-90960000D02*
X180000000Y-91000000D01*
X173000000Y-102000000D02*
X177000000Y-102000000D01*
X177000000Y-102000000D02*
X177000000Y-90960000D01*
X188260000Y-80700000D02*
X202430000Y-80700000D01*
X180000000Y-88960000D02*
X188260000Y-80700000D01*
X179570000Y-73080000D02*
X177880000Y-73080000D01*
X177880000Y-73080000D02*
X172000000Y-78960000D01*
X172000000Y-78960000D02*
X172000000Y-80460000D01*
X172000000Y-80460000D02*
X158000000Y-80460000D01*
X158000000Y-80460000D02*
X158000000Y-85460000D01*
X158000000Y-85460000D02*
X152500000Y-90960000D01*
X152500000Y-90960000D02*
X141540000Y-90960000D01*
X141540000Y-90960000D02*
X140000000Y-92500000D01*
X179570000Y-62920000D02*
X181500000Y-62920000D01*
X181500000Y-62920000D02*
X181485000Y-62935000D01*
X181485000Y-62935000D02*
X181485000Y-74350000D01*
X181485000Y-74350000D02*
X177650000Y-74350000D01*
X177650000Y-74350000D02*
X172500000Y-79500000D01*
X172500000Y-79500000D02*
X172500000Y-81000000D01*
X172500000Y-81000000D02*
X158500000Y-81000000D01*
X158500000Y-81000000D02*
X158500000Y-86000000D01*
X158500000Y-86000000D02*
X150000000Y-94500000D01*
X150000000Y-94500000D02*
X150000000Y-97000000D01*
X179570000Y-60380000D02*
X176000000Y-60380000D01*
X179570000Y-57840000D02*
X176000000Y-57840000D01*
X179570000Y-70540000D02*
X179420000Y-70540000D01*
X179420000Y-70540000D02*
X171500000Y-78460000D01*
X171500000Y-78460000D02*
X171500000Y-79960000D01*
X171500000Y-79960000D02*
X157500000Y-79960000D01*
X157500000Y-79960000D02*
X157500000Y-84960000D01*
X157500000Y-84960000D02*
X152000000Y-90460000D01*
X152000000Y-90460000D02*
X123140000Y-90460000D01*
X123140000Y-90460000D02*
X120600000Y-93000000D01*
X154000000Y-93000000D02*
X154000000Y-91500000D01*
X173000000Y-80700000D02*
X179570000Y-80700000D01*
X173000000Y-80700000D02*
X173000000Y-80700000D01*
X173000000Y-81500000D02*
X173000000Y-80700000D01*
X159000000Y-81500000D02*
X173000000Y-81500000D01*
X158950002Y-81549998D02*
X159000000Y-81500000D01*
X158950002Y-86549998D02*
X158950002Y-81549998D01*
X154000000Y-91500000D02*
X158950002Y-86549998D01*
X184000000Y-101000000D02*
X184000000Y-103500000D01*
X182250000Y-78300000D02*
X179570000Y-75620000D01*
X182250000Y-84500000D02*
X182250000Y-78300000D01*
X169000000Y-97750000D02*
X182250000Y-84500000D01*
X169000000Y-103500000D02*
X169000000Y-97750000D01*
X184000000Y-103500000D02*
X169000000Y-103500000D01*
X184000000Y-101000000D02*
X187000000Y-101000000D01*
X172000000Y-91900000D02*
X173560000Y-91900000D01*
X181500000Y-80090000D02*
X179570000Y-78160000D01*
X181500000Y-83960000D02*
X181500000Y-80090000D01*
X173560000Y-91900000D02*
X181500000Y-83960000D01*
X171500000Y-91900000D02*
X172100000Y-91900000D01*
X189160000Y-95000000D02*
X185000000Y-95000000D01*
X185000000Y-95000000D02*
X179000000Y-101000000D01*
X203000000Y-90960000D02*
X199960000Y-90960000D01*
X188620000Y-90000000D02*
X187620000Y-91000000D01*
X199000000Y-90000000D02*
X188620000Y-90000000D01*
X199960000Y-90960000D02*
X199000000Y-90000000D01*
X189160000Y-95000000D02*
X189160000Y-92540000D01*
X189160000Y-92540000D02*
X187620000Y-91000000D01*
X203000000Y-93500000D02*
X203000000Y-95160000D01*
X203000000Y-95160000D02*
X197160000Y-101000000D01*
D29*
X128500000Y-70000000D02*
X128500000Y-65262500D01*
X128500000Y-65262500D02*
X115000000Y-51762500D01*
D27*
X179570000Y-55300000D02*
X181500000Y-55300000D01*
X173700000Y-68000000D02*
X171000000Y-65300000D01*
X178000000Y-68000000D02*
X173700000Y-68000000D01*
X178000000Y-61650000D02*
X178000000Y-68000000D01*
X181500000Y-61650000D02*
X178000000Y-61650000D01*
X181500000Y-55300000D02*
X181500000Y-61650000D01*
X171000000Y-65300000D02*
X171000000Y-58460000D01*
X171000000Y-58460000D02*
X172000000Y-57460000D01*
X169460000Y-57460000D02*
X169460000Y-51460000D01*
X165000000Y-60300000D02*
X166620000Y-60300000D01*
X166620000Y-60300000D02*
X169460000Y-57460000D01*
X160000000Y-64750000D02*
X160550000Y-64750000D01*
X160550000Y-64750000D02*
X165000000Y-60300000D01*
X160000000Y-64750000D02*
X153290000Y-64750000D01*
X153290000Y-64750000D02*
X152500000Y-63960000D01*
X165000000Y-76460000D02*
X164090000Y-76460000D01*
X164090000Y-76460000D02*
X160000000Y-72370000D01*
X152500000Y-75960000D02*
X152500000Y-78500000D01*
X152500000Y-78500000D02*
X152460000Y-81460000D01*
X152500000Y-75960000D02*
X156410000Y-75960000D01*
X156410000Y-75960000D02*
X160000000Y-72370000D01*
M02*
