M48
INCH,TZ
T1C0.024
T2C0.030
T3C0.031
T4C0.035
T5C0.039
T6C0.040
T7C0.047
T8C0.049
T9C0.051
T10C0.097
T11C0.126
%
G90
G05
T1
X6.0024Y-3.2071
X6.0524Y-3.2571
X6.1024Y-3.2071
T2
X5.3843Y-1.5504
X5.3843Y-2.1504
X6.4843Y-1.5504
X6.4843Y-1.8504
T3
X4.748Y-3.6614
X5.148Y-3.6614
X6.063Y-3.6614
X6.2992Y-2.5492
X6.2992Y-2.8492
X6.463Y-3.6614
X6.4961Y-2.374
X6.4961Y-2.774
X6.4961Y-3.8189
X6.511Y-4.0157
X6.7323Y-2.5709
X6.7323Y-2.9709
X6.7717Y-1.6913
X6.7717Y-1.8291
X6.811Y-4.0157
X6.8961Y-3.8189
X7.0472Y-3.7402
X7.0472Y-3.9764
X7.0866Y-3.5827
X7.2441Y-3.9764
X7.3622Y-3.9764
X7.3866Y-3.5827
X7.4472Y-3.7402
X7.7622Y-3.9764
T4
X4.9449Y-3.8583
X5.0449Y-3.8583
X6.1417Y-3.8583
X6.2417Y-3.8583
X6.4961Y-2.9102
X6.4961Y-3.0102
T5
X5.2559Y-3.6417
X5.2559Y-3.8189
X5.5118Y-3.6417
X5.5118Y-3.8189
X5.6496Y-3.6417
X5.6496Y-3.8189
X5.9055Y-3.6417
X5.9055Y-3.8189
X6.6717Y-2.026
X6.6717Y-2.2622
X6.7717Y-2.026
X6.7717Y-2.2622
X6.9291Y-2.1772
X6.9291Y-2.2772
X6.9291Y-2.3772
X6.9291Y-2.4772
X6.9291Y-2.5772
X7.9921Y-3.5827
X7.9921Y-3.6827
T6
X4.5276Y-1.6629
X4.5276Y-2.0379
X4.5276Y-2.4897
X4.5276Y-2.8647
T7
X6.5748Y-3.6181
X6.6732Y-3.6181
X6.7717Y-3.6181
T8
X7.0697Y-1.7772
X7.0697Y-1.8772
X7.0697Y-1.9772
X7.0697Y-2.0772
X7.0697Y-2.1772
X7.0697Y-2.2772
X7.0697Y-2.3772
X7.0697Y-2.4772
X7.0697Y-2.5772
X7.0697Y-2.6772
X7.0697Y-2.7772
X7.0697Y-2.8772
X7.0697Y-2.9772
X7.0697Y-3.0772
X7.0697Y-3.1772
X7.9697Y-1.7772
X7.9697Y-1.8772
X7.9697Y-1.9772
X7.9697Y-2.0772
X7.9697Y-2.1772
X7.9697Y-2.2772
X7.9697Y-2.3772
X7.9697Y-2.4772
X7.9697Y-2.5772
X7.9697Y-2.6772
X7.9697Y-2.7772
X7.9697Y-2.8772
X7.9697Y-2.9772
X7.9697Y-3.0772
X7.9697Y-3.1772
T9
X5.0591Y-1.8504
X5.0591Y-2.7559
X5.5236Y-2.5181
X5.5236Y-2.9906
X6.0039Y-2.5181
X6.0039Y-2.9906
X6.0827Y-2.7543
T10
X6.4932Y-3.3458
X6.8532Y-3.3458
T11
X4.5276Y-3.7402
X7.6772Y-3.7402
T0
M30
