G04 #@! TF.FileFunction,Soldermask,Bot*
%FSLAX46Y46*%
G04 Gerber Fmt 4.6, Leading zero omitted, Abs format (unit mm)*
G04 Created by KiCad (PCBNEW 4.0.7-e2-6376~58~ubuntu16.04.1) date Thu Jan  4 16:20:26 2018*
%MOMM*%
%LPD*%
G01*
G04 APERTURE LIST*
%ADD10C,0.100000*%
%ADD11C,2.100000*%
%ADD12C,2.900000*%
%ADD13C,1.924000*%
%ADD14R,2.000000X2.000000*%
%ADD15O,2.000000X2.000000*%
%ADD16C,1.400000*%
%ADD17R,1.400000X1.400000*%
%ADD18R,2.200000X2.200000*%
%ADD19C,2.200000*%
%ADD20R,2.100000X2.100000*%
%ADD21O,2.100000X2.100000*%
%ADD22R,2.900000X2.900000*%
%ADD23O,2.900000X2.900000*%
%ADD24C,2.000000*%
%ADD25O,2.200000X4.000000*%
%ADD26C,3.956000*%
%ADD27C,7.200000*%
G04 APERTURE END LIST*
D10*
D11*
X202430000Y-80700000D03*
X202430000Y-78160000D03*
X202430000Y-75620000D03*
X202430000Y-73080000D03*
X202430000Y-70540000D03*
X202430000Y-68000000D03*
X202430000Y-65460000D03*
X202430000Y-62920000D03*
X202430000Y-60380000D03*
X202430000Y-57840000D03*
X202430000Y-55300000D03*
X202430000Y-52760000D03*
X202430000Y-50220000D03*
X202430000Y-47680000D03*
X202430000Y-45140000D03*
X179570000Y-80700000D03*
X179570000Y-78160000D03*
X179570000Y-75620000D03*
X179570000Y-73080000D03*
X179570000Y-70540000D03*
X179570000Y-68000000D03*
X179570000Y-65460000D03*
X179570000Y-62920000D03*
X179570000Y-60380000D03*
X179570000Y-57840000D03*
X179570000Y-55300000D03*
X179570000Y-52760000D03*
X179570000Y-50220000D03*
X179570000Y-47680000D03*
X179570000Y-45140000D03*
D12*
X128500000Y-47000000D03*
X128500000Y-70000000D03*
X136760000Y-39380000D03*
X136760000Y-54620000D03*
D13*
X164700000Y-39380000D03*
X164700000Y-47000000D03*
D14*
X160000000Y-64750000D03*
D15*
X160000000Y-72370000D03*
D16*
X153730000Y-82730000D03*
X152460000Y-81460000D03*
D17*
X155000000Y-81460000D03*
D18*
X125600000Y-98000000D03*
D19*
X128140000Y-98000000D03*
D11*
X133500000Y-92500000D03*
X140000000Y-92500000D03*
X133500000Y-97000000D03*
X140000000Y-97000000D03*
X143500000Y-92500000D03*
X150000000Y-92500000D03*
X143500000Y-97000000D03*
X150000000Y-97000000D03*
D20*
X203000000Y-93500000D03*
D21*
X203000000Y-90960000D03*
D22*
X154500000Y-69960000D03*
D23*
X152500000Y-63960000D03*
X140300000Y-63960000D03*
X140300000Y-75960000D03*
X152500000Y-75960000D03*
D14*
X173000000Y-102000000D03*
D15*
X165380000Y-102000000D03*
D14*
X180000000Y-91000000D03*
D15*
X187620000Y-91000000D03*
D18*
X156000000Y-98000000D03*
D19*
X158540000Y-98000000D03*
D18*
X165000000Y-76460000D03*
D19*
X165000000Y-73920000D03*
D20*
X176000000Y-65460000D03*
D21*
X176000000Y-62920000D03*
X176000000Y-60380000D03*
X176000000Y-57840000D03*
X176000000Y-55300000D03*
D24*
X179000000Y-95000000D03*
D15*
X189160000Y-95000000D03*
D24*
X165000000Y-70460000D03*
D15*
X165000000Y-60300000D03*
D24*
X165000000Y-97000000D03*
D15*
X175160000Y-97000000D03*
D24*
X154000000Y-93000000D03*
D15*
X164160000Y-93000000D03*
D24*
X120600000Y-93000000D03*
D15*
X130760000Y-93000000D03*
D25*
X167000000Y-91900000D03*
X172000000Y-91900000D03*
X169500000Y-91900000D03*
D26*
X174072000Y-84984000D03*
X164928000Y-84984000D03*
D24*
X184000000Y-101000000D03*
X179000000Y-101000000D03*
X187000000Y-101000000D03*
D15*
X197160000Y-101000000D03*
D27*
X115000000Y-95000000D03*
X195000000Y-95000000D03*
D20*
X172000000Y-51460000D03*
D21*
X169460000Y-51460000D03*
D20*
X172000000Y-57460000D03*
D21*
X169460000Y-57460000D03*
D12*
X115000000Y-72762500D03*
X115000000Y-63237500D03*
X115000000Y-42237500D03*
X115000000Y-51762500D03*
D14*
X172000000Y-46460000D03*
D24*
X172000000Y-42960000D03*
X171000000Y-75460000D03*
D15*
X171000000Y-65300000D03*
M02*
