G04 #@! TF.FileFunction,Copper,L2,Bot,Signal*
%FSLAX46Y46*%
G04 Gerber Fmt 4.6, Leading zero omitted, Abs format (unit mm)*
G04 Created by KiCad (PCBNEW 4.0.7-e2-6376~58~ubuntu16.04.1) date Thu Jan  4 14:47:58 2018*
%MOMM*%
%LPD*%
G01*
G04 APERTURE LIST*
%ADD10C,0.100000*%
%ADD11C,2.500000*%
%ADD12C,1.524000*%
%ADD13R,1.600000X1.600000*%
%ADD14O,1.600000X1.600000*%
%ADD15C,1.000000*%
%ADD16R,1.000000X1.000000*%
%ADD17R,1.800000X1.800000*%
%ADD18C,1.800000*%
%ADD19C,1.700000*%
%ADD20R,1.700000X1.700000*%
%ADD21O,1.700000X1.700000*%
%ADD22R,2.500000X2.500000*%
%ADD23O,2.500000X2.500000*%
%ADD24C,1.600000*%
%ADD25O,1.800000X3.600000*%
%ADD26C,3.556000*%
%ADD27C,0.250000*%
%ADD28C,2.500000*%
%ADD29C,0.254000*%
G04 APERTURE END LIST*
D10*
D11*
X128500000Y-47000000D03*
X128500000Y-70000000D03*
X136760000Y-39380000D03*
X136760000Y-54620000D03*
D12*
X164700000Y-39380000D03*
X164700000Y-47000000D03*
D13*
X160000000Y-64750000D03*
D14*
X160000000Y-72370000D03*
D15*
X153730000Y-82730000D03*
X152460000Y-81460000D03*
D16*
X155000000Y-81460000D03*
D17*
X125600000Y-98000000D03*
D18*
X128140000Y-98000000D03*
D19*
X133500000Y-92500000D03*
X140000000Y-92500000D03*
X133500000Y-97000000D03*
X140000000Y-97000000D03*
X143500000Y-92500000D03*
X150000000Y-92500000D03*
X143500000Y-97000000D03*
X150000000Y-97000000D03*
D20*
X203000000Y-93500000D03*
D21*
X203000000Y-90960000D03*
D22*
X154500000Y-69960000D03*
D23*
X152500000Y-63960000D03*
X140300000Y-63960000D03*
X140300000Y-75960000D03*
X152500000Y-75960000D03*
D19*
X202430000Y-80700000D03*
X202430000Y-78160000D03*
X202430000Y-75620000D03*
X202430000Y-73080000D03*
X202430000Y-70540000D03*
X202430000Y-68000000D03*
X202430000Y-65460000D03*
X202430000Y-62920000D03*
X202430000Y-60380000D03*
X202430000Y-57840000D03*
X202430000Y-55300000D03*
X202430000Y-52760000D03*
X202430000Y-50220000D03*
X202430000Y-47680000D03*
X202430000Y-45140000D03*
X179570000Y-80700000D03*
X179570000Y-78160000D03*
X179570000Y-75620000D03*
X179570000Y-73080000D03*
X179570000Y-70540000D03*
X179570000Y-68000000D03*
X179570000Y-65460000D03*
X179570000Y-62920000D03*
X179570000Y-60380000D03*
X179570000Y-57840000D03*
X179570000Y-55300000D03*
X179570000Y-52760000D03*
X179570000Y-50220000D03*
X179570000Y-47680000D03*
X179570000Y-45140000D03*
D13*
X173000000Y-102000000D03*
D14*
X165380000Y-102000000D03*
D13*
X180000000Y-91000000D03*
D14*
X187620000Y-91000000D03*
D17*
X156000000Y-98000000D03*
D18*
X158540000Y-98000000D03*
D17*
X165000000Y-76460000D03*
D18*
X165000000Y-73920000D03*
D20*
X176000000Y-65460000D03*
D21*
X176000000Y-62920000D03*
X176000000Y-60380000D03*
X176000000Y-57840000D03*
X176000000Y-55300000D03*
D24*
X179000000Y-95000000D03*
D14*
X189160000Y-95000000D03*
D24*
X165000000Y-70460000D03*
D14*
X165000000Y-60300000D03*
D24*
X165000000Y-97000000D03*
D14*
X175160000Y-97000000D03*
D24*
X154000000Y-93000000D03*
D14*
X164160000Y-93000000D03*
D24*
X120600000Y-93000000D03*
D14*
X130760000Y-93000000D03*
D25*
X167000000Y-91900000D03*
X172000000Y-91900000D03*
X169500000Y-91900000D03*
D26*
X174072000Y-84984000D03*
X164928000Y-84984000D03*
D24*
X184000000Y-101000000D03*
X179000000Y-101000000D03*
X187000000Y-101000000D03*
D14*
X197160000Y-101000000D03*
D20*
X172000000Y-51460000D03*
D21*
X169460000Y-51460000D03*
D20*
X172000000Y-57460000D03*
D21*
X169460000Y-57460000D03*
D11*
X115000000Y-72762500D03*
X115000000Y-63237500D03*
X115000000Y-42237500D03*
X115000000Y-51762500D03*
D13*
X172000000Y-46460000D03*
D24*
X172000000Y-42960000D03*
X171000000Y-75460000D03*
D14*
X171000000Y-65300000D03*
D27*
X179570000Y-62920000D02*
X178040000Y-62920000D01*
X151500000Y-95500000D02*
X150000000Y-97000000D01*
X151500000Y-91960000D02*
X151500000Y-95500000D01*
X157000000Y-86460000D02*
X151500000Y-91960000D01*
X157000000Y-86460000D02*
X157000000Y-86460000D01*
X158000000Y-85460000D02*
X157000000Y-86460000D01*
X158000000Y-80460000D02*
X158000000Y-85460000D01*
X172000000Y-80460000D02*
X158000000Y-80460000D01*
X172000000Y-78960000D02*
X172000000Y-80460000D01*
X178000000Y-72960000D02*
X172000000Y-78960000D01*
X178000000Y-62960000D02*
X178000000Y-72960000D01*
X178040000Y-62920000D02*
X178000000Y-62960000D01*
X184000000Y-101000000D02*
X184000000Y-80050000D01*
X184000000Y-80050000D02*
X179570000Y-75620000D01*
D28*
X154500000Y-69960000D02*
X146500000Y-69960000D01*
X124500000Y-81960000D02*
X115262500Y-72722500D01*
X145500000Y-81960000D02*
X124500000Y-81960000D01*
X145500000Y-69960000D02*
X145500000Y-81960000D01*
X146500000Y-69960000D02*
X145500000Y-69960000D01*
X115262500Y-72722500D02*
X115000000Y-72722500D01*
X115000000Y-63237500D02*
X120237500Y-63237500D01*
X120237500Y-63237500D02*
X121500000Y-61975000D01*
X121500000Y-61975000D02*
X121500000Y-39380000D01*
X115000000Y-42237500D02*
X114762500Y-42237500D01*
X117857500Y-39380000D02*
X115000000Y-42237500D01*
X121500000Y-39380000D02*
X117857500Y-39380000D01*
X136760000Y-39380000D02*
X121500000Y-39380000D01*
D27*
X202960000Y-93460000D02*
X203000000Y-93500000D01*
D28*
X129140000Y-47000000D02*
X136760000Y-54620000D01*
X128500000Y-47000000D02*
X129140000Y-47000000D01*
X136620000Y-54620000D02*
X136760000Y-54620000D01*
X134540000Y-63960000D02*
X128500000Y-70000000D01*
X140300000Y-63960000D02*
X134540000Y-63960000D01*
D29*
G36*
X204873000Y-103833000D02*
X107127000Y-103833000D01*
X107127000Y-102000000D01*
X163916887Y-102000000D01*
X164026120Y-102549151D01*
X164337189Y-103014698D01*
X164802736Y-103325767D01*
X165351887Y-103435000D01*
X165408113Y-103435000D01*
X165957264Y-103325767D01*
X166422811Y-103014698D01*
X166733880Y-102549151D01*
X166843113Y-102000000D01*
X166733880Y-101450849D01*
X166566268Y-101200000D01*
X171552560Y-101200000D01*
X171552560Y-102800000D01*
X171596838Y-103035317D01*
X171735910Y-103251441D01*
X171948110Y-103396431D01*
X172200000Y-103447440D01*
X173800000Y-103447440D01*
X174035317Y-103403162D01*
X174251441Y-103264090D01*
X174396431Y-103051890D01*
X174447440Y-102800000D01*
X174447440Y-101284187D01*
X177564752Y-101284187D01*
X177782757Y-101811800D01*
X178186077Y-102215824D01*
X178713309Y-102434750D01*
X179284187Y-102435248D01*
X179811800Y-102217243D01*
X180215824Y-101813923D01*
X180434750Y-101286691D01*
X180435248Y-100715813D01*
X180217243Y-100188200D01*
X179813923Y-99784176D01*
X179286691Y-99565250D01*
X178715813Y-99564752D01*
X178188200Y-99782757D01*
X177784176Y-100186077D01*
X177565250Y-100713309D01*
X177564752Y-101284187D01*
X174447440Y-101284187D01*
X174447440Y-101200000D01*
X174403162Y-100964683D01*
X174264090Y-100748559D01*
X174051890Y-100603569D01*
X173800000Y-100552560D01*
X172200000Y-100552560D01*
X171964683Y-100596838D01*
X171748559Y-100735910D01*
X171603569Y-100948110D01*
X171552560Y-101200000D01*
X166566268Y-101200000D01*
X166422811Y-100985302D01*
X165957264Y-100674233D01*
X165408113Y-100565000D01*
X165351887Y-100565000D01*
X164802736Y-100674233D01*
X164337189Y-100985302D01*
X164026120Y-101450849D01*
X163916887Y-102000000D01*
X107127000Y-102000000D01*
X107127000Y-95738094D01*
X111272355Y-95738094D01*
X111838561Y-97108418D01*
X112886068Y-98157754D01*
X114255402Y-98726351D01*
X115738094Y-98727645D01*
X116807562Y-98285750D01*
X124065000Y-98285750D01*
X124065000Y-99026310D01*
X124161673Y-99259699D01*
X124340302Y-99438327D01*
X124573691Y-99535000D01*
X125314250Y-99535000D01*
X125473000Y-99376250D01*
X125473000Y-98127000D01*
X124223750Y-98127000D01*
X124065000Y-98285750D01*
X116807562Y-98285750D01*
X117108418Y-98161439D01*
X118157754Y-97113932D01*
X118215987Y-96973690D01*
X124065000Y-96973690D01*
X124065000Y-97714250D01*
X124223750Y-97873000D01*
X125473000Y-97873000D01*
X125473000Y-96623750D01*
X125727000Y-96623750D01*
X125727000Y-97873000D01*
X125747000Y-97873000D01*
X125747000Y-98127000D01*
X125727000Y-98127000D01*
X125727000Y-99376250D01*
X125885750Y-99535000D01*
X126626309Y-99535000D01*
X126859698Y-99438327D01*
X127038327Y-99259699D01*
X127094119Y-99125006D01*
X127269357Y-99300551D01*
X127833330Y-99534733D01*
X128443991Y-99535265D01*
X129008371Y-99302068D01*
X129440551Y-98870643D01*
X129674733Y-98306670D01*
X129675265Y-97696009D01*
X129509196Y-97294089D01*
X132014743Y-97294089D01*
X132240344Y-97840086D01*
X132657717Y-98258188D01*
X133203319Y-98484742D01*
X133794089Y-98485257D01*
X134340086Y-98259656D01*
X134758188Y-97842283D01*
X134984742Y-97296681D01*
X134984744Y-97294089D01*
X138514743Y-97294089D01*
X138740344Y-97840086D01*
X139157717Y-98258188D01*
X139703319Y-98484742D01*
X140294089Y-98485257D01*
X140840086Y-98259656D01*
X141056160Y-98043958D01*
X142635647Y-98043958D01*
X142715920Y-98295259D01*
X143271279Y-98496718D01*
X143861458Y-98470315D01*
X144284080Y-98295259D01*
X144364353Y-98043958D01*
X143500000Y-97179605D01*
X142635647Y-98043958D01*
X141056160Y-98043958D01*
X141258188Y-97842283D01*
X141484742Y-97296681D01*
X141485200Y-96771279D01*
X142003282Y-96771279D01*
X142029685Y-97361458D01*
X142204741Y-97784080D01*
X142456042Y-97864353D01*
X143320395Y-97000000D01*
X143679605Y-97000000D01*
X144543958Y-97864353D01*
X144795259Y-97784080D01*
X144996718Y-97228721D01*
X144970315Y-96638542D01*
X144795259Y-96215920D01*
X144543958Y-96135647D01*
X143679605Y-97000000D01*
X143320395Y-97000000D01*
X142456042Y-96135647D01*
X142204741Y-96215920D01*
X142003282Y-96771279D01*
X141485200Y-96771279D01*
X141485257Y-96705911D01*
X141259656Y-96159914D01*
X141056140Y-95956042D01*
X142635647Y-95956042D01*
X143500000Y-96820395D01*
X144364353Y-95956042D01*
X144284080Y-95704741D01*
X143728721Y-95503282D01*
X143138542Y-95529685D01*
X142715920Y-95704741D01*
X142635647Y-95956042D01*
X141056140Y-95956042D01*
X140842283Y-95741812D01*
X140296681Y-95515258D01*
X139705911Y-95514743D01*
X139159914Y-95740344D01*
X138741812Y-96157717D01*
X138515258Y-96703319D01*
X138514743Y-97294089D01*
X134984744Y-97294089D01*
X134985257Y-96705911D01*
X134759656Y-96159914D01*
X134342283Y-95741812D01*
X133796681Y-95515258D01*
X133205911Y-95514743D01*
X132659914Y-95740344D01*
X132241812Y-96157717D01*
X132015258Y-96703319D01*
X132014743Y-97294089D01*
X129509196Y-97294089D01*
X129442068Y-97131629D01*
X129010643Y-96699449D01*
X128446670Y-96465267D01*
X127836009Y-96464735D01*
X127271629Y-96697932D01*
X127094159Y-96875092D01*
X127038327Y-96740301D01*
X126859698Y-96561673D01*
X126626309Y-96465000D01*
X125885750Y-96465000D01*
X125727000Y-96623750D01*
X125473000Y-96623750D01*
X125314250Y-96465000D01*
X124573691Y-96465000D01*
X124340302Y-96561673D01*
X124161673Y-96740301D01*
X124065000Y-96973690D01*
X118215987Y-96973690D01*
X118726351Y-95744598D01*
X118727645Y-94261906D01*
X118323660Y-93284187D01*
X119164752Y-93284187D01*
X119382757Y-93811800D01*
X119786077Y-94215824D01*
X120313309Y-94434750D01*
X120884187Y-94435248D01*
X121411800Y-94217243D01*
X121815824Y-93813923D01*
X122034750Y-93286691D01*
X122035000Y-93000000D01*
X129296887Y-93000000D01*
X129406120Y-93549151D01*
X129717189Y-94014698D01*
X130182736Y-94325767D01*
X130731887Y-94435000D01*
X130788113Y-94435000D01*
X131337264Y-94325767D01*
X131802811Y-94014698D01*
X132113880Y-93549151D01*
X132114912Y-93543958D01*
X132635647Y-93543958D01*
X132715920Y-93795259D01*
X133271279Y-93996718D01*
X133861458Y-93970315D01*
X134284080Y-93795259D01*
X134364353Y-93543958D01*
X133500000Y-92679605D01*
X132635647Y-93543958D01*
X132114912Y-93543958D01*
X132178978Y-93221882D01*
X132204741Y-93284080D01*
X132456042Y-93364353D01*
X133320395Y-92500000D01*
X133679605Y-92500000D01*
X134543958Y-93364353D01*
X134795259Y-93284080D01*
X134973005Y-92794089D01*
X138514743Y-92794089D01*
X138740344Y-93340086D01*
X139157717Y-93758188D01*
X139703319Y-93984742D01*
X140294089Y-93985257D01*
X140840086Y-93759656D01*
X141258188Y-93342283D01*
X141484742Y-92796681D01*
X141484744Y-92794089D01*
X142014743Y-92794089D01*
X142240344Y-93340086D01*
X142657717Y-93758188D01*
X143203319Y-93984742D01*
X143794089Y-93985257D01*
X144340086Y-93759656D01*
X144758188Y-93342283D01*
X144984742Y-92796681D01*
X144984744Y-92794089D01*
X148514743Y-92794089D01*
X148740344Y-93340086D01*
X149157717Y-93758188D01*
X149703319Y-93984742D01*
X150294089Y-93985257D01*
X150740000Y-93801011D01*
X150740000Y-95185198D01*
X150376709Y-95548489D01*
X150296681Y-95515258D01*
X149705911Y-95514743D01*
X149159914Y-95740344D01*
X148741812Y-96157717D01*
X148515258Y-96703319D01*
X148514743Y-97294089D01*
X148740344Y-97840086D01*
X149157717Y-98258188D01*
X149703319Y-98484742D01*
X150294089Y-98485257D01*
X150776933Y-98285750D01*
X154465000Y-98285750D01*
X154465000Y-99026310D01*
X154561673Y-99259699D01*
X154740302Y-99438327D01*
X154973691Y-99535000D01*
X155714250Y-99535000D01*
X155873000Y-99376250D01*
X155873000Y-98127000D01*
X154623750Y-98127000D01*
X154465000Y-98285750D01*
X150776933Y-98285750D01*
X150840086Y-98259656D01*
X151258188Y-97842283D01*
X151484742Y-97296681D01*
X151485023Y-96973690D01*
X154465000Y-96973690D01*
X154465000Y-97714250D01*
X154623750Y-97873000D01*
X155873000Y-97873000D01*
X155873000Y-96623750D01*
X156127000Y-96623750D01*
X156127000Y-97873000D01*
X156147000Y-97873000D01*
X156147000Y-98127000D01*
X156127000Y-98127000D01*
X156127000Y-99376250D01*
X156285750Y-99535000D01*
X157026309Y-99535000D01*
X157259698Y-99438327D01*
X157438327Y-99259699D01*
X157494119Y-99125006D01*
X157669357Y-99300551D01*
X158233330Y-99534733D01*
X158843991Y-99535265D01*
X159408371Y-99302068D01*
X159840551Y-98870643D01*
X160074733Y-98306670D01*
X160075265Y-97696009D01*
X159905104Y-97284187D01*
X163564752Y-97284187D01*
X163782757Y-97811800D01*
X164186077Y-98215824D01*
X164713309Y-98434750D01*
X165284187Y-98435248D01*
X165811800Y-98217243D01*
X166215824Y-97813923D01*
X166408860Y-97349039D01*
X173768096Y-97349039D01*
X173928959Y-97737423D01*
X174304866Y-98152389D01*
X174810959Y-98391914D01*
X175033000Y-98270629D01*
X175033000Y-97127000D01*
X175287000Y-97127000D01*
X175287000Y-98270629D01*
X175509041Y-98391914D01*
X176015134Y-98152389D01*
X176391041Y-97737423D01*
X176551904Y-97349039D01*
X176429915Y-97127000D01*
X175287000Y-97127000D01*
X175033000Y-97127000D01*
X173890085Y-97127000D01*
X173768096Y-97349039D01*
X166408860Y-97349039D01*
X166434750Y-97286691D01*
X166435248Y-96715813D01*
X166408452Y-96650961D01*
X173768096Y-96650961D01*
X173890085Y-96873000D01*
X175033000Y-96873000D01*
X175033000Y-95729371D01*
X175287000Y-95729371D01*
X175287000Y-96873000D01*
X176429915Y-96873000D01*
X176551904Y-96650961D01*
X176391041Y-96262577D01*
X176160196Y-96007745D01*
X178171861Y-96007745D01*
X178245995Y-96253864D01*
X178783223Y-96446965D01*
X179353454Y-96419778D01*
X179754005Y-96253864D01*
X179828139Y-96007745D01*
X179000000Y-95179605D01*
X178171861Y-96007745D01*
X176160196Y-96007745D01*
X176015134Y-95847611D01*
X175509041Y-95608086D01*
X175287000Y-95729371D01*
X175033000Y-95729371D01*
X174810959Y-95608086D01*
X174304866Y-95847611D01*
X173928959Y-96262577D01*
X173768096Y-96650961D01*
X166408452Y-96650961D01*
X166217243Y-96188200D01*
X165813923Y-95784176D01*
X165286691Y-95565250D01*
X164715813Y-95564752D01*
X164188200Y-95782757D01*
X163784176Y-96186077D01*
X163565250Y-96713309D01*
X163564752Y-97284187D01*
X159905104Y-97284187D01*
X159842068Y-97131629D01*
X159410643Y-96699449D01*
X158846670Y-96465267D01*
X158236009Y-96464735D01*
X157671629Y-96697932D01*
X157494159Y-96875092D01*
X157438327Y-96740301D01*
X157259698Y-96561673D01*
X157026309Y-96465000D01*
X156285750Y-96465000D01*
X156127000Y-96623750D01*
X155873000Y-96623750D01*
X155714250Y-96465000D01*
X154973691Y-96465000D01*
X154740302Y-96561673D01*
X154561673Y-96740301D01*
X154465000Y-96973690D01*
X151485023Y-96973690D01*
X151485257Y-96705911D01*
X151451234Y-96623568D01*
X152037401Y-96037401D01*
X152202148Y-95790840D01*
X152260000Y-95500000D01*
X152260000Y-94783223D01*
X177553035Y-94783223D01*
X177580222Y-95353454D01*
X177746136Y-95754005D01*
X177992255Y-95828139D01*
X178820395Y-95000000D01*
X179179605Y-95000000D01*
X180007745Y-95828139D01*
X180253864Y-95754005D01*
X180446965Y-95216777D01*
X180419778Y-94646546D01*
X180253864Y-94245995D01*
X180007745Y-94171861D01*
X179179605Y-95000000D01*
X178820395Y-95000000D01*
X177992255Y-94171861D01*
X177746136Y-94245995D01*
X177553035Y-94783223D01*
X152260000Y-94783223D01*
X152260000Y-93284187D01*
X152564752Y-93284187D01*
X152782757Y-93811800D01*
X153186077Y-94215824D01*
X153713309Y-94434750D01*
X154284187Y-94435248D01*
X154811800Y-94217243D01*
X155215824Y-93813923D01*
X155434750Y-93286691D01*
X155435000Y-93000000D01*
X162696887Y-93000000D01*
X162806120Y-93549151D01*
X163117189Y-94014698D01*
X163582736Y-94325767D01*
X164131887Y-94435000D01*
X164188113Y-94435000D01*
X164737264Y-94325767D01*
X165202811Y-94014698D01*
X165513880Y-93549151D01*
X165566872Y-93282745D01*
X165630446Y-93504752D01*
X166004394Y-93975212D01*
X166529914Y-94266756D01*
X166635260Y-94291036D01*
X166873000Y-94170378D01*
X166873000Y-92027000D01*
X165465000Y-92027000D01*
X165465000Y-92377695D01*
X165202811Y-91985302D01*
X164737264Y-91674233D01*
X164188113Y-91565000D01*
X164131887Y-91565000D01*
X163582736Y-91674233D01*
X163117189Y-91985302D01*
X162806120Y-92450849D01*
X162696887Y-93000000D01*
X155435000Y-93000000D01*
X155435248Y-92715813D01*
X155217243Y-92188200D01*
X154813923Y-91784176D01*
X154286691Y-91565250D01*
X153715813Y-91564752D01*
X153188200Y-91782757D01*
X152784176Y-92186077D01*
X152565250Y-92713309D01*
X152564752Y-93284187D01*
X152260000Y-93284187D01*
X152260000Y-92274802D01*
X153661802Y-90873000D01*
X165465000Y-90873000D01*
X165465000Y-91773000D01*
X166873000Y-91773000D01*
X166873000Y-89629622D01*
X167127000Y-89629622D01*
X167127000Y-91773000D01*
X167147000Y-91773000D01*
X167147000Y-92027000D01*
X167127000Y-92027000D01*
X167127000Y-94170378D01*
X167364740Y-94291036D01*
X167470086Y-94266756D01*
X167995606Y-93975212D01*
X168238520Y-93669604D01*
X168414591Y-93933113D01*
X168912581Y-94265859D01*
X169500000Y-94382704D01*
X170087419Y-94265859D01*
X170585409Y-93933113D01*
X170750000Y-93686785D01*
X170914591Y-93933113D01*
X171412581Y-94265859D01*
X172000000Y-94382704D01*
X172587419Y-94265859D01*
X172996896Y-93992255D01*
X178171861Y-93992255D01*
X179000000Y-94820395D01*
X179828139Y-93992255D01*
X179754005Y-93746136D01*
X179216777Y-93553035D01*
X178646546Y-93580222D01*
X178245995Y-93746136D01*
X178171861Y-93992255D01*
X172996896Y-93992255D01*
X173085409Y-93933113D01*
X173418155Y-93435123D01*
X173535000Y-92847704D01*
X173535000Y-90952296D01*
X173418155Y-90364877D01*
X173307988Y-90200000D01*
X178552560Y-90200000D01*
X178552560Y-91800000D01*
X178596838Y-92035317D01*
X178735910Y-92251441D01*
X178948110Y-92396431D01*
X179200000Y-92447440D01*
X180800000Y-92447440D01*
X181035317Y-92403162D01*
X181251441Y-92264090D01*
X181396431Y-92051890D01*
X181447440Y-91800000D01*
X181447440Y-90200000D01*
X181403162Y-89964683D01*
X181264090Y-89748559D01*
X181051890Y-89603569D01*
X180800000Y-89552560D01*
X179200000Y-89552560D01*
X178964683Y-89596838D01*
X178748559Y-89735910D01*
X178603569Y-89948110D01*
X178552560Y-90200000D01*
X173307988Y-90200000D01*
X173085409Y-89866887D01*
X172587419Y-89534141D01*
X172000000Y-89417296D01*
X171412581Y-89534141D01*
X170914591Y-89866887D01*
X170750000Y-90113215D01*
X170585409Y-89866887D01*
X170087419Y-89534141D01*
X169500000Y-89417296D01*
X168912581Y-89534141D01*
X168414591Y-89866887D01*
X168238520Y-90130396D01*
X167995606Y-89824788D01*
X167470086Y-89533244D01*
X167364740Y-89508964D01*
X167127000Y-89629622D01*
X166873000Y-89629622D01*
X166635260Y-89508964D01*
X166529914Y-89533244D01*
X166004394Y-89824788D01*
X165630446Y-90295248D01*
X165465000Y-90873000D01*
X153661802Y-90873000D01*
X158537401Y-85997401D01*
X158702148Y-85750839D01*
X158759628Y-85461870D01*
X162514583Y-85461870D01*
X162881166Y-86349069D01*
X163559361Y-87028449D01*
X164445919Y-87396580D01*
X165405870Y-87397417D01*
X166293069Y-87030834D01*
X166972449Y-86352639D01*
X167340580Y-85466081D01*
X167340583Y-85461870D01*
X171658583Y-85461870D01*
X172025166Y-86349069D01*
X172703361Y-87028449D01*
X173589919Y-87396580D01*
X174549870Y-87397417D01*
X175437069Y-87030834D01*
X176116449Y-86352639D01*
X176484580Y-85466081D01*
X176485417Y-84506130D01*
X176118834Y-83618931D01*
X175440639Y-82939551D01*
X174554081Y-82571420D01*
X173594130Y-82570583D01*
X172706931Y-82937166D01*
X172027551Y-83615361D01*
X171659420Y-84501919D01*
X171658583Y-85461870D01*
X167340583Y-85461870D01*
X167341417Y-84506130D01*
X166974834Y-83618931D01*
X166296639Y-82939551D01*
X165410081Y-82571420D01*
X164450130Y-82570583D01*
X163562931Y-82937166D01*
X162883551Y-83615361D01*
X162515420Y-84501919D01*
X162514583Y-85461870D01*
X158759628Y-85461870D01*
X158760000Y-85460000D01*
X158760000Y-81220000D01*
X172000000Y-81220000D01*
X172290839Y-81162148D01*
X172537401Y-80997401D01*
X172702148Y-80750839D01*
X172760000Y-80460000D01*
X172760000Y-79274802D01*
X178253146Y-73781656D01*
X178310344Y-73920086D01*
X178727717Y-74338188D01*
X178755557Y-74349748D01*
X178729914Y-74360344D01*
X178311812Y-74777717D01*
X178085258Y-75323319D01*
X178084743Y-75914089D01*
X178310344Y-76460086D01*
X178727717Y-76878188D01*
X178755557Y-76889748D01*
X178729914Y-76900344D01*
X178311812Y-77317717D01*
X178085258Y-77863319D01*
X178084743Y-78454089D01*
X178310344Y-79000086D01*
X178727717Y-79418188D01*
X178755557Y-79429748D01*
X178729914Y-79440344D01*
X178311812Y-79857717D01*
X178085258Y-80403319D01*
X178084743Y-80994089D01*
X178310344Y-81540086D01*
X178727717Y-81958188D01*
X179273319Y-82184742D01*
X179864089Y-82185257D01*
X180410086Y-81959656D01*
X180828188Y-81542283D01*
X181054742Y-80996681D01*
X181055257Y-80405911D01*
X180829656Y-79859914D01*
X180412283Y-79441812D01*
X180384443Y-79430252D01*
X180410086Y-79419656D01*
X180828188Y-79002283D01*
X181054742Y-78456681D01*
X181054983Y-78179785D01*
X183240000Y-80364802D01*
X183240000Y-99761354D01*
X183188200Y-99782757D01*
X182784176Y-100186077D01*
X182565250Y-100713309D01*
X182564752Y-101284187D01*
X182782757Y-101811800D01*
X183186077Y-102215824D01*
X183713309Y-102434750D01*
X184284187Y-102435248D01*
X184811800Y-102217243D01*
X185215824Y-101813923D01*
X185434750Y-101286691D01*
X185434752Y-101284187D01*
X185564752Y-101284187D01*
X185782757Y-101811800D01*
X186186077Y-102215824D01*
X186713309Y-102434750D01*
X187284187Y-102435248D01*
X187811800Y-102217243D01*
X188215824Y-101813923D01*
X188434750Y-101286691D01*
X188435000Y-101000000D01*
X195696887Y-101000000D01*
X195806120Y-101549151D01*
X196117189Y-102014698D01*
X196582736Y-102325767D01*
X197131887Y-102435000D01*
X197188113Y-102435000D01*
X197737264Y-102325767D01*
X198202811Y-102014698D01*
X198513880Y-101549151D01*
X198623113Y-101000000D01*
X198513880Y-100450849D01*
X198202811Y-99985302D01*
X197737264Y-99674233D01*
X197188113Y-99565000D01*
X197131887Y-99565000D01*
X196582736Y-99674233D01*
X196117189Y-99985302D01*
X195806120Y-100450849D01*
X195696887Y-101000000D01*
X188435000Y-101000000D01*
X188435248Y-100715813D01*
X188217243Y-100188200D01*
X187813923Y-99784176D01*
X187286691Y-99565250D01*
X186715813Y-99564752D01*
X186188200Y-99782757D01*
X185784176Y-100186077D01*
X185565250Y-100713309D01*
X185564752Y-101284187D01*
X185434752Y-101284187D01*
X185435248Y-100715813D01*
X185217243Y-100188200D01*
X184813923Y-99784176D01*
X184760000Y-99761785D01*
X184760000Y-95000000D01*
X187696887Y-95000000D01*
X187806120Y-95549151D01*
X188117189Y-96014698D01*
X188582736Y-96325767D01*
X189131887Y-96435000D01*
X189188113Y-96435000D01*
X189737264Y-96325767D01*
X190202811Y-96014698D01*
X190387632Y-95738094D01*
X191272355Y-95738094D01*
X191838561Y-97108418D01*
X192886068Y-98157754D01*
X194255402Y-98726351D01*
X195738094Y-98727645D01*
X197108418Y-98161439D01*
X198157754Y-97113932D01*
X198726351Y-95744598D01*
X198727645Y-94261906D01*
X198161439Y-92891582D01*
X197113932Y-91842246D01*
X195744598Y-91273649D01*
X194261906Y-91272355D01*
X192891582Y-91838561D01*
X191842246Y-92886068D01*
X191273649Y-94255402D01*
X191272355Y-95738094D01*
X190387632Y-95738094D01*
X190513880Y-95549151D01*
X190623113Y-95000000D01*
X190513880Y-94450849D01*
X190202811Y-93985302D01*
X189737264Y-93674233D01*
X189188113Y-93565000D01*
X189131887Y-93565000D01*
X188582736Y-93674233D01*
X188117189Y-93985302D01*
X187806120Y-94450849D01*
X187696887Y-95000000D01*
X184760000Y-95000000D01*
X184760000Y-91000000D01*
X186156887Y-91000000D01*
X186266120Y-91549151D01*
X186577189Y-92014698D01*
X187042736Y-92325767D01*
X187591887Y-92435000D01*
X187648113Y-92435000D01*
X188197264Y-92325767D01*
X188662811Y-92014698D01*
X188973880Y-91549151D01*
X189083113Y-91000000D01*
X189075157Y-90960000D01*
X201485907Y-90960000D01*
X201598946Y-91528285D01*
X201920853Y-92010054D01*
X201962452Y-92037850D01*
X201914683Y-92046838D01*
X201698559Y-92185910D01*
X201553569Y-92398110D01*
X201502560Y-92650000D01*
X201502560Y-94350000D01*
X201546838Y-94585317D01*
X201685910Y-94801441D01*
X201898110Y-94946431D01*
X202150000Y-94997440D01*
X203850000Y-94997440D01*
X204085317Y-94953162D01*
X204301441Y-94814090D01*
X204446431Y-94601890D01*
X204497440Y-94350000D01*
X204497440Y-92650000D01*
X204453162Y-92414683D01*
X204314090Y-92198559D01*
X204101890Y-92053569D01*
X204034459Y-92039914D01*
X204079147Y-92010054D01*
X204401054Y-91528285D01*
X204514093Y-90960000D01*
X204401054Y-90391715D01*
X204079147Y-89909946D01*
X203597378Y-89588039D01*
X203029093Y-89475000D01*
X202970907Y-89475000D01*
X202402622Y-89588039D01*
X201920853Y-89909946D01*
X201598946Y-90391715D01*
X201485907Y-90960000D01*
X189075157Y-90960000D01*
X188973880Y-90450849D01*
X188662811Y-89985302D01*
X188197264Y-89674233D01*
X187648113Y-89565000D01*
X187591887Y-89565000D01*
X187042736Y-89674233D01*
X186577189Y-89985302D01*
X186266120Y-90450849D01*
X186156887Y-91000000D01*
X184760000Y-91000000D01*
X184760000Y-80050000D01*
X184702148Y-79759161D01*
X184537401Y-79512599D01*
X181021511Y-75996709D01*
X181054742Y-75916681D01*
X181055257Y-75325911D01*
X180829656Y-74779914D01*
X180412283Y-74361812D01*
X180384443Y-74350252D01*
X180410086Y-74339656D01*
X180828188Y-73922283D01*
X181054742Y-73376681D01*
X181055257Y-72785911D01*
X180829656Y-72239914D01*
X180412283Y-71821812D01*
X180384443Y-71810252D01*
X180410086Y-71799656D01*
X180828188Y-71382283D01*
X181054742Y-70836681D01*
X181055257Y-70245911D01*
X180829656Y-69699914D01*
X180412283Y-69281812D01*
X180384443Y-69270252D01*
X180410086Y-69259656D01*
X180828188Y-68842283D01*
X181054742Y-68296681D01*
X181055257Y-67705911D01*
X180829656Y-67159914D01*
X180412283Y-66741812D01*
X180364688Y-66722049D01*
X180434353Y-66503958D01*
X179570000Y-65639605D01*
X179555858Y-65653748D01*
X179376253Y-65474143D01*
X179390395Y-65460000D01*
X179749605Y-65460000D01*
X180613958Y-66324353D01*
X180865259Y-66244080D01*
X181066718Y-65688721D01*
X181040315Y-65098542D01*
X180865259Y-64675920D01*
X180613958Y-64595647D01*
X179749605Y-65460000D01*
X179390395Y-65460000D01*
X179376253Y-65445858D01*
X179555858Y-65266253D01*
X179570000Y-65280395D01*
X180434353Y-64416042D01*
X180364819Y-64198360D01*
X180410086Y-64179656D01*
X180828188Y-63762283D01*
X181054742Y-63216681D01*
X181055257Y-62625911D01*
X180829656Y-62079914D01*
X180412283Y-61661812D01*
X180384443Y-61650252D01*
X180410086Y-61639656D01*
X180828188Y-61222283D01*
X181054742Y-60676681D01*
X181054744Y-60674089D01*
X200944743Y-60674089D01*
X201170344Y-61220086D01*
X201587717Y-61638188D01*
X201615557Y-61649748D01*
X201589914Y-61660344D01*
X201171812Y-62077717D01*
X200945258Y-62623319D01*
X200944743Y-63214089D01*
X201170344Y-63760086D01*
X201587717Y-64178188D01*
X201615557Y-64189748D01*
X201589914Y-64200344D01*
X201171812Y-64617717D01*
X200945258Y-65163319D01*
X200944743Y-65754089D01*
X201170344Y-66300086D01*
X201587717Y-66718188D01*
X201615557Y-66729748D01*
X201589914Y-66740344D01*
X201171812Y-67157717D01*
X200945258Y-67703319D01*
X200944743Y-68294089D01*
X201170344Y-68840086D01*
X201587717Y-69258188D01*
X201615557Y-69269748D01*
X201589914Y-69280344D01*
X201171812Y-69697717D01*
X200945258Y-70243319D01*
X200944743Y-70834089D01*
X201170344Y-71380086D01*
X201587717Y-71798188D01*
X201615557Y-71809748D01*
X201589914Y-71820344D01*
X201171812Y-72237717D01*
X200945258Y-72783319D01*
X200944743Y-73374089D01*
X201170344Y-73920086D01*
X201587717Y-74338188D01*
X201615557Y-74349748D01*
X201589914Y-74360344D01*
X201171812Y-74777717D01*
X200945258Y-75323319D01*
X200944743Y-75914089D01*
X201170344Y-76460086D01*
X201587717Y-76878188D01*
X201615557Y-76889748D01*
X201589914Y-76900344D01*
X201171812Y-77317717D01*
X200945258Y-77863319D01*
X200944743Y-78454089D01*
X201170344Y-79000086D01*
X201587717Y-79418188D01*
X201615557Y-79429748D01*
X201589914Y-79440344D01*
X201171812Y-79857717D01*
X200945258Y-80403319D01*
X200944743Y-80994089D01*
X201170344Y-81540086D01*
X201587717Y-81958188D01*
X202133319Y-82184742D01*
X202724089Y-82185257D01*
X203270086Y-81959656D01*
X203688188Y-81542283D01*
X203914742Y-80996681D01*
X203915257Y-80405911D01*
X203689656Y-79859914D01*
X203272283Y-79441812D01*
X203244443Y-79430252D01*
X203270086Y-79419656D01*
X203688188Y-79002283D01*
X203914742Y-78456681D01*
X203915257Y-77865911D01*
X203689656Y-77319914D01*
X203272283Y-76901812D01*
X203244443Y-76890252D01*
X203270086Y-76879656D01*
X203688188Y-76462283D01*
X203914742Y-75916681D01*
X203915257Y-75325911D01*
X203689656Y-74779914D01*
X203272283Y-74361812D01*
X203244443Y-74350252D01*
X203270086Y-74339656D01*
X203688188Y-73922283D01*
X203914742Y-73376681D01*
X203915257Y-72785911D01*
X203689656Y-72239914D01*
X203272283Y-71821812D01*
X203244443Y-71810252D01*
X203270086Y-71799656D01*
X203688188Y-71382283D01*
X203914742Y-70836681D01*
X203915257Y-70245911D01*
X203689656Y-69699914D01*
X203272283Y-69281812D01*
X203244443Y-69270252D01*
X203270086Y-69259656D01*
X203688188Y-68842283D01*
X203914742Y-68296681D01*
X203915257Y-67705911D01*
X203689656Y-67159914D01*
X203272283Y-66741812D01*
X203244443Y-66730252D01*
X203270086Y-66719656D01*
X203688188Y-66302283D01*
X203914742Y-65756681D01*
X203915257Y-65165911D01*
X203689656Y-64619914D01*
X203272283Y-64201812D01*
X203244443Y-64190252D01*
X203270086Y-64179656D01*
X203688188Y-63762283D01*
X203914742Y-63216681D01*
X203915257Y-62625911D01*
X203689656Y-62079914D01*
X203272283Y-61661812D01*
X203244443Y-61650252D01*
X203270086Y-61639656D01*
X203688188Y-61222283D01*
X203914742Y-60676681D01*
X203915257Y-60085911D01*
X203689656Y-59539914D01*
X203272283Y-59121812D01*
X203224688Y-59102049D01*
X203294353Y-58883958D01*
X202430000Y-58019605D01*
X201565647Y-58883958D01*
X201635181Y-59101640D01*
X201589914Y-59120344D01*
X201171812Y-59537717D01*
X200945258Y-60083319D01*
X200944743Y-60674089D01*
X181054744Y-60674089D01*
X181055257Y-60085911D01*
X180829656Y-59539914D01*
X180412283Y-59121812D01*
X180384443Y-59110252D01*
X180410086Y-59099656D01*
X180828188Y-58682283D01*
X181054742Y-58136681D01*
X181055200Y-57611279D01*
X200933282Y-57611279D01*
X200959685Y-58201458D01*
X201134741Y-58624080D01*
X201386042Y-58704353D01*
X202250395Y-57840000D01*
X202609605Y-57840000D01*
X203473958Y-58704353D01*
X203725259Y-58624080D01*
X203926718Y-58068721D01*
X203900315Y-57478542D01*
X203725259Y-57055920D01*
X203473958Y-56975647D01*
X202609605Y-57840000D01*
X202250395Y-57840000D01*
X201386042Y-56975647D01*
X201134741Y-57055920D01*
X200933282Y-57611279D01*
X181055200Y-57611279D01*
X181055257Y-57545911D01*
X180829656Y-56999914D01*
X180412283Y-56581812D01*
X180384443Y-56570252D01*
X180410086Y-56559656D01*
X180828188Y-56142283D01*
X181054742Y-55596681D01*
X181055257Y-55005911D01*
X180829656Y-54459914D01*
X180412283Y-54041812D01*
X180384443Y-54030252D01*
X180410086Y-54019656D01*
X180828188Y-53602283D01*
X181054742Y-53056681D01*
X181055257Y-52465911D01*
X180829656Y-51919914D01*
X180412283Y-51501812D01*
X180384443Y-51490252D01*
X180410086Y-51479656D01*
X180828188Y-51062283D01*
X181054742Y-50516681D01*
X181054744Y-50514089D01*
X200944743Y-50514089D01*
X201170344Y-51060086D01*
X201587717Y-51478188D01*
X201615557Y-51489748D01*
X201589914Y-51500344D01*
X201171812Y-51917717D01*
X200945258Y-52463319D01*
X200944743Y-53054089D01*
X201170344Y-53600086D01*
X201587717Y-54018188D01*
X201615557Y-54029748D01*
X201589914Y-54040344D01*
X201171812Y-54457717D01*
X200945258Y-55003319D01*
X200944743Y-55594089D01*
X201170344Y-56140086D01*
X201587717Y-56558188D01*
X201635312Y-56577951D01*
X201565647Y-56796042D01*
X202430000Y-57660395D01*
X203294353Y-56796042D01*
X203224819Y-56578360D01*
X203270086Y-56559656D01*
X203688188Y-56142283D01*
X203914742Y-55596681D01*
X203915257Y-55005911D01*
X203689656Y-54459914D01*
X203272283Y-54041812D01*
X203244443Y-54030252D01*
X203270086Y-54019656D01*
X203688188Y-53602283D01*
X203914742Y-53056681D01*
X203915257Y-52465911D01*
X203689656Y-51919914D01*
X203272283Y-51501812D01*
X203244443Y-51490252D01*
X203270086Y-51479656D01*
X203688188Y-51062283D01*
X203914742Y-50516681D01*
X203915257Y-49925911D01*
X203689656Y-49379914D01*
X203272283Y-48961812D01*
X203224688Y-48942049D01*
X203294353Y-48723958D01*
X202430000Y-47859605D01*
X201565647Y-48723958D01*
X201635181Y-48941640D01*
X201589914Y-48960344D01*
X201171812Y-49377717D01*
X200945258Y-49923319D01*
X200944743Y-50514089D01*
X181054744Y-50514089D01*
X181055257Y-49925911D01*
X180829656Y-49379914D01*
X180412283Y-48961812D01*
X180364688Y-48942049D01*
X180434353Y-48723958D01*
X179570000Y-47859605D01*
X178705647Y-48723958D01*
X178775181Y-48941640D01*
X178729914Y-48960344D01*
X178311812Y-49377717D01*
X178085258Y-49923319D01*
X178084743Y-50514089D01*
X178310344Y-51060086D01*
X178727717Y-51478188D01*
X178755557Y-51489748D01*
X178729914Y-51500344D01*
X178311812Y-51917717D01*
X178085258Y-52463319D01*
X178084743Y-53054089D01*
X178310344Y-53600086D01*
X178727717Y-54018188D01*
X178755557Y-54029748D01*
X178729914Y-54040344D01*
X178311812Y-54457717D01*
X178085258Y-55003319D01*
X178084743Y-55594089D01*
X178310344Y-56140086D01*
X178727717Y-56558188D01*
X178755557Y-56569748D01*
X178729914Y-56580344D01*
X178311812Y-56997717D01*
X178085258Y-57543319D01*
X178084743Y-58134089D01*
X178310344Y-58680086D01*
X178727717Y-59098188D01*
X178755557Y-59109748D01*
X178729914Y-59120344D01*
X178311812Y-59537717D01*
X178085258Y-60083319D01*
X178084743Y-60674089D01*
X178310344Y-61220086D01*
X178727717Y-61638188D01*
X178755557Y-61649748D01*
X178729914Y-61660344D01*
X178311812Y-62077717D01*
X178277645Y-62160000D01*
X178040000Y-62160000D01*
X177749161Y-62217852D01*
X177502599Y-62382599D01*
X177462599Y-62422599D01*
X177426038Y-62477317D01*
X177401054Y-62351715D01*
X177079147Y-61869946D01*
X176749974Y-61650000D01*
X177079147Y-61430054D01*
X177401054Y-60948285D01*
X177514093Y-60380000D01*
X177401054Y-59811715D01*
X177079147Y-59329946D01*
X176749974Y-59110000D01*
X177079147Y-58890054D01*
X177401054Y-58408285D01*
X177514093Y-57840000D01*
X177401054Y-57271715D01*
X177079147Y-56789946D01*
X176749974Y-56570000D01*
X177079147Y-56350054D01*
X177401054Y-55868285D01*
X177514093Y-55300000D01*
X177401054Y-54731715D01*
X177079147Y-54249946D01*
X176597378Y-53928039D01*
X176029093Y-53815000D01*
X175970907Y-53815000D01*
X175402622Y-53928039D01*
X174920853Y-54249946D01*
X174598946Y-54731715D01*
X174485907Y-55300000D01*
X174598946Y-55868285D01*
X174920853Y-56350054D01*
X175250026Y-56570000D01*
X174920853Y-56789946D01*
X174598946Y-57271715D01*
X174485907Y-57840000D01*
X174598946Y-58408285D01*
X174920853Y-58890054D01*
X175250026Y-59110000D01*
X174920853Y-59329946D01*
X174598946Y-59811715D01*
X174485907Y-60380000D01*
X174598946Y-60948285D01*
X174920853Y-61430054D01*
X175250026Y-61650000D01*
X174920853Y-61869946D01*
X174598946Y-62351715D01*
X174485907Y-62920000D01*
X174598946Y-63488285D01*
X174920853Y-63970054D01*
X174964777Y-63999403D01*
X174790302Y-64071673D01*
X174611673Y-64250301D01*
X174515000Y-64483690D01*
X174515000Y-65174250D01*
X174673750Y-65333000D01*
X175873000Y-65333000D01*
X175873000Y-65313000D01*
X176127000Y-65313000D01*
X176127000Y-65333000D01*
X176147000Y-65333000D01*
X176147000Y-65587000D01*
X176127000Y-65587000D01*
X176127000Y-66786250D01*
X176285750Y-66945000D01*
X176976309Y-66945000D01*
X177209698Y-66848327D01*
X177240000Y-66818025D01*
X177240000Y-72645198D01*
X171462599Y-78422599D01*
X171297852Y-78669161D01*
X171240000Y-78960000D01*
X171240000Y-79700000D01*
X158000000Y-79700000D01*
X157709161Y-79757852D01*
X157462599Y-79922599D01*
X157297852Y-80169161D01*
X157240000Y-80460000D01*
X157240000Y-85145198D01*
X150992703Y-91392495D01*
X150842283Y-91241812D01*
X150296681Y-91015258D01*
X149705911Y-91014743D01*
X149159914Y-91240344D01*
X148741812Y-91657717D01*
X148515258Y-92203319D01*
X148514743Y-92794089D01*
X144984744Y-92794089D01*
X144985257Y-92205911D01*
X144759656Y-91659914D01*
X144342283Y-91241812D01*
X143796681Y-91015258D01*
X143205911Y-91014743D01*
X142659914Y-91240344D01*
X142241812Y-91657717D01*
X142015258Y-92203319D01*
X142014743Y-92794089D01*
X141484744Y-92794089D01*
X141485257Y-92205911D01*
X141259656Y-91659914D01*
X140842283Y-91241812D01*
X140296681Y-91015258D01*
X139705911Y-91014743D01*
X139159914Y-91240344D01*
X138741812Y-91657717D01*
X138515258Y-92203319D01*
X138514743Y-92794089D01*
X134973005Y-92794089D01*
X134996718Y-92728721D01*
X134970315Y-92138542D01*
X134795259Y-91715920D01*
X134543958Y-91635647D01*
X133679605Y-92500000D01*
X133320395Y-92500000D01*
X132456042Y-91635647D01*
X132204741Y-91715920D01*
X132003282Y-92271279D01*
X132003956Y-92286336D01*
X131802811Y-91985302D01*
X131337264Y-91674233D01*
X130788113Y-91565000D01*
X130731887Y-91565000D01*
X130182736Y-91674233D01*
X129717189Y-91985302D01*
X129406120Y-92450849D01*
X129296887Y-93000000D01*
X122035000Y-93000000D01*
X122035248Y-92715813D01*
X121817243Y-92188200D01*
X121413923Y-91784176D01*
X120886691Y-91565250D01*
X120315813Y-91564752D01*
X119788200Y-91782757D01*
X119384176Y-92186077D01*
X119165250Y-92713309D01*
X119164752Y-93284187D01*
X118323660Y-93284187D01*
X118161439Y-92891582D01*
X117113932Y-91842246D01*
X116183850Y-91456042D01*
X132635647Y-91456042D01*
X133500000Y-92320395D01*
X134364353Y-91456042D01*
X134284080Y-91204741D01*
X133728721Y-91003282D01*
X133138542Y-91029685D01*
X132715920Y-91204741D01*
X132635647Y-91456042D01*
X116183850Y-91456042D01*
X115744598Y-91273649D01*
X114261906Y-91272355D01*
X112891582Y-91838561D01*
X111842246Y-92886068D01*
X111273649Y-94255402D01*
X111272355Y-95738094D01*
X107127000Y-95738094D01*
X107127000Y-89587000D01*
X150000000Y-89587000D01*
X150049410Y-89576994D01*
X150091035Y-89548553D01*
X150118315Y-89506159D01*
X150127000Y-89460000D01*
X150127000Y-81684775D01*
X151324803Y-81684775D01*
X151497233Y-82102086D01*
X151816235Y-82421645D01*
X152233244Y-82594803D01*
X152595117Y-82595119D01*
X152594803Y-82954775D01*
X152767233Y-83372086D01*
X153086235Y-83691645D01*
X153503244Y-83864803D01*
X153954775Y-83865197D01*
X154372086Y-83692767D01*
X154691645Y-83373765D01*
X154864803Y-82956756D01*
X154865197Y-82505225D01*
X154847311Y-82461939D01*
X154873000Y-82436250D01*
X154873000Y-81587000D01*
X155127000Y-81587000D01*
X155127000Y-82436250D01*
X155285750Y-82595000D01*
X155626310Y-82595000D01*
X155859699Y-82498327D01*
X156038327Y-82319698D01*
X156135000Y-82086309D01*
X156135000Y-81745750D01*
X155976250Y-81587000D01*
X155127000Y-81587000D01*
X154873000Y-81587000D01*
X154023750Y-81587000D01*
X153998302Y-81612448D01*
X153956756Y-81595197D01*
X153594883Y-81594881D01*
X153595197Y-81235225D01*
X153429286Y-80833691D01*
X153865000Y-80833691D01*
X153865000Y-81174250D01*
X154023750Y-81333000D01*
X154873000Y-81333000D01*
X154873000Y-80483750D01*
X155127000Y-80483750D01*
X155127000Y-81333000D01*
X155976250Y-81333000D01*
X156135000Y-81174250D01*
X156135000Y-80833691D01*
X156038327Y-80600302D01*
X155859699Y-80421673D01*
X155626310Y-80325000D01*
X155285750Y-80325000D01*
X155127000Y-80483750D01*
X154873000Y-80483750D01*
X154714250Y-80325000D01*
X154373690Y-80325000D01*
X154140301Y-80421673D01*
X153961673Y-80600302D01*
X153865000Y-80833691D01*
X153429286Y-80833691D01*
X153422767Y-80817914D01*
X153103765Y-80498355D01*
X152686756Y-80325197D01*
X152235225Y-80324803D01*
X151817914Y-80497233D01*
X151498355Y-80816235D01*
X151325197Y-81233244D01*
X151324803Y-81684775D01*
X150127000Y-81684775D01*
X150127000Y-79087000D01*
X162500000Y-79087000D01*
X162549410Y-79076994D01*
X162591035Y-79048553D01*
X162618315Y-79006159D01*
X162627000Y-78960000D01*
X162627000Y-75560000D01*
X163452560Y-75560000D01*
X163452560Y-77360000D01*
X163496838Y-77595317D01*
X163635910Y-77811441D01*
X163848110Y-77956431D01*
X164100000Y-78007440D01*
X165900000Y-78007440D01*
X166135317Y-77963162D01*
X166351441Y-77824090D01*
X166496431Y-77611890D01*
X166547440Y-77360000D01*
X166547440Y-75744187D01*
X169564752Y-75744187D01*
X169782757Y-76271800D01*
X170186077Y-76675824D01*
X170713309Y-76894750D01*
X171284187Y-76895248D01*
X171811800Y-76677243D01*
X172215824Y-76273923D01*
X172434750Y-75746691D01*
X172435248Y-75175813D01*
X172217243Y-74648200D01*
X171813923Y-74244176D01*
X171286691Y-74025250D01*
X170715813Y-74024752D01*
X170188200Y-74242757D01*
X169784176Y-74646077D01*
X169565250Y-75173309D01*
X169564752Y-75744187D01*
X166547440Y-75744187D01*
X166547440Y-75560000D01*
X166503162Y-75324683D01*
X166364090Y-75108559D01*
X166151890Y-74963569D01*
X166131466Y-74959433D01*
X166300551Y-74790643D01*
X166534733Y-74226670D01*
X166535265Y-73616009D01*
X166302068Y-73051629D01*
X165870643Y-72619449D01*
X165306670Y-72385267D01*
X164696009Y-72384735D01*
X164131629Y-72617932D01*
X163699449Y-73049357D01*
X163465267Y-73613330D01*
X163464735Y-74223991D01*
X163697932Y-74788371D01*
X163865880Y-74956613D01*
X163864683Y-74956838D01*
X163648559Y-75095910D01*
X163503569Y-75308110D01*
X163452560Y-75560000D01*
X162627000Y-75560000D01*
X162627000Y-70744187D01*
X163564752Y-70744187D01*
X163782757Y-71271800D01*
X164186077Y-71675824D01*
X164713309Y-71894750D01*
X165284187Y-71895248D01*
X165811800Y-71677243D01*
X166215824Y-71273923D01*
X166434750Y-70746691D01*
X166435248Y-70175813D01*
X166217243Y-69648200D01*
X165813923Y-69244176D01*
X165286691Y-69025250D01*
X164715813Y-69024752D01*
X164188200Y-69242757D01*
X163784176Y-69646077D01*
X163565250Y-70173309D01*
X163564752Y-70744187D01*
X162627000Y-70744187D01*
X162627000Y-65271887D01*
X169565000Y-65271887D01*
X169565000Y-65328113D01*
X169674233Y-65877264D01*
X169985302Y-66342811D01*
X170450849Y-66653880D01*
X171000000Y-66763113D01*
X171549151Y-66653880D01*
X172014698Y-66342811D01*
X172325767Y-65877264D01*
X172351926Y-65745750D01*
X174515000Y-65745750D01*
X174515000Y-66436310D01*
X174611673Y-66669699D01*
X174790302Y-66848327D01*
X175023691Y-66945000D01*
X175714250Y-66945000D01*
X175873000Y-66786250D01*
X175873000Y-65587000D01*
X174673750Y-65587000D01*
X174515000Y-65745750D01*
X172351926Y-65745750D01*
X172435000Y-65328113D01*
X172435000Y-65271887D01*
X172325767Y-64722736D01*
X172014698Y-64257189D01*
X171549151Y-63946120D01*
X171000000Y-63836887D01*
X170450849Y-63946120D01*
X169985302Y-64257189D01*
X169674233Y-64722736D01*
X169565000Y-65271887D01*
X162627000Y-65271887D01*
X162627000Y-60271887D01*
X163565000Y-60271887D01*
X163565000Y-60328113D01*
X163674233Y-60877264D01*
X163985302Y-61342811D01*
X164450849Y-61653880D01*
X165000000Y-61763113D01*
X165549151Y-61653880D01*
X166014698Y-61342811D01*
X166325767Y-60877264D01*
X166435000Y-60328113D01*
X166435000Y-60271887D01*
X166325767Y-59722736D01*
X166014698Y-59257189D01*
X165549151Y-58946120D01*
X165000000Y-58836887D01*
X164450849Y-58946120D01*
X163985302Y-59257189D01*
X163674233Y-59722736D01*
X163565000Y-60271887D01*
X162627000Y-60271887D01*
X162627000Y-57430907D01*
X167975000Y-57430907D01*
X167975000Y-57489093D01*
X168088039Y-58057378D01*
X168409946Y-58539147D01*
X168891715Y-58861054D01*
X169460000Y-58974093D01*
X170028285Y-58861054D01*
X170510054Y-58539147D01*
X170537850Y-58497548D01*
X170546838Y-58545317D01*
X170685910Y-58761441D01*
X170898110Y-58906431D01*
X171150000Y-58957440D01*
X172850000Y-58957440D01*
X173085317Y-58913162D01*
X173301441Y-58774090D01*
X173446431Y-58561890D01*
X173497440Y-58310000D01*
X173497440Y-56610000D01*
X173453162Y-56374683D01*
X173314090Y-56158559D01*
X173101890Y-56013569D01*
X172850000Y-55962560D01*
X171150000Y-55962560D01*
X170914683Y-56006838D01*
X170698559Y-56145910D01*
X170553569Y-56358110D01*
X170539914Y-56425541D01*
X170510054Y-56380853D01*
X170028285Y-56058946D01*
X169460000Y-55945907D01*
X168891715Y-56058946D01*
X168409946Y-56380853D01*
X168088039Y-56862622D01*
X167975000Y-57430907D01*
X162627000Y-57430907D01*
X162627000Y-51430907D01*
X167975000Y-51430907D01*
X167975000Y-51489093D01*
X168088039Y-52057378D01*
X168409946Y-52539147D01*
X168891715Y-52861054D01*
X169460000Y-52974093D01*
X170028285Y-52861054D01*
X170510054Y-52539147D01*
X170537850Y-52497548D01*
X170546838Y-52545317D01*
X170685910Y-52761441D01*
X170898110Y-52906431D01*
X171150000Y-52957440D01*
X172850000Y-52957440D01*
X173085317Y-52913162D01*
X173301441Y-52774090D01*
X173446431Y-52561890D01*
X173497440Y-52310000D01*
X173497440Y-50610000D01*
X173453162Y-50374683D01*
X173314090Y-50158559D01*
X173101890Y-50013569D01*
X172850000Y-49962560D01*
X171150000Y-49962560D01*
X170914683Y-50006838D01*
X170698559Y-50145910D01*
X170553569Y-50358110D01*
X170539914Y-50425541D01*
X170510054Y-50380853D01*
X170028285Y-50058946D01*
X169460000Y-49945907D01*
X168891715Y-50058946D01*
X168409946Y-50380853D01*
X168088039Y-50862622D01*
X167975000Y-51430907D01*
X162627000Y-51430907D01*
X162627000Y-47276661D01*
X163302758Y-47276661D01*
X163514990Y-47790303D01*
X163907630Y-48183629D01*
X164420900Y-48396757D01*
X164976661Y-48397242D01*
X165490303Y-48185010D01*
X165883629Y-47792370D01*
X166096757Y-47279100D01*
X166097242Y-46723339D01*
X165885010Y-46209697D01*
X165492370Y-45816371D01*
X165115787Y-45660000D01*
X170552560Y-45660000D01*
X170552560Y-47260000D01*
X170596838Y-47495317D01*
X170735910Y-47711441D01*
X170948110Y-47856431D01*
X171200000Y-47907440D01*
X172800000Y-47907440D01*
X173035317Y-47863162D01*
X173251441Y-47724090D01*
X173396431Y-47511890D01*
X173408705Y-47451279D01*
X178073282Y-47451279D01*
X178099685Y-48041458D01*
X178274741Y-48464080D01*
X178526042Y-48544353D01*
X179390395Y-47680000D01*
X179749605Y-47680000D01*
X180613958Y-48544353D01*
X180865259Y-48464080D01*
X181066718Y-47908721D01*
X181046254Y-47451279D01*
X200933282Y-47451279D01*
X200959685Y-48041458D01*
X201134741Y-48464080D01*
X201386042Y-48544353D01*
X202250395Y-47680000D01*
X202609605Y-47680000D01*
X203473958Y-48544353D01*
X203725259Y-48464080D01*
X203926718Y-47908721D01*
X203900315Y-47318542D01*
X203725259Y-46895920D01*
X203473958Y-46815647D01*
X202609605Y-47680000D01*
X202250395Y-47680000D01*
X201386042Y-46815647D01*
X201134741Y-46895920D01*
X200933282Y-47451279D01*
X181046254Y-47451279D01*
X181040315Y-47318542D01*
X180865259Y-46895920D01*
X180613958Y-46815647D01*
X179749605Y-47680000D01*
X179390395Y-47680000D01*
X178526042Y-46815647D01*
X178274741Y-46895920D01*
X178073282Y-47451279D01*
X173408705Y-47451279D01*
X173447440Y-47260000D01*
X173447440Y-45660000D01*
X173404932Y-45434089D01*
X178084743Y-45434089D01*
X178310344Y-45980086D01*
X178727717Y-46398188D01*
X178775312Y-46417951D01*
X178705647Y-46636042D01*
X179570000Y-47500395D01*
X180434353Y-46636042D01*
X180364819Y-46418360D01*
X180410086Y-46399656D01*
X180828188Y-45982283D01*
X181054742Y-45436681D01*
X181054744Y-45434089D01*
X200944743Y-45434089D01*
X201170344Y-45980086D01*
X201587717Y-46398188D01*
X201635312Y-46417951D01*
X201565647Y-46636042D01*
X202430000Y-47500395D01*
X203294353Y-46636042D01*
X203224819Y-46418360D01*
X203270086Y-46399656D01*
X203688188Y-45982283D01*
X203914742Y-45436681D01*
X203915257Y-44845911D01*
X203689656Y-44299914D01*
X203272283Y-43881812D01*
X202726681Y-43655258D01*
X202135911Y-43654743D01*
X201589914Y-43880344D01*
X201171812Y-44297717D01*
X200945258Y-44843319D01*
X200944743Y-45434089D01*
X181054744Y-45434089D01*
X181055257Y-44845911D01*
X180829656Y-44299914D01*
X180412283Y-43881812D01*
X179866681Y-43655258D01*
X179275911Y-43654743D01*
X178729914Y-43880344D01*
X178311812Y-44297717D01*
X178085258Y-44843319D01*
X178084743Y-45434089D01*
X173404932Y-45434089D01*
X173403162Y-45424683D01*
X173264090Y-45208559D01*
X173051890Y-45063569D01*
X172800000Y-45012560D01*
X171200000Y-45012560D01*
X170964683Y-45056838D01*
X170748559Y-45195910D01*
X170603569Y-45408110D01*
X170552560Y-45660000D01*
X165115787Y-45660000D01*
X164979100Y-45603243D01*
X164423339Y-45602758D01*
X163909697Y-45814990D01*
X163516371Y-46207630D01*
X163303243Y-46720900D01*
X163302758Y-47276661D01*
X162627000Y-47276661D01*
X162627000Y-43967745D01*
X171171861Y-43967745D01*
X171245995Y-44213864D01*
X171783223Y-44406965D01*
X172353454Y-44379778D01*
X172754005Y-44213864D01*
X172828139Y-43967745D01*
X172000000Y-43139605D01*
X171171861Y-43967745D01*
X162627000Y-43967745D01*
X162627000Y-42743223D01*
X170553035Y-42743223D01*
X170580222Y-43313454D01*
X170746136Y-43714005D01*
X170992255Y-43788139D01*
X171820395Y-42960000D01*
X172179605Y-42960000D01*
X173007745Y-43788139D01*
X173253864Y-43714005D01*
X173446965Y-43176777D01*
X173419778Y-42606546D01*
X173253864Y-42205995D01*
X173007745Y-42131861D01*
X172179605Y-42960000D01*
X171820395Y-42960000D01*
X170992255Y-42131861D01*
X170746136Y-42205995D01*
X170553035Y-42743223D01*
X162627000Y-42743223D01*
X162627000Y-41952255D01*
X171171861Y-41952255D01*
X172000000Y-42780395D01*
X172828139Y-41952255D01*
X172754005Y-41706136D01*
X172216777Y-41513035D01*
X171646546Y-41540222D01*
X171245995Y-41706136D01*
X171171861Y-41952255D01*
X162627000Y-41952255D01*
X162627000Y-40360213D01*
X163899392Y-40360213D01*
X163968857Y-40602397D01*
X164492302Y-40789144D01*
X165047368Y-40761362D01*
X165431143Y-40602397D01*
X165500608Y-40360213D01*
X164700000Y-39559605D01*
X163899392Y-40360213D01*
X162627000Y-40360213D01*
X162627000Y-39172302D01*
X163290856Y-39172302D01*
X163318638Y-39727368D01*
X163477603Y-40111143D01*
X163719787Y-40180608D01*
X164520395Y-39380000D01*
X164879605Y-39380000D01*
X165680213Y-40180608D01*
X165922397Y-40111143D01*
X166109144Y-39587698D01*
X166081362Y-39032632D01*
X165922397Y-38648857D01*
X165680213Y-38579392D01*
X164879605Y-39380000D01*
X164520395Y-39380000D01*
X163719787Y-38579392D01*
X163477603Y-38648857D01*
X163290856Y-39172302D01*
X162627000Y-39172302D01*
X162627000Y-38399787D01*
X163899392Y-38399787D01*
X164700000Y-39200395D01*
X165500608Y-38399787D01*
X165431143Y-38157603D01*
X164907698Y-37970856D01*
X164352632Y-37998638D01*
X163968857Y-38157603D01*
X163899392Y-38399787D01*
X162627000Y-38399787D01*
X162627000Y-36087000D01*
X204873000Y-36087000D01*
X204873000Y-103833000D01*
X204873000Y-103833000D01*
G37*
X204873000Y-103833000D02*
X107127000Y-103833000D01*
X107127000Y-102000000D01*
X163916887Y-102000000D01*
X164026120Y-102549151D01*
X164337189Y-103014698D01*
X164802736Y-103325767D01*
X165351887Y-103435000D01*
X165408113Y-103435000D01*
X165957264Y-103325767D01*
X166422811Y-103014698D01*
X166733880Y-102549151D01*
X166843113Y-102000000D01*
X166733880Y-101450849D01*
X166566268Y-101200000D01*
X171552560Y-101200000D01*
X171552560Y-102800000D01*
X171596838Y-103035317D01*
X171735910Y-103251441D01*
X171948110Y-103396431D01*
X172200000Y-103447440D01*
X173800000Y-103447440D01*
X174035317Y-103403162D01*
X174251441Y-103264090D01*
X174396431Y-103051890D01*
X174447440Y-102800000D01*
X174447440Y-101284187D01*
X177564752Y-101284187D01*
X177782757Y-101811800D01*
X178186077Y-102215824D01*
X178713309Y-102434750D01*
X179284187Y-102435248D01*
X179811800Y-102217243D01*
X180215824Y-101813923D01*
X180434750Y-101286691D01*
X180435248Y-100715813D01*
X180217243Y-100188200D01*
X179813923Y-99784176D01*
X179286691Y-99565250D01*
X178715813Y-99564752D01*
X178188200Y-99782757D01*
X177784176Y-100186077D01*
X177565250Y-100713309D01*
X177564752Y-101284187D01*
X174447440Y-101284187D01*
X174447440Y-101200000D01*
X174403162Y-100964683D01*
X174264090Y-100748559D01*
X174051890Y-100603569D01*
X173800000Y-100552560D01*
X172200000Y-100552560D01*
X171964683Y-100596838D01*
X171748559Y-100735910D01*
X171603569Y-100948110D01*
X171552560Y-101200000D01*
X166566268Y-101200000D01*
X166422811Y-100985302D01*
X165957264Y-100674233D01*
X165408113Y-100565000D01*
X165351887Y-100565000D01*
X164802736Y-100674233D01*
X164337189Y-100985302D01*
X164026120Y-101450849D01*
X163916887Y-102000000D01*
X107127000Y-102000000D01*
X107127000Y-95738094D01*
X111272355Y-95738094D01*
X111838561Y-97108418D01*
X112886068Y-98157754D01*
X114255402Y-98726351D01*
X115738094Y-98727645D01*
X116807562Y-98285750D01*
X124065000Y-98285750D01*
X124065000Y-99026310D01*
X124161673Y-99259699D01*
X124340302Y-99438327D01*
X124573691Y-99535000D01*
X125314250Y-99535000D01*
X125473000Y-99376250D01*
X125473000Y-98127000D01*
X124223750Y-98127000D01*
X124065000Y-98285750D01*
X116807562Y-98285750D01*
X117108418Y-98161439D01*
X118157754Y-97113932D01*
X118215987Y-96973690D01*
X124065000Y-96973690D01*
X124065000Y-97714250D01*
X124223750Y-97873000D01*
X125473000Y-97873000D01*
X125473000Y-96623750D01*
X125727000Y-96623750D01*
X125727000Y-97873000D01*
X125747000Y-97873000D01*
X125747000Y-98127000D01*
X125727000Y-98127000D01*
X125727000Y-99376250D01*
X125885750Y-99535000D01*
X126626309Y-99535000D01*
X126859698Y-99438327D01*
X127038327Y-99259699D01*
X127094119Y-99125006D01*
X127269357Y-99300551D01*
X127833330Y-99534733D01*
X128443991Y-99535265D01*
X129008371Y-99302068D01*
X129440551Y-98870643D01*
X129674733Y-98306670D01*
X129675265Y-97696009D01*
X129509196Y-97294089D01*
X132014743Y-97294089D01*
X132240344Y-97840086D01*
X132657717Y-98258188D01*
X133203319Y-98484742D01*
X133794089Y-98485257D01*
X134340086Y-98259656D01*
X134758188Y-97842283D01*
X134984742Y-97296681D01*
X134984744Y-97294089D01*
X138514743Y-97294089D01*
X138740344Y-97840086D01*
X139157717Y-98258188D01*
X139703319Y-98484742D01*
X140294089Y-98485257D01*
X140840086Y-98259656D01*
X141056160Y-98043958D01*
X142635647Y-98043958D01*
X142715920Y-98295259D01*
X143271279Y-98496718D01*
X143861458Y-98470315D01*
X144284080Y-98295259D01*
X144364353Y-98043958D01*
X143500000Y-97179605D01*
X142635647Y-98043958D01*
X141056160Y-98043958D01*
X141258188Y-97842283D01*
X141484742Y-97296681D01*
X141485200Y-96771279D01*
X142003282Y-96771279D01*
X142029685Y-97361458D01*
X142204741Y-97784080D01*
X142456042Y-97864353D01*
X143320395Y-97000000D01*
X143679605Y-97000000D01*
X144543958Y-97864353D01*
X144795259Y-97784080D01*
X144996718Y-97228721D01*
X144970315Y-96638542D01*
X144795259Y-96215920D01*
X144543958Y-96135647D01*
X143679605Y-97000000D01*
X143320395Y-97000000D01*
X142456042Y-96135647D01*
X142204741Y-96215920D01*
X142003282Y-96771279D01*
X141485200Y-96771279D01*
X141485257Y-96705911D01*
X141259656Y-96159914D01*
X141056140Y-95956042D01*
X142635647Y-95956042D01*
X143500000Y-96820395D01*
X144364353Y-95956042D01*
X144284080Y-95704741D01*
X143728721Y-95503282D01*
X143138542Y-95529685D01*
X142715920Y-95704741D01*
X142635647Y-95956042D01*
X141056140Y-95956042D01*
X140842283Y-95741812D01*
X140296681Y-95515258D01*
X139705911Y-95514743D01*
X139159914Y-95740344D01*
X138741812Y-96157717D01*
X138515258Y-96703319D01*
X138514743Y-97294089D01*
X134984744Y-97294089D01*
X134985257Y-96705911D01*
X134759656Y-96159914D01*
X134342283Y-95741812D01*
X133796681Y-95515258D01*
X133205911Y-95514743D01*
X132659914Y-95740344D01*
X132241812Y-96157717D01*
X132015258Y-96703319D01*
X132014743Y-97294089D01*
X129509196Y-97294089D01*
X129442068Y-97131629D01*
X129010643Y-96699449D01*
X128446670Y-96465267D01*
X127836009Y-96464735D01*
X127271629Y-96697932D01*
X127094159Y-96875092D01*
X127038327Y-96740301D01*
X126859698Y-96561673D01*
X126626309Y-96465000D01*
X125885750Y-96465000D01*
X125727000Y-96623750D01*
X125473000Y-96623750D01*
X125314250Y-96465000D01*
X124573691Y-96465000D01*
X124340302Y-96561673D01*
X124161673Y-96740301D01*
X124065000Y-96973690D01*
X118215987Y-96973690D01*
X118726351Y-95744598D01*
X118727645Y-94261906D01*
X118323660Y-93284187D01*
X119164752Y-93284187D01*
X119382757Y-93811800D01*
X119786077Y-94215824D01*
X120313309Y-94434750D01*
X120884187Y-94435248D01*
X121411800Y-94217243D01*
X121815824Y-93813923D01*
X122034750Y-93286691D01*
X122035000Y-93000000D01*
X129296887Y-93000000D01*
X129406120Y-93549151D01*
X129717189Y-94014698D01*
X130182736Y-94325767D01*
X130731887Y-94435000D01*
X130788113Y-94435000D01*
X131337264Y-94325767D01*
X131802811Y-94014698D01*
X132113880Y-93549151D01*
X132114912Y-93543958D01*
X132635647Y-93543958D01*
X132715920Y-93795259D01*
X133271279Y-93996718D01*
X133861458Y-93970315D01*
X134284080Y-93795259D01*
X134364353Y-93543958D01*
X133500000Y-92679605D01*
X132635647Y-93543958D01*
X132114912Y-93543958D01*
X132178978Y-93221882D01*
X132204741Y-93284080D01*
X132456042Y-93364353D01*
X133320395Y-92500000D01*
X133679605Y-92500000D01*
X134543958Y-93364353D01*
X134795259Y-93284080D01*
X134973005Y-92794089D01*
X138514743Y-92794089D01*
X138740344Y-93340086D01*
X139157717Y-93758188D01*
X139703319Y-93984742D01*
X140294089Y-93985257D01*
X140840086Y-93759656D01*
X141258188Y-93342283D01*
X141484742Y-92796681D01*
X141484744Y-92794089D01*
X142014743Y-92794089D01*
X142240344Y-93340086D01*
X142657717Y-93758188D01*
X143203319Y-93984742D01*
X143794089Y-93985257D01*
X144340086Y-93759656D01*
X144758188Y-93342283D01*
X144984742Y-92796681D01*
X144984744Y-92794089D01*
X148514743Y-92794089D01*
X148740344Y-93340086D01*
X149157717Y-93758188D01*
X149703319Y-93984742D01*
X150294089Y-93985257D01*
X150740000Y-93801011D01*
X150740000Y-95185198D01*
X150376709Y-95548489D01*
X150296681Y-95515258D01*
X149705911Y-95514743D01*
X149159914Y-95740344D01*
X148741812Y-96157717D01*
X148515258Y-96703319D01*
X148514743Y-97294089D01*
X148740344Y-97840086D01*
X149157717Y-98258188D01*
X149703319Y-98484742D01*
X150294089Y-98485257D01*
X150776933Y-98285750D01*
X154465000Y-98285750D01*
X154465000Y-99026310D01*
X154561673Y-99259699D01*
X154740302Y-99438327D01*
X154973691Y-99535000D01*
X155714250Y-99535000D01*
X155873000Y-99376250D01*
X155873000Y-98127000D01*
X154623750Y-98127000D01*
X154465000Y-98285750D01*
X150776933Y-98285750D01*
X150840086Y-98259656D01*
X151258188Y-97842283D01*
X151484742Y-97296681D01*
X151485023Y-96973690D01*
X154465000Y-96973690D01*
X154465000Y-97714250D01*
X154623750Y-97873000D01*
X155873000Y-97873000D01*
X155873000Y-96623750D01*
X156127000Y-96623750D01*
X156127000Y-97873000D01*
X156147000Y-97873000D01*
X156147000Y-98127000D01*
X156127000Y-98127000D01*
X156127000Y-99376250D01*
X156285750Y-99535000D01*
X157026309Y-99535000D01*
X157259698Y-99438327D01*
X157438327Y-99259699D01*
X157494119Y-99125006D01*
X157669357Y-99300551D01*
X158233330Y-99534733D01*
X158843991Y-99535265D01*
X159408371Y-99302068D01*
X159840551Y-98870643D01*
X160074733Y-98306670D01*
X160075265Y-97696009D01*
X159905104Y-97284187D01*
X163564752Y-97284187D01*
X163782757Y-97811800D01*
X164186077Y-98215824D01*
X164713309Y-98434750D01*
X165284187Y-98435248D01*
X165811800Y-98217243D01*
X166215824Y-97813923D01*
X166408860Y-97349039D01*
X173768096Y-97349039D01*
X173928959Y-97737423D01*
X174304866Y-98152389D01*
X174810959Y-98391914D01*
X175033000Y-98270629D01*
X175033000Y-97127000D01*
X175287000Y-97127000D01*
X175287000Y-98270629D01*
X175509041Y-98391914D01*
X176015134Y-98152389D01*
X176391041Y-97737423D01*
X176551904Y-97349039D01*
X176429915Y-97127000D01*
X175287000Y-97127000D01*
X175033000Y-97127000D01*
X173890085Y-97127000D01*
X173768096Y-97349039D01*
X166408860Y-97349039D01*
X166434750Y-97286691D01*
X166435248Y-96715813D01*
X166408452Y-96650961D01*
X173768096Y-96650961D01*
X173890085Y-96873000D01*
X175033000Y-96873000D01*
X175033000Y-95729371D01*
X175287000Y-95729371D01*
X175287000Y-96873000D01*
X176429915Y-96873000D01*
X176551904Y-96650961D01*
X176391041Y-96262577D01*
X176160196Y-96007745D01*
X178171861Y-96007745D01*
X178245995Y-96253864D01*
X178783223Y-96446965D01*
X179353454Y-96419778D01*
X179754005Y-96253864D01*
X179828139Y-96007745D01*
X179000000Y-95179605D01*
X178171861Y-96007745D01*
X176160196Y-96007745D01*
X176015134Y-95847611D01*
X175509041Y-95608086D01*
X175287000Y-95729371D01*
X175033000Y-95729371D01*
X174810959Y-95608086D01*
X174304866Y-95847611D01*
X173928959Y-96262577D01*
X173768096Y-96650961D01*
X166408452Y-96650961D01*
X166217243Y-96188200D01*
X165813923Y-95784176D01*
X165286691Y-95565250D01*
X164715813Y-95564752D01*
X164188200Y-95782757D01*
X163784176Y-96186077D01*
X163565250Y-96713309D01*
X163564752Y-97284187D01*
X159905104Y-97284187D01*
X159842068Y-97131629D01*
X159410643Y-96699449D01*
X158846670Y-96465267D01*
X158236009Y-96464735D01*
X157671629Y-96697932D01*
X157494159Y-96875092D01*
X157438327Y-96740301D01*
X157259698Y-96561673D01*
X157026309Y-96465000D01*
X156285750Y-96465000D01*
X156127000Y-96623750D01*
X155873000Y-96623750D01*
X155714250Y-96465000D01*
X154973691Y-96465000D01*
X154740302Y-96561673D01*
X154561673Y-96740301D01*
X154465000Y-96973690D01*
X151485023Y-96973690D01*
X151485257Y-96705911D01*
X151451234Y-96623568D01*
X152037401Y-96037401D01*
X152202148Y-95790840D01*
X152260000Y-95500000D01*
X152260000Y-94783223D01*
X177553035Y-94783223D01*
X177580222Y-95353454D01*
X177746136Y-95754005D01*
X177992255Y-95828139D01*
X178820395Y-95000000D01*
X179179605Y-95000000D01*
X180007745Y-95828139D01*
X180253864Y-95754005D01*
X180446965Y-95216777D01*
X180419778Y-94646546D01*
X180253864Y-94245995D01*
X180007745Y-94171861D01*
X179179605Y-95000000D01*
X178820395Y-95000000D01*
X177992255Y-94171861D01*
X177746136Y-94245995D01*
X177553035Y-94783223D01*
X152260000Y-94783223D01*
X152260000Y-93284187D01*
X152564752Y-93284187D01*
X152782757Y-93811800D01*
X153186077Y-94215824D01*
X153713309Y-94434750D01*
X154284187Y-94435248D01*
X154811800Y-94217243D01*
X155215824Y-93813923D01*
X155434750Y-93286691D01*
X155435000Y-93000000D01*
X162696887Y-93000000D01*
X162806120Y-93549151D01*
X163117189Y-94014698D01*
X163582736Y-94325767D01*
X164131887Y-94435000D01*
X164188113Y-94435000D01*
X164737264Y-94325767D01*
X165202811Y-94014698D01*
X165513880Y-93549151D01*
X165566872Y-93282745D01*
X165630446Y-93504752D01*
X166004394Y-93975212D01*
X166529914Y-94266756D01*
X166635260Y-94291036D01*
X166873000Y-94170378D01*
X166873000Y-92027000D01*
X165465000Y-92027000D01*
X165465000Y-92377695D01*
X165202811Y-91985302D01*
X164737264Y-91674233D01*
X164188113Y-91565000D01*
X164131887Y-91565000D01*
X163582736Y-91674233D01*
X163117189Y-91985302D01*
X162806120Y-92450849D01*
X162696887Y-93000000D01*
X155435000Y-93000000D01*
X155435248Y-92715813D01*
X155217243Y-92188200D01*
X154813923Y-91784176D01*
X154286691Y-91565250D01*
X153715813Y-91564752D01*
X153188200Y-91782757D01*
X152784176Y-92186077D01*
X152565250Y-92713309D01*
X152564752Y-93284187D01*
X152260000Y-93284187D01*
X152260000Y-92274802D01*
X153661802Y-90873000D01*
X165465000Y-90873000D01*
X165465000Y-91773000D01*
X166873000Y-91773000D01*
X166873000Y-89629622D01*
X167127000Y-89629622D01*
X167127000Y-91773000D01*
X167147000Y-91773000D01*
X167147000Y-92027000D01*
X167127000Y-92027000D01*
X167127000Y-94170378D01*
X167364740Y-94291036D01*
X167470086Y-94266756D01*
X167995606Y-93975212D01*
X168238520Y-93669604D01*
X168414591Y-93933113D01*
X168912581Y-94265859D01*
X169500000Y-94382704D01*
X170087419Y-94265859D01*
X170585409Y-93933113D01*
X170750000Y-93686785D01*
X170914591Y-93933113D01*
X171412581Y-94265859D01*
X172000000Y-94382704D01*
X172587419Y-94265859D01*
X172996896Y-93992255D01*
X178171861Y-93992255D01*
X179000000Y-94820395D01*
X179828139Y-93992255D01*
X179754005Y-93746136D01*
X179216777Y-93553035D01*
X178646546Y-93580222D01*
X178245995Y-93746136D01*
X178171861Y-93992255D01*
X172996896Y-93992255D01*
X173085409Y-93933113D01*
X173418155Y-93435123D01*
X173535000Y-92847704D01*
X173535000Y-90952296D01*
X173418155Y-90364877D01*
X173307988Y-90200000D01*
X178552560Y-90200000D01*
X178552560Y-91800000D01*
X178596838Y-92035317D01*
X178735910Y-92251441D01*
X178948110Y-92396431D01*
X179200000Y-92447440D01*
X180800000Y-92447440D01*
X181035317Y-92403162D01*
X181251441Y-92264090D01*
X181396431Y-92051890D01*
X181447440Y-91800000D01*
X181447440Y-90200000D01*
X181403162Y-89964683D01*
X181264090Y-89748559D01*
X181051890Y-89603569D01*
X180800000Y-89552560D01*
X179200000Y-89552560D01*
X178964683Y-89596838D01*
X178748559Y-89735910D01*
X178603569Y-89948110D01*
X178552560Y-90200000D01*
X173307988Y-90200000D01*
X173085409Y-89866887D01*
X172587419Y-89534141D01*
X172000000Y-89417296D01*
X171412581Y-89534141D01*
X170914591Y-89866887D01*
X170750000Y-90113215D01*
X170585409Y-89866887D01*
X170087419Y-89534141D01*
X169500000Y-89417296D01*
X168912581Y-89534141D01*
X168414591Y-89866887D01*
X168238520Y-90130396D01*
X167995606Y-89824788D01*
X167470086Y-89533244D01*
X167364740Y-89508964D01*
X167127000Y-89629622D01*
X166873000Y-89629622D01*
X166635260Y-89508964D01*
X166529914Y-89533244D01*
X166004394Y-89824788D01*
X165630446Y-90295248D01*
X165465000Y-90873000D01*
X153661802Y-90873000D01*
X158537401Y-85997401D01*
X158702148Y-85750839D01*
X158759628Y-85461870D01*
X162514583Y-85461870D01*
X162881166Y-86349069D01*
X163559361Y-87028449D01*
X164445919Y-87396580D01*
X165405870Y-87397417D01*
X166293069Y-87030834D01*
X166972449Y-86352639D01*
X167340580Y-85466081D01*
X167340583Y-85461870D01*
X171658583Y-85461870D01*
X172025166Y-86349069D01*
X172703361Y-87028449D01*
X173589919Y-87396580D01*
X174549870Y-87397417D01*
X175437069Y-87030834D01*
X176116449Y-86352639D01*
X176484580Y-85466081D01*
X176485417Y-84506130D01*
X176118834Y-83618931D01*
X175440639Y-82939551D01*
X174554081Y-82571420D01*
X173594130Y-82570583D01*
X172706931Y-82937166D01*
X172027551Y-83615361D01*
X171659420Y-84501919D01*
X171658583Y-85461870D01*
X167340583Y-85461870D01*
X167341417Y-84506130D01*
X166974834Y-83618931D01*
X166296639Y-82939551D01*
X165410081Y-82571420D01*
X164450130Y-82570583D01*
X163562931Y-82937166D01*
X162883551Y-83615361D01*
X162515420Y-84501919D01*
X162514583Y-85461870D01*
X158759628Y-85461870D01*
X158760000Y-85460000D01*
X158760000Y-81220000D01*
X172000000Y-81220000D01*
X172290839Y-81162148D01*
X172537401Y-80997401D01*
X172702148Y-80750839D01*
X172760000Y-80460000D01*
X172760000Y-79274802D01*
X178253146Y-73781656D01*
X178310344Y-73920086D01*
X178727717Y-74338188D01*
X178755557Y-74349748D01*
X178729914Y-74360344D01*
X178311812Y-74777717D01*
X178085258Y-75323319D01*
X178084743Y-75914089D01*
X178310344Y-76460086D01*
X178727717Y-76878188D01*
X178755557Y-76889748D01*
X178729914Y-76900344D01*
X178311812Y-77317717D01*
X178085258Y-77863319D01*
X178084743Y-78454089D01*
X178310344Y-79000086D01*
X178727717Y-79418188D01*
X178755557Y-79429748D01*
X178729914Y-79440344D01*
X178311812Y-79857717D01*
X178085258Y-80403319D01*
X178084743Y-80994089D01*
X178310344Y-81540086D01*
X178727717Y-81958188D01*
X179273319Y-82184742D01*
X179864089Y-82185257D01*
X180410086Y-81959656D01*
X180828188Y-81542283D01*
X181054742Y-80996681D01*
X181055257Y-80405911D01*
X180829656Y-79859914D01*
X180412283Y-79441812D01*
X180384443Y-79430252D01*
X180410086Y-79419656D01*
X180828188Y-79002283D01*
X181054742Y-78456681D01*
X181054983Y-78179785D01*
X183240000Y-80364802D01*
X183240000Y-99761354D01*
X183188200Y-99782757D01*
X182784176Y-100186077D01*
X182565250Y-100713309D01*
X182564752Y-101284187D01*
X182782757Y-101811800D01*
X183186077Y-102215824D01*
X183713309Y-102434750D01*
X184284187Y-102435248D01*
X184811800Y-102217243D01*
X185215824Y-101813923D01*
X185434750Y-101286691D01*
X185434752Y-101284187D01*
X185564752Y-101284187D01*
X185782757Y-101811800D01*
X186186077Y-102215824D01*
X186713309Y-102434750D01*
X187284187Y-102435248D01*
X187811800Y-102217243D01*
X188215824Y-101813923D01*
X188434750Y-101286691D01*
X188435000Y-101000000D01*
X195696887Y-101000000D01*
X195806120Y-101549151D01*
X196117189Y-102014698D01*
X196582736Y-102325767D01*
X197131887Y-102435000D01*
X197188113Y-102435000D01*
X197737264Y-102325767D01*
X198202811Y-102014698D01*
X198513880Y-101549151D01*
X198623113Y-101000000D01*
X198513880Y-100450849D01*
X198202811Y-99985302D01*
X197737264Y-99674233D01*
X197188113Y-99565000D01*
X197131887Y-99565000D01*
X196582736Y-99674233D01*
X196117189Y-99985302D01*
X195806120Y-100450849D01*
X195696887Y-101000000D01*
X188435000Y-101000000D01*
X188435248Y-100715813D01*
X188217243Y-100188200D01*
X187813923Y-99784176D01*
X187286691Y-99565250D01*
X186715813Y-99564752D01*
X186188200Y-99782757D01*
X185784176Y-100186077D01*
X185565250Y-100713309D01*
X185564752Y-101284187D01*
X185434752Y-101284187D01*
X185435248Y-100715813D01*
X185217243Y-100188200D01*
X184813923Y-99784176D01*
X184760000Y-99761785D01*
X184760000Y-95000000D01*
X187696887Y-95000000D01*
X187806120Y-95549151D01*
X188117189Y-96014698D01*
X188582736Y-96325767D01*
X189131887Y-96435000D01*
X189188113Y-96435000D01*
X189737264Y-96325767D01*
X190202811Y-96014698D01*
X190387632Y-95738094D01*
X191272355Y-95738094D01*
X191838561Y-97108418D01*
X192886068Y-98157754D01*
X194255402Y-98726351D01*
X195738094Y-98727645D01*
X197108418Y-98161439D01*
X198157754Y-97113932D01*
X198726351Y-95744598D01*
X198727645Y-94261906D01*
X198161439Y-92891582D01*
X197113932Y-91842246D01*
X195744598Y-91273649D01*
X194261906Y-91272355D01*
X192891582Y-91838561D01*
X191842246Y-92886068D01*
X191273649Y-94255402D01*
X191272355Y-95738094D01*
X190387632Y-95738094D01*
X190513880Y-95549151D01*
X190623113Y-95000000D01*
X190513880Y-94450849D01*
X190202811Y-93985302D01*
X189737264Y-93674233D01*
X189188113Y-93565000D01*
X189131887Y-93565000D01*
X188582736Y-93674233D01*
X188117189Y-93985302D01*
X187806120Y-94450849D01*
X187696887Y-95000000D01*
X184760000Y-95000000D01*
X184760000Y-91000000D01*
X186156887Y-91000000D01*
X186266120Y-91549151D01*
X186577189Y-92014698D01*
X187042736Y-92325767D01*
X187591887Y-92435000D01*
X187648113Y-92435000D01*
X188197264Y-92325767D01*
X188662811Y-92014698D01*
X188973880Y-91549151D01*
X189083113Y-91000000D01*
X189075157Y-90960000D01*
X201485907Y-90960000D01*
X201598946Y-91528285D01*
X201920853Y-92010054D01*
X201962452Y-92037850D01*
X201914683Y-92046838D01*
X201698559Y-92185910D01*
X201553569Y-92398110D01*
X201502560Y-92650000D01*
X201502560Y-94350000D01*
X201546838Y-94585317D01*
X201685910Y-94801441D01*
X201898110Y-94946431D01*
X202150000Y-94997440D01*
X203850000Y-94997440D01*
X204085317Y-94953162D01*
X204301441Y-94814090D01*
X204446431Y-94601890D01*
X204497440Y-94350000D01*
X204497440Y-92650000D01*
X204453162Y-92414683D01*
X204314090Y-92198559D01*
X204101890Y-92053569D01*
X204034459Y-92039914D01*
X204079147Y-92010054D01*
X204401054Y-91528285D01*
X204514093Y-90960000D01*
X204401054Y-90391715D01*
X204079147Y-89909946D01*
X203597378Y-89588039D01*
X203029093Y-89475000D01*
X202970907Y-89475000D01*
X202402622Y-89588039D01*
X201920853Y-89909946D01*
X201598946Y-90391715D01*
X201485907Y-90960000D01*
X189075157Y-90960000D01*
X188973880Y-90450849D01*
X188662811Y-89985302D01*
X188197264Y-89674233D01*
X187648113Y-89565000D01*
X187591887Y-89565000D01*
X187042736Y-89674233D01*
X186577189Y-89985302D01*
X186266120Y-90450849D01*
X186156887Y-91000000D01*
X184760000Y-91000000D01*
X184760000Y-80050000D01*
X184702148Y-79759161D01*
X184537401Y-79512599D01*
X181021511Y-75996709D01*
X181054742Y-75916681D01*
X181055257Y-75325911D01*
X180829656Y-74779914D01*
X180412283Y-74361812D01*
X180384443Y-74350252D01*
X180410086Y-74339656D01*
X180828188Y-73922283D01*
X181054742Y-73376681D01*
X181055257Y-72785911D01*
X180829656Y-72239914D01*
X180412283Y-71821812D01*
X180384443Y-71810252D01*
X180410086Y-71799656D01*
X180828188Y-71382283D01*
X181054742Y-70836681D01*
X181055257Y-70245911D01*
X180829656Y-69699914D01*
X180412283Y-69281812D01*
X180384443Y-69270252D01*
X180410086Y-69259656D01*
X180828188Y-68842283D01*
X181054742Y-68296681D01*
X181055257Y-67705911D01*
X180829656Y-67159914D01*
X180412283Y-66741812D01*
X180364688Y-66722049D01*
X180434353Y-66503958D01*
X179570000Y-65639605D01*
X179555858Y-65653748D01*
X179376253Y-65474143D01*
X179390395Y-65460000D01*
X179749605Y-65460000D01*
X180613958Y-66324353D01*
X180865259Y-66244080D01*
X181066718Y-65688721D01*
X181040315Y-65098542D01*
X180865259Y-64675920D01*
X180613958Y-64595647D01*
X179749605Y-65460000D01*
X179390395Y-65460000D01*
X179376253Y-65445858D01*
X179555858Y-65266253D01*
X179570000Y-65280395D01*
X180434353Y-64416042D01*
X180364819Y-64198360D01*
X180410086Y-64179656D01*
X180828188Y-63762283D01*
X181054742Y-63216681D01*
X181055257Y-62625911D01*
X180829656Y-62079914D01*
X180412283Y-61661812D01*
X180384443Y-61650252D01*
X180410086Y-61639656D01*
X180828188Y-61222283D01*
X181054742Y-60676681D01*
X181054744Y-60674089D01*
X200944743Y-60674089D01*
X201170344Y-61220086D01*
X201587717Y-61638188D01*
X201615557Y-61649748D01*
X201589914Y-61660344D01*
X201171812Y-62077717D01*
X200945258Y-62623319D01*
X200944743Y-63214089D01*
X201170344Y-63760086D01*
X201587717Y-64178188D01*
X201615557Y-64189748D01*
X201589914Y-64200344D01*
X201171812Y-64617717D01*
X200945258Y-65163319D01*
X200944743Y-65754089D01*
X201170344Y-66300086D01*
X201587717Y-66718188D01*
X201615557Y-66729748D01*
X201589914Y-66740344D01*
X201171812Y-67157717D01*
X200945258Y-67703319D01*
X200944743Y-68294089D01*
X201170344Y-68840086D01*
X201587717Y-69258188D01*
X201615557Y-69269748D01*
X201589914Y-69280344D01*
X201171812Y-69697717D01*
X200945258Y-70243319D01*
X200944743Y-70834089D01*
X201170344Y-71380086D01*
X201587717Y-71798188D01*
X201615557Y-71809748D01*
X201589914Y-71820344D01*
X201171812Y-72237717D01*
X200945258Y-72783319D01*
X200944743Y-73374089D01*
X201170344Y-73920086D01*
X201587717Y-74338188D01*
X201615557Y-74349748D01*
X201589914Y-74360344D01*
X201171812Y-74777717D01*
X200945258Y-75323319D01*
X200944743Y-75914089D01*
X201170344Y-76460086D01*
X201587717Y-76878188D01*
X201615557Y-76889748D01*
X201589914Y-76900344D01*
X201171812Y-77317717D01*
X200945258Y-77863319D01*
X200944743Y-78454089D01*
X201170344Y-79000086D01*
X201587717Y-79418188D01*
X201615557Y-79429748D01*
X201589914Y-79440344D01*
X201171812Y-79857717D01*
X200945258Y-80403319D01*
X200944743Y-80994089D01*
X201170344Y-81540086D01*
X201587717Y-81958188D01*
X202133319Y-82184742D01*
X202724089Y-82185257D01*
X203270086Y-81959656D01*
X203688188Y-81542283D01*
X203914742Y-80996681D01*
X203915257Y-80405911D01*
X203689656Y-79859914D01*
X203272283Y-79441812D01*
X203244443Y-79430252D01*
X203270086Y-79419656D01*
X203688188Y-79002283D01*
X203914742Y-78456681D01*
X203915257Y-77865911D01*
X203689656Y-77319914D01*
X203272283Y-76901812D01*
X203244443Y-76890252D01*
X203270086Y-76879656D01*
X203688188Y-76462283D01*
X203914742Y-75916681D01*
X203915257Y-75325911D01*
X203689656Y-74779914D01*
X203272283Y-74361812D01*
X203244443Y-74350252D01*
X203270086Y-74339656D01*
X203688188Y-73922283D01*
X203914742Y-73376681D01*
X203915257Y-72785911D01*
X203689656Y-72239914D01*
X203272283Y-71821812D01*
X203244443Y-71810252D01*
X203270086Y-71799656D01*
X203688188Y-71382283D01*
X203914742Y-70836681D01*
X203915257Y-70245911D01*
X203689656Y-69699914D01*
X203272283Y-69281812D01*
X203244443Y-69270252D01*
X203270086Y-69259656D01*
X203688188Y-68842283D01*
X203914742Y-68296681D01*
X203915257Y-67705911D01*
X203689656Y-67159914D01*
X203272283Y-66741812D01*
X203244443Y-66730252D01*
X203270086Y-66719656D01*
X203688188Y-66302283D01*
X203914742Y-65756681D01*
X203915257Y-65165911D01*
X203689656Y-64619914D01*
X203272283Y-64201812D01*
X203244443Y-64190252D01*
X203270086Y-64179656D01*
X203688188Y-63762283D01*
X203914742Y-63216681D01*
X203915257Y-62625911D01*
X203689656Y-62079914D01*
X203272283Y-61661812D01*
X203244443Y-61650252D01*
X203270086Y-61639656D01*
X203688188Y-61222283D01*
X203914742Y-60676681D01*
X203915257Y-60085911D01*
X203689656Y-59539914D01*
X203272283Y-59121812D01*
X203224688Y-59102049D01*
X203294353Y-58883958D01*
X202430000Y-58019605D01*
X201565647Y-58883958D01*
X201635181Y-59101640D01*
X201589914Y-59120344D01*
X201171812Y-59537717D01*
X200945258Y-60083319D01*
X200944743Y-60674089D01*
X181054744Y-60674089D01*
X181055257Y-60085911D01*
X180829656Y-59539914D01*
X180412283Y-59121812D01*
X180384443Y-59110252D01*
X180410086Y-59099656D01*
X180828188Y-58682283D01*
X181054742Y-58136681D01*
X181055200Y-57611279D01*
X200933282Y-57611279D01*
X200959685Y-58201458D01*
X201134741Y-58624080D01*
X201386042Y-58704353D01*
X202250395Y-57840000D01*
X202609605Y-57840000D01*
X203473958Y-58704353D01*
X203725259Y-58624080D01*
X203926718Y-58068721D01*
X203900315Y-57478542D01*
X203725259Y-57055920D01*
X203473958Y-56975647D01*
X202609605Y-57840000D01*
X202250395Y-57840000D01*
X201386042Y-56975647D01*
X201134741Y-57055920D01*
X200933282Y-57611279D01*
X181055200Y-57611279D01*
X181055257Y-57545911D01*
X180829656Y-56999914D01*
X180412283Y-56581812D01*
X180384443Y-56570252D01*
X180410086Y-56559656D01*
X180828188Y-56142283D01*
X181054742Y-55596681D01*
X181055257Y-55005911D01*
X180829656Y-54459914D01*
X180412283Y-54041812D01*
X180384443Y-54030252D01*
X180410086Y-54019656D01*
X180828188Y-53602283D01*
X181054742Y-53056681D01*
X181055257Y-52465911D01*
X180829656Y-51919914D01*
X180412283Y-51501812D01*
X180384443Y-51490252D01*
X180410086Y-51479656D01*
X180828188Y-51062283D01*
X181054742Y-50516681D01*
X181054744Y-50514089D01*
X200944743Y-50514089D01*
X201170344Y-51060086D01*
X201587717Y-51478188D01*
X201615557Y-51489748D01*
X201589914Y-51500344D01*
X201171812Y-51917717D01*
X200945258Y-52463319D01*
X200944743Y-53054089D01*
X201170344Y-53600086D01*
X201587717Y-54018188D01*
X201615557Y-54029748D01*
X201589914Y-54040344D01*
X201171812Y-54457717D01*
X200945258Y-55003319D01*
X200944743Y-55594089D01*
X201170344Y-56140086D01*
X201587717Y-56558188D01*
X201635312Y-56577951D01*
X201565647Y-56796042D01*
X202430000Y-57660395D01*
X203294353Y-56796042D01*
X203224819Y-56578360D01*
X203270086Y-56559656D01*
X203688188Y-56142283D01*
X203914742Y-55596681D01*
X203915257Y-55005911D01*
X203689656Y-54459914D01*
X203272283Y-54041812D01*
X203244443Y-54030252D01*
X203270086Y-54019656D01*
X203688188Y-53602283D01*
X203914742Y-53056681D01*
X203915257Y-52465911D01*
X203689656Y-51919914D01*
X203272283Y-51501812D01*
X203244443Y-51490252D01*
X203270086Y-51479656D01*
X203688188Y-51062283D01*
X203914742Y-50516681D01*
X203915257Y-49925911D01*
X203689656Y-49379914D01*
X203272283Y-48961812D01*
X203224688Y-48942049D01*
X203294353Y-48723958D01*
X202430000Y-47859605D01*
X201565647Y-48723958D01*
X201635181Y-48941640D01*
X201589914Y-48960344D01*
X201171812Y-49377717D01*
X200945258Y-49923319D01*
X200944743Y-50514089D01*
X181054744Y-50514089D01*
X181055257Y-49925911D01*
X180829656Y-49379914D01*
X180412283Y-48961812D01*
X180364688Y-48942049D01*
X180434353Y-48723958D01*
X179570000Y-47859605D01*
X178705647Y-48723958D01*
X178775181Y-48941640D01*
X178729914Y-48960344D01*
X178311812Y-49377717D01*
X178085258Y-49923319D01*
X178084743Y-50514089D01*
X178310344Y-51060086D01*
X178727717Y-51478188D01*
X178755557Y-51489748D01*
X178729914Y-51500344D01*
X178311812Y-51917717D01*
X178085258Y-52463319D01*
X178084743Y-53054089D01*
X178310344Y-53600086D01*
X178727717Y-54018188D01*
X178755557Y-54029748D01*
X178729914Y-54040344D01*
X178311812Y-54457717D01*
X178085258Y-55003319D01*
X178084743Y-55594089D01*
X178310344Y-56140086D01*
X178727717Y-56558188D01*
X178755557Y-56569748D01*
X178729914Y-56580344D01*
X178311812Y-56997717D01*
X178085258Y-57543319D01*
X178084743Y-58134089D01*
X178310344Y-58680086D01*
X178727717Y-59098188D01*
X178755557Y-59109748D01*
X178729914Y-59120344D01*
X178311812Y-59537717D01*
X178085258Y-60083319D01*
X178084743Y-60674089D01*
X178310344Y-61220086D01*
X178727717Y-61638188D01*
X178755557Y-61649748D01*
X178729914Y-61660344D01*
X178311812Y-62077717D01*
X178277645Y-62160000D01*
X178040000Y-62160000D01*
X177749161Y-62217852D01*
X177502599Y-62382599D01*
X177462599Y-62422599D01*
X177426038Y-62477317D01*
X177401054Y-62351715D01*
X177079147Y-61869946D01*
X176749974Y-61650000D01*
X177079147Y-61430054D01*
X177401054Y-60948285D01*
X177514093Y-60380000D01*
X177401054Y-59811715D01*
X177079147Y-59329946D01*
X176749974Y-59110000D01*
X177079147Y-58890054D01*
X177401054Y-58408285D01*
X177514093Y-57840000D01*
X177401054Y-57271715D01*
X177079147Y-56789946D01*
X176749974Y-56570000D01*
X177079147Y-56350054D01*
X177401054Y-55868285D01*
X177514093Y-55300000D01*
X177401054Y-54731715D01*
X177079147Y-54249946D01*
X176597378Y-53928039D01*
X176029093Y-53815000D01*
X175970907Y-53815000D01*
X175402622Y-53928039D01*
X174920853Y-54249946D01*
X174598946Y-54731715D01*
X174485907Y-55300000D01*
X174598946Y-55868285D01*
X174920853Y-56350054D01*
X175250026Y-56570000D01*
X174920853Y-56789946D01*
X174598946Y-57271715D01*
X174485907Y-57840000D01*
X174598946Y-58408285D01*
X174920853Y-58890054D01*
X175250026Y-59110000D01*
X174920853Y-59329946D01*
X174598946Y-59811715D01*
X174485907Y-60380000D01*
X174598946Y-60948285D01*
X174920853Y-61430054D01*
X175250026Y-61650000D01*
X174920853Y-61869946D01*
X174598946Y-62351715D01*
X174485907Y-62920000D01*
X174598946Y-63488285D01*
X174920853Y-63970054D01*
X174964777Y-63999403D01*
X174790302Y-64071673D01*
X174611673Y-64250301D01*
X174515000Y-64483690D01*
X174515000Y-65174250D01*
X174673750Y-65333000D01*
X175873000Y-65333000D01*
X175873000Y-65313000D01*
X176127000Y-65313000D01*
X176127000Y-65333000D01*
X176147000Y-65333000D01*
X176147000Y-65587000D01*
X176127000Y-65587000D01*
X176127000Y-66786250D01*
X176285750Y-66945000D01*
X176976309Y-66945000D01*
X177209698Y-66848327D01*
X177240000Y-66818025D01*
X177240000Y-72645198D01*
X171462599Y-78422599D01*
X171297852Y-78669161D01*
X171240000Y-78960000D01*
X171240000Y-79700000D01*
X158000000Y-79700000D01*
X157709161Y-79757852D01*
X157462599Y-79922599D01*
X157297852Y-80169161D01*
X157240000Y-80460000D01*
X157240000Y-85145198D01*
X150992703Y-91392495D01*
X150842283Y-91241812D01*
X150296681Y-91015258D01*
X149705911Y-91014743D01*
X149159914Y-91240344D01*
X148741812Y-91657717D01*
X148515258Y-92203319D01*
X148514743Y-92794089D01*
X144984744Y-92794089D01*
X144985257Y-92205911D01*
X144759656Y-91659914D01*
X144342283Y-91241812D01*
X143796681Y-91015258D01*
X143205911Y-91014743D01*
X142659914Y-91240344D01*
X142241812Y-91657717D01*
X142015258Y-92203319D01*
X142014743Y-92794089D01*
X141484744Y-92794089D01*
X141485257Y-92205911D01*
X141259656Y-91659914D01*
X140842283Y-91241812D01*
X140296681Y-91015258D01*
X139705911Y-91014743D01*
X139159914Y-91240344D01*
X138741812Y-91657717D01*
X138515258Y-92203319D01*
X138514743Y-92794089D01*
X134973005Y-92794089D01*
X134996718Y-92728721D01*
X134970315Y-92138542D01*
X134795259Y-91715920D01*
X134543958Y-91635647D01*
X133679605Y-92500000D01*
X133320395Y-92500000D01*
X132456042Y-91635647D01*
X132204741Y-91715920D01*
X132003282Y-92271279D01*
X132003956Y-92286336D01*
X131802811Y-91985302D01*
X131337264Y-91674233D01*
X130788113Y-91565000D01*
X130731887Y-91565000D01*
X130182736Y-91674233D01*
X129717189Y-91985302D01*
X129406120Y-92450849D01*
X129296887Y-93000000D01*
X122035000Y-93000000D01*
X122035248Y-92715813D01*
X121817243Y-92188200D01*
X121413923Y-91784176D01*
X120886691Y-91565250D01*
X120315813Y-91564752D01*
X119788200Y-91782757D01*
X119384176Y-92186077D01*
X119165250Y-92713309D01*
X119164752Y-93284187D01*
X118323660Y-93284187D01*
X118161439Y-92891582D01*
X117113932Y-91842246D01*
X116183850Y-91456042D01*
X132635647Y-91456042D01*
X133500000Y-92320395D01*
X134364353Y-91456042D01*
X134284080Y-91204741D01*
X133728721Y-91003282D01*
X133138542Y-91029685D01*
X132715920Y-91204741D01*
X132635647Y-91456042D01*
X116183850Y-91456042D01*
X115744598Y-91273649D01*
X114261906Y-91272355D01*
X112891582Y-91838561D01*
X111842246Y-92886068D01*
X111273649Y-94255402D01*
X111272355Y-95738094D01*
X107127000Y-95738094D01*
X107127000Y-89587000D01*
X150000000Y-89587000D01*
X150049410Y-89576994D01*
X150091035Y-89548553D01*
X150118315Y-89506159D01*
X150127000Y-89460000D01*
X150127000Y-81684775D01*
X151324803Y-81684775D01*
X151497233Y-82102086D01*
X151816235Y-82421645D01*
X152233244Y-82594803D01*
X152595117Y-82595119D01*
X152594803Y-82954775D01*
X152767233Y-83372086D01*
X153086235Y-83691645D01*
X153503244Y-83864803D01*
X153954775Y-83865197D01*
X154372086Y-83692767D01*
X154691645Y-83373765D01*
X154864803Y-82956756D01*
X154865197Y-82505225D01*
X154847311Y-82461939D01*
X154873000Y-82436250D01*
X154873000Y-81587000D01*
X155127000Y-81587000D01*
X155127000Y-82436250D01*
X155285750Y-82595000D01*
X155626310Y-82595000D01*
X155859699Y-82498327D01*
X156038327Y-82319698D01*
X156135000Y-82086309D01*
X156135000Y-81745750D01*
X155976250Y-81587000D01*
X155127000Y-81587000D01*
X154873000Y-81587000D01*
X154023750Y-81587000D01*
X153998302Y-81612448D01*
X153956756Y-81595197D01*
X153594883Y-81594881D01*
X153595197Y-81235225D01*
X153429286Y-80833691D01*
X153865000Y-80833691D01*
X153865000Y-81174250D01*
X154023750Y-81333000D01*
X154873000Y-81333000D01*
X154873000Y-80483750D01*
X155127000Y-80483750D01*
X155127000Y-81333000D01*
X155976250Y-81333000D01*
X156135000Y-81174250D01*
X156135000Y-80833691D01*
X156038327Y-80600302D01*
X155859699Y-80421673D01*
X155626310Y-80325000D01*
X155285750Y-80325000D01*
X155127000Y-80483750D01*
X154873000Y-80483750D01*
X154714250Y-80325000D01*
X154373690Y-80325000D01*
X154140301Y-80421673D01*
X153961673Y-80600302D01*
X153865000Y-80833691D01*
X153429286Y-80833691D01*
X153422767Y-80817914D01*
X153103765Y-80498355D01*
X152686756Y-80325197D01*
X152235225Y-80324803D01*
X151817914Y-80497233D01*
X151498355Y-80816235D01*
X151325197Y-81233244D01*
X151324803Y-81684775D01*
X150127000Y-81684775D01*
X150127000Y-79087000D01*
X162500000Y-79087000D01*
X162549410Y-79076994D01*
X162591035Y-79048553D01*
X162618315Y-79006159D01*
X162627000Y-78960000D01*
X162627000Y-75560000D01*
X163452560Y-75560000D01*
X163452560Y-77360000D01*
X163496838Y-77595317D01*
X163635910Y-77811441D01*
X163848110Y-77956431D01*
X164100000Y-78007440D01*
X165900000Y-78007440D01*
X166135317Y-77963162D01*
X166351441Y-77824090D01*
X166496431Y-77611890D01*
X166547440Y-77360000D01*
X166547440Y-75744187D01*
X169564752Y-75744187D01*
X169782757Y-76271800D01*
X170186077Y-76675824D01*
X170713309Y-76894750D01*
X171284187Y-76895248D01*
X171811800Y-76677243D01*
X172215824Y-76273923D01*
X172434750Y-75746691D01*
X172435248Y-75175813D01*
X172217243Y-74648200D01*
X171813923Y-74244176D01*
X171286691Y-74025250D01*
X170715813Y-74024752D01*
X170188200Y-74242757D01*
X169784176Y-74646077D01*
X169565250Y-75173309D01*
X169564752Y-75744187D01*
X166547440Y-75744187D01*
X166547440Y-75560000D01*
X166503162Y-75324683D01*
X166364090Y-75108559D01*
X166151890Y-74963569D01*
X166131466Y-74959433D01*
X166300551Y-74790643D01*
X166534733Y-74226670D01*
X166535265Y-73616009D01*
X166302068Y-73051629D01*
X165870643Y-72619449D01*
X165306670Y-72385267D01*
X164696009Y-72384735D01*
X164131629Y-72617932D01*
X163699449Y-73049357D01*
X163465267Y-73613330D01*
X163464735Y-74223991D01*
X163697932Y-74788371D01*
X163865880Y-74956613D01*
X163864683Y-74956838D01*
X163648559Y-75095910D01*
X163503569Y-75308110D01*
X163452560Y-75560000D01*
X162627000Y-75560000D01*
X162627000Y-70744187D01*
X163564752Y-70744187D01*
X163782757Y-71271800D01*
X164186077Y-71675824D01*
X164713309Y-71894750D01*
X165284187Y-71895248D01*
X165811800Y-71677243D01*
X166215824Y-71273923D01*
X166434750Y-70746691D01*
X166435248Y-70175813D01*
X166217243Y-69648200D01*
X165813923Y-69244176D01*
X165286691Y-69025250D01*
X164715813Y-69024752D01*
X164188200Y-69242757D01*
X163784176Y-69646077D01*
X163565250Y-70173309D01*
X163564752Y-70744187D01*
X162627000Y-70744187D01*
X162627000Y-65271887D01*
X169565000Y-65271887D01*
X169565000Y-65328113D01*
X169674233Y-65877264D01*
X169985302Y-66342811D01*
X170450849Y-66653880D01*
X171000000Y-66763113D01*
X171549151Y-66653880D01*
X172014698Y-66342811D01*
X172325767Y-65877264D01*
X172351926Y-65745750D01*
X174515000Y-65745750D01*
X174515000Y-66436310D01*
X174611673Y-66669699D01*
X174790302Y-66848327D01*
X175023691Y-66945000D01*
X175714250Y-66945000D01*
X175873000Y-66786250D01*
X175873000Y-65587000D01*
X174673750Y-65587000D01*
X174515000Y-65745750D01*
X172351926Y-65745750D01*
X172435000Y-65328113D01*
X172435000Y-65271887D01*
X172325767Y-64722736D01*
X172014698Y-64257189D01*
X171549151Y-63946120D01*
X171000000Y-63836887D01*
X170450849Y-63946120D01*
X169985302Y-64257189D01*
X169674233Y-64722736D01*
X169565000Y-65271887D01*
X162627000Y-65271887D01*
X162627000Y-60271887D01*
X163565000Y-60271887D01*
X163565000Y-60328113D01*
X163674233Y-60877264D01*
X163985302Y-61342811D01*
X164450849Y-61653880D01*
X165000000Y-61763113D01*
X165549151Y-61653880D01*
X166014698Y-61342811D01*
X166325767Y-60877264D01*
X166435000Y-60328113D01*
X166435000Y-60271887D01*
X166325767Y-59722736D01*
X166014698Y-59257189D01*
X165549151Y-58946120D01*
X165000000Y-58836887D01*
X164450849Y-58946120D01*
X163985302Y-59257189D01*
X163674233Y-59722736D01*
X163565000Y-60271887D01*
X162627000Y-60271887D01*
X162627000Y-57430907D01*
X167975000Y-57430907D01*
X167975000Y-57489093D01*
X168088039Y-58057378D01*
X168409946Y-58539147D01*
X168891715Y-58861054D01*
X169460000Y-58974093D01*
X170028285Y-58861054D01*
X170510054Y-58539147D01*
X170537850Y-58497548D01*
X170546838Y-58545317D01*
X170685910Y-58761441D01*
X170898110Y-58906431D01*
X171150000Y-58957440D01*
X172850000Y-58957440D01*
X173085317Y-58913162D01*
X173301441Y-58774090D01*
X173446431Y-58561890D01*
X173497440Y-58310000D01*
X173497440Y-56610000D01*
X173453162Y-56374683D01*
X173314090Y-56158559D01*
X173101890Y-56013569D01*
X172850000Y-55962560D01*
X171150000Y-55962560D01*
X170914683Y-56006838D01*
X170698559Y-56145910D01*
X170553569Y-56358110D01*
X170539914Y-56425541D01*
X170510054Y-56380853D01*
X170028285Y-56058946D01*
X169460000Y-55945907D01*
X168891715Y-56058946D01*
X168409946Y-56380853D01*
X168088039Y-56862622D01*
X167975000Y-57430907D01*
X162627000Y-57430907D01*
X162627000Y-51430907D01*
X167975000Y-51430907D01*
X167975000Y-51489093D01*
X168088039Y-52057378D01*
X168409946Y-52539147D01*
X168891715Y-52861054D01*
X169460000Y-52974093D01*
X170028285Y-52861054D01*
X170510054Y-52539147D01*
X170537850Y-52497548D01*
X170546838Y-52545317D01*
X170685910Y-52761441D01*
X170898110Y-52906431D01*
X171150000Y-52957440D01*
X172850000Y-52957440D01*
X173085317Y-52913162D01*
X173301441Y-52774090D01*
X173446431Y-52561890D01*
X173497440Y-52310000D01*
X173497440Y-50610000D01*
X173453162Y-50374683D01*
X173314090Y-50158559D01*
X173101890Y-50013569D01*
X172850000Y-49962560D01*
X171150000Y-49962560D01*
X170914683Y-50006838D01*
X170698559Y-50145910D01*
X170553569Y-50358110D01*
X170539914Y-50425541D01*
X170510054Y-50380853D01*
X170028285Y-50058946D01*
X169460000Y-49945907D01*
X168891715Y-50058946D01*
X168409946Y-50380853D01*
X168088039Y-50862622D01*
X167975000Y-51430907D01*
X162627000Y-51430907D01*
X162627000Y-47276661D01*
X163302758Y-47276661D01*
X163514990Y-47790303D01*
X163907630Y-48183629D01*
X164420900Y-48396757D01*
X164976661Y-48397242D01*
X165490303Y-48185010D01*
X165883629Y-47792370D01*
X166096757Y-47279100D01*
X166097242Y-46723339D01*
X165885010Y-46209697D01*
X165492370Y-45816371D01*
X165115787Y-45660000D01*
X170552560Y-45660000D01*
X170552560Y-47260000D01*
X170596838Y-47495317D01*
X170735910Y-47711441D01*
X170948110Y-47856431D01*
X171200000Y-47907440D01*
X172800000Y-47907440D01*
X173035317Y-47863162D01*
X173251441Y-47724090D01*
X173396431Y-47511890D01*
X173408705Y-47451279D01*
X178073282Y-47451279D01*
X178099685Y-48041458D01*
X178274741Y-48464080D01*
X178526042Y-48544353D01*
X179390395Y-47680000D01*
X179749605Y-47680000D01*
X180613958Y-48544353D01*
X180865259Y-48464080D01*
X181066718Y-47908721D01*
X181046254Y-47451279D01*
X200933282Y-47451279D01*
X200959685Y-48041458D01*
X201134741Y-48464080D01*
X201386042Y-48544353D01*
X202250395Y-47680000D01*
X202609605Y-47680000D01*
X203473958Y-48544353D01*
X203725259Y-48464080D01*
X203926718Y-47908721D01*
X203900315Y-47318542D01*
X203725259Y-46895920D01*
X203473958Y-46815647D01*
X202609605Y-47680000D01*
X202250395Y-47680000D01*
X201386042Y-46815647D01*
X201134741Y-46895920D01*
X200933282Y-47451279D01*
X181046254Y-47451279D01*
X181040315Y-47318542D01*
X180865259Y-46895920D01*
X180613958Y-46815647D01*
X179749605Y-47680000D01*
X179390395Y-47680000D01*
X178526042Y-46815647D01*
X178274741Y-46895920D01*
X178073282Y-47451279D01*
X173408705Y-47451279D01*
X173447440Y-47260000D01*
X173447440Y-45660000D01*
X173404932Y-45434089D01*
X178084743Y-45434089D01*
X178310344Y-45980086D01*
X178727717Y-46398188D01*
X178775312Y-46417951D01*
X178705647Y-46636042D01*
X179570000Y-47500395D01*
X180434353Y-46636042D01*
X180364819Y-46418360D01*
X180410086Y-46399656D01*
X180828188Y-45982283D01*
X181054742Y-45436681D01*
X181054744Y-45434089D01*
X200944743Y-45434089D01*
X201170344Y-45980086D01*
X201587717Y-46398188D01*
X201635312Y-46417951D01*
X201565647Y-46636042D01*
X202430000Y-47500395D01*
X203294353Y-46636042D01*
X203224819Y-46418360D01*
X203270086Y-46399656D01*
X203688188Y-45982283D01*
X203914742Y-45436681D01*
X203915257Y-44845911D01*
X203689656Y-44299914D01*
X203272283Y-43881812D01*
X202726681Y-43655258D01*
X202135911Y-43654743D01*
X201589914Y-43880344D01*
X201171812Y-44297717D01*
X200945258Y-44843319D01*
X200944743Y-45434089D01*
X181054744Y-45434089D01*
X181055257Y-44845911D01*
X180829656Y-44299914D01*
X180412283Y-43881812D01*
X179866681Y-43655258D01*
X179275911Y-43654743D01*
X178729914Y-43880344D01*
X178311812Y-44297717D01*
X178085258Y-44843319D01*
X178084743Y-45434089D01*
X173404932Y-45434089D01*
X173403162Y-45424683D01*
X173264090Y-45208559D01*
X173051890Y-45063569D01*
X172800000Y-45012560D01*
X171200000Y-45012560D01*
X170964683Y-45056838D01*
X170748559Y-45195910D01*
X170603569Y-45408110D01*
X170552560Y-45660000D01*
X165115787Y-45660000D01*
X164979100Y-45603243D01*
X164423339Y-45602758D01*
X163909697Y-45814990D01*
X163516371Y-46207630D01*
X163303243Y-46720900D01*
X163302758Y-47276661D01*
X162627000Y-47276661D01*
X162627000Y-43967745D01*
X171171861Y-43967745D01*
X171245995Y-44213864D01*
X171783223Y-44406965D01*
X172353454Y-44379778D01*
X172754005Y-44213864D01*
X172828139Y-43967745D01*
X172000000Y-43139605D01*
X171171861Y-43967745D01*
X162627000Y-43967745D01*
X162627000Y-42743223D01*
X170553035Y-42743223D01*
X170580222Y-43313454D01*
X170746136Y-43714005D01*
X170992255Y-43788139D01*
X171820395Y-42960000D01*
X172179605Y-42960000D01*
X173007745Y-43788139D01*
X173253864Y-43714005D01*
X173446965Y-43176777D01*
X173419778Y-42606546D01*
X173253864Y-42205995D01*
X173007745Y-42131861D01*
X172179605Y-42960000D01*
X171820395Y-42960000D01*
X170992255Y-42131861D01*
X170746136Y-42205995D01*
X170553035Y-42743223D01*
X162627000Y-42743223D01*
X162627000Y-41952255D01*
X171171861Y-41952255D01*
X172000000Y-42780395D01*
X172828139Y-41952255D01*
X172754005Y-41706136D01*
X172216777Y-41513035D01*
X171646546Y-41540222D01*
X171245995Y-41706136D01*
X171171861Y-41952255D01*
X162627000Y-41952255D01*
X162627000Y-40360213D01*
X163899392Y-40360213D01*
X163968857Y-40602397D01*
X164492302Y-40789144D01*
X165047368Y-40761362D01*
X165431143Y-40602397D01*
X165500608Y-40360213D01*
X164700000Y-39559605D01*
X163899392Y-40360213D01*
X162627000Y-40360213D01*
X162627000Y-39172302D01*
X163290856Y-39172302D01*
X163318638Y-39727368D01*
X163477603Y-40111143D01*
X163719787Y-40180608D01*
X164520395Y-39380000D01*
X164879605Y-39380000D01*
X165680213Y-40180608D01*
X165922397Y-40111143D01*
X166109144Y-39587698D01*
X166081362Y-39032632D01*
X165922397Y-38648857D01*
X165680213Y-38579392D01*
X164879605Y-39380000D01*
X164520395Y-39380000D01*
X163719787Y-38579392D01*
X163477603Y-38648857D01*
X163290856Y-39172302D01*
X162627000Y-39172302D01*
X162627000Y-38399787D01*
X163899392Y-38399787D01*
X164700000Y-39200395D01*
X165500608Y-38399787D01*
X165431143Y-38157603D01*
X164907698Y-37970856D01*
X164352632Y-37998638D01*
X163968857Y-38157603D01*
X163899392Y-38399787D01*
X162627000Y-38399787D01*
X162627000Y-36087000D01*
X204873000Y-36087000D01*
X204873000Y-103833000D01*
M02*
