G04 #@! TF.FileFunction,Legend,Bot*
%FSLAX46Y46*%
G04 Gerber Fmt 4.6, Leading zero omitted, Abs format (unit mm)*
G04 Created by KiCad (PCBNEW 4.0.7-e2-6376~58~ubuntu16.04.1) date Mon Jan  1 21:06:32 2018*
%MOMM*%
%LPD*%
G01*
G04 APERTURE LIST*
%ADD10C,0.100000*%
%ADD11C,0.200000*%
G04 APERTURE END LIST*
D10*
D11*
X108500000Y-87960000D02*
X106500000Y-87960000D01*
X111000000Y-87960000D02*
X109000000Y-87960000D01*
X113500000Y-87960000D02*
X111500000Y-87960000D01*
X116000000Y-87960000D02*
X114000000Y-87960000D01*
X149000000Y-87960000D02*
X147000000Y-87960000D01*
X149000000Y-85960000D02*
X149000000Y-87960000D01*
X149000000Y-42580000D02*
X149000000Y-44580000D01*
X149000000Y-40040000D02*
X149000000Y-42040000D01*
X149000000Y-37500000D02*
X149000000Y-39500000D01*
X116500000Y-88000000D02*
X118500000Y-88000000D01*
X119040000Y-88000000D02*
X121040000Y-88000000D01*
X121580000Y-88000000D02*
X123580000Y-88000000D01*
X124120000Y-88000000D02*
X126120000Y-88000000D01*
X126660000Y-88000000D02*
X128660000Y-88000000D01*
X129200000Y-88000000D02*
X131200000Y-88000000D01*
X131740000Y-88000000D02*
X133740000Y-88000000D01*
X134280000Y-88000000D02*
X136280000Y-88000000D01*
X136820000Y-88000000D02*
X138820000Y-88000000D01*
X139360000Y-88000000D02*
X141360000Y-88000000D01*
X141900000Y-88000000D02*
X143900000Y-88000000D01*
X144440000Y-88000000D02*
X146440000Y-88000000D01*
X144440000Y-88000000D02*
X146440000Y-88000000D01*
X141900000Y-88000000D02*
X143900000Y-88000000D01*
X139360000Y-88000000D02*
X141360000Y-88000000D01*
X136820000Y-88000000D02*
X138820000Y-88000000D01*
X134280000Y-88000000D02*
X136280000Y-88000000D01*
X131740000Y-88000000D02*
X133740000Y-88000000D01*
X129200000Y-88000000D02*
X131200000Y-88000000D01*
X126660000Y-88000000D02*
X128660000Y-88000000D01*
X124120000Y-88000000D02*
X126120000Y-88000000D01*
X121580000Y-88000000D02*
X123580000Y-88000000D01*
X119040000Y-88000000D02*
X121040000Y-88000000D01*
X116500000Y-88000000D02*
X118500000Y-88000000D01*
X149000000Y-83220000D02*
X149000000Y-85220000D01*
X149000000Y-80680000D02*
X149000000Y-82680000D01*
X149000000Y-78140000D02*
X149000000Y-80140000D01*
X149000000Y-75600000D02*
X149000000Y-77600000D01*
X149000000Y-73060000D02*
X149000000Y-75060000D01*
X149000000Y-70520000D02*
X149000000Y-72520000D01*
X149000000Y-67980000D02*
X149000000Y-69980000D01*
X149000000Y-65440000D02*
X149000000Y-67440000D01*
X149000000Y-62900000D02*
X149000000Y-64900000D01*
X149000000Y-60360000D02*
X149000000Y-62360000D01*
X149000000Y-57820000D02*
X149000000Y-59820000D01*
X149000000Y-55280000D02*
X149000000Y-57280000D01*
X149000000Y-52740000D02*
X149000000Y-54740000D01*
X149000000Y-50200000D02*
X149000000Y-52200000D01*
X149000000Y-47660000D02*
X149000000Y-49660000D01*
X149000000Y-45120000D02*
X149000000Y-47120000D01*
M02*
